<svg xmlns="http://www.w3.org/2000/svg" width="44" height="44" viewBox="0 0 44 44"><g transform="translate(-619 -19)"><path d="M22,1a21.006,21.006,0,0,0-8.174,40.35A21.006,21.006,0,0,0,30.174,2.65,20.868,20.868,0,0,0,22,1m0-1A22,22,0,1,1,0,22,22,22,0,0,1,22,0Z" transform="translate(619 19)" fill="#fff"/><g transform="translate(626.622 32.32)"><g transform="translate(0.08 0.003)"><path d="M122.358,83.834a.681.681,0,0,1-.238-.165v-.016c.071-.562,0-1.067.06-1.634.22-2.223,1.613-1.521,2.867-1.872a2.222,2.222,0,0,0,1.757-1.591,15.924,15.924,0,0,0-2.855-2.626,16.248,16.248,0,0,0-11.86-2.726,6.082,6.082,0,0,0,7.45,2.664,5.468,5.468,0,0,0-.477,1.674c-.558,2.837-2.178,2.614-4.173,1.9-4.15-1.492-6.44-.1-8.513-2.955a1.9,1.9,0,0,0,.439,3.5c-1.569,1.656-.32,4.028-3.057,4.531-1.092.057-1.071.787-1.456,1.89-.5,1.428-1.15,1.994-2.432,3.348a1.3,1.3,0,0,0,1.636.483c1.152-.482,2.038-1.977,2.878-2.943.931-1.077,3.169-.616,4.868-1.667a3.654,3.654,0,0,0,1.16-1.144c2.323-1.189,5.953,2.965,8.9,2.323a4.366,4.366,0,0,0,3.221.181,4.592,4.592,0,0,1,2.23-.353,2.271,2.271,0,0,1,1.511.933,1.259,1.259,0,0,0,2.2-.01C127.158,84.2,123.437,84.289,122.358,83.834Z" transform="translate(-99.87 -72.999)" fill="#fff"/><path d="M214.9,89.906a6.079,6.079,0,0,1-6.209-1.136,15.431,15.431,0,0,0-1.689.7A6.082,6.082,0,0,0,214.9,89.906Z" transform="translate(-195.235 -87.037)" fill="#fff"/><path d="M215.205,88.77q-.448.155-.885.336a6.082,6.082,0,0,0,7.094.8h0A6.079,6.079,0,0,1,215.205,88.77Z" transform="translate(-201.751 -87.037)" fill="#fff"/><g transform="translate(16.615 9.884)"><path d="M253.98,166.915a4.063,4.063,0,0,1-1.4-1.121,2.983,2.983,0,0,1-.708-2.794,2.974,2.974,0,0,0-.592,2.821,4.08,4.08,0,0,0,.261.785A4.341,4.341,0,0,0,253.98,166.915Z" transform="translate(-251.167 -163)" fill="#fff"/></g><path d="M294.167,142.892v-.016c.071-.562,0-1.067.06-1.634.139-1.389.736-1.636,1.468-1.712a2.782,2.782,0,0,0-2.555,1.5C293.9,141.667,293.784,142.489,294.167,142.892Z" transform="translate(-271.916 -132.221)" fill="#fff"/><g transform="translate(5.53 3.484)" opacity="0.85"><path d="M155.67,106.828c-1.828-.2-3.185-.348-4.467-2.108a1.9,1.9,0,0,0,.439,3.5A5.589,5.589,0,0,1,155.67,106.828Z" transform="translate(-150.231 -104.72)" fill="#fff"/></g><g transform="translate(10.337 9.235)"><path d="M203.091,161.654h0a4.055,4.055,0,0,1-1.245-.93,5.411,5.411,0,0,1-3.019-1.89c-1.705-2.25-4.826-1.679-4.826-1.679a3.185,3.185,0,0,1,.19,2.177C196.518,158.143,200.15,162.3,203.091,161.654Z" transform="translate(-194 -157.091)" fill="#fff"/></g><path d="M307.75,172.65Z" transform="translate(-284.921 -161.706)" fill="#fff"/><path d="M161.792,108.136a6.147,6.147,0,0,1-2.077-.461c-4.15-1.492-6.44-.1-8.513-2.955a1.9,1.9,0,0,0,.439,3.5,5.74,5.74,0,0,0-1.118,2.8l4.513-.478C154.577,108.215,160.3,108.543,161.792,108.136Z" transform="translate(-144.7 -101.236)" fill="#fff" opacity="0.8"/><path d="M222.745,75.786A16.27,16.27,0,0,0,211.08,73.2a6.082,6.082,0,0,0,7.45,2.664h0A5.651,5.651,0,0,1,222.745,75.786Z" transform="translate(-198.867 -72.993)" fill="#fff" opacity="0.85"/><path d="M269.732,85.507a15.926,15.926,0,0,0-2.855-2.626,15.522,15.522,0,0,0-4.09-2.071h0l-.322,2.01h0l-.045.088a7.629,7.629,0,0,0-.432,1.586c-.264,1.342-.769,2-1.428,2.242-.027.01-.058.021-.092.031l-.038.011h0c3.617-.571,3-4.26,6.069-1.954C267.353,85.474,268.258,86.223,269.732,85.507Z" transform="translate(-242.798 -79.952)" fill="#fff"/><path d="M269.732,85.507a15.926,15.926,0,0,0-2.855-2.626,15.522,15.522,0,0,0-4.09-2.071h0l-.322,2.01h0l-.045.088a7.629,7.629,0,0,0-.432,1.586c-.264,1.342-.769,2-1.428,2.242-.027.01-.058.021-.092.031l-.038.011h0c3.617-.571,3-4.26,6.069-1.954C267.353,85.474,268.258,86.223,269.732,85.507Z" transform="translate(-242.798 -79.952)" fill="#fff"/><path d="M203.153,153.843a4.064,4.064,0,0,1-1.4-1.121,4.954,4.954,0,0,1-.6-.988c-1.055-2.23-1.051-4.929-7.084-2.394a1.463,1.463,0,0,1,.19,2.177c1.647-.844,3.96,1.007,6.215,1.921.21.085.4.155.6.22A3.934,3.934,0,0,0,203.153,153.843Z" transform="translate(-183.725 -140.044)" fill="#fff" opacity="0.75"/><path d="M127.11,164.63a2.108,2.108,0,0,1-1.849,1.447c-.821.043-1.013.468-1.221,1.144h0A3.482,3.482,0,0,0,127.11,164.63Z" transform="translate(-121.386 -154.567)" fill="#fff"/><path d="M282.231,193.6a8.435,8.435,0,0,0-3.9-.339l-1.556.513h0a4.366,4.366,0,0,0,3.221.181,4.592,4.592,0,0,1,2.23-.353h0Z" transform="translate(-257.352 -179.974)" fill="#fff"/></g></g></g></svg>