<svg xmlns="http://www.w3.org/2000/svg" width="44" height="44" viewBox="0 0 44 44"><g transform="translate(-727 -19)"><path d="M22,1a21.006,21.006,0,0,0-8.174,40.35A21.006,21.006,0,0,0,30.174,2.65,20.868,20.868,0,0,0,22,1m0-1A22,22,0,1,1,0,22,22,22,0,0,1,22,0Z" transform="translate(727 19)" fill="#fff"/><g transform="translate(712.085 -214.9)"><path d="M52.631,278.967a4.21,4.21,0,0,0-2.617-.684,8.317,8.317,0,0,0-1.353.119,5.1,5.1,0,0,0-2.29-3.434l-.461-.268-.3.431a6.357,6.357,0,0,0-.818,1.9,4.518,4.518,0,0,0,.535,3.553,6.308,6.308,0,0,1-2.334.565H21.885a1,1,0,0,0-1,1,15.044,15.044,0,0,0,.922,5.427,8.139,8.139,0,0,0,3.211,4.178,14.214,14.214,0,0,0,7.047,1.516,21.614,21.614,0,0,0,3.91-.357,16.137,16.137,0,0,0,5.114-1.858,14,14,0,0,0,3.479-2.855,18.928,18.928,0,0,0,3.4-5.873h.3a4.892,4.892,0,0,0,3.583-1.353,3.959,3.959,0,0,0,.952-1.4l.134-.387Z" transform="translate(0 -25.369)" fill="#fff"/><path d="M39.353,296.633h2.825a.251.251,0,0,0,.253-.253h0v-2.527a.251.251,0,0,0-.253-.253H39.353a.251.251,0,0,0-.253.253h0v2.527a.26.26,0,0,0,.253.253h0" transform="translate(-15.505 -41.46)" fill="#fff"/><path d="M65.553,296.633h2.825a.251.251,0,0,0,.253-.253h0v-2.527a.251.251,0,0,0-.253-.253H65.553a.251.251,0,0,0-.253.253v2.527a.26.26,0,0,0,.253.253" transform="translate(-37.81 -41.46)" fill="#fff"/><path d="M92.253,296.633h2.825a.251.251,0,0,0,.253-.253h0v-2.527a.251.251,0,0,0-.253-.253H92.253a.251.251,0,0,0-.253.253h0v2.527a.242.242,0,0,0,.253.253h0" transform="translate(-60.54 -41.46)" fill="#fff"/><path d="M118.553,296.633h2.825a.251.251,0,0,0,.253-.253v-2.527a.251.251,0,0,0-.253-.253h-2.825a.251.251,0,0,0-.253.253h0v2.527a.251.251,0,0,0,.253.253h0" transform="translate(-82.93 -41.46)" fill="#fff"/><path d="M65.553,272.333h2.825a.261.261,0,0,0,.253-.253v-2.527a.251.251,0,0,0-.253-.253H65.553a.251.251,0,0,0-.253.253v2.527a.272.272,0,0,0,.253.253" transform="translate(-37.81 -20.772)" fill="#fff"/><path d="M92.253,272.333h2.825a.261.261,0,0,0,.253-.253v-2.527a.251.251,0,0,0-.253-.253H92.253a.251.251,0,0,0-.253.253h0v2.527a.251.251,0,0,0,.253.253" transform="translate(-60.54 -20.772)" fill="#fff"/><path d="M118.553,272.333h2.825a.261.261,0,0,0,.253-.253v-2.527a.261.261,0,0,0-.253-.253h-2.825a.251.251,0,0,0-.253.253h0v2.527a.261.261,0,0,0,.253.253" transform="translate(-82.93 -20.772)" fill="#fff"/><path d="M118.553,247.933h2.825a.251.251,0,0,0,.253-.253v-2.527a.261.261,0,0,0-.253-.253h-2.825a.251.251,0,0,0-.253.253h0v2.527a.261.261,0,0,0,.253.253" transform="translate(-82.93)" fill="#fff"/><path d="M145.053,296.633h2.825a.251.251,0,0,0,.253-.253v-2.527a.251.251,0,0,0-.253-.253h-2.825a.251.251,0,0,0-.253.253h0v2.527a.26.26,0,0,0,.253.253" transform="translate(-105.49 -41.46)" fill="#fff"/></g></g></svg>