<svg xmlns="http://www.w3.org/2000/svg" width="44" height="44" viewBox="0 0 44 44"><g transform="translate(-835 -19)"><path d="M22,1a21.006,21.006,0,0,0-8.174,40.35A21.006,21.006,0,0,0,30.174,2.65,20.868,20.868,0,0,0,22,1m0-1A22,22,0,1,1,0,22,22,22,0,0,1,22,0Z" transform="translate(835 19)" fill="#fff"/><path d="M69.334,29.812A4.122,4.122,0,0,0,67.5,22H60.118a4.122,4.122,0,0,0-1.838,7.811,4.12,4.12,0,0,0,0,7.377,4.122,4.122,0,1,0,5.961,3.689V36.027a4.121,4.121,0,1,0,5.093-6.214Zm1.417-3.689A3.258,3.258,0,0,1,67.5,29.378H64.241V22.869H67.5A3.258,3.258,0,0,1,70.75,26.124ZM64.97,30.246a4.158,4.158,0,0,0-.729.729v-.729Zm-8.106-4.123a3.258,3.258,0,0,1,3.255-3.255h3.255v6.509H60.116A3.258,3.258,0,0,1,56.864,26.124Zm3.255,18.009a3.255,3.255,0,1,1,0-6.509h3.255v3.255A3.258,3.258,0,0,1,60.118,44.133Zm3.255-7.377H60.118a3.255,3.255,0,0,1,0-6.509h3.257Zm4.123,0a3.255,3.255,0,0,1,0-6.509H67.5a3.255,3.255,0,1,1,0,6.509Z" transform="translate(793.193 7.999)" fill="#fff"/></g></svg>