<svg xmlns="http://www.w3.org/2000/svg" width="44" height="44" viewBox="0 0 44 44"><g transform="translate(-781 -19)"><path d="M22,1a21.006,21.006,0,0,0-8.174,40.35A21.006,21.006,0,0,0,30.174,2.65,20.868,20.868,0,0,0,22,1m0-1A22,22,0,1,1,0,22,22,22,0,0,1,22,0Z" transform="translate(781 19)" fill="#fff"/><g transform="translate(791.271 30)"><g transform="translate(-0.018 0)"><path d="M11.786,0A11.791,11.791,0,0,0,8.058,22.981c.594.109.8-.261.8-.572v-2c-3.293.717-3.988-1.585-3.988-1.585a3.156,3.156,0,0,0-1.31-1.73c-1.064-.724.087-.724.087-.724a2.483,2.483,0,0,1,1.8,1.216,2.519,2.519,0,0,0,3.431.984,2.5,2.5,0,0,1,.724-1.578c-2.62-.3-5.371-1.31-5.371-5.79A4.56,4.56,0,0,1,5.445,8.034a4.3,4.3,0,0,1,.116-3.12S6.553,4.6,8.8,6.123a11.154,11.154,0,0,1,5.906,0c2.251-1.527,3.235-1.209,3.235-1.209a4.278,4.278,0,0,1,.145,3.1A4.56,4.56,0,0,1,19.3,11.175c0,4.531-2.758,5.523-5.385,5.79a2.787,2.787,0,0,1,.8,2.171c0,1.578,0,2.852,0,3.235s.21.68.811.565A11.791,11.791,0,0,0,11.786,0Z" transform="translate(0.018 0)" fill="#fff" fill-rule="evenodd"/></g></g></g></svg>