<svg xmlns="http://www.w3.org/2000/svg" width="44" height="44" viewBox="0 0 44 44"><g transform="translate(-25 -19)"><path d="M22,1a21.006,21.006,0,0,0-8.174,40.35A21.006,21.006,0,0,0,30.174,2.65,20.868,20.868,0,0,0,22,1m0-1A22,22,0,1,1,0,22,22,22,0,0,1,22,0Z" transform="translate(25 19)" fill="#fff"/><path d="M30.269,0l1.845,20.7L40.4,23l8.3-2.3L50.549,0Zm16.85,19.38-6.676,1.85v.011l-.017-.005-.017.005V21.23l-6.676-1.85L32.155,1.692H48.7Zm-3.594-7.471L43.232,15.2l-2.829.761H40.4L37.57,15.2l-.181-2.027H34.84l.356,3.987L40.4,18.6h.011l5.2-1.442.7-7.792H37.049l-.23-2.6h9.715l.226-2.538H34.042l.685,7.677Z" transform="translate(6.731 30)" fill="#fff"/></g></svg>