<svg xmlns="http://www.w3.org/2000/svg" xmlns:xlink="http://www.w3.org/1999/xlink" width="44" height="44" viewBox="0 0 44 44"><defs><clipPath id="a"><path d="M3.037,17.423H0c.6-1.712,1.179-3.312,1.716-4.756.564-1.511,1.1-2.9,1.589-4.13.5-1.255,1.018-2.5,1.543-3.712S5.9,2.444,6.427,1.344h2.76c.53,1.118,1.06,2.29,1.578,3.479.524,1.207,1.043,2.456,1.543,3.712.509,1.277,1.045,2.666,1.6,4.129s1.136,3.072,1.727,4.759H12.481c-.207-.607-.433-1.239-.674-1.879s-.467-1.284-.673-1.9H4.362c-.23.688-.453,1.332-.662,1.914C3.47,16.2,3.248,16.825,3.037,17.423ZM7.746,4.454c-.369.851-.767,1.829-1.217,2.992-.465,1.2-.946,2.489-1.427,3.828h5.292c-.475-1.322-.959-2.618-1.439-3.851C8.489,6.229,8.083,5.23,7.748,4.454ZM19.788,17.423H16.981V5.289h2.807ZM18.373,3.456a1.773,1.773,0,0,1-1.23-.463,1.618,1.618,0,0,1-.51-1.25,1.648,1.648,0,0,1,.51-1.279A1.773,1.773,0,0,1,18.373,0a1.742,1.742,0,0,1,1.207.463,1.65,1.65,0,0,1,.51,1.279,1.621,1.621,0,0,1-.509,1.252A1.742,1.742,0,0,1,18.373,3.456Z" transform="translate(0 0.001)" fill="#fff"/></clipPath></defs><g transform="translate(-349 -19)"><path d="M22,1a21.006,21.006,0,0,0-8.174,40.35A21.006,21.006,0,0,0,30.174,2.65,20.868,20.868,0,0,0,22,1m0-1A22,22,0,1,1,0,22,22,22,0,0,1,22,0Z" transform="translate(349 19)" fill="#fff"/><g transform="translate(361 32)" clip-path="url(#a)"><rect width="37.117" height="37.117" transform="translate(-7.829 -9.256)" fill="#fff"/></g></g></svg>