<svg xmlns="http://www.w3.org/2000/svg" width="44" height="44" viewBox="0 0 44 44"><g transform="translate(-79 -19)"><path d="M22,1a21.006,21.006,0,0,0-8.174,40.35A21.006,21.006,0,0,0,30.174,2.65,20.868,20.868,0,0,0,22,1m0-1A22,22,0,1,1,0,22,22,22,0,0,1,22,0Z" transform="translate(79 19)" fill="#fff"/><path d="M17.046,3a.59.59,0,0,0-.163.049,3.973,3.973,0,0,0-1.058,1.015,4.686,4.686,0,0,0-.8,2.585,5.161,5.161,0,0,0,.4,2.033,6.273,6.273,0,0,0,3.534,3.388l.2.069c.008,0,.086.029.1.031l.057.02a2.382,2.382,0,0,0,.247.069,7.253,7.253,0,0,0,1.2.143h.2A4.707,4.707,0,0,0,25.3,9.715a1.717,1.717,0,0,1,.088-.152v0a.523.523,0,0,0-.863-.588h0c-.764,1.125-2.07,1.466-3.881,1.017a3.729,3.729,0,0,1-.414-.133,5,5,0,0,1-.5-.21,5.264,5.264,0,0,1-.885-.552c-1.592-1.235-2.216-3.805-1.284-5.29a.523.523,0,0,0-.511-.8ZM12.415,4.045a.511.511,0,0,0-.337.119A12.416,12.416,0,0,0,10.445,5.9a.138.138,0,0,1-.014.023,7.519,7.519,0,0,0-.273,7.544,9.375,9.375,0,0,0,.661,1.121l.072.1a4.858,4.858,0,0,0,.718.892c.1.115.208.225.314.331l.051.053.043.043c.108.1.218.21.333.312h0a.188.188,0,0,0,.03.031c.129.115.259.223.433.359l.046.035q.222.178.455.341c.049.033.1.063.147.1l.049.032.057.037c.1.069.206.133.351.217.092.057.193.114.259.146.028.017.059.033.131.072l.159.084.053.024c.1.053.212.1.322.153l.166.074c.108.046.218.092.353.143l.062.022a.588.588,0,0,0,.059.024c.1.035.2.069.3.1l.23.075a2.511,2.511,0,0,0,.392.108,12.629,12.629,0,0,0,2.06.18h.23A7.64,7.64,0,0,0,25.977,13.6a.522.522,0,0,0-.933-.441A6.377,6.377,0,0,1,18,15.459c-.131-.032-.257-.069-.414-.12q-.046-.015-.092-.033-.144-.046-.284-.1l-.145-.055c-.084-.032-.167-.065-.269-.11l-.068-.031c-.124-.052-.245-.112-.353-.165l-.3-.155a2.5,2.5,0,0,1-.218-.124l-.051-.029-.051-.03q-.113-.066-.221-.141l-.049-.03L15.44,14.3l-.178-.114c-.126-.092-.251-.184-.4-.3l-.057-.046A8.4,8.4,0,0,1,12,9.788a6.5,6.5,0,0,1,.863-4.954.52.52,0,0,0-.114-.66.515.515,0,0,0-.333-.124ZM6.665,5.613a.527.527,0,0,0-.351.135,11.472,11.472,0,0,0-1.828,2.19c-2.136,3.111-1.724,7.943-.258,10.9.028.061.059.12.092.18l.02.032a1.05,1.05,0,0,0,.068.133.506.506,0,0,0,.051.092c.024.051.049.1.092.173l.167.287.057.092c.032.053.068.108.1.164l.081.131a.886.886,0,0,0,.065.092c.081.126.164.253.253.373a.069.069,0,0,0,.012.015l.033.046c.073.106.149.208.216.292l.3.378s.037.043.039.046l.043.049c.092.11.184.221.282.327.014.017.028.031.042.046.092.1.184.2.284.3l.092.092c.077.081.155.161.237.237l.039.039.081.076c.1.092.2.188.276.253,0,.006.077.069.084.074.1.086.192.167.29.247l.5.4.267.195c.033.024.068.049.1.071a.351.351,0,0,0,.041.031l.376.251c.138.092.273.173.441.276l.092.051c.1.062.21.123.31.176.059.033.118.062.169.088.072.039.149.082.268.138q.244.123.494.233a.538.538,0,0,0,.049.024q.256.109.514.212c.126.049.259.1.368.138l.076.031q.268.092.539.173l.1.032a3.694,3.694,0,0,0,.39.106,15.768,15.768,0,0,0,2.82.274h0a10.478,10.478,0,0,0,9.9-6.087.523.523,0,0,0-.906-.5c-1.921,2.53-5.546,3.469-9.695,2.515q-.152-.038-.3-.084l-.2-.059q-.2-.062-.394-.131l-.061-.023c-.115-.039-.23-.084-.329-.123l-.115-.046c-.126-.051-.253-.1-.375-.159L13,21.271c-.11-.051-.216-.1-.322-.153q-.05-.025-.1-.046c-.073-.037-.146-.075-.241-.126l-.427-.23a1.461,1.461,0,0,0-.131-.078c-.129-.08-.261-.16-.392-.243-.031-.018-.057-.039-.108-.073-.092-.057-.178-.116-.306-.207l-.051-.037c-.088-.061-.173-.126-.245-.18-.046-.032-.092-.069-.164-.124s-.131-.1-.192-.149l-.115-.092c-.1-.078-.184-.16-.28-.239a.266.266,0,0,0-.037-.031c-.1-.1-.211-.192-.337-.312l-.368-.368q-.144-.146-.282-.3c-.092-.1-.184-.209-.3-.352l-.221-.269a1.4,1.4,0,0,0-.092-.119c-.075-.1-.151-.2-.226-.308C6.027,14.436,5.5,8.59,7.08,6.447a.523.523,0,0,0-.419-.833Z" transform="translate(86.498 27.002)" fill="#fff"/></g></svg>