<svg xmlns="http://www.w3.org/2000/svg" xmlns:xlink="http://www.w3.org/1999/xlink" width="44" height="44" viewBox="0 0 44 44"><defs><linearGradient id="a" x1="-4.445" y1="2.583" x2="-3.692" y2="3.288" gradientUnits="objectBoundingBox"><stop offset="0"/><stop offset="1" stop-color="#fff"/></linearGradient><linearGradient id="b" x1="-4.395" y1="3.287" x2="-5.248" y2="2.582" gradientUnits="objectBoundingBox"><stop offset="0" stop-color="#eee"/><stop offset="1" stop-color="#fff"/></linearGradient></defs><g transform="translate(-25 -73)"><path d="M22,1a21.006,21.006,0,0,0-8.174,40.35A21.006,21.006,0,0,0,30.174,2.65,20.868,20.868,0,0,0,22,1m0-1A22,22,0,1,1,0,22,22,22,0,0,1,22,0Z" transform="translate(25 73)" fill="#fff"/><g transform="translate(34.374 82.374)"><path d="M12.6,18.88C18.191,26.5,23.659,16.755,23.651,10.9,23.641,3.97,16.621.1,12.6.1A12.731,12.731,0,0,0,0,12.731c0,8.112,7.045,12.6,12.6,12.6-1.257-.181-5.446-1.079-5.5-10.727C7.06,8.083,9.226,5.476,12.591,6.623A6.409,6.409,0,0,1,16.3,12.77a6.432,6.432,0,0,1-3.7,6.11Z" transform="translate(0 -0.083)" fill-rule="evenodd" fill="url(#a)"/><path d="M35.994,6.534C32.3,5.262,27.78,8.3,27.78,14.4c0,9.951,7.374,10.854,8.268,10.854a12.731,12.731,0,0,0,12.6-12.632c0-8.112-7.045-12.6-12.6-12.6,1.538-.213,8.292,1.665,8.292,10.9,0,6.02-5.043,9.3-8.323,7.9a6.409,6.409,0,0,1-3.711-6.147,6.466,6.466,0,0,1,3.688-6.126Z" transform="translate(-23.396 0)" fill-rule="evenodd" fill="url(#b)"/></g></g></svg>