<svg xmlns="http://www.w3.org/2000/svg" width="44" height="44" viewBox="0 0 44 44"><g transform="translate(-565 -19)"><path d="M22,1a21.006,21.006,0,0,0-8.174,40.35A21.006,21.006,0,0,0,30.174,2.65,20.868,20.868,0,0,0,22,1m0-1A22,22,0,1,1,0,22,22,22,0,0,1,22,0Z" transform="translate(565 19)" fill="#fff"/><g transform="translate(575.5 29.676)"><path d="M11.245.331c-.049,0-.207.02-.348.031A11.526,11.526,0,0,0,2.633,5.128,11.383,11.383,0,0,0,.6,10.152a8.8,8.8,0,0,0-.1,1.675A8.8,8.8,0,0,0,.6,13.5a11.546,11.546,0,0,0,7.866,9.291,12.157,12.157,0,0,0,2.428.5,21.182,21.182,0,0,0,2.2,0,11.61,11.61,0,0,0,4.143-1.212c.2-.1.236-.128.209-.151s-.861-1.144-1.873-2.511l-1.839-2.484-2.3-3.41c-1.268-1.875-2.311-3.408-2.32-3.408s-.018,1.513-.022,3.363a26.4,26.4,0,0,1-.049,3.446.409.409,0,0,1-.2.2c-.072.036-.135.043-.474.043H7.983l-.1-.065a.42.42,0,0,1-.151-.164l-.047-.1,0-4.507L7.694,7.83l.07-.088a.617.617,0,0,1,.166-.137c.092-.045.128-.049.517-.049.459,0,.535.018.654.148.034.036,1.281,1.915,2.774,4.179s3.534,5.355,4.536,6.872l1.821,2.758.092-.061a11.8,11.8,0,0,0,2.363-2.073A11.447,11.447,0,0,0,23.393,13.5a8.8,8.8,0,0,0,.1-1.675,8.8,8.8,0,0,0-.1-1.675A11.546,11.546,0,0,0,15.528.861a12.072,12.072,0,0,0-2.394-.5c-.216-.022-1.7-.047-1.888-.029Zm4.707,6.955a.454.454,0,0,1,.227.265c.018.058.022,1.308.018,4.125l-.007,4.042-.713-1.093-.715-1.093V10.595c0-1.9.009-2.967.022-3.019a.459.459,0,0,1,.223-.283c.092-.047.126-.052.479-.052.333,0,.391,0,.465.045Z" transform="translate(0 0)" fill="#fff"/><path d="M757.661,943.047c-.079.049-.1.083-.034.045.049-.029.13-.09.117-.092A.459.459,0,0,0,757.661,943.047Zm-.155.1c-.04.031-.04.034.009.009a.138.138,0,0,0,.049-.034C757.564,943.106,757.553,943.11,757.506,943.148Zm-.112.067c-.04.031-.04.034.009.009a.137.137,0,0,0,.049-.034C757.452,943.173,757.44,943.178,757.393,943.216Zm-.112.068c-.04.031-.04.034.009.009a.135.135,0,0,0,.049-.034C757.339,943.241,757.328,943.245,757.281,943.283Zm-.171.09c-.085.045-.081.063,0,.02a.234.234,0,0,0,.067-.045C757.182,943.333,757.18,943.335,757.11,943.373Z" transform="translate(-739.541 -921.484)" fill="#fff"/></g></g></svg>