<svg xmlns="http://www.w3.org/2000/svg" width="44" height="44" viewBox="0 0 44 44"><g transform="translate(-673 -19)"><path d="M22,1a21.006,21.006,0,0,0-8.174,40.35A21.006,21.006,0,0,0,30.174,2.65,20.868,20.868,0,0,0,22,1m0-1A22,22,0,1,1,0,22,22,22,0,0,1,22,0Z" transform="translate(673 19)" fill="#fff"/><g transform="translate(649.627 30)"><path d="M216.448,23a3.306,3.306,0,0,1-2.326-.975l-10.664-10.66v8.305a3.329,3.329,0,1,1-6.658,0V3.329A3.318,3.318,0,0,1,198.853.254,3.277,3.277,0,0,1,200.124,0a3.312,3.312,0,0,1,2.354.975l10.669,10.66V3.329a3.326,3.326,0,1,1,6.653,0V19.671A3.335,3.335,0,0,1,216.471,23h-.024Z" transform="translate(-162.927 0)" fill="#fff"/><path d="M240.58,45.727a2.146,2.146,0,0,1-1.516-.626L226.385,32.417V43.585a2.142,2.142,0,0,1-4.285,0V27.247a2.142,2.142,0,0,1,3.658-1.516l12.679,12.684V27.247a2.142,2.142,0,1,1,4.285,0V43.589a2.137,2.137,0,0,1-2.142,2.138" transform="translate(-187.036 -23.918)" fill="none"/></g></g></svg>