<svg xmlns="http://www.w3.org/2000/svg" xmlns:xlink="http://www.w3.org/1999/xlink" width="44" height="44" viewBox="0 0 44 44"><defs><clipPath id="a"><path d="M14.259,14.081a8.622,8.622,0,0,1-2.191-.227,11.476,11.476,0,0,1-1.167-.365l.414-2a10.772,10.772,0,0,0,1.278.414,6.6,6.6,0,0,0,1.69.2,3.164,3.164,0,0,0,1.382-.226.811.811,0,0,0,.434-.78,1.016,1.016,0,0,0-.464-.85,6.824,6.824,0,0,0-1.529-.731,12.252,12.252,0,0,1-1.2-.5,4.086,4.086,0,0,1-.938-.622,2.541,2.541,0,0,1-.628-.858A3,3,0,0,1,11.117,6.3a2.7,2.7,0,0,1,1.046-2.241,4.514,4.514,0,0,1,2.846-.82,8.775,8.775,0,0,1,1.738.168,8.428,8.428,0,0,1,1.244.326l-.434,1.936a5.858,5.858,0,0,0-1.008-.326,6.115,6.115,0,0,0-1.422-.148,2.489,2.489,0,0,0-1.185.247.813.813,0,0,0-.454.761,1.1,1.1,0,0,0,.089.454.976.976,0,0,0,.306.365,3.147,3.147,0,0,0,.573.336,8.835,8.835,0,0,0,.868.346,13.3,13.3,0,0,1,1.442.622,3.931,3.931,0,0,1,.978.69,2.374,2.374,0,0,1,.563.879,3.54,3.54,0,0,1,.178,1.186,2.562,2.562,0,0,1-1.1,2.241A5.49,5.49,0,0,1,14.259,14.081Zm-11.77-.256H0V.336A12.465,12.465,0,0,1,1.926.069C2.623.023,3.278,0,3.871,0A8.109,8.109,0,0,1,8.443,1.086a3.841,3.841,0,0,1,1.59,3.4,4.637,4.637,0,0,1-.425,2.065,3.577,3.577,0,0,1-1.234,1.4,5.725,5.725,0,0,1-1.975.8,12.479,12.479,0,0,1-2.666.257H2.488v4.82ZM4.049,2.152c-.629,0-1.152.02-1.561.06v4.66H3.7a6.145,6.145,0,0,0,2.765-.5,1.952,1.952,0,0,0,.968-1.906,2.27,2.27,0,0,0-.257-1.126,1.847,1.847,0,0,0-.713-.71,3.357,3.357,0,0,0-1.076-.366,7.837,7.837,0,0,0-1.333-.109Z" fill="#fff"/></clipPath></defs><g transform="translate(-403 -19)"><path d="M22,1a21.006,21.006,0,0,0-8.174,40.35A21.006,21.006,0,0,0,30.174,2.65,20.868,20.868,0,0,0,22,1m0-1A22,22,0,1,1,0,22,22,22,0,0,1,22,0Z" transform="translate(403 19)" fill="#fff"/><g transform="translate(415.755 34)" clip-path="url(#a)"><rect width="31.599" height="31.598" transform="translate(-7.268 -8.887)" fill="#fff"/></g></g></svg>