<svg xmlns="http://www.w3.org/2000/svg" width="44" height="44" viewBox="0 0 44 44"><g transform="translate(-187 -19)"><path d="M22,1a21.006,21.006,0,0,0-8.174,40.35A21.006,21.006,0,0,0,30.174,2.65,20.868,20.868,0,0,0,22,1m0-1A22,22,0,1,1,0,22,22,22,0,0,1,22,0Z" transform="translate(187 19)" fill="#fff"/><path d="M18.457,12C8.669,12,1,16.154,1,21.456s7.669,9.456,17.457,9.456,17.457-4.154,17.457-9.456S28.246,12,18.457,12Zm-1.813,2.91H18.55l-.6,2.91h1.7a3.3,3.3,0,0,1,2.216.529,1.865,1.865,0,0,1,.364,1.816l-.756,3.475H19.534l.7-3.215a1.077,1.077,0,0,0-.095-.909,1.34,1.34,0,0,0-.958-.242H17.651l-.921,4.364H14.82Zm-8.369,2.91h3.877a2.358,2.358,0,0,1,2.531,3.088c-.508,2.149-1.871,2.73-4.378,2.73h-1.2L8.726,25.82H6.8Zm15.275,0h3.877a2.358,2.358,0,0,1,2.531,3.088c-.508,2.149-1.871,2.73-4.377,2.73h-1.2L24,25.82H22.075ZM9.925,19.274l-.548,2.91h1.244c1.077,0,2.077-.122,2.245-1.728.062-.622-.2-1.182-1.44-1.182Zm15.275,0-.548,2.91H25.9c1.077,0,2.077-.122,2.245-1.728.062-.622-.2-1.182-1.441-1.182Z" transform="translate(190.543 19.544)" fill="#fff"/></g></svg>