<svg xmlns="http://www.w3.org/2000/svg" width="44" height="44" viewBox="0 0 44 44"><g transform="translate(-511 -19)"><path d="M22,1a21.006,21.006,0,0,0-8.174,40.35A21.006,21.006,0,0,0,30.174,2.65,20.868,20.868,0,0,0,22,1m0-1A22,22,0,1,1,0,22,22,22,0,0,1,22,0Z" transform="translate(511 19)" fill="#fff"/><g transform="translate(520.965 30.784)"><circle cx="2.268" cy="2.268" r="2.268" transform="translate(9.925 8.477)" fill="#fff"/><g transform="translate(0.035 0.011)"><path d="M12.192,7.042h0a26.154,26.154,0,0,1,8.23,1.208c2.887.994,4.611,2.522,4.611,4.086A3.327,3.327,0,0,1,23.6,14.8,10.949,10.949,0,0,1,20.13,16.59a26.271,26.271,0,0,1-7.938,1.087,25.894,25.894,0,0,1-8.1-1.1c-2.924-1-4.74-2.625-4.74-4.244,0-1.562,1.683-3.081,4.5-4.064A26.226,26.226,0,0,1,12.192,7.042Zm0,9.268A24.9,24.9,0,0,0,19.7,15.292c2.6-.863,3.966-2.14,3.966-2.956,0-.734-1.154-1.921-3.689-2.794a24.769,24.769,0,0,0-7.785-1.134h0A25.206,25.206,0,0,0,4.3,9.564C1.84,10.422.719,11.6.719,12.337c0,.818,1.31,2.094,3.815,2.95A24.552,24.552,0,0,0,12.193,16.31Z" transform="translate(-0.035 -1.603)" fill="#fff"/><path d="M18.633-.672a2.43,2.43,0,0,1,1.231.306A3.327,3.327,0,0,1,21.281,2.1a10.949,10.949,0,0,1-.182,3.9,26.257,26.257,0,0,1-3.024,7.419,25.886,25.886,0,0,1-5,6.47,8.011,8.011,0,0,1-4.761,2.3,2.535,2.535,0,0,1-1.283-.316c-1.353-.78-1.829-3-1.272-5.929a26.236,26.236,0,0,1,3.1-7.839l.216-.375h0A25.775,25.775,0,0,1,14.02,1.586,7.753,7.753,0,0,1,18.633-.672ZM8.317,20.829a6.836,6.836,0,0,0,3.861-1.964,24.545,24.545,0,0,0,4.712-6.123A24.882,24.882,0,0,0,19.76,5.73c.553-2.686.128-4.5-.579-4.912a1.091,1.091,0,0,0-.548-.123,6.71,6.71,0,0,0-3.716,1.923,24.77,24.77,0,0,0-4.871,6.177l-.08.138A25.072,25.072,0,0,0,7.1,16.206c-.487,2.562-.024,4.124.612,4.49A1.2,1.2,0,0,0,8.317,20.829Z" transform="translate(-1.311 -0.011)" fill="#fff"/><path d="M18.626,22.212a7.593,7.593,0,0,1-4.514-2.173,26.228,26.228,0,0,1-5.244-6.6A26.159,26.159,0,0,1,5.791,5.711C5.2,2.714,5.663.457,7.017-.327A2.491,2.491,0,0,1,8.282-.641c1.38,0,3.11.862,4.872,2.427A26.27,26.27,0,0,1,18.072,8.11a25.889,25.889,0,0,1,3.11,7.56c.6,3.031.1,5.417-1.3,6.228A2.477,2.477,0,0,1,18.626,22.212ZM8.282.726a1.153,1.153,0,0,0-.58.13c-.635.368-1.084,1.962-.57,4.592a24.774,24.774,0,0,0,2.919,7.305A25.208,25.208,0,0,0,15,19a6.534,6.534,0,0,0,3.622,1.842,1.138,1.138,0,0,0,.573-.13c.708-.41,1.156-2.183.642-4.78A24.9,24.9,0,0,0,16.889,8.8a24.894,24.894,0,0,0-4.642-5.988A7.071,7.071,0,0,0,8.282.726Z" transform="translate(-1.312 -0.018)" fill="#fff"/></g></g></g></svg>