<svg xmlns="http://www.w3.org/2000/svg" width="44" height="44" viewBox="0 0 44 44"><g transform="translate(-133 -19)"><path d="M22,1a21.006,21.006,0,0,0-8.174,40.35A21.006,21.006,0,0,0,30.174,2.65,20.868,20.868,0,0,0,22,1m0-1A22,22,0,1,1,0,22,22,22,0,0,1,22,0Z" transform="translate(133 19)" fill="#fff"/><path d="M57.553,206.835a6.216,6.216,0,0,0-2.72.63,5.732,5.732,0,0,1-.609-1.409,3.785,3.785,0,0,1-.055-1.185,10.519,10.519,0,0,1,.357-1.278c-.005-.055-.066-.312-.669-.318s-1.126.115-1.185.274a6.619,6.619,0,0,0-.252.894,21.08,21.08,0,0,1-1.837,3.532,3.416,3.416,0,0,1-.472-2.216,10.522,10.522,0,0,1,.357-1.278c-.005-.055-.066-.312-.669-.318s-1.126.115-1.185.274-.126.532-.252.894-1.59,3.631-1.974,4.475c-.2.433-.367.779-.488,1.014h0a.251.251,0,0,1-.022.045c-.1.2-.164.312-.164.312v.005c-.082.148-.17.285-.214.285a1.835,1.835,0,0,1,.011-.932c.219-1.135.74-2.9.735-2.962,0-.033.1-.34-.34-.5a.544.544,0,0,0-.62.1c-.038,0-.066.093-.066.093s.477-1.985-.91-1.985a4.141,4.141,0,0,0-2.656,1.8c-.373.2-1.168.636-2.018,1.1-.324.18-.658.36-.971.532-.022-.022-.045-.05-.066-.071-1.678-1.793-4.782-3.062-4.65-5.467.05-.878.351-3.181,5.961-5.978,4.6-2.293,8.276-1.662,8.912-.263.91,2-1.969,5.7-6.74,6.241a3.594,3.594,0,0,1-3.016-.762c-.252-.274-.291-.291-.384-.236-.154.082-.055.329,0,.472a2.816,2.816,0,0,0,1.722,1.355A9.169,9.169,0,0,0,46,203.464c2.89-1.119,5.15-4.228,4.486-6.833-.675-2.643-5.062-3.515-9.213-2.04a20.9,20.9,0,0,0-7.069,4.052c-2.287,2.139-2.649,4-2.5,4.777.532,2.764,4.343,4.563,5.868,5.9-.077.045-.148.082-.208.115-.762.378-3.669,1.9-4.393,3.5-.823,1.821.131,3.126.762,3.3a4.69,4.69,0,0,0,5.051-2.045,5.088,5.088,0,0,0,.455-4.667.115.115,0,0,0-.022-.033l.6-.351c.389-.23.773-.444,1.1-.62a7.228,7.228,0,0,0-.389,2,4.167,4.167,0,0,0,.894,2.9.988.988,0,0,0,.724.236c.647,0,.938-.538,1.261-1.174.395-.779.751-1.684.751-1.684s-.444,2.446.762,2.446c.439,0,.883-.57,1.081-.861v.005s.011-.017.033-.055l.071-.115V212.2c.176-.307.57-1,1.157-2.161.757-1.492,1.486-3.356,1.486-3.356a9.528,9.528,0,0,0,.291,1.212,11.409,11.409,0,0,0,.625,1.4c-.176.247-.285.384-.285.384l.005.005c-.143.186-.3.389-.466.585a17.479,17.479,0,0,0-1.409,1.766.479.479,0,0,0,.131.647,1.2,1.2,0,0,0,.735.121,3.374,3.374,0,0,0,1.1-.252,3.7,3.7,0,0,0,.949-.5,2.123,2.123,0,0,0,.91-1.87,3.776,3.776,0,0,0-.345-1.322c.055-.077.1-.154.159-.231a25.122,25.122,0,0,0,1.645-2.841A9.531,9.531,0,0,0,53.081,207a8.12,8.12,0,0,0,.532,1.207,5.212,5.212,0,0,0-1.6,2.067c-.345,1-.077,1.448.433,1.552a1.531,1.531,0,0,0,.8-.164,3.574,3.574,0,0,0,1.014-.521,2.282,2.282,0,0,0,1.119-1.854,3.5,3.5,0,0,0-.252-1.1,5.743,5.743,0,0,1,2.912-.335c2.611.307,3.126,1.936,3.027,2.621a1.735,1.735,0,0,1-.828,1.174c-.18.115-.241.154-.225.236.022.121.11.115.263.093a2.039,2.039,0,0,0,1.42-1.815C61.8,208.574,60.268,206.819,57.553,206.835Zm-20.138,6.789c-.867.945-2.071,1.3-2.594,1-.559-.324-.34-1.717.724-2.715a13.814,13.814,0,0,1,2.035-1.519c.126-.077.312-.186.538-.324.038-.022.06-.033.06-.033h0l.131-.082a3.746,3.746,0,0,1-.894,3.675Zm6.3-4.288c-.3.735-.932,2.616-1.316,2.512-.329-.088-.532-1.514-.066-2.923a6.641,6.641,0,0,1,1.026-1.881c.472-.526.99-.7,1.119-.488a9.5,9.5,0,0,1-.764,2.78Zm5.209,2.484c-.126.066-.247.11-.3.077-.038-.022.055-.11.055-.11s.653-.7.91-1.02c.148-.186.324-.405.51-.653v.071A2.183,2.183,0,0,1,48.928,211.821Zm4.014-.916c-.093-.066-.077-.285.236-.971a3.654,3.654,0,0,1,.894-1.152,1.553,1.553,0,0,1,.088.5,1.648,1.648,0,0,1-1.218,1.618Z" transform="translate(109.798 -163.876)" fill="#fff"/></g></svg>