<svg xmlns="http://www.w3.org/2000/svg" width="44" height="44" viewBox="0 0 44 44"><g transform="translate(-295 -19)"><path d="M22,1a21.006,21.006,0,0,0-8.174,40.35A21.006,21.006,0,0,0,30.174,2.65,20.868,20.868,0,0,0,22,1m0-1A22,22,0,1,1,0,22,22,22,0,0,1,22,0Z" transform="translate(295 19)" fill="#fff"/><g transform="translate(302.791 -185.168)"><path d="M2.905,218.3H26.1l.137.045a4.71,4.71,0,0,1,.861.248,2.53,2.53,0,0,1,1.47,2.414v8.844a2.5,2.5,0,0,1-.945,1.864,2.636,2.636,0,0,1-1.753.591c-2.625-.008-5.249,0-7.874,0-.088,0-.177.011-.291.018.373.916.731,1.794,1.107,2.713-.088-.048-.144-.07-.192-.1q-2.22-1.235-4.441-2.477a1.2,1.2,0,0,0-.605-.162q-5.216.005-10.429,0a3.623,3.623,0,0,1-.72-.063,2.615,2.615,0,0,1-2.027-2.6c.018-2.883,0-5.768.008-8.649a3.53,3.53,0,0,1,.015-.443A2.593,2.593,0,0,1,2.364,218.4C2.54,218.359,2.725,218.333,2.905,218.3Zm1.971,8.878a.75.75,0,0,1-.033-.092c-.269-1.318-.543-2.636-.8-3.957-.133-.687-.218-1.384-.336-2.076a.789.789,0,0,0-.615-.712,1.683,1.683,0,0,0-.472-.015.888.888,0,0,0-.843.9,10.119,10.119,0,0,0,.17,1.333c.266,1.461.528,2.916.824,4.371a19.806,19.806,0,0,0,.886,3.211,2.671,2.671,0,0,0,.355.624.53.53,0,0,0,.642.2,1.628,1.628,0,0,0,.679-.531,7.8,7.8,0,0,0,.949-1.517q.758-1.517,1.517-3.031a1.014,1.014,0,0,1,.077-.129c.1.314.2.609.3.9A10.833,10.833,0,0,0,10,230.112a3.822,3.822,0,0,0,.779.746.788.788,0,0,0,1.251-.469,2.319,2.319,0,0,0,.055-.679,17.088,17.088,0,0,1,.133-2.676c.144-1.019.285-2.038.469-3.049a9.776,9.776,0,0,1,.864-2.732.972.972,0,0,0,.088-.491.994.994,0,0,0-.831-.912.917.917,0,0,0-1.041.513,10.387,10.387,0,0,0-.506,1.159,20.868,20.868,0,0,0-.949,4.6c-.015.129-.033.258-.055.428-.037-.085-.055-.122-.07-.162a22.312,22.312,0,0,1-.871-3.076,5.957,5.957,0,0,0-.277-1.06.8.8,0,0,0-1.322-.251,2.12,2.12,0,0,0-.391.543c-.821,1.53-1.63,3.068-2.449,4.63Zm22.335-2.588a4.209,4.209,0,0,0-.361-1.75,2.866,2.866,0,0,0-3.839-1.513,3.477,3.477,0,0,0-1.491,1.4,6.075,6.075,0,0,0-.934,3.648A4.625,4.625,0,0,0,20.951,228a2.885,2.885,0,0,0,4.973.583,6.152,6.152,0,0,0,1.289-3.99Zm-7.18.082c-.008-.125-.015-.365-.041-.605a3.656,3.656,0,0,0-.692-1.857,2.768,2.768,0,0,0-2.729-1.1,2.829,2.829,0,0,0-1.934,1.2A6.019,6.019,0,0,0,13.4,226.37a4.545,4.545,0,0,0,.365,1.624,2.751,2.751,0,0,0,2.4,1.746,2.808,2.808,0,0,0,2.584-1.163,6.127,6.127,0,0,0,1.284-3.906Z" transform="translate(0 0)" fill="#fff"/><path d="M602.841,348.924a3.768,3.768,0,0,1-.48,1.872,2.153,2.153,0,0,1-.764.8.715.715,0,0,1-1.1-.273,2.915,2.915,0,0,1-.355-1.692,3.7,3.7,0,0,1,.842-2.082,1.1,1.1,0,0,1,.8-.484.673.673,0,0,1,.627.318A2.614,2.614,0,0,1,602.841,348.924Z" transform="translate(-577.593 -124.011)" fill="#fff"/><path d="M407.9,348.809a3.769,3.769,0,0,1-.672,2.171,1.785,1.785,0,0,1-.742.609.678.678,0,0,1-.879-.251,2.208,2.208,0,0,1-.385-1,3.561,3.561,0,0,1,.9-2.965,1.007,1.007,0,0,1,.731-.391.665.665,0,0,1,.572.262,2.294,2.294,0,0,1,.432,1.07C407.879,348.483,407.886,348.661,407.9,348.809Z" transform="translate(-389.834 -123.926)" fill="#fff"/></g></g></svg>