<svg xmlns="http://www.w3.org/2000/svg" width="44" height="44" viewBox="0 0 44 44"><g transform="translate(-241 -19)"><path d="M22,1a21.006,21.006,0,0,0-8.174,40.35A21.006,21.006,0,0,0,30.174,2.65,20.868,20.868,0,0,0,22,1m0-1A22,22,0,1,1,0,22,22,22,0,0,1,22,0Z" transform="translate(241 19)" fill="#fff"/><path d="M11.5,0A11.5,11.5,0,1,0,23,11.5,11.5,11.5,0,0,0,11.5,0Zm0,1.437A9.991,9.991,0,0,1,17,3.086,2.382,2.382,0,0,0,15.942,5.4a5.888,5.888,0,0,0,1.07,2.549c.69,1.173,1.542,2.632,1.328,3.686-.236.7-.834,2.28-1.482,3.969L13.886,7.07c.06-.016.128-.026.184-.046a.719.719,0,1,0-.456-1.363,9.171,9.171,0,0,1-2.386.2h-.4a9.187,9.187,0,0,1-2.386-.2A.719.719,0,0,0,7.99,7.024a5.039,5.039,0,0,0,1.026.2l1.768,4.6L9.113,16.037,6.256,7.1c.1-.024.217-.043.313-.076a.718.718,0,0,0-.454-1.363,9.24,9.24,0,0,1-2.388.2h-.2c-.129,0-.236-.01-.345-.019a10.054,10.054,0,0,1,8.313-4.4ZM1.437,11.5a10.009,10.009,0,0,1,.541-3.229l4.41,11.881A10.061,10.061,0,0,1,1.437,11.5Zm7.2,9.643L11.546,13.8l2.823,7.341a9.982,9.982,0,0,1-5.733,0Zm8.007-1.012c.932-2.388,2.536-6.523,3.017-7.922l.019.006a1.308,1.308,0,0,0,.056-.22c.162-.451.3-.864.411-1.212a17.908,17.908,0,0,0,.7-2.984,10.006,10.006,0,0,1-4.2,12.332Z" transform="translate(251.5 30)" fill="#fff"/></g></svg>