<svg xmlns="http://www.w3.org/2000/svg" xmlns:xlink="http://www.w3.org/1999/xlink" width="44" height="44" viewBox="0 0 44 44"><defs><clipPath id="a"><path d="M16.24,14.081a5.456,5.456,0,0,1-1.981-.339,4.14,4.14,0,0,1-1.491-.973,4.3,4.3,0,0,1-.946-1.535,5.885,5.885,0,0,1-.33-2.026A6.846,6.846,0,0,1,11.77,7.2a4.406,4.406,0,0,1,.812-1.544,3.635,3.635,0,0,1,1.3-.99,4.256,4.256,0,0,1,1.767-.348,4.046,4.046,0,0,1,1.2.161,5.362,5.362,0,0,1,.892.356V.356L19.9,0V13.563a12.833,12.833,0,0,1-1.615.356,12.546,12.546,0,0,1-2.044.161Zm-.269-7.906a1.94,1.94,0,0,0-1.723.8,3.853,3.853,0,0,0-.544,2.177,3.4,3.4,0,0,0,.678,2.24,2.318,2.318,0,0,0,1.874.812,7.483,7.483,0,0,0,.885-.045,5.782,5.782,0,0,0,.6-.1V6.711a3.364,3.364,0,0,0-.759-.366,2.967,2.967,0,0,0-1.01-.17ZM2.552,13.849H0c.535-1.011,1.16-2.058,1.856-3.113S3.33,8.54,4.141,7.389L.178,1.481H2.856l2.73,4.232,2.7-4.23h2.57L6.943,7.373c.91,1.233,1.717,2.4,2.4,3.48.7,1.1,1.287,2.1,1.757,3H8.46c-.344-.7-.782-1.481-1.3-2.319S6.082,9.863,5.516,9.084c-.233.3-.495.674-.776,1.107-.27.414-.552.855-.838,1.312-.273.435-.535.871-.776,1.294-.233.407-.424.761-.571,1.053Z" fill="#fff"/></clipPath></defs><g transform="translate(-457 -19)"><path d="M22,1a21.006,21.006,0,0,0-8.174,40.35A21.006,21.006,0,0,0,30.174,2.65,20.868,20.868,0,0,0,22,1m0-1A22,22,0,1,1,0,22,22,22,0,0,1,22,0Z" transform="translate(457 19)" fill="#fff"/><g transform="translate(469.05 34)" clip-path="url(#a)"><rect width="28.555" height="28.555" transform="translate(-4.042 -6.675)" fill="#fff"/></g></g></svg>