<?xml version="1.0" standalone="no"?>
<!DOCTYPE svg PUBLIC "-//W3C//DTD SVG 1.1//EN" "http://www.w3.org/Graphics/SVG/1.1/DTD/svg11.dtd" >
<svg xmlns="http://www.w3.org/2000/svg" xmlns:xlink="http://www.w3.org/1999/xlink" version="1.1">
<metadata>
Created by FontForge 20170731 at Fri Jul 30 04:13:15 2021
 By Aleksey,,,
Copyright (c) 2021 by Creatype Studio Co. All rights reserved.
</metadata>
<defs>
<font id="Evossry-Regular" horiz-adv-x="180" >
  <font-face 
    font-family="Evossry Regular"
    font-weight="400"
    font-stretch="normal"
    units-per-em="1000"
    panose-1="0 0 0 0 0 0 0 0 0 0"
    ascent="800"
    descent="-200"
    x-height="158"
    cap-height="632"
    bbox="-520.445 -591 1518.22 801.333"
    underline-thickness="50"
    underline-position="-150"
    unicode-range="U+000D-FB06"
  />
<missing-glyph horiz-adv-x="500" 
 />
    <glyph glyph-name="uniE000" unicode="th" horiz-adv-x="609" 
d="M-86 303q2 3 10.5 5.5t13.5 1.5q2 0 11.5 2t20 4.5t19.5 5.5t10 4l2 18q3 38 9 77t13 65q8 31 13 39t18 6q11 -2 13 -6t-2 -20q-4 -15 -9 -43t-8.5 -55t-5.5 -47.5t0 -20.5q3 1 6 1q3 1 6.5 2t7.5 2q39 11 90 22t95 18l16.5 3t8 4.5t3.5 11t2 23.5q7 65 14.5 108.5
t17 69.5t22.5 37.5t30 11.5q76 0 34 -215q-3 -12 -4.5 -21t-1.5 -10q0 -2 3 -2t13 1q36 3 59.5 -2.5t23.5 -17.5q0 -5 -8.5 -3.5t-13.5 6.5q-6 6 -24 6q-13 0 -42 -3q-7 -1 -10 -1t-5 -2.5t-3.5 -9.5t-5.5 -22q-9 -36 -19.5 -71t-20.5 -66.5t-19.5 -56t-16.5 -39.5
q-4 -7 -4.5 -12t-1.5 -30q-1 -13 -1.5 -33.5t-0.5 -39t0.5 -31.5l0.5 -13q1 0 4 7.5t7 18.5q42 104 75 151t62 42q12 -2 19 -7t12.5 -17t9 -33t7.5 -56q5 -49 12.5 -77.5t14.5 -28.5q6 0 16.5 8t23.5 22.5t27.5 33t27.5 39.5q13 19 16.5 22.5t8.5 -0.5q2 -2 2 -3t-3 -6
q-2 -3 -6 -10t-8 -13q-30 -51 -57.5 -79t-47.5 -26q-13 1 -21.5 6.5t-15.5 19.5t-12 38.5t-11 63.5q-7 50 -12 68.5t-10 16.5q-12 -7 -30 -32t-35 -60q-10 -19 -17.5 -35t-14 -33t-12.5 -36t-14 -43q-5 -17 -12 -21.5t-20 0.5q-14 5 -19.5 33.5t-5.5 87.5v15l-8 -12
q-33 -47 -64.5 -69t-59.5 -22q-57 0 -92.5 85.5t-32.5 241.5q1 29 0.5 35t-2.5 5t-9 -2.5t-15.5 -3.5t-16 -4t-10.5 -2q-13 -2 -22.5 1t-7.5 8zM40 145q5 -46 14 -83t21 -61.5t27.5 -35t31.5 -5.5q23 7 55 39t58 73q6 10 7 13.5t1 14.5t1 34.5t3 54.5t4.5 66t4.5 68
q2 26 3 36.5t-12 10.5q-7 0 -26 -3.5t-43 -9.5t-50.5 -12.5t-48.5 -12.5t-37 -10t-15 -5q-1 -3 -2 -24t-0.5 -49t1.5 -55.5t2 -43.5zM318 396q2 0 9.5 1t16.5 3q10 1 14.5 1.5t7 3t3.5 8.5l3 18q6 35 9 71.5t2.5 66.5t-4.5 49t-11 19q-30 0 -54 -234q-1 -6 -0.5 -7t4.5 0z
M318 229q6 18 14 45t15 51.5t11.5 42.5t3.5 19q-3 3 -11 1.5t-17 -4.5t-16 -7t-7 -8q-1 -14 -3 -45t-4.5 -63t-4 -57t-1.5 -27q1 -5 20 52z" />
    <glyph glyph-name="uniE001" unicode="oo" horiz-adv-x="426" 
d="M27 138q20 0 14 -11q-5 -10 -6.5 -29t0.5 -38t6.5 -35t11.5 -21q6 -5 15 0.5t17.5 17.5t16 28.5t10.5 33.5q1 5 -2 5q-16 0 -27 13.5t-15 31t0 34.5t19 23q13 5 24 0.5t18 -16.5t9.5 -29.5t-1.5 -37.5q-2 -7 0 -7t13 5q23 10 46 25t28 21q6 9 18 9q7 0 11 -3q2 -2 1.5 -5
t-3.5 -19q-12 -62 -3 -102t27 -40q19 0 36 42q3 7 2 9.5t-9 10.5q-15 15 -21.5 36t-4 39.5t12.5 31t28 11.5q20 -2 26 -32t-5 -74q-4 -15 -3.5 -17t5.5 -4q18 -7 45 5t47 35q6 8 10 4q3 -1 -2 -9q-14 -20 -40 -32.5t-55 -11.5q-16 0 -16 -1q0 -3 -8.5 -18.5t-13.5 -20.5
q-25 -26 -55 -15q-29 10 -40.5 47t-0.5 88q2 12 2 13l-14 -7q-14 -10 -29 -17.5t-26 -11.5q-10 -4 -12 -6.5t-6 -14.5q-12 -42 -32.5 -62.5t-41.5 -20.5q-20 0 -35.5 20t-17.5 62q-3 66 26 67zM103 107q12 -10 13 -4q3 10 2.5 24.5t-3.5 27t-7.5 20.5t-8.5 5
q-6 -5 -8.5 -14.5t-2 -20t4 -21t10.5 -17.5zM315 67q4 -6 5.5 -5.5t3.5 11.5q9 47 -5 80q-4 7 -7 2q-10 -14 -9 -41.5t12 -46.5z" />
    <glyph glyph-name="uniE002" unicode="mm" horiz-adv-x="824" 
d="M18 167q7 0 10.5 -0.5t5 -7t1.5 -21v-42.5v-44.5t1 -18.5q0 1 2.5 7t4.5 14q17 53 28 69t27 12q8 -2 13.5 -10t12.5 -27q5 -14 6 -11q4 11 14 31.5t22.5 41t27 36t28.5 15.5q17 0 23 -27.5t8 -93.5q2 -65 9.5 -96t18.5 -21q6 6 11.5 15t13.5 25t19 41t27 63
q13 30 19.5 45.5t11 22t8 6.5t9.5 -1t9.5 -2t5 -7t1.5 -20v-42v-62l8 24q32 96 65 96q25 0 37 -61q1 -7 2 -11.5t1 -5.5q1 0 10 12q20 27 34 44t25.5 26.5t21.5 12t21 -0.5q14 -5 21.5 -18.5t15.5 -52.5q12 -57 26.5 -85t34.5 -28q28 0 79 65q4 5 7.5 9.5t4.5 5.5q2 2 7 2.5
t6 -1.5q1 -3 -5 -13t-16 -22.5t-21 -25t-20 -19.5q-22 -18 -45 -18t-38.5 14.5t-25.5 35t-16 43.5t-9 40q-8 42 -13.5 51t-16.5 3q-22 -13 -58 -68q-14 -21 -18.5 -25.5t-12.5 -5.5q-13 -1 -18 6.5t-13 38.5q-7 36 -13 36q-2 0 -6 -4q-17 -18 -30 -52.5t-24 -83.5
q-6 -30 -22 -30q-7 0 -13 7.5t-8 23.5q-1 8 -1.5 21t-1.5 26.5t-1.5 26.5t-0.5 20q2 15 0 15q0 -1 -4 -10.5t-9 -22.5q-19 -49 -32 -79t-24 -45.5t-21.5 -19t-23.5 0.5q-22 8 -31.5 39.5t-11.5 103.5q-1 37 -2 62t-3 29q-2 5 -19 -18q-31 -42 -49 -96q-5 -17 -7 -20.5
t-5 -5.5q-6 -3 -11 -3q-7 0 -11.5 9t-10.5 32q-5 20 -8 27.5t-5 7.5q-6 0 -13 -17.5t-14 -40t-12 -42.5t-6 -25q-4 -19 -6.5 -23t-12.5 -4q-7 0 -11.5 2.5t-7 12t-3.5 28t-1 51.5v57t1.5 31t5.5 12.5t10 2.5z" />
    <glyph glyph-name="uniE003" unicode="nn" horiz-adv-x="706" 
d="M1 97q0 29 0.5 44.5t2 22.5t5 7.5t9.5 0.5q6 -1 9.5 -2.5t5.5 -8.5t2.5 -22t0.5 -43v-40t1 -19t2 -2.5t3 9.5q8 24 18 47t20.5 43t21 34t18.5 20q5 3 7.5 3.5t10.5 0.5q10 -1 16.5 -4t12 -13.5t11 -30t12.5 -52.5q13 -61 24 -87.5t26 -26.5q17 0 40.5 27.5t45.5 63t39 70
t22 48.5q3 8 5.5 10t11.5 0q6 -1 9.5 -3t5 -9.5t1.5 -23v-43.5q-1 -23 -1 -47v-37l1 -31l9 24q32 78 63.5 120.5t56.5 37.5q20 -3 29.5 -20t16.5 -64q10 -59 19 -82.5t20 -18.5q5 3 15 11t21 18t21 20.5t16 17.5q9 13 16 10q3 -1 2 -3.5t-8 -13.5q-58 -78 -95 -78
q-45 0 -62 126q-5 36 -8.5 51.5t-11.5 15.5q-7 0 -21 -14q-27 -26 -52.5 -76.5t-42.5 -111.5q-3 -13 -6 -15.5t-11 -1.5q-11 2 -14 8t-5 30q-5 35 -5 67t2 78v15l-12 -25q-43 -85 -74.5 -123.5t-55.5 -38.5q-31 0 -50 32.5t-37 116.5q-7 34 -10.5 46.5t-8.5 12.5q-2 0 -7 -5
q-21 -21 -41.5 -66t-34.5 -102q-9 -35 -13.5 -42t-18.5 -3q-7 2 -11.5 8.5t-6.5 21.5t-2.5 41.5t-0.5 68.5z" />
    <glyph glyph-name="uniE004" unicode="rr" horiz-adv-x="290" 
d="M13 170q11 -1 14 -10t5 -44q1 -11 1.5 -12t3.5 5q9 21 27 42.5t38.5 39t40.5 28.5t33 11q7 0 11 -3q6 -5 -6 -5q-10 1 -29 -11q-56 -36 -86 -86t-30 -107q0 -17 -4.5 -21t-15.5 1q-2 1 -3.5 4.5t-3 13.5t-3 28t-3.5 47q-2 32 -2.5 48.5t0 23.5t3.5 7.5t9 -0.5zM148 162
q5 4 14.5 3t11.5 -6q2 -4 3 -17.5t3 -31.5q2 -23 2.5 -25.5t4.5 8.5q8 17 16.5 31.5t15.5 21.5q14 13 32 13q19 0 19 -15q0 -5 -5.5 -5.5t-7.5 4.5q-1 6 -7 6q-12 0 -22.5 -15t-18 -35t-12.5 -39t-6 -28q-3 -13 -3 -19q-2 -5 -9.5 -6t-14.5 2q-5 2 -9.5 25t-7.5 50t-3 51
t4 27z" />
    <glyph glyph-name="uniE005" unicode="ss" horiz-adv-x="346" 
d="M26 167q10 10 23 10q8 0 11.5 -4.5t-3.5 -12.5q-38 -44 -11 -105l8 -16t10 -19.5t9 -16t5 -6.5q0 1 9.5 15.5t23.5 34.5q13 20 27.5 42t21.5 33q8 11 14.5 20.5t8.5 13.5q16 32 28 43t24 5q4 -2 3.5 -3.5t-8.5 -15.5q-29 -50 -30.5 -82t24.5 -68q5 -8 10 -15.5t7 -11.5
q3 -10 6 -10q3 3 7 6q3 2 6.5 5.5t8.5 7.5q39 35 64.5 55t29.5 18q4 -1 1.5 -3.5t-16.5 -14.5q-19 -16 -41.5 -36t-37.5 -34l-17 -16l-1 -25q0 -25 -7 -46.5t-19 -36.5t-27.5 -22t-32.5 -3q-26 6 -13.5 36t59.5 74q11 10 7 26t-24 43q-15 21 -21 37t-5 32q1 8 -1 6.5
t-17 -24.5q-40 -61 -53.5 -81.5t-12.5 -23.5q1 -2 1.5 -6.5t1.5 -9.5q4 -16 0 -33t-13 -31t-21 -23t-26 -9q-19 0 -16.5 13.5t29.5 58.5q7 11 12 20t5 10q0 5 -7.5 19.5t-18.5 34.5q-29 51 -30.5 84t25.5 61zM185 -123q25 22 32 60q3 14 1.5 14.5t-11.5 -10.5
q-17 -20 -26.5 -36t-10.5 -27q-2 -11 1 -11.5t14 10.5zM41 -107q8 11 13.5 24t5.5 22q0 11 -22 -35q-10 -22 -8 -22t11 11z" />
    <glyph glyph-name="uniE225" unicode="tt" horiz-adv-x="320" 
d="M-93 370q12 -2 21.5 -1.5t27.5 3.5q53 7 53 10q0 1 1 7.5t2 14.5q8 57 17 76t28 12q5 -2 5 -5t-3 -21q-6 -30 -8.5 -46t0 -22.5t11.5 -5.5t27 4q32 6 67 11.5t61 8.5l15 3t8 6.5t5 17t5 33.5q6 38 11.5 68.5t12.5 55.5t11 30.5t15 5.5t12 -4t-4 -27q-4 -23 -9.5 -53.5
t-9.5 -58.5t-6 -47.5t-1 -20.5q1 0 7.5 0.5t15.5 1.5q23 2 43.5 3t37.5 1q72 0 83 -20q2 -4 -1.5 -6.5t-8.5 -2.5q-7 0 -12 5q-8 8 -25.5 10t-50.5 0q-10 0 -24 -1.5t-27.5 -2.5t-23.5 -2.5t-13 -1.5q-3 -1 -5.5 -35t-3.5 -82.5t-0.5 -101t3.5 -90.5q8 -123 16 -190t15 -69
q8 -2 8.5 -4.5t-2.5 -12.5q-2 -6 -10.5 -8.5t-15.5 1.5q-8 4 -14 25.5t-14 71.5q-17 115 -23 224.5t-1 195.5q1 10 1.5 17t-0.5 8l-3 -10q-2 -10 -6 -23q-44 -171 -88 -263t-81 -92q-11 0 -24 11q-11 10 -19 48t-12 91t-4 114t6 118q1 7 -1.5 7.5t-18.5 -2.5q-36 -6 -59 -6
q-17 0 -27 4q-12 5 -9.5 10.5t16.5 3.5zM59 -7q2 -5 3.5 -5t7.5 4q18 13 37.5 44.5t39 78t39 106.5t36.5 129q8 31 10 41t-6 10q-4 0 -10.5 -1t-16.5 -3q-45 -7 -75 -12.5t-47 -9.5t-24.5 -8t-7.5 -8q-5 -49 -6 -107.5t1 -111t7 -93t12 -54.5z" />
    <glyph glyph-name="uniE235" unicode="ee" horiz-adv-x="382" 
d="M76 200q18 0 23 -12.5t-1 -29t-20.5 -33t-35.5 -24.5q-6 -2 -7 -8q-7 -41 5 -64.5t38 -23.5q16 0 31 8q29 14 38.5 24t9.5 26q0 24 7 50t18 47.5t24.5 35t26.5 13.5q17 0 22 -12t-0.5 -32.5t-20 -46.5t-38.5 -53q-7 -9 -6.5 -23t6.5 -28t16 -24t21 -10q24 0 64 27t85 73
q13 14 19 10q5 -3 -16 -25.5t-57 -53.5q-62 -55 -113 -42q-36 9 -52 52q-2 7 -3 8q-1 -1 -2 -1l-5 -5q-41 -34 -80 -34q-48 0 -68 53q-8 21 -4 48.5t15 51.5t27 41t33 17zM210 106q17 24 25 47t6 38q-1 6 -4 6q-4 0 -11.5 -11.5t-15 -28.5t-13.5 -36.5t-8 -36.5
q-1 -7 3.5 -2.5t17.5 24.5zM51 117q21 15 30 34t1 33q-2 4 -9 -4.5t-14.5 -21t-13.5 -26.5t-6 -21q0 -2 12 6z" />
    <glyph glyph-name="uniF6C0" unicode="ll" horiz-adv-x="612" 
d="M161 630q31 9 47 -10.5t17.5 -61t-11.5 -101.5t-41 -132q-13 -33 -31.5 -66.5t-37 -60.5t-35.5 -44t-28 -17q-3 0 -2 -14t4 -33t7 -39.5t8 -33.5q32 -97 98 -97q54 0 111 65q14 15 21.5 25t11 17.5t4 14.5t-0.5 18q-4 51 -3 111.5t6.5 121t15.5 115.5t23 95
q25 78 56 114.5t57 36.5q18 0 31.5 -15.5t20 -44.5t4.5 -71t-15 -96q-12 -48 -25 -89.5t-30 -81.5t-38 -81t-48 -86q-12 -20 -14 -25.5t-1 -16.5q1 -17 7 -51.5t18 -69t30 -60t42 -25.5q64 0 168 219q11 23 14.5 28t8.5 1q2 -1 -8 -23.5t-24.5 -52.5t-31 -60.5t-27.5 -48.5
q-57 -88 -114 -76q-12 2 -17.5 4t-11.5 5q-27 14 -50 54.5t-34 97.5q-4 18 -5 20t-4 -3q-35 -51 -75 -75.5t-78 -24.5q-49 0 -87.5 38t-53.5 113q-10 48 -9.5 107.5t9.5 120.5t24.5 119.5t35.5 106.5t43.5 80t47.5 39zM63 166q36 36 67 97t50.5 126t24 124t-11.5 91
q-7 15 -14 15q-4 0 -16 -10q-23 -23 -44.5 -69.5t-39 -105.5t-28 -124.5t-12.5 -126.5q-1 -34 3 -34t21 17zM339 123q1 -33 2.5 -33.5t17.5 26.5q53 88 85.5 173.5t46.5 176.5q5 29 4 60t-5.5 56.5t-12.5 41.5t-18 16q-6 0 -15 -11t-19.5 -29t-20.5 -40t-18 -43
q-11 -34 -20.5 -81t-16 -100t-9 -108t-1.5 -105z" />
    <glyph glyph-name="f_f" unicode="ff" horiz-adv-x="467" 
d="M15 183l6 36t11 53t17 59.5t22 55.5t27 41t33 16q17 0 23.5 -20.5t4.5 -52.5t-11 -71t-23.5 -76t-33.5 -68t-41 -47q-9 -6 -10 -11q-1 -6 -3 -24.5t-3.5 -40t-3 -42t-2.5 -31.5q0 -9 -0.5 -17.5t-0.5 -11.5q-1 -10 8 -10q10 0 29.5 10.5t43 28.5t47.5 40.5t44 46.5
q15 18 25 31t16 22.5t9 17.5t4 17q13 84 28.5 152t32.5 116t35 73.5t34 25.5q6 0 14 -5q9 -7 6 -36t-15 -71.5t-32 -94t-46 -104.5q-6 -13 -9.5 -20.5t-6 -14.5t-4 -16t-3.5 -25q-8 -51 -13 -96t-7 -72q-2 -12 -2 -19q-1 -7 8 -7q18 0 45.5 18.5t55.5 43t52 49t34 36.5
q17 17 22 17q3 0 4 -3t-10 -16t-28 -31t-37 -38t-38 -36q-33 -29 -51.5 -39.5t-38.5 -12.5l-10 -2l3 -6q1 -3 2.5 -6.5t3.5 -7.5q20 -47 31.5 -91.5t14 -79t-4 -56.5t-22.5 -25q-56 -10 -72 137q-1 9 -1.5 31t-0.5 47.5t0.5 49.5t1.5 35q2 27 5 57.5t6 53.5q2 12 3 21t0 9
q0 1 -4 -4t-9 -12q-49 -65 -99.5 -105t-88.5 -44l-10 -1l10 -12q24 -31 37.5 -59.5t24.5 -70.5q17 -71 4 -112t-51 -30q-26 7 -42.5 53t-22 120.5t0 173t22.5 210.5zM42 118q1 -2 10.5 8.5t17.5 22.5q20 29 36 67.5t25 77.5t10.5 74t-7.5 55q-1 4 -4 4q-6 0 -14.5 -14.5
t-18 -37t-18.5 -51t-14 -56.5q-2 -12 -6 -35.5t-7.5 -48t-6.5 -44t-3 -22.5zM35 -255q3 -24 8.5 -45t11.5 -35.5t11.5 -21t9.5 -1.5q13 15 15 45t-5 65t-21.5 69.5t-35.5 58.5q-2 3 -2.5 -10.5t0.5 -34.5t3 -45.5t5 -44.5zM262 -178q2 -61 6.5 -98.5t15.5 -59.5
q8 -15 11 -15q4 0 8 13q5 14 5 38t-5 52t-14 58t-21 57q-5 10 -6 3.5t0 -48.5zM303 218q0 -2 6 9.5t15 32.5q15 35 28 74t21.5 72t11.5 54.5t-3 21.5q-2 0 -7.5 -10.5t-12 -27.5t-13.5 -38t-13 -41q-4 -16 -10 -39.5t-11 -46.5t-8.5 -40.5t-3.5 -20.5z" />
    <glyph glyph-name="s_t" unicode="st" horiz-adv-x="319" 
d="M12 177q11 19 25 30t25 11q7 0 12 -5q4 -5 -5.5 -18t-16.5 -14q-3 -1 -5 -3t-7 -10q-33 -59 12 -121l10 -13l11 31q19 56 48.5 131t64.5 157q3 7 4 10.5t-4.5 4t-20 -2.5l-43.5 -9q-33 -7 -52.5 -10.5t-30.5 -3.5q-14 0 -20 6q-13 11 24 13q7 1 17 2.5t19 3.5
q25 5 52 10.5t47 7.5l24 4l15 34q6 15 14.5 33t17 35.5t15.5 32t11 20.5q7 13 10.5 15.5t12.5 2.5q8 0 12 -2t5 -12.5t-1.5 -31.5t-7.5 -60q-3 -23 -5.5 -39.5t-2.5 -17.5t7 -1h24q44 0 65.5 -8.5t9.5 -21.5q-4 -4 -12.5 -1.5t-8.5 7.5q0 12 -61 9q-11 -1 -16.5 -1t-8 -4
t-3 -12.5t-2.5 -26.5q-7 -74 -10 -158.5t-1.5 -157t7 -122.5t14.5 -55t1 -9t-19 1q-13 6 -20 34t-11 87t-5 128.5t1.5 140.5t8.5 125q3 22 1.5 23t-21.5 -1q-12 -2 -17 -2q-4 -1 -7 -1q-1 0 -9.5 -19t-20.5 -47t-25 -59.5t-23 -55.5q-18 -47 -33.5 -90.5t-26.5 -77.5
q-1 -2 1 -5.5t10 -13.5q14 -19 20 -43t4 -47t-11.5 -42t-26.5 -27q-8 -4 -17 -4q-23 0 -25 38t17 107q2 9 4 15.5t2 7.5q0 3 -12 15q-40 45 -46.5 80t16.5 73zM64 -141q11 13 17 31t7 36t-3.5 35t-13.5 29q-2 3 -5.5 -7t-9.5 -42q-4 -21 -5.5 -38.5t0 -29.5t5 -16t8.5 2z
M246 393l17 2l4 28q2 12 5 29t5 31q2 13 3.5 22.5t0.5 9.5l-6 -11.5t-14.5 -29t-17.5 -37.5t-17 -37q-4 -8 -2 -8.5t22 1.5z" />
    <glyph glyph-name=".notdef" horiz-adv-x="500" 
 />
    <glyph glyph-name=".null" horiz-adv-x="0" 
 />
    <glyph glyph-name=".null" horiz-adv-x="0" 
 />
    <glyph glyph-name="uni000D" unicode="&#xd;" horiz-adv-x="250" 
 />
    <glyph glyph-name="space" unicode=" " horiz-adv-x="296" 
 />
    <glyph glyph-name="exclam" unicode="!" horiz-adv-x="182" 
d="M96 510q5 38 6.5 52.5t-0.5 21.5q-4 15 17 15q18 0 21 -18t-6 -74q-11 -72 -17.5 -138t-7 -118t4 -85t14.5 -38q6 -2 6 -4q0 -4 -10.5 -4.5t-15.5 2.5q-12 8 -19.5 45t-9 92t2.5 121t14 130zM107 37q4 4 14 4q7 0 12 -1.5t6 -5.5q3 -11 -4 -19.5t-18 -6.5q-9 2 -12.5 13
t2.5 16z" />
    <glyph glyph-name="quotedbl" unicode="&#x22;" horiz-adv-x="199" 
d="M70 313q3 3 6.5 26t3.5 41q0 15 1.5 18t9.5 3q18 0 11 -44q-6 -31 -13 -42t-18 -8q-5 2 -1 6zM111 313q4 3 7.5 26t3.5 41q0 15 1 18t9 3q18 0 11 -44q-5 -31 -12 -42t-18 -8q-6 2 -2 6z" />
    <glyph glyph-name="numbersign" unicode="#" horiz-adv-x="592" 
d="M77 116q5 1 17.5 2.5t23.5 3.5l27 5l5 28q2 13 5.5 30t7 35t6.5 34t6 28q2 9 3 15q0 3 1 6q-1 0 -5 -0.5t-10 -1.5q-43 -8 -51 6q-4 6 14 7q35 3 47 8.5t16 19.5q11 35 23.5 70t26.5 70q3 9 4.5 10.5t9.5 1.5q9 0 13 -2t3.5 -10.5t-5.5 -26t-15 -48.5q-15 -46 -19 -59.5
t4 -13.5q3 0 8 1t13 2q45 8 83.5 11t85.5 5q25 1 29 1.5t6 5.5q1 5 4.5 16t8 24t9 25.5t7.5 21.5q10 22 10 31q1 12 5 24.5t10 22t13 15.5t13 6q10 -1 14.5 -3t4 -10.5t-7 -27t-18.5 -52.5q-15 -42 -24 -69t-9 -30q0 -2 17 -2q36 -2 58 -12.5t15 -21.5q-2 -3 -10 0t-8 8
t-21.5 8.5t-53.5 4.5q-1 0 -5.5 -13t-10.5 -34.5t-12.5 -48t-12.5 -53.5q-2 -11 -4 -18.5t-2 -9.5q-1 -2 1.5 -2h13.5q23 0 38.5 -3.5t18.5 -10.5q3 -5 -3.5 -6t-13.5 4q-9 7 -43 4h-15l-5 -28q-11 -67 -12 -110.5t10 -57.5q5 -6 3.5 -10t-7.5 -3l-6 2q-24 5 -30 51t7 131
l3 22l-10 -1q-27 -2 -65 -6.5t-72.5 -9t-59 -8.5t-26.5 -5q-1 -1 -4 -19t-5 -36q-2 -20 -3 -35.5t1 -17.5q4 -4 0.5 -5.5t-8.5 -1.5q-10 0 -14 4q-6 5 -7 26t3 54q2 22 1 23.5t-20 -0.5q-11 -2 -20 -3t-16 -1q-20 0 -24 7q-3 6 16 6zM180 132h4q2 2 30 5.5t62 7.5t63.5 7
t35.5 3q16 2 24 2t11.5 4t5 12.5t5.5 26.5q3 14 6.5 31.5t8 35.5t8.5 34.5t7 26.5l3 10l-24 -1q-13 -1 -47 -4t-70 -7t-64.5 -9t-29.5 -10q-3 -13 -9.5 -40.5t-13 -56t-11.5 -51.5t-5 -27z" />
    <glyph glyph-name="dollar" unicode="$" horiz-adv-x="509" 
d="M253 18l-1 8v9t-1 10q-1 12 -1 42v65v80l-16 4q-153 39 -138 110q5 23 20.5 46t37.5 44t49 37t55 25q5 2 8 3t4 4.5t1 11.5v23t0.5 23t1.5 11.5t3.5 3.5h7.5q13 1 16.5 -8t3.5 -38q0 -17 1 -19.5t6 -1.5q38 5 68 0t49 -17.5t24.5 -31t-5.5 -41.5q-8 -17 -13 -17
q-6 0 -6 25q1 33 -20 51t-57 18q-19 0 -36 -4q-9 -2 -10.5 -2.5t-2.5 -5.5q0 -2 -2.5 -25.5t-5.5 -52.5q-3 -30 -5.5 -61.5t-3.5 -45.5t-2 -27t-1 -18q-1 -12 2 -13q1 0 11 -2.5t24 -5.5q86 -20 123.5 -42.5t35.5 -54.5q-1 -16 -17 -35t-42 -36t-59.5 -32t-69.5 -24
q-8 -2 -9 -3.5t0 -9.5q6 -69 19 -77q8 -3 -1 -7q-5 -2 -11 0q-22 4 -31 66q0 7 -2 15q0 4 -1 7l-6 -1h-5.5t-7.5 -1q-37 -6 -68 -6q-64 0 -87 25q-26 28 -9 63.5t72 64.5q13 7 21 7q5 0 3 -3.5t-13 -9.5q-39 -23 -56 -46.5t-13.5 -43t25.5 -32t61 -12.5q4 0 16.5 1t26.5 2.5
t25.5 3.5t13.5 4zM279 32q1 -6 3 -6t24 8q89 33 120 75t-12 71q-9 6 -30.5 14.5t-43.5 15.5t-39.5 11t-19.5 1q-1 -1 -1.5 -29.5t-1 -63t-0.5 -64t1 -33.5zM221 260q8 -2 14.5 -4t8.5 -3l5 -2q2 0 4 38q2 34 4.5 72.5t6.5 76.5q2 17 3 26t1 12.5t-1 3.5h-3q-13 -4 -29 -13.5
t-31.5 -21.5t-29.5 -25.5t-23 -27.5q-33 -49 -17.5 -79t87.5 -53z" />
    <glyph glyph-name="percent" unicode="%" horiz-adv-x="460" 
d="M321 234q25 0 13 -16q-3 -3 -1.5 -3.5t14.5 -1.5q45 -1 66.5 -22t13.5 -57q-9 -43 -38.5 -71.5t-63.5 -28.5q-13 0 -22 4q-22 8 -30.5 39.5t-5.5 66t17 62.5t37 28zM67 459q5 11 4 13q-4 6 12.5 12t36.5 6q42 0 66 -21t19 -51q-4 -24 -16 -44.5t-28.5 -33.5t-36 -18.5
t-38.5 0.5q-14 5 -22.5 19t-11.5 33t1 41.5t14 43.5zM324 482q19 31 26 43t9 20q5 18 29 11q6 -2 7.5 -6.5t-2 -14t-13.5 -27t-27 -46.5q-26 -44 -53 -94.5t-51 -101t-44.5 -97.5t-35 -85t-20.5 -63.5t-2 -31.5q4 -5 -5.5 -7.5t-15.5 2.5q-12 8 1 60t42 125.5t70 157
t85 155.5zM344 54q29 12 42.5 36.5t12.5 49.5t-16.5 43t-44.5 18q-16 0 -19 -4t-10 -29q-7 -28 -7.5 -51.5t4 -39.5t14.5 -22.5t24 -0.5zM124 338q20 10 33.5 28t18 37.5t0 37.5t-20.5 28q-19 11 -29 11q-20 0 -32 -38q-13 -45 -7 -76t25 -31q6 0 12 3z" />
    <glyph glyph-name="ampersand" unicode="&#x26;" horiz-adv-x="543" 
d="M152 388l15 25l-8 22q-16 49 -16.5 89t15.5 63q13 20 33 29.5t40 9.5q19 0 33.5 -9t19.5 -27q3 -11 1 -23t-9 -28.5t-20 -39t-34 -53.5l-23 -36l9 -21q47 -106 136 -204q11 -12 13 -12t8 15q10 29 16 56t7.5 49t-1 37t-10.5 19q-7 4 -5 6.5t8 2.5q7 0 13 -3
q12 -6 17.5 -25.5t5 -47t-7.5 -60t-20 -64.5l-3 -9t2.5 -7.5t13 -13l28.5 -25.5q51 -45 72.5 -69t21.5 -35q0 -8 -6.5 -8.5t-12.5 7.5q-5 6 -16.5 17.5t-26 25t-29 27.5t-26.5 24l-34 30l-8 -14q-87 -149 -202 -131q-51 9 -77.5 44.5t-28 91t22.5 126t73 149.5zM99 62
q13 -38 43 -57t64 -11q34 9 69 44t62 88l10 19l-18 20q-44 46 -75.5 89.5t-57.5 96.5l-16 29l-12 -20q-52 -88 -70 -164.5t1 -133.5zM182 458q3 -13 5 -13t15 20q45 69 52.5 107t-24.5 40q-19 2 -32 -9.5t-19.5 -32.5t-6 -50t9.5 -62z" />
    <glyph glyph-name="quotesingle" unicode="'" horiz-adv-x="159" 
d="M72 316q3 3 6.5 26t3.5 41q0 15 1.5 18t9.5 3q19 0 10 -44q-5 -31 -12 -42t-18 -8q-7 2 -1 6z" />
    <glyph glyph-name="parenleft" unicode="(" horiz-adv-x="226" 
d="M78 303q8 59 27.5 119t44.5 108.5t52 79t50 30.5q16 0 17 -4t-12 -16q-33 -32 -60 -78.5t-46.5 -102t-30 -116.5t-10.5 -123q0 -58 11 -119.5t28 -114t39.5 -90t45.5 -49.5q8 -4 14.5 -4.5t20.5 1.5q12 2 15 -1t-6 -7q-7 -3 -24 -4t-25 1q-36 10 -67.5 59.5t-53.5 120
t-31 152.5t1 158z" />
    <glyph glyph-name="parenright" unicode=")" horiz-adv-x="199" 
d="M-43 -208q17 3 37 27t40.5 65.5t40 98t35.5 124.5q17 68 21.5 129t-4 119.5t-30 117t-56.5 121.5q-17 29 -18.5 34t4.5 8q12 5 20.5 -2t25.5 -34q63 -102 84.5 -212.5t-0.5 -219.5q-12 -57 -29 -113.5t-36.5 -105.5t-40 -86.5t-39.5 -56.5q-12 -11 -28 -18.5t-27 -7.5
q-7 0 -11 3q-6 6 11 9z" />
    <glyph glyph-name="asterisk" unicode="*" horiz-adv-x="238" 
d="M55 356q6 3 35 28l14 12l-19 9q-18 10 -25 15t-7 8q0 6 3 6q5 0 25 -10q10 -5 16.5 -8t7.5 -3v37q-2 33 -0.5 38.5t11.5 4.5q13 0 15 -6.5t-1 -42.5q-1 -10 -1 -17v-8t5 2.5t12 9.5q16 13 23 13q4 0 4 -4q1 -3 -10 -14.5t-24 -21.5q-5 -5 -4 -6t10 -5q13 -6 23.5 -10
t12.5 -4q5 0 2 -8q-3 -7 -43 10q-11 4 -12 0.5t-1 -37.5q0 -23 -1 -32.5t-5 -9.5q-2 0 -7 3q-3 2 -8 56l-1 14l-15 -11q-15 -12 -22.5 -15t-12.5 0q-7 4 0 7z" />
    <glyph glyph-name="plus" unicode="+" horiz-adv-x="236" 
d="M91 123l14 4l2 24q2 34 4.5 41t10.5 7q11 0 12.5 -6t-1.5 -37q-2 -20 -0.5 -22t10.5 -1q23 4 42 4t26 -4q5 -3 4 -5.5t-7 -1.5q-8 1 -20.5 0.5t-24.5 -2t-20.5 -3t-10.5 -3.5q-1 -1 -2 -16t-1.5 -33t0.5 -33.5t2 -18.5q2 -5 -3.5 -7t-10.5 1q-7 4 -9.5 16.5t-3.5 47.5v36
l-11 -3q-5 -1 -11 -3t-11 -4q-7 -2 -11 -2.5t-6 -0.5q-13 3 -2 10t39 15z" />
    <glyph glyph-name="comma" unicode="," horiz-adv-x="118" 
d="M49 -57q3 3 6.5 26t3.5 41q0 15 1.5 18t9.5 3q19 0 10 -44q-5 -31 -12 -42t-18 -8q-5 2 -1 6z" />
    <glyph glyph-name="hyphen" unicode="-" horiz-adv-x="262" 
d="M80 98q5 5 25 7t44 2q20 0 38 -1.5t26 -5.5q11 -5 7 -7.5t-18 -0.5q-10 2 -34.5 1.5t-48.5 -3.5q-10 -1 -18.5 -1.5t-13.5 1.5q-5 1 -7 3.5t0 4.5z" />
    <glyph glyph-name="period" unicode="." horiz-adv-x="143" 
d="M66 43q6 3 14 3q15 0 17 -7q3 -13 -5.5 -21.5t-19.5 -3.5q-7 4 -9 15t3 14z" />
    <glyph glyph-name="slash" unicode="/" horiz-adv-x="259" 
d="M64 50q11 67 26 133t35 134.5t45.5 140t56.5 149.5q11 25 19.5 47t10.5 28q4 14 7.5 16.5t13.5 -0.5q6 -2 8.5 -7t0 -18t-11.5 -38t-25 -67q-24 -63 -42.5 -114t-33 -96.5t-27 -89t-24.5 -91.5q-15 -58 -25 -108t-15 -86.5t-4.5 -57.5t7.5 -21q17 -2 8 -11q-11 -9 -26 -1
t-16 44t12 114z" />
    <glyph glyph-name="zero" unicode="0" horiz-adv-x="476" 
d="M45 391q3 10 5.5 19.5t2.5 14.5l3 12t9 15q7 8 11 17q11 20 26 23q3 0 7 2.5t9 5.5q76 55 140 55q62 0 115 -50q46 -43 65 -100.5t17 -117t-24 -115.5t-59 -98t-87.5 -64t-109.5 -13q-51 8 -86 42t-52 86.5t-15.5 120.5t23.5 145zM428 297q0 49 -14 93t-38 77.5t-54.5 53
t-63.5 19.5q-13 0 -25 -3t-30 -11t-35 -17t-29 -17.5t-12 -11.5q0 -2 -2.5 -4t-4.5 -1q-4 2 -11 -12t-15 -36.5t-15 -50t-12 -53.5q-12 -70 -7.5 -127.5t22.5 -98.5t48 -64t70 -23q51 0 93 27.5t72 70t46.5 93t16.5 96.5z" />
    <glyph glyph-name="one" unicode="1" horiz-adv-x="168" 
d="M23 370q6 2 17.5 18t25 39t26.5 50t22 51q8 22 11 26.5t9 4.5t9.5 -4t4 -17t-1 -38.5t-4.5 -67.5q-4 -43 -6 -75t-3.5 -62t-2.5 -62.5t-2 -77.5q-2 -85 -3 -122.5t-2 -39.5q-2 -2 -9.5 -2.5t-9.5 1.5q-2 1 -3.5 35.5t-2 80t0 91.5t1.5 72q3 50 7 98t11 102q2 22 3.5 31
t-0.5 9l-5 -10q-11 -24 -24.5 -48t-26.5 -44t-23.5 -32t-15.5 -12q-5 1 -5.5 2.5t2.5 2.5z" />
    <glyph glyph-name="two" unicode="2" horiz-adv-x="541" 
d="M35 29q11 5 28.5 7.5t45.5 4.5q10 0 16 0.5t11.5 3t12 7t17.5 12.5q45 33 87.5 76t77.5 88t59.5 88.5t32.5 77.5q16 69 -11 105.5t-79 36.5q-34 0 -75.5 -17t-86.5 -53q-18 -14 -34.5 -34.5t-28.5 -41t-17.5 -38t-1.5 -25.5q2 -5 -2.5 -5.5t-8.5 4.5q-10 12 -6 33.5
t19 46.5t38.5 50.5t51.5 43.5q41 27 79.5 40t72.5 13q36 0 64 -13.5t44.5 -39t18.5 -61.5t-13 -81q-12 -33 -37.5 -74t-59.5 -82.5t-73.5 -80t-78.5 -66.5l-16 -12l30 -1q39 -1 85.5 0.5t88.5 5.5t73 9t38 11q6 5 15 3.5t9 -6.5q0 -8 -23 -15.5t-63.5 -13t-95.5 -8.5
t-119 -3h-39t-21.5 -1t-11.5 -2t-9 -4q-29 -14 -55 -19t-43 0q-18 5 -20 13.5t14 16.5zM80 18q13 4 13 5q-1 1 -7 0t-13.5 -3t-14 -4t-7.5 -3q-2 -2 7.5 -0.5t21.5 5.5z" />
    <glyph glyph-name="three" unicode="3" horiz-adv-x="590" 
d="M25 102q5 11 6.5 12.5t6.5 1.5q8 0 10 -3t-2 -13q-15 -43 20.5 -64.5t98.5 -21.5q57 0 125.5 18t131.5 56q67 40 93.5 83t18.5 78.5t-48 58.5t-108 23q-31 0 -67 -6q-15 -2 -22.5 -2t-13.5 4q-7 4 -2.5 8.5t31.5 18.5q79 41 117 73q31 25 41 45.5t2 35t-32 22.5t-60 8
q-33 0 -74 -7t-89 -23q-37 -12 -64.5 -25t-23.5 -15q6 -4 -6 -4q-19 0 -14 9t31 22q57 29 117 43t113 14q35 0 64.5 -6.5t48.5 -20.5q38 -29 8 -72t-126 -96q-9 -4 -15 -9q-3 -1 -6 -3h27q51 1 92 -10.5t68.5 -32t39 -49t3.5 -61.5q-10 -37 -52 -74t-99.5 -65.5t-122 -44
t-119.5 -9.5q-2 0 -8.5 0.5t-13.5 1.5q-72 7 -106.5 35t-19.5 66z" />
    <glyph glyph-name="four" unicode="4" horiz-adv-x="538" 
d="M37 164q15 6 39 31.5t49.5 61t49.5 76.5t40 78q10 24 18.5 50t13.5 48t6 37.5t-4 18.5q-5 4 -0.5 7t10.5 1q24 -8 20 -52t-27.5 -102.5t-61.5 -121.5t-83 -108l-16 -16l10 -1h15q23 -2 38 -2.5t30 -1.5q12 -1 30.5 -1h38.5t39.5 0.5t34.5 1.5q23 2 40.5 3t44.5 4
q8 2 14 2.5t7 0.5t1.5 10t0.5 39q0 27 0.5 50t1.5 46.5t2.5 50t4.5 59.5q2 18 3 39t1 32q1 20 2 23.5t7 3.5q10 0 16 -5t8 -22.5t0.5 -50.5t-6.5 -87q-9 -105 -10 -144t4 -38q6 2 13.5 5t11.5 6q8 5 17.5 2t4.5 -8q-5 -6 -22.5 -13t-26.5 -7q-4 0 -4.5 -28.5t1.5 -63
t6.5 -64t9.5 -31.5q4 -2 3 -5t-5 -2q-1 0 -3 0.5t-5 0.5q-9 2 -14.5 9t-9.5 23.5t-6 43t-4 67.5q-1 19 -1 28t-1 12.5t-3 3l-6 -1.5q-6 -1 -18.5 -2t-28.5 -3q-51 -5 -106 -6t-99 3q-23 2 -39 3t-29 1q-17 0 -27.5 -2t-18.5 -7q-11 -7 -21 -7q-9 0 -15 6q-9 7 14 16z" />
    <glyph glyph-name="five" unicode="5" horiz-adv-x="499" 
d="M44 66q8 -16 28 -23t46 -7q36 0 80.5 12t88 32.5t80.5 48t58 59.5q20 32 18.5 62.5t-19 55t-49 39.5t-71.5 15q-10 0 -20.5 -1t-21.5 -3q-14 -3 -35.5 -10.5t-42.5 -16.5t-37 -17.5t-20 -13.5t-14 -0.5t-14 12.5q-5 11 -7.5 41t-3 63.5t2 61.5t6.5 34q4 5 13 4t14 -6
l4 -2t7.5 -0.5t16 2.5t29.5 5q47 8 89 12t77 4q40 0 68 -5t41 -16q12 -10 6.5 -23.5t-19.5 -9.5q-4 1 -4.5 2.5t1.5 11.5q2 13 -23 19.5t-67 6.5q-57 0 -129 -12q-22 -4 -36 -6t-22.5 -3.5t-13.5 -2.5t-10 -1q-11 -1 -12 -3.5t-3 -26.5q-3 -45 -4.5 -80.5t0.5 -49.5
q1 -7 2 -7.5t8 3.5q45 26 89 38t85 12q63 0 108.5 -27t62.5 -80q9 -28 -3.5 -58.5t-40 -59.5t-66.5 -54.5t-84 -43.5t-93 -27t-92 -4q-31 3 -53.5 18.5t-22.5 33.5q0 4 5 4q12 0 19 -12z" />
    <glyph glyph-name="six" unicode="6" horiz-adv-x="532" 
d="M48 294q26 52 63.5 95.5t80 75.5t86 50t80.5 18q45 0 73 -28q7 -7 11.5 -19t5.5 -23t-1.5 -20t-8.5 -12q-5 -2 -7 0.5t-4 15.5q-5 35 -24 50t-48 15q-38 0 -86 -25t-92.5 -67t-78.5 -95.5t-43 -110.5q-1 -5 0.5 -4.5t12.5 9.5q77 65 154 98.5t142 33.5q75 0 120 -45
q26 -27 27.5 -60t-15.5 -67t-49.5 -65.5t-74.5 -54.5t-89.5 -35t-95.5 -6q-55 7 -93 31.5t-57 61.5t-16.5 84t27.5 99zM53 173q0 -31 13 -57t35.5 -45t53 -29.5t64.5 -10.5q29 0 58.5 8t58 21.5t53.5 31.5t44 39q36 38 44.5 75t-4 66t-43 46.5t-74.5 17.5q-41 0 -89 -18
q-30 -12 -67.5 -33t-70 -43t-54.5 -41t-22 -28z" />
    <glyph glyph-name="seven" unicode="7" horiz-adv-x="492" 
d="M20 484q0 14 18.5 28.5t42.5 21.5q11 2 22 3.5t25 1.5q27 0 84 -6q29 -3 49.5 -5t38 -3t33.5 -1.5t37 -0.5h31.5t19 1t13.5 2t16 4q26 8 20 -11.5t-49 -76.5q-8 -10 -23 -30.5t-29 -39.5q-14 -18 -27.5 -36t-18.5 -25l-12 -17l22 1q45 0 45 -12q0 -2 -5 -2t-10 2
q-3 2 -12.5 2h-20t-19 -1t-10.5 -3q-4 -4 -22.5 -31t-44 -65t-53 -80t-49.5 -76q-17 -24 -34 -16q-4 2 5.5 21.5t29 53t48.5 78t64 94.5l12 18l-11 -1q-17 -2 -30.5 -1.5t-16.5 2.5q-10 7 5 7q3 0 13.5 1t21.5 2t20 2.5l9 1.5q0 1 6 9t14 19q7 9 14.5 18.5t18.5 24.5
t28.5 38t45.5 59q11 14 20.5 27t13.5 18l8 11l-8 -1q-25 -3 -66 -3q-37 0 -81.5 2.5t-90.5 7.5q-30 3 -55 3q-93 0 -102 -43q-2 -8 -8 -7.5t-6 9.5z" />
    <glyph glyph-name="eight" unicode="8" horiz-adv-x="480" 
d="M33 183q19 47 49 85.5t59 53.5q7 4 14 5t11.5 0.5t4.5 -3t-6 -6.5q-15 -9 -32 -29t-32.5 -45t-27 -51t-15.5 -47q-10 -63 30.5 -99t107.5 -36q66 0 138 36q46 23 69 53t24 61.5t-21 62.5t-67 56q-11 6 -26.5 14t-17.5 8l-3 -5q-3 -3 -8 -11q-7 -11 -17 -26.5t-20 -32
t-18 -32t-12 -26.5q-6 -19 -21 -12q-3 2 1.5 16.5t15 36t25.5 48.5t32 53q2 2 0 3.5t-16 8.5q-85 45 -105.5 90.5t25.5 90.5q26 25 61 37.5t68 12.5q27 0 49 -9t31 -28q6 -11 5 -25.5t-9 -35.5t-24 -51.5t-42 -72.5q-7 -9 -7 -11q4 -2 9 -5q5 -2 10.5 -5t12.5 -6
q155 -78 113 -183q-11 -27 -41 -51.5t-69.5 -42t-84 -26.5t-85.5 -5q-92 9 -130 60t-8 126zM175 424q3 -10 17 -25.5t31 -30.5t33.5 -25.5t25.5 -10.5l3 5q2 2 3.5 5l3.5 7q26 46 41.5 77t21 51.5t1.5 33t-16 20.5q-16 11 -41 11q-24 0 -48.5 -10.5t-43 -27.5t-28.5 -38
t-4 -42z" />
    <glyph glyph-name="nine" unicode="9" horiz-adv-x="396" 
d="M177 554q22 5 39 5q47 0 84.5 -23.5t43.5 -60.5q1 -7 1.5 -8t2.5 1q4 3 12 3t12 -2q3 -2 3.5 -9t-1 -22.5t-5.5 -41t-11 -66.5q-10 -58 -18 -113.5t-13 -101t-7.5 -75.5t-0.5 -37q2 -5 -3 -8.5t-10 -3.5q-6 0 -10 4q-6 6 -6 41t5 89t14 121t22 137q2 7 3 12.5t2 10.5
q0 5 1 9q-3 -5 -7 -12q-4 -5 -8.5 -12.5t-9.5 -15.5q-59 -99 -104 -147t-87 -56q-41 -9 -65 12.5t-31.5 60.5t-0.5 88t27 94.5t52 80.5t74 46zM130 188q22 9 46.5 29.5t49.5 50t49 67t45 79.5q12 23 6.5 46t-22 41t-40.5 29.5t-50 11.5q-29 0 -54 -16q-28 -19 -49.5 -52
t-35.5 -71.5t-19 -77.5t-2 -71t16 -52t35 -20q12 0 25 6z" />
    <glyph glyph-name="colon" unicode=":" horiz-adv-x="149" 
d="M84 2q14 1 18 -4t0 -20q-7 -26 -27 -15q-11 6 -8 22t17 17zM66 216q2 9 17 9q7 0 12.5 -2.5t7.5 -7.5q4 -13 -4.5 -24t-19.5 -7q-5 2 -10 13t-3 19z" />
    <glyph glyph-name="semicolon" unicode=";" horiz-adv-x="146" 
d="M68 -74q0 1 2 7q5 8 9.5 31t4.5 40q0 12 2 14.5t11 0.5q20 -5 -2 -68q-4 -13 -10.5 -21t-11.5 -8q-4 0 -5 4zM76 228q8 4 15 4q10 0 13.5 -8.5t-1.5 -23.5q-2 -8 -10 -11t-16 2q-7 4 -7.5 19t6.5 18z" />
    <glyph glyph-name="less" unicode="&#x3c;" horiz-adv-x="274" 
d="M120 140q40 29 62.5 42t35.5 13q8 0 12 -3q7 -4 3.5 -8t-29.5 -21q-57 -38 -89 -65.5t-32 -38.5q0 -3 2.5 -5t13 -5t33 -8t62.5 -14q35 -7 48 -12t11 -10q-1 -2 -6.5 -1.5t-10.5 2.5q-4 2 -64 13q-56 10 -86 19.5t-35.5 22.5t12.5 31.5t57 47.5z" />
    <glyph glyph-name="equal" unicode="=" horiz-adv-x="313" 
d="M144 72q68 15 98 15q15 0 18 -4q3 -3 -1.5 -4.5t-24.5 -5.5q-21 -3 -46 -8.5t-46.5 -11t-36.5 -10.5t-17 -7q-3 -5 -13 -3q-20 6 0.5 17.5t68.5 21.5zM77 121q32 10 63 15t54 5q31 0 35 -9q7 -15 -13 -5q-8 4 -31.5 0t-73.5 -16q-28 -7 -35.5 -8t-12.5 0q-13 4 -10 7.5
t24 10.5z" />
    <glyph glyph-name="greater" unicode="&#x3e;" horiz-adv-x="246" 
d="M18 11q0 4 14 15t58 40t66 47t24.5 30.5t-15.5 22t-54 22.5q-42 14 -53 20t-3 9q6 2 25.5 -3.5t43 -14.5t44.5 -19t29 -17q13 -12 16.5 -22t-5.5 -22t-32 -28.5t-64 -41.5q-22 -13 -35 -21t-20 -12.5t-9.5 -6.5t-4.5 -4q-6 -6 -14 -4q-4 2 -7.5 5t-3.5 5z" />
    <glyph glyph-name="question" unicode="?" horiz-adv-x="484" 
d="M309 615q100 -11 132 -63t-17 -126q-7 -10 -13 -18.5t-17.5 -22.5t-30.5 -36t-51 -59q-19 -23 -38.5 -47t-36 -47t-29 -42.5t-19.5 -33.5q-6 -12 -7.5 -18.5t0.5 -17.5q1 -4 -5.5 -4.5t-12.5 3.5q-23 16 15 82.5t133 175.5q101 116 106.5 173.5t-81.5 79.5q-15 4 -36 4
q-39 0 -83.5 -14t-82 -36.5t-62.5 -49.5t-25 -53q0 -10 -7 -10q-4 0 -8 5t-6 13q-4 27 23.5 58t70.5 55.5t94 39t94 9.5zM153 35q3 3 10 3t13.5 -3.5t6.5 -8.5q-1 -23 -22 -16q-7 3 -10 11.5t2 13.5z" />
    <glyph glyph-name="at" unicode="@" horiz-adv-x="550" 
d="M109 359q19 47 45.5 82t57 58.5t63.5 35.5t64 12q57 0 103 -38.5t61 -118.5q9 -49 5.5 -101t-17 -95t-34.5 -70.5t-45 -27.5q-35 0 -51.5 29t-18.5 92v33l-15 -29q-42 -81 -72 -112t-57 -22q-17 6 -22 29.5t-0.5 55t18 65t34.5 57.5q17 20 41 30.5t46 10.5q27 0 42 -16
q4 -4 10 -7q5 -1 7 -2t3.5 -7t1.5 -18v-35q-1 -59 4 -87.5t19 -45.5q3 -3 6 -3q8 0 18 13t20 34t18.5 47.5t12.5 53.5q10 64 2.5 113.5t-27 83t-49 51t-63.5 17.5q-54 0 -110.5 -46.5t-93.5 -146.5q-22 -58 -31 -117t-5 -111.5t20.5 -93.5t44.5 -63q17 -14 47 -14
q37 0 77 21t59 54q5 10 8.5 12t9.5 0t5.5 -6t-7.5 -16q-12 -20 -31.5 -36t-43.5 -26.5t-50 -15t-50 -0.5q-47 7 -77 47.5t-41.5 101.5t-2 136.5t40.5 151.5zM212 130q0 -24 4 -24q2 0 13 8q21 17 41.5 47t52.5 90q10 19 15.5 29.5t7 15.5t-0.5 7.5t-5 6.5q-9 10 -21 10
q-17 0 -36 -17t-34.5 -44.5t-26 -61.5t-10.5 -67z" />
    <glyph glyph-name="A" unicode="A" horiz-adv-x="934" 
d="M0 172q0 2 4 3.5t20 1.5t47 -0.5t85 -2.5q36 -1 66.5 -0.5t60.5 2.5t61.5 6t70.5 10l29 5l23 39q56 92 95.5 153t70.5 100.5t57.5 61.5t54.5 36q34 17 51 17q25 0 30 -32.5t-4 -109.5q-15 -130 -15 -207l-1 -35l17 -4q66 -14 83 -37q9 -12 7.5 -22.5t-11.5 -10.5
q-8 0 -9.5 1.5t-1.5 8.5q0 8 -8.5 16.5t-21 16t-27.5 12t-28 4.5q-2 0 -2 -22t2 -53.5t5 -66t6 -58.5q17 -119 36 -119q16 0 10 -8q-5 -5 -15 -6.5t-18 1.5q-12 5 -22.5 32.5t-19 68.5t-13.5 92.5t-5 103.5q0 30 -0.5 35t-3.5 6t-20.5 1h-39t-42 -1t-30.5 -2l-42.5 -5
t-49.5 -6.5t-41.5 -6t-19.5 -3.5q-4 -2 -33.5 -55t-79.5 -147q-31 -60 -53 -98.5t-37 -61.5t-26 -32t-22 -9q-6 0 -18 5q-5 3 -9 8t-7.5 20t-8 42t-11.5 73q-10 64 -22 108t-29 71.5t-39 40t-52 13.5q-20 0 -27 1.5t-7 4.5zM492 205q5 0 32 5q76 11 130.5 15t99.5 1l16 -1
l1 22q3 63 8 117t16 120q2 18 4.5 35.5l3.5 24.5q0 8 1 17t2 16q1 19 -9 19q-7 0 -24 -9q-25 -13 -50 -36t-56 -63.5t-70 -102.5t-93 -153q-13 -22 -14 -25t2 -2zM95 160q38 -22 63 -74t42 -145q23 -129 29 -129l3 3q1 2 5 8q6 9 13.5 21t17 29.5t23 42t31.5 59.5
q36 69 61 114.5t44 77.5q7 11 4.5 12t-31.5 -3q-51 -7 -94 -10.5t-92 -3.5q-26 0 -54.5 1t-61.5 3l-14 1z" />
    <glyph glyph-name="B" unicode="B" horiz-adv-x="769" 
d="M138 556q65 27 142 41.5t145 14.5q35 0 64.5 -4t51.5 -13q76 -30 40.5 -94.5t-174.5 -147.5q-9 -5 -15.5 -9t-5.5 -5q3 0 6 1q3 0 15 2q59 10 113 10q82 0 135.5 -22.5t72.5 -61t0 -88t-82 -103.5q-42 -37 -101.5 -70.5t-121.5 -58t-120 -38t-98 -9.5q-2 0 -7 0.5
t-12 0.5q-70 5 -82 41.5t39 89.5l16 17v62q-1 111 11 199t39 174q8 23 10 27t9 4q8 0 12 -1t5 -7t-1.5 -19t-7.5 -36q-11 -49 -19 -91t-13 -81t-7.5 -78t-3.5 -83q-1 -29 -0.5 -36.5t1.5 -5.5q2 0 7.5 4t13.5 9q37 24 83.5 46t93 38t87.5 25.5t66 9.5q17 0 26 -5t5 -16
q-4 -10 -13 -10q-7 0 -7 9q1 10 -18 10q-23 0 -68.5 -14t-97 -35.5t-99.5 -47.5t-76 -50q-4 -3 -4 -21t2 -39t6.5 -38t9.5 -19q11 -5 5 -9t-19 -1q-27 8 -33 77q-2 13 -3 13.5t-8 -7.5q-37 -46 -17 -69t75 -23q54 0 132.5 22.5t159.5 68.5q104 58 153 117t48.5 106t-48.5 77
t-139 30q-60 0 -137 -15q-30 -6 -38.5 -7t-13.5 2q-8 5 -3 9.5t37 24.5q102 63 148.5 107t46.5 79q0 31 -37 46t-97 15q-40 0 -87 -7t-95 -20t-94.5 -32t-87.5 -43q-23 -14 -31.5 -21.5t-2.5 -7.5q3 0 5 -2t0 -4q-4 -2 -15.5 -1t-13.5 5q-4 5 6 15.5t29.5 23t46 27
t55.5 26.5z" />
    <glyph glyph-name="C" unicode="C" horiz-adv-x="621" 
d="M163 449q68 78 136.5 117.5t122.5 39.5q46 0 73.5 -30t25.5 -92q-2 -46 -29.5 -101t-66 -102.5t-82 -79.5t-76.5 -32q-11 0 -21 5q-8 5 -4.5 8t13.5 0q20 -5 46 9.5t53.5 41.5t53.5 63.5t45.5 74.5t30 74.5t6.5 63.5q-6 43 -26 62.5t-49 19.5q-31 0 -69.5 -20t-79 -55
t-79.5 -81.5t-70.5 -100.5t-53 -112t-26.5 -115q-6 -61 9.5 -111.5t46 -86.5t73.5 -55.5t92 -19.5q38 0 78.5 12.5t80.5 39.5q25 16 54.5 40.5t58.5 51.5t54 54.5t41 48.5q6 8 12.5 9.5t1.5 -6.5q-8 -15 -30 -41t-51 -55t-61 -57.5t-59 -48.5q-100 -75 -213 -62
q-102 12 -158 73t-64.5 149.5t31 195t129.5 211.5z" />
    <glyph glyph-name="D" unicode="D" horiz-adv-x="811" 
d="M457 -16q114 81 185.5 163.5t97 157t4 137t-93.5 105.5q-38 23 -90.5 33.5t-112.5 10.5q-51 0 -105 -7.5t-107 -21.5t-102 -35t-91 -48q-14 -9 -22.5 -11t-15.5 1q-9 5 7 18t48.5 29t75 32.5t85.5 28.5q63 17 120 25t109 8q111 0 192 -34t119 -92t28.5 -136t-79.5 -166
q-59 -75 -137.5 -140t-160 -111t-158 -68.5t-131.5 -12.5q-38 7 -56 27.5t-15.5 50.5t25 66.5t64.5 73.5l17 16l1 69q1 43 2 75t4 63t8 65.5t13 82.5q4 26 7 47t4 25q1 8 3.5 10t11.5 2q8 0 12.5 -2.5t5 -13t-2 -31t-7.5 -57.5q-6 -42 -10.5 -74.5t-7.5 -62t-4.5 -59
t-3.5 -64.5q-2 -40 -0.5 -43t13.5 6q47 34 92.5 60t85 43t71 24t50.5 2q11 -3 18.5 -8.5t3.5 -8.5t-18 4q-12 6 -25 6q-26 0 -65 -16.5t-79.5 -39.5t-76 -47.5t-55.5 -39.5l-16 -13l1 -33q1 -44 4 -63t10 -21q8 -2 6.5 -5.5t-9.5 -5.5q-19 -5 -28 10.5t-13 57.5q-3 29 -6 29
q-2 0 -13 -13q-42 -44 -58.5 -78t-13 -57.5t25.5 -35.5t57 -12q55 0 134.5 30t167.5 93z" />
    <glyph glyph-name="E" unicode="E" horiz-adv-x="712" 
d="M203 459q43 34 88.5 58.5t90 41t85.5 24.5t76 8q44 0 74.5 -12t42.5 -35t1.5 -56.5t-49.5 -77.5q-21 -23 -47.5 -43.5t-53.5 -35.5t-51.5 -23.5t-41.5 -8.5q-21 0 -27 12q-2 4 4 5t14 -2q14 -6 39.5 3.5t54.5 29t57 46.5t47 55q40 58 20.5 91.5t-93.5 33.5
q-68 0 -142 -31t-140.5 -79t-119 -106t-78.5 -112t-19 -96.5t59 -60.5q26 -9 69 -9q35 0 75 5.5t79.5 15t74.5 23t58 28.5q36 23 63.5 33t40.5 3q12 -6 -5 -17t-74 -34q-34 -13 -65.5 -41.5t-57 -63.5t-42.5 -71.5t-21.5 -66.5t5 -49.5t37.5 -19.5q23 0 66 21t95.5 55.5
t108 78.5t103.5 91q20 19 26 22.5t11 -1.5q4 -3 -12 -21t-45.5 -45t-68.5 -59t-81 -63q-127 -96 -205 -96q-14 0 -28 3q-33 8 -44.5 34.5t-2.5 64.5t37 83t73 90l14 14t5 6q-2 -1 -5 -1q-2 -1 -5 -1.5t-7 -2.5q-59 -19 -108.5 -27.5t-90.5 -8.5q-83 0 -126 32.5t-41 87.5
t51.5 127t151.5 151z" />
    <glyph glyph-name="F" unicode="F" horiz-adv-x="551" 
d="M173 197q8 -14 18 -14q13 0 14 27q2 73 12 145t22 144q1 11 4.5 13.5t14.5 2.5q8 0 12 -2.5t5 -11.5t-0.5 -26.5t-6.5 -47.5q-6 -37 -11 -77.5t-8.5 -75t-4.5 -58t0 -25.5q2 -1 13 3t26 11t31 15.5t28 16.5q53 33 89 65t48 58q10 20 18 26t20 4q7 -2 7 -5.5t-7 -17.5
q-15 -32 -22 -64.5t-4 -58.5q2 -16 5 -22.5t9 -9.5q7 -3 2 -6.5t-14 -2.5q-33 3 -34 71v27l-12 -10q-48 -42 -100.5 -72t-102.5 -44q-1 0 -1.5 -21t0.5 -50.5t2.5 -62t3.5 -55.5q5 -46 11.5 -77.5t14.5 -42.5q3 -3 11 -3q16 0 12 -7q-2 -5 -12.5 -7t-18.5 0q-29 7 -44.5 75
t-18.5 202l-1 44h-13q-16 2 -27 7.5t-13 13.5q-3 14 10 14q9 0 13 -8zM17 481q9 2 42.5 12.5t76.5 26.5q81 29 147.5 49t125 32.5t113 18t111.5 5.5q226 0 180 -91q-6 -12 -8.5 -14t-9.5 -3q-10 -1 -11 2t4 14q20 38 -11 56.5t-117 21.5q-53 1 -107.5 -4t-115 -17.5
t-129 -33t-150.5 -50.5q-40 -15 -66.5 -24t-42.5 -13.5t-24.5 -5t-13.5 0.5q-12 4 -10 9.5t16 7.5z" />
    <glyph glyph-name="G" unicode="G" horiz-adv-x="738" 
d="M4 166q11 75 54.5 147.5t102 129.5t124 92t120.5 35q23 0 43 -6.5t36 -21.5q22 -19 20 -61t-21 -90t-52.5 -95.5t-75.5 -79.5q-16 -11 -35 -18.5t-31 -7.5q-11 0 -11 7q0 2 2 2h15q18 0 42 20t49 52.5t47 72.5t35 81q22 66 2.5 96.5t-62.5 30.5q-28 0 -64 -12.5
t-74.5 -37.5t-76.5 -61t-71 -83q-45 -63 -66.5 -125t-20.5 -114.5t25 -90t70 -50.5q13 -4 34 -4q39 0 88 17t98.5 46.5t96.5 69.5t83 86q12 18 29 12q3 -2 6 -6t11 -18q26 -52 37 -95.5t7 -88.5v-15q-1 -3 -1 -6l5.5 3t12 8t14 10.5t11.5 8.5q26 20 46 40.5t30 35.5
q5 7 6.5 8t6.5 1q12 0 3.5 -15t-28.5 -36.5t-47 -44t-53 -37.5q-11 -7 -11 -10q-12 -56 -34 -101t-51 -76.5t-63 -46.5t-70 -11q-36 5 -54 22.5t-10 41.5q5 17 18 33.5t36 34t56.5 37t80.5 43.5q27 13 44 22q10 6 18 10q0 1 0.5 6t1.5 13q6 48 -1 90.5t-29 91.5
q-9 20 -11 20q-1 0 -12 -13q-43 -51 -90.5 -89t-95.5 -64t-94 -38.5t-87 -12.5t-74.5 13t-56 38.5t-32 64t-1.5 89.5zM358 -237q0 -19 23.5 -30t47.5 -4q33 10 66 41t54 73q6 11 12 26.5t10.5 29.5t7 23.5t0.5 9.5q-1 0 -14.5 -6.5t-31 -15.5t-34 -17.5t-23.5 -12.5
q-57 -33 -87.5 -63.5t-30.5 -53.5z" />
    <glyph glyph-name="H" unicode="H" horiz-adv-x="972" 
d="M6 138q4 2 10.5 2.5t30.5 0.5h24t19.5 2.5t27 7.5t46.5 14q57 17 104 29t85 20l9 1.5t5 4t4 11.5l6 24q42 177 28.5 266t-79.5 89q-43 0 -110 -41q-29 -18 -61.5 -46t-59.5 -57.5t-44.5 -55t-17.5 -38.5q0 -12 -12 -5q-6 3 -1.5 17.5t17 35t31 43.5t39.5 44q57 57 116 88
t109 31q29 0 53 -12q51 -25 58 -115.5t-29 -242.5q-3 -14 -5 -20.5t1 -8.5t12.5 0t28.5 5q85 15 151 24.5t102 11.5l28.5 1.5t13.5 1.5t4 3v6q1 10 5 33.5t9.5 54t12 66t12.5 68.5q7 34 11 59t4 31q0 10 14 11q11 1 16 -1.5t5.5 -15.5t-4 -40t-13.5 -76q-10 -56 -17 -98
t-12 -70q-2 -10 -3 -18.5t-1 -10.5q-1 -2 1 -2.5t15 -2.5q63 -4 100 -20.5t37 -40.5q0 -14 -8.5 -20.5t-16.5 -0.5q-3 2 -1 7q10 23 -19 39t-90 21q-9 1 -13 1t-6.5 -2.5t-3 -9.5t-2.5 -21q-8 -76 -6 -149.5t11.5 -130.5t26 -91.5t36.5 -34.5q6 0 14 5q16 11 25 7t-5 -15
q-19 -15 -38 -15q-29 0 -52.5 34.5t-38 94t-18 138t6.5 166.5q2 13 1.5 18.5t-12.5 5.5q-8 0 -21 -2t-35 -4q-24 -3 -67 -9t-87 -12.5t-79 -12.5t-41 -8q-2 0 -4 -8q-14 -54 -38 -129.5t-54 -160.5q-8 -23 -14 -41.5t-7 -22.5q-3 -20 -8.5 -34t-10.5 -16q-11 -4 -19 -1
q-10 2 -9 11t14 50q9 28 7 60t-12.5 63t-29 59t-43.5 47q-26 20 -57 32.5t-48 9.5q-16 -3 -31 -2.5t-25 2.5t-13 5.5t5 7.5zM119 127q127 -45 162 -174q1 -4 2 -5t3.5 4.5t7.5 20t14 42.5q8 24 17.5 55t17.5 59.5t13.5 48t4.5 20.5t-17 -2.5t-40.5 -9.5t-53 -13.5
t-53.5 -15.5q-20 -6 -41 -11.5t-29 -7.5l-22 -6z" />
    <glyph glyph-name="I" unicode="I" horiz-adv-x="414" 
d="M235 619q35 13 63 13q65 0 77 -84.5t-23 -275.5q-11 -62 -19.5 -111t-14 -88.5t-9 -72t-5.5 -60.5l-1 -17l16 2q14 2 27.5 3t26.5 1q42 0 70 -9.5t30 -25.5q1 -5 -2.5 -7.5t-8.5 -2.5q-7 0 -10 7q-4 13 -18.5 17.5t-52.5 4.5q-10 0 -23 -0.5t-24.5 -1.5t-20 -2.5
t-9.5 -2.5q-2 -2 -1 -8.5t3 -13t5 -12t6 -5.5q9 0 10.5 -4.5t-6.5 -7.5q-13 -7 -28 -1q-17 8 -21 34q-2 10 -3 10q0 1 -14.5 -3t-34.5 -9q-42 -11 -67.5 -15.5t-40.5 -4.5q-18 0 -25 7q-7 6 1 10t18 -1q5 -2 23 1.5t63 14.5q17 5 34 9t25 6l17 4l1 31q1 29 3.5 61t7.5 71
t12.5 87.5t18.5 110.5q31 176 26.5 254t-50.5 78q-29 0 -78 -29q-24 -14 -56 -42t-61 -57t-49 -54.5t-20 -35.5q0 -5 -7.5 -6t-12.5 4q-6 8 3 25.5t27.5 40.5t44.5 48.5t53.5 48t55 40.5t48.5 26z" />
    <glyph glyph-name="J" unicode="J" horiz-adv-x="664" 
d="M40 198q23 37 60.5 72.5t79.5 63t82 44.5t68 17q21 0 31 -10q8 -8 13 -21t0 -15q-16 -6 -22 12q-6 20 -25 20q-18 0 -55 -19q-74 -38 -127 -87t-81 -101.5t-29.5 -106t26.5 -101.5q32 -54 82.5 -85t103.5 -31q47 0 95 29.5t90 72.5t73.5 92.5t45.5 88.5q14 38 21.5 72.5
t10 74t0.5 87t-9 110.5q-14 118 2 148q2 3 -0.5 3.5t-19.5 -1.5q-8 -1 -31.5 -3t-46.5 -4q-98 -7 -164.5 -15t-111.5 -19t-73.5 -26t-50.5 -36q-12 -12 -22 -26.5t-15 -27.5t-5.5 -23.5t5.5 -15.5q3 -2 1.5 -3.5t-6.5 -1.5q-9 0 -13.5 7.5t-5 19.5t3.5 26.5t13 27.5
q19 29 48.5 49t76 35t114.5 25t165 17q47 4 76 6.5t45.5 4t23.5 3t11 2.5q13 5 23.5 1.5t2.5 -11.5q-14 -12 -15.5 -50t7.5 -113q6 -54 9 -94t2 -73.5t-5.5 -63t-12.5 -61.5q-17 -68 -49.5 -124t-89.5 -114q-124 -128 -247 -112q-70 9 -120 45t-75.5 87.5t-22.5 112.5
t39 119z" />
    <glyph glyph-name="K" unicode="K" horiz-adv-x="696" 
d="M171 653q42 18 74 18q57 0 80 -58.5t14 -179.5q-1 -18 -4 -46.5t-5.5 -57t-4.5 -52t-3 -29.5q-2 -13 16 2t46.5 47t61 75t59.5 84q41 64 69 99t56 56q19 14 36 14q11 0 18.5 -6t5.5 -18q-1 -10 -4.5 -11t-6.5 8t-10 9q-27 0 -115 -139q-62 -96 -110 -152t-91 -82l-10 -6
l21 -16q18 -14 34 -27t33.5 -28.5t38 -35.5t48.5 -47q57 -57 101 -94.5t82 -61.5t73 -36.5t75 -17.5q15 -2 32 -1.5t31.5 3.5t25 8t13.5 11q2 4 4 1q3 -8 -4 -16t-21.5 -14t-33.5 -9.5t-39 -2.5q-42 2 -80.5 13.5t-79.5 35t-86.5 60.5t-101.5 91q-54 53 -98 90.5t-86 66.5
l-4.5 3t-2.5 -3t-2 -13.5t-3 -29.5q-9 -114 -10.5 -193t5.5 -107q1 -5 2 -5.5t6 -0.5q19 0 8 -11q-10 -11 -28 -7q-49 9 -20 357q1 11 1.5 19t-0.5 8q0 1 -9 2.5t-23 4.5q-13 2 -23 4t-12 3q-5 1 -7 11t3 14q2 2 21.5 2t35.5 -2q8 -1 12 1.5t7.5 18t6.5 49t7 93.5
q10 124 -2.5 178t-54.5 54q-22 0 -51 -13q-27 -12 -59.5 -38.5t-59 -56t-40.5 -54.5t-4 -33q3 -2 1 -4t-7 -2q-25 0 -17.5 26t33 60.5t63 68t73.5 48.5z" />
    <glyph glyph-name="L" unicode="L" horiz-adv-x="461" 
d="M203 673q27 -1 43 -15t22 -51t2.5 -101.5t-14.5 -167.5q-13 -124 -20.5 -197t-9 -111.5t2 -49.5t12.5 -11q1 0 11.5 -4.5t26.5 -11t35 -15t36 -16.5q72 -33 138.5 -58.5t123 -43t100.5 -26.5t72 -9q44 0 43 23q-1 13 2.5 14.5t7.5 -9.5q12 -29 -13 -44t-79 -9
q-153 15 -397 124q-56 25 -90.5 40t-57 22.5t-38 10t-33.5 2.5q-21 0 -24 1.5t-3 10.5q-1 10 11.5 15.5t32.5 5.5q18 0 34 -4l12 -3v49q0 24 1.5 48t4 57t7 79t11.5 114q9 91 13 149t3 93.5t-7 52.5t-17 26q-12 9 -43 -8.5t-62.5 -47t-56 -62t-24.5 -53.5q0 -7 -9 -7t-11 7
q-6 21 15 54t53.5 64t69 52.5t63.5 20.5z" />
    <glyph glyph-name="M" unicode="M" horiz-adv-x="914" 
d="M176 632q26 9 45 9q29 0 47.5 -21t27.5 -68t10.5 -122.5t-4.5 -184.5q-1 -25 -2 -49t-1.5 -42.5t-0.5 -28.5t1 -8t4 12t7 23q24 86 57.5 171t68 152.5t65.5 109t51 41.5q14 0 22 -6t12.5 -27t6 -60.5t2.5 -106.5q1 -48 1.5 -74.5t1.5 -27.5q2 -2 22 35q86 159 149.5 239
t100.5 78q15 -1 23.5 -7.5t11 -26.5t-1 -57.5t-11.5 -102.5q-8 -60 -12.5 -100t-7.5 -72.5t-4 -63t-1 -71.5q-2 -153 12 -246.5t40 -108.5q9 -5 1.5 -8.5t-18.5 0.5q-31 9 -48.5 73t-23.5 192q-3 52 -3.5 96.5t2.5 92.5t9 103.5t16 129.5q7 53 10.5 85t3.5 48.5t-3 20.5
t-10 -1q-20 -14 -46 -43.5t-55 -71.5t-60.5 -94.5t-63.5 -112.5q-14 -26 -19 -33t-13 -8q-11 -1 -17 2.5t-9.5 20t-5 49t-2.5 89.5q0 51 -1 83.5t-3.5 50t-6 22.5t-8.5 0q-19 -17 -46 -61.5t-55 -103t-54 -124.5t-44 -127q-24 -85 -35.5 -143.5t-11.5 -103.5q0 -22 -0.5 -34
t-2.5 -17.5t-6.5 -6.5t-12.5 -1q-16 0 -19 7t1 35q1 11 1 27t-1 52q-2 63 -0.5 125.5t4.5 131.5q5 95 5 163t-6 111t-18.5 63t-32.5 20q-24 0 -58 -25q-21 -15 -46.5 -42.5t-46 -55t-32.5 -49.5t-7 -27q3 -4 -0.5 -6t-10.5 0q-12 4 -9.5 19.5t14 37t31 47t42 48.5t45.5 41
t43 25z" />
    <glyph glyph-name="N" unicode="N" horiz-adv-x="753" 
d="M142 630q35 2 54.5 -15t25.5 -64t-1.5 -130t-26.5 -215q-4 -29 -6 -45.5t-3 -23.5t0 -6t3 6q25 61 58.5 122t71 116.5t77 103.5t77.5 83.5t71.5 55.5t59.5 20q24 0 39 -9t22.5 -33t8.5 -66.5t-3 -110.5q-6 -106 -4 -195t11.5 -155.5t26 -109t39.5 -55.5q21 -12 -2 -12
q-30 0 -53.5 41.5t-38.5 112.5t-20 166t2 201q8 109 1.5 158.5t-33.5 49.5q-24 0 -77 -44q-65 -54 -126.5 -135.5t-112 -174.5t-84.5 -189t-43 -179q-5 -39 -10 -47t-23 -3q-7 2 -7.5 6t1.5 24q2 11 3.5 29t3.5 34q4 35 7 65t7 60t8 63t10 74q16 114 23.5 192t6.5 126.5
t-11 70t-31 21.5q-23 0 -61 -23q-27 -17 -46 -34t-14 -22q3 -4 -5 -5.5t-13 2.5q-10 7 2.5 22.5t35.5 32t50.5 29.5t48.5 14zM183 127v-1h1q0 1 -1 1z" />
    <glyph glyph-name="O" unicode="O" horiz-adv-x="650" 
d="M36 361q5 4 13 4q9 0 14 -5.5t-2 -13.5q-4 -4 -7.5 -17.5t-6.5 -33t-5.5 -42.5t-2.5 -45q-2 -81 15 -149.5t49.5 -119t78.5 -80.5t101 -33q19 -1 41 7.5t42 23.5t36.5 35.5t24.5 42.5q2 2 -28 2q-60 2 -109 27t-85 66.5t-57 97t-25.5 118.5t9 130t47.5 132q35 65 78.5 95
t88.5 30q42 0 82 -24t70.5 -68.5t48 -107.5t15.5 -141q-2 -81 -20.5 -157t-55.5 -156q-5 -11 -4 -11.5t18 5.5q24 9 48 22t45 27.5t37.5 29.5t25.5 28q5 9 7.5 10.5t7.5 1.5q8 0 8.5 -2.5t-5.5 -11.5q-25 -38 -74 -71t-112 -55q-14 -5 -17.5 -8t-10.5 -15
q-35 -62 -76.5 -91.5t-95.5 -29.5q-10 0 -19.5 1t-20.5 3q-109 20 -172.5 108.5t-74.5 235.5q-2 29 0.5 62.5t7.5 63t12 51.5t15 28zM196 105q16 -37 40.5 -67t54.5 -50t64.5 -29.5t68.5 -5.5q6 1 9.5 1.5t6 3.5t5.5 9.5t9 18.5q38 83 56.5 165.5t17.5 158t-21.5 140
t-60.5 110.5q-46 54 -98 54q-35 0 -69 -27.5t-62 -81.5q-51 -97 -56.5 -201t35.5 -199z" />
    <glyph glyph-name="P" unicode="P" horiz-adv-x="794" 
d="M169 589q136 31 245 31q137 0 239 -53q100 -51 117 -125t-52 -154q-33 -37 -88.5 -75t-122 -70.5t-137.5 -57t-136 -34.5q-9 -1 -14 -1.5t-7 -5t-2.5 -15l-1.5 -31.5q-3 -68 0 -108.5t13 -50.5q7 -8 -1 -11.5t-20 1.5q-36 16 -27 189q0 12 0.5 18t-1 8t-5 2.5t-11.5 0.5
q-72 6 -70 39t78 79l19 11l5 55q2 23 6 58.5t8 62.5q5 40 8 67t4 44t0.5 26.5t-2.5 13.5q-5 12 -2 21t14 11q14 2 21 -4t9 -26.5t-1 -57.5t-11 -99q-3 -27 -6.5 -52.5t-5.5 -46t-3.5 -33.5t-1.5 -15t19 7q50 23 95 38.5t104 28.5q20 5 27 5t9 -3q2 -2 -1.5 -3.5t-27.5 -7.5
q-56 -13 -100 -29t-95 -42q-14 -7 -20.5 -10t-9.5 -8.5t-4 -14.5t-3 -28q-3 -28 -4 -42.5t-1 -21t1 -7t4 -0.5q48 8 101 24.5t105.5 39t101 49.5t87.5 57q90 68 114 133t-6 116.5t-108 83t-192 31.5q-97 0 -192.5 -21t-186.5 -53q-8 -4 -20 -4q-17 0 -22 9q-2 4 11.5 11
t37.5 15.5t55 18t64 16.5zM162 59q10 0 11.5 1.5t2.5 9.5q3 35 4 52t0 23t-4.5 3.5t-11.5 -7.5q-52 -36 -52.5 -58.5t50.5 -23.5z" />
    <glyph glyph-name="Q" unicode="Q" horiz-adv-x="738" 
d="M61 426q36 60 82 107t96.5 79.5t103 49.5t102.5 17q49 0 92 -16t78 -51q36 -36 56.5 -92t26.5 -122t-1 -136.5t-27 -135t-52 -118t-75 -85.5q-6 -4 -4 -6t24 -15q30 -17 61 -31.5t59.5 -25t51.5 -16.5t36 -6q14 0 16 5q6 12 9.5 4.5t-2.5 -19.5q-6 -13 -19 -16.5t-39 1.5
q-97 17 -213 93q-11 7 -14 7.5t-9 -2.5q-23 -11 -51.5 -17t-57.5 -6q-94 0 -137.5 56t-48.5 148l-1 18l-28 1q-67 0 -109.5 25.5t-57.5 70t-2.5 104.5t54.5 130zM40 237q2 -68 35.5 -98t107.5 -30h20l2 33q5 87 14 126.5t25 41.5q11 2 14 -2t0 -18q-5 -21 -9 -65t-6 -97
q0 -12 1 -14t9 -1q38 4 78 18t70 36q13 9 18 9q18 0 -2 -15q-32 -24 -75 -40.5t-88 -21.5q-8 -1 -9 -3.5t-1 -17.5q5 -89 44 -138t105 -49q16 0 34 3q8 1 18 4.5t19 6.5t15 6t6 4t-10.5 9t-24.5 17.5t-27.5 19t-19.5 13.5q-40 24 -54 15q-6 -3 -2 4q6 12 27 12q5 0 11 -1
t11 -3q14 -5 32 -15.5t59 -36.5q10 -6 15 -9.5t10 -3.5t10.5 5.5l16.5 16.5q44 48 73 111t43 132t13 138t-16.5 129.5t-46 106.5t-75.5 69q-36 18 -80 18q-45 0 -93.5 -17.5t-94.5 -48t-87 -72t-71.5 -88.5t-48 -98t-15.5 -101z" />
    <glyph glyph-name="R" unicode="R" horiz-adv-x="736" 
d="M30 563q87 22 165.5 37.5t170.5 15.5q98 0 174.5 -20t120 -55.5t47.5 -84t-44 -105.5q-27 -32 -78 -65t-113.5 -60t-128.5 -46t-123 -24q-20 -2 -21 -2.5t9 -8.5q4 -3 15.5 -11.5t23.5 -17.5q275 -206 395 -206q41 0 65 24q5 6 6.5 6t0.5 -6q-4 -20 -38.5 -30.5
t-74.5 -5.5q-43 5 -93.5 27t-101.5 52t-98.5 63t-85.5 60q-17 12 -20 12q-4 0 -4 -11t1 -39q3 -69 9 -101t16 -31q22 1 10 -12q-7 -9 -20 -9q-14 0 -24 13q-11 17 -18.5 67t-9.5 111q-1 17 -1 26t-1.5 13.5t-5 7t-10.5 6.5q-6 4 -15.5 9t-19 9.5t-16.5 7.5t-9 3q-5 0 -5 7.5
t5 12.5q4 4 11 4q20 0 50 -19q5 -3 7.5 -5t4.5 -2t2.5 7t1.5 27q1 23 2.5 44t4 45t6 53t8.5 68q4 30 6.5 53.5t2.5 33.5q1 8 1.5 17t0.5 13q1 3 1 8l1 3q0 4 12.5 5t18.5 -2q4 -2 6 -8t1.5 -21t-3.5 -41t-8 -68q-10 -75 -15 -124.5t-7 -84.5q0 -18 -2 -28q0 -9 14 -9
q11 0 28.5 3.5t46.5 10.5q88 22 161 55.5t124 72t76 80t16 78.5q-15 63 -89.5 95t-189.5 32q-66 0 -141 -10.5t-159 -33.5q-23 -6 -38.5 -9.5t-25.5 -3.5q-8 0 -16 4q-8 5 -3.5 8.5t27.5 9.5z" />
    <glyph glyph-name="S" unicode="S" horiz-adv-x="768" 
d="M157 146q43 26 84 47t76 34.5t62.5 19t43.5 1.5q17 -4 14 -8t-22 -3q-23 2 -67 -15t-93 -43t-95.5 -57.5t-73.5 -59.5q-39 -40 -47.5 -73t9 -57t58 -37t99.5 -13q34 0 73 4.5t84 14.5q81 18 147 49t109.5 68.5t61 79t3.5 80.5q-9 26 -28 48.5t-49.5 44t-75.5 43
t-107 45.5q-130 50 -162.5 91.5t17.5 91.5q41 41 102 62.5t115 21.5q42 0 70.5 -14.5t28.5 -44.5q0 -11 -9.5 -26.5t-24.5 -30.5t-32.5 -27.5t-33.5 -17.5q-14 -4 -17 -1t9 8q16 8 31.5 21t27 28t18 30t3.5 25q-5 19 -24 27.5t-45 8.5q-31 0 -68.5 -10.5t-69.5 -27.5
t-53.5 -40t-21.5 -47q0 -15 7.5 -28t24.5 -26t46 -26t72 -30q71 -27 122.5 -51.5t86 -49.5t54 -51.5t27.5 -56.5q10 -36 -7 -74t-54.5 -72.5t-92 -64.5t-118.5 -51t-134.5 -32t-140.5 -7q-85 4 -129.5 29.5t-47 64.5t36.5 87.5t120 97.5z" />
    <glyph glyph-name="T" unicode="T" horiz-adv-x="448" 
d="M374 435q4 37 7 71t2 38q-1 11 21 11q13 -1 15 -5t2 -26v-17t-1 -19t-3.5 -31.5t-6.5 -54.5q-13 -111 -18.5 -210t-4.5 -173t9 -117.5t23 -43.5t13 -6t-19 -8h-10q-20 4 -32.5 50t-16 124.5t1 185t18.5 231.5zM23 534q15 0 48 7.5t107 27.5q158 42 285 64t207 22
q55 0 83 -10.5t24 -32.5q-1 -5 -4.5 -7.5t-7.5 -2.5q-11 0 -11 11q0 14 -17 20.5t-59 6.5q-82 0 -197.5 -20.5t-276.5 -64.5q-49 -13 -82.5 -21.5t-56 -13t-35 -5t-20.5 2.5q-13 4 -8.5 10t21.5 6z" />
    <glyph glyph-name="U" unicode="U" horiz-adv-x="858" 
d="M95 561q43 34 85 34q22 0 39.5 -10.5t26.5 -32.5q6 -13 9 -24t4.5 -31t1.5 -54v-93q0 -66 0.5 -112.5t3 -81.5t6 -63t9.5 -58q26 -131 74 -131q57 0 166 182q36 60 75 136t75 156t66.5 159t50.5 145q5 16 8.5 19.5t15.5 2.5q11 -1 12.5 -4.5t-3.5 -24.5
q-25 -108 -33 -235.5t2 -267.5q10 -130 26.5 -216t37.5 -114q9 -12 -2 -12q-1 0 -2 -0.5t-2 -0.5q-4 0 -7 1q-15 3 -29.5 36t-26 85.5t-20 120t-13 140.5t-4 147t7.5 140q2 20 1.5 21.5t-5.5 -10.5q-51 -126 -103.5 -233.5t-100.5 -188.5t-90 -132t-74 -64q-19 -8 -35 -8
q-64 0 -94.5 115t-29.5 353q1 68 0.5 97t-1.5 38q-6 46 -16.5 68t-29.5 22q-17 0 -38.5 -15.5t-42.5 -36.5t-38.5 -42.5t-25.5 -33.5q-10 -13 -21 -13q-7 0 -10 6q-3 4 5.5 18.5t23 32.5t32 36.5t33.5 31.5z" />
    <glyph glyph-name="V" unicode="V" horiz-adv-x="678" 
d="M83 595q48 39 96.5 59t91.5 20q46 0 81 -23q57 -38 95.5 -163.5t64.5 -359.5q6 -56 11 -93t8 -50q0 -3 2 2.5t8 24.5q20 66 40 121.5t43.5 106t52 100t64.5 103.5q55 82 96 124.5t65 42.5q4 0 12 -4q5 -3 3.5 -7t-6.5 -6q-20 -5 -53.5 -39.5t-71 -86t-74 -113.5
t-63.5 -122q-16 -37 -33 -84t-30.5 -93.5t-22.5 -88t-11 -68.5q-2 -25 -20 -25q-5 0 -15 4q-3 1 -4.5 3t-3.5 9.5t-5 23t-9 44.5q-3 17 -6 35t-6 40t-6.5 49.5t-7.5 64.5q-28 246 -69 367.5t-103 141.5q-6 2 -12.5 3t-13.5 1q-28 0 -63.5 -13t-70 -35t-65 -50.5t-49.5 -60.5
q-6 -11 -10 -13t-10 2q-5 3 0 14.5t16.5 27t28.5 33t35 31.5z" />
    <glyph glyph-name="W" unicode="W" horiz-adv-x="935" 
d="M117 590q52 43 107 43q28 0 53 -12.5t42 -38.5q11 -16 19.5 -37t17 -52t16.5 -75t17 -107q14 -94 26 -172t21.5 -134t15.5 -88t8 -34q0 -1 2.5 9t7.5 33q18 91 46.5 181.5t73.5 202.5q16 39 26.5 63t19 36.5t15.5 16.5t16 3q11 -1 16 -7t9 -22q1 -5 1.5 -10t1.5 -14.5
t2 -26t3 -43.5q13 -162 31 -255t45 -129q5 -6 8 -6q6 0 14 25.5t23 93.5q71 306 167 471q88 151 132 133q6 -2 4.5 -9t-8.5 -7q-2 0 -14.5 -13t-25.5 -29q-77 -97 -133.5 -236.5t-97.5 -335.5q-7 -32 -12 -53t-10.5 -33.5t-11 -18t-13.5 -8.5q-38 -13 -66.5 38t-45.5 159
q-4 26 -8 58.5t-7.5 66.5t-6 66.5t-3.5 57.5q-2 32 -3 44t-3 12q-1 0 -9 -13q-21 -39 -44 -94t-43.5 -118t-37.5 -128.5t-28 -124.5q-8 -46 -14 -63t-17 -17q-3 0 -6 1t-8 3q-7 3 -15.5 31t-20.5 85.5t-27 146t-35 212.5q-13 86 -26 143t-28 91.5t-33.5 48.5t-42.5 14
q-19 0 -45 -14.5t-53 -40t-54 -60t-50 -73.5q-2 -3 -7 -3t-9 2q-5 4 6 24.5t29 46.5t40 52t40 41z" />
    <glyph glyph-name="X" unicode="X" horiz-adv-x="854" 
d="M139 605q77 56 139 56q72 0 126.5 -73.5t98.5 -225.5q4 -12 5.5 -18.5t3.5 -6.5q3 0 19 31q121 223 201 228q14 1 22 -8.5t0 -17.5q-5 -5 -12 -3.5t-9 7.5q-1 7 -6 7t-22 -13q-73 -60 -175 -262l-8 -15l9 -34q47 -178 90 -274t78 -103q17 -3 56 42.5t90 126.5
q17 29 22 35t9 6q8 0 8 -3.5t-6 -14.5q-4 -6 -10 -16.5t-12 -20.5q-9 -16 -21.5 -35t-25.5 -38t-25.5 -35.5t-21.5 -26.5q-30 -33 -60 -33q-51 0 -101 88t-97 262q-2 8 -4 14.5t-2 8.5q-1 1 -12.5 -21.5t-27.5 -55.5q-42 -82 -76.5 -139t-66 -93t-61.5 -52t-62 -16
q-8 0 -16.5 1t-16.5 3q-15 3 -28.5 11.5t-22 17.5t-9 17t9.5 11q5 2 7.5 0.5t9.5 -8.5q30 -33 65 -33q54 0 114 77q16 20 31 43t33.5 56t43 80t59.5 116l9 18t3.5 12t-2 14.5t-7.5 26.5q-43 164 -89.5 240.5t-108.5 76.5q-29 0 -62 -16t-72 -48q-24 -20 -48 -45.5t-42 -49
t-27.5 -41t-3.5 -21.5q4 -2 1.5 -4t-9.5 -2q-18 0 -13.5 20t24 49.5t50 62t64.5 57.5z" />
    <glyph glyph-name="Y" unicode="Y" horiz-adv-x="880" 
d="M129 594q25 6 50.5 -0.5t43.5 -24.5q11 -12 19.5 -26t16 -36.5t14.5 -54.5t15 -80q2 -11 7 -37t13 -58t18 -66t23 -62.5t27.5 -46.5t31.5 -18q24 0 59 32t67 84q10 17 25 47t32 66.5t34 76t31 74.5t24 62t12 39q2 10 4 12.5t10 2.5q7 0 11 -1.5t5.5 -8t1 -21t-2.5 -41.5
q-2 -23 -3 -51t-1 -44v-25.5t0.5 -27.5t1.5 -39t3 -61q4 -84 2.5 -152t-8.5 -111q-2 -9 -0.5 -10t12.5 4q57 26 99 49.5t60 40.5q11 10 16 10q13 0 2.5 -11t-37 -28t-64.5 -37t-80 -39q-9 -4 -11 -6.5t-4 -13.5q-23 -100 -86 -157t-150 -57q-21 0 -42 3q-34 6 -49.5 20
t-13 32.5t22.5 39t57 39.5q18 9 40.5 18.5t66.5 26.5q47 17 71 26t34.5 15t12.5 11.5t3 15.5q15 102 6 289q-4 68 -4 110t4 81q0 7 -0.5 6t-5.5 -12q-40 -103 -70 -171t-55 -111.5t-48 -66.5t-49 -37q-21 -11 -44 -11q-105 0 -160 312q-18 109 -38.5 156t-52.5 47
q-21 0 -54 -22q-16 -10 -32 -25.5t-28 -30.5t-18 -26t-2 -14q3 -2 -0.5 -4t-8.5 -2q-20 0 -15 19t25 43t48.5 46t54.5 29zM395 -207q2 -17 21 -26t48 -9q82 0 132 50.5t69 126.5q4 14 2 14.5t-23 -8.5q-11 -4 -32 -12t-41 -16q-51 -20 -85 -35.5t-54.5 -29.5t-29 -27
t-7.5 -28z" />
    <glyph glyph-name="Z" unicode="Z" horiz-adv-x="636" 
d="M309 300q16 16 27 27.5t10 11.5q-5 -1 -12 -2q-5 -1 -12.5 -2t-15.5 -3q-69 -12 -81 -5q-15 8 16 9q6 1 19 2.5t25 3.5q11 2 24 4.5t24.5 4.5t20 3t9.5 1t9 7t19 18q24 24 68.5 66t98.5 92q11 11 21 20.5t18 16.5q9 9 17 16q-2 0 -4 -1q-3 0 -9 -3q-75 -28 -162 -28
q-72 0 -152 19q-35 8 -56 11.5t-36 3.5q-10 0 -26.5 -3.5t-32.5 -10t-27.5 -15.5t-13.5 -19q-2 -13 -12 -6q-14 9 0.5 26.5t43.5 29.5q17 7 33.5 10.5t35.5 3.5q20 0 43 -3.5t54 -10.5q51 -11 83 -16t61 -5q26 0 56.5 4t61 11.5t58.5 18.5t48 26q13 8 24 8q10 0 11 -6
q1 -3 -40.5 -44t-116.5 -113q-34 -32 -64 -61t-39 -37l-21 -21h25q88 3 100 -17q3 -7 -4 -8.5t-12 3.5q-6 6 -25.5 9t-41.5 3q-21 0 -39 -3t-25 -8q-16 -13 -49 -47.5t-72 -77.5t-79 -88.5t-70 -82.5l-29 -35l13 -1q10 -1 19.5 -3t23 -7t32.5 -13.5t48 -22.5
q108 -53 214 -89.5t227 -36.5q48 0 75 9t25 26q-1 14 2.5 18t8.5 -7q16 -41 -33 -62t-143 -13q-48 4 -88 11t-83 20.5t-93 34.5t-116 53q-50 24 -80.5 36.5t-50.5 12.5t-33.5 -12.5t-28.5 -36.5q-7 -10 -20 -10q-8 0 -12 4q-5 5 22 45t73 96t102.5 120.5t110.5 119.5z" />
    <glyph glyph-name="bracketleft" unicode="[" horiz-adv-x="173" 
d="M52 -203q5 45 8.5 86.5t6 92.5t3.5 119t2 166q0 68 0.5 110.5t1.5 71.5t2 51.5t2 50.5q2 33 4.5 52.5t6 29t8.5 11t14 -1.5q4 -2 20 2q38 9 61 9q26 0 37 -11q6 -7 -1.5 -9t-15.5 4q-4 3 -13 3q-8 0 -22 -2.5t-37 -8.5q-10 -3 -14.5 -4t-7 -6t-2.5 -15.5t-1 -31.5
q-2 -36 -3 -62t-1.5 -55.5t-1 -69t-0.5 -101.5q0 -36 -0.5 -71t-1 -64t-1 -49t-0.5 -28q-5 -92 -10.5 -153t-14.5 -109q-7 -34 -6.5 -40t9.5 -6q12 0 30.5 1t37 3t34 3.5t20.5 3.5q11 3 19 3q11 0 4 -5q-5 -4 -27.5 -8.5t-49.5 -7.5t-51 -4.5t-33 1.5q-13 3 -16 12.5t0 36.5
z" />
    <glyph glyph-name="backslash" unicode="\" horiz-adv-x="381" 
d="M25 710q5 3 9 3q12 0 25 -26t36 -95q8 -28 27.5 -85.5t45 -128t54.5 -145t55.5 -137t49 -105t34.5 -47.5q8 -3 2.5 -8.5t-15.5 -4.5q-19 1 -55.5 69t-101.5 223q-18 44 -34 83.5t-31 80.5t-30 85.5t-33 97.5q-8 26 -18 54t-15 43q-11 29 -11.5 34t6.5 9z" />
    <glyph glyph-name="bracketright" unicode="]" horiz-adv-x="183" 
d="M65 -164h25v130q0 105 1 187t3.5 148t5.5 119t8 99q1 13 3 28.5t3.5 30t3 25.5t2.5 14q0 3 -6.5 6t-16.5 5t-21.5 3.5t-22.5 1.5q-15 0 -23 -3q-8 -5 -13.5 -3.5t-2.5 6.5q4 7 17.5 10.5t31.5 3.5q26 0 52 -6.5t34 -17.5q2 -2 2.5 -6t0.5 -13t-1.5 -25t-3.5 -42
q-4 -44 -6.5 -82t-4.5 -75t-3.5 -77t-2.5 -89q-3 -108 -5 -179.5t-4 -115t-4 -63.5t-4 -24q-2 -5 -9 -6t-33 -2q-67 -2 -96 -22q-12 -8 -18 -4t2.5 10.5t25.5 12.5t38.5 10.5t41.5 4.5z" />
    <glyph glyph-name="asciicircum" unicode="^" horiz-adv-x="247" 
d="M111 427q14 9 23 9q13 0 23 -16.5t21 -53.5q3 -11 6.5 -22.5t5.5 -16.5q3 -8 3.5 -10t-1.5 -4q-3 -2 -8.5 -1.5t-8.5 2.5q-4 3 -10 14.5t-17 40.5q-9 23 -13 31.5t-6 8.5t-9 -9q-5 -5 -14 -18t-18 -27q-18 -27 -24 -32t-16 -2q-4 2 2 16.5t16.5 32.5t23 34.5t21.5 22.5z
" />
    <glyph glyph-name="underscore" unicode="_" horiz-adv-x="223" 
d="M38 11q5 2 27 3.5t48 2t47.5 0t24.5 -2.5q7 -5 -5.5 -8t-57.5 -6q-19 -1 -30.5 -1.5t-19 -1t-12.5 0t-10 0.5q-30 3 -12 13z" />
    <glyph glyph-name="grave" unicode="`" horiz-adv-x="833" 
d="M326 388q7 2 11.5 -0.5t13.5 -13.5q8 -10 17.5 -19t11.5 -9q3 0 1.5 -2t-4.5 -4q-5 -2 -7 -1.5t-10 4.5q-10 5 -23 18q-14 14 -16.5 19t5.5 8z" />
    <glyph glyph-name="a" unicode="a" horiz-adv-x="232" 
d="M41 160q17 15 37 15q14 0 26 -8t17 -23q2 -9 12 -9q7 -1 8.5 -7.5t2.5 -38.5q1 -38 5 -57.5t12 -29.5q7 -7 25.5 12t44.5 59q15 22 20 14q1 -1 -3.5 -9t-11.5 -19t-15 -23.5t-16 -21.5q-25 -32 -53 -25q-17 5 -28 26t-13 52v16l-11 -21q-20 -39 -32.5 -54.5t-25.5 -15.5
q-6 0 -18 5q-14 7 -19.5 27t-3 44.5t13 49.5t26.5 42zM38 27q2 -14 3.5 -15t8.5 7q6 6 16.5 22t21 33.5t18 31.5t7.5 17q0 6 -8.5 19t-13.5 17q-8 5 -18 -8t-18.5 -34t-13.5 -45.5t-3 -44.5z" />
    <glyph glyph-name="b" unicode="b" horiz-adv-x="288" 
d="M58 543q18 51 41.5 75.5t44.5 24.5q26 0 42 -36t5 -104q-5 -36 -19.5 -78.5t-34.5 -83.5t-44 -77.5t-48 -61.5l-10 -11l2 -47q0 -20 1 -40t2 -30q0 -10 1 -23t2 -25.5t2 -21t1 -9.5t1 6t2 17q4 38 14.5 70t25 55t31.5 35.5t34 12.5q25 0 44 -29q12 -18 14.5 -50.5
t-5.5 -61.5q-2 -7 -0.5 -8t12.5 -1q17 2 29 8.5t35 26.5q11 11 14.5 13t7.5 0q3 -1 2 -3t-6 -9q-39 -50 -88 -47q-10 1 -12 -0.5t-6 -9.5q-10 -20 -25.5 -30.5t-32.5 -10.5q-10 0 -19 3q-18 6 -29.5 20.5t-14.5 29.5t3 27.5t22 13.5q11 2 24 -2t41 -17q9 -4 13 9t4 46
q0 34 -8.5 49t-22.5 15q-12 0 -25.5 -10.5t-25.5 -30t-22 -46.5t-14 -60q-2 -15 -4 -33t-2.5 -35.5t-0.5 -32t1 -21.5q2 -18 2 -30.5t-3 -13.5q-2 -1 -9 -1t-10 2q-8 3 -11.5 16t-8.5 53q-47 371 41 613zM56 231q28 36 50.5 76t38.5 80.5t25 80t9 73.5q0 42 -11 68.5
t-26 18.5q-19 -10 -37 -46.5t-32.5 -90t-24 -120t-11.5 -137.5q-1 -24 1 -24.5t18 21.5zM98 20q17 -35 38 -24q9 5 19.5 18t13.5 24q0 2 -11.5 7.5t-29.5 13.5q-5 2 -8.5 3t-7.5 1q-14 0 -18 -12t4 -31z" />
    <glyph glyph-name="c" unicode="c" horiz-adv-x="239" 
d="M32 171q12 19 28.5 28.5t30.5 9.5q17 0 29 -11.5t12 -34.5q0 -6 -3 -14.5t-6 -8.5q-5 0 -4 8q2 13 -5.5 30.5t-15.5 15.5q-16 -4 -29.5 -24t-22 -46t-10.5 -55.5t4 -53.5q15 -59 48 -59q16 0 40.5 16.5t49 38.5t45 44t29.5 33q5 6 11.5 6t4.5 -6q-1 -3 -10 -14
t-21.5 -24.5t-26.5 -28t-26 -25.5q-40 -38 -62 -48t-47 -3q-28 7 -46.5 31.5t-24.5 57t0.5 69t27.5 68.5z" />
    <glyph glyph-name="d" unicode="d" horiz-adv-x="372" 
d="M130 170q7 -2 8 0.5t2 21.5q1 13 3.5 46t8.5 74.5t14.5 87t20.5 83t27.5 61.5t34.5 24t27 -26q9 -38 6 -93.5t-16 -115.5t-34.5 -118t-49.5 -103q-3 -5 -2.5 -19.5t3.5 -32.5t8.5 -36.5t11.5 -30.5q9 -17 24 -29.5t26 -10.5q12 2 28.5 13t33 28t32.5 38t28 43
q6 11 8.5 13.5t7.5 0.5q2 -1 -1.5 -9.5t-10.5 -20.5t-16.5 -25.5t-18.5 -25.5q-35 -43 -61 -58t-52 -7q-30 8 -51.5 35t-29.5 69l-2 13l-11 -13q-54 -72 -95 -72q-30 0 -39 42q-6 27 1.5 55t23.5 50.5t37.5 37t43.5 14.5q5 0 10.5 -1t10.5 -3zM194 172q25 51 41 108.5
t23 115.5q2 23 2 50.5t-1.5 51.5t-4.5 38.5t-7 11.5q-12 -10 -24.5 -52t-23 -98.5t-17.5 -118.5t-7 -113q0 -25 2 -24t17 30zM39 21q1 -26 11 -26q2 0 4.5 1t6.5 3q6 4 16.5 13.5t22 22t22.5 26t18 23.5q2 4 2 18t-2 27q-6 26 -22 26q-12 0 -27 -12.5t-27 -32t-19.5 -43
t-5.5 -46.5z" />
    <glyph glyph-name="e" unicode="e" 
d="M101 224q14 -7 12.5 -28t-12.5 -44t-28.5 -43t-36.5 -25q-5 -1 -6 -9.5t0.5 -20t5.5 -23t10 -19.5q12 -16 29 -16q31 0 77 51q8 8 15.5 17t12.5 14q9 9 12 11t7 -1q2 -1 -6 -11.5t-20 -24.5t-25.5 -27.5t-22.5 -20.5q-17 -13 -30 -17t-29 -2q-14 2 -27 9t-21 18
q-17 24 -17 61t11 71.5t31 59t42 24.5q9 0 16 -4zM41 96q14 9 25.5 24t19 31t10 31.5t-2.5 25.5q-3 5 -6 5q-6 0 -13.5 -8.5t-15 -22.5t-14 -32t-10.5 -36t-2.5 -21t9.5 3z" />
    <glyph glyph-name="f" unicode="f" horiz-adv-x="264" 
d="M57 391q18 58 41.5 90.5t43.5 32.5q18 0 29 -23q17 -33 13 -86t-23 -109t-49.5 -107.5t-67.5 -80.5q-2 -2 -3.5 -19t-2.5 -41t-1 -52t0.5 -52.5t2 -41.5t3.5 -19q3 -4 16.5 -1t27.5 11q16 7 29 16t28 24.5t34.5 39t49.5 61.5q17 22 26.5 34t15 17.5t7.5 6t5 -1.5
q1 -1 1 -2t-4.5 -7.5t-15.5 -21.5t-32 -43q-30 -41 -54.5 -68.5t-44.5 -44.5t-38.5 -24.5t-36.5 -7.5h-12l15 -15q30 -30 48.5 -71.5t23 -78t-5 -60t-36.5 -15.5q-19 5 -37 49.5t-33 122.5q-13 66 -17.5 139.5t0.5 150t18.5 152.5t35.5 146zM58 139q32 37 55.5 84.5
t36.5 95.5t14 92t-13 73q-5 11 -7 12t-9 -7q-14 -14 -28 -49t-26.5 -83.5t-23 -107.5t-16.5 -121q0 -7 2 -5.5t15 16.5zM50 -177q14 -78 28 -127t24 -49q4 0 5 4q9 16 8.5 41.5t-8 54t-22 55t-32.5 44.5q-6 6 -6.5 3t3.5 -26z" />
    <glyph glyph-name="g" unicode="g" horiz-adv-x="297" 
d="M-107 -417q5 24 16.5 48t34.5 54.5t59.5 70.5t91.5 96l56 58v19q0 8 -1 36.5t-2.5 60t-3 59t-2.5 33.5q-1 8 -2.5 6.5t-9.5 -17.5q-21 -40 -35 -64t-23.5 -37t-17 -16.5t-16.5 -1.5q-19 3 -27.5 19t-9 38.5t7 48t20 47t29.5 35.5t37 14q32 0 49 -25q3 -4 9 -4
q16 -2 18 -10q3 -10 7 -49t6 -89q2 -29 2 -43t5 -14q3 0 18.5 16.5t34.5 37t35.5 40t20.5 25.5q8 11 11 13.5t5 0.5q6 -4 -24 -41.5t-87 -97.5q-13 -14 -15 -19t-3 -21q-4 -97 -22 -176.5t-45.5 -136.5t-63.5 -88t-78 -31q-13 0 -26 3q-35 9 -51 36.5t-8 65.5zM-19 -505
q54 16 94.5 87.5t59.5 184.5q3 15 5.5 36t5 39.5t3.5 32t0 14.5q-1 0 -11.5 -11t-26.5 -27q-54 -56 -91 -98t-60 -74t-34 -58t-14 -50q-2 -18 3 -34t14.5 -27t23 -15.5t28.5 0.5zM39 4q2 -5 3 -5t7 5q4 3 8 7.5t11 14.5t17 27t25 43q12 20 17.5 30.5t7.5 15.5t1 7t-3 5
q-15 19 -28 19q-7 0 -12 -4q-15 -11 -27.5 -33t-20.5 -46.5t-10 -48t4 -37.5z" />
    <glyph glyph-name="h" unicode="h" horiz-adv-x="367" 
d="M168 662q21 -6 31 -34t9 -68.5t-13.5 -89t-35.5 -95.5q-13 -26 -28 -50t-30.5 -43.5t-29.5 -32.5t-25 -17q-4 -1 -5.5 -28.5t-1.5 -67.5t2.5 -84.5t6.5 -79.5q1 -6 2 -3.5t9 25.5q15 47 33 85t37 64t37 39t34 10q12 -2 19.5 -7.5t13 -19t10 -36.5t9.5 -60q11 -84 32 -84
q23 0 86 103q5 7 11 8t6 -5q0 -3 -6.5 -16.5t-16 -29.5t-20 -31.5t-17.5 -23.5q-21 -24 -42 -24q-26 0 -44.5 33.5t-25.5 94.5q-6 58 -11 72t-17 9q-31 -15 -65 -77t-61 -153q-8 -28 -29 -18q-11 5 -15 16.5t-8 43.5q-9 84 -8 169t9.5 162.5t24 144t36 113.5t45.5 70.5
t52 15.5zM41 246q0 -7 28 21q35 35 61.5 87.5t41 107t15 103.5t-17.5 77q-4 6 -9 6q-10 0 -24 -21.5t-28 -56.5t-27.5 -81t-22.5 -95q-3 -15 -6 -37t-5.5 -43.5t-4 -40t-1.5 -27.5z" />
    <glyph glyph-name="i" unicode="i" horiz-adv-x="182" 
d="M19 156q8 -3 9 -7.5t2 -25.5q8 -138 53 -138q36 0 94 82q13 17 16.5 21t6.5 2q2 -2 2 -3.5t-5 -9.5q-64 -115 -118 -107q-36 5 -57.5 44.5t-21.5 103.5q0 23 2 32t7 9q4 0 10 -3zM19 229q12 0 14 -3t-3 -17q-3 -9 -3 -14t-7 -5.5t-12 4.5q-10 8 -6 21.5t17 13.5z" />
    <glyph glyph-name="j" unicode="j" horiz-adv-x="185" 
d="M-206 -416q6 20 16.5 40.5t28.5 45t44.5 54.5t63.5 69q30 32 42 45t13 16q2 4 3 32.5t1.5 66.5t0 79t-2.5 71q-1 27 -2 41.5t0 21t4 7.5t8 1q8 1 12.5 -2t7.5 -16.5t5 -39.5t4 -70q1 -11 1.5 -36t-0.5 -50v-35t0.5 -17.5t2 -5t3.5 3.5q12 14 33.5 39.5t43 53t39.5 50
t23 30.5q5 7 10.5 9.5t5.5 -2.5q0 -3 -11 -19t-30 -40t-43 -54t-50 -61q-11 -13 -17 -20t-8.5 -11t-3 -6.5t-0.5 -5.5t-1 -13.5t-2 -23t-2 -24t-2 -15.5q0 -2 -0.5 -7t-1.5 -10q-17 -138 -53 -206.5t-96 -75.5q-10 -1 -15.5 -1t-13.5 1q-35 3 -53 29.5t-8 60.5zM-128 -492h4
t6 1q21 4 37 23t28.5 47t22 62t15.5 67.5t9.5 63t5.5 49.5q1 8 -1.5 6t-22.5 -23q-42 -45 -70.5 -78.5t-47 -60t-28 -47.5t-12.5 -42q-5 -26 11 -46t43 -22zM-5 265q5 2 13 2t12 -2q3 -2 3.5 -8t-0.5 -12t-3.5 -11t-5.5 -5q-5 0 -7 -1q-6 0 -8 2q-8 4 -9.5 18t5.5 17z" />
    <glyph glyph-name="k" unicode="k" horiz-adv-x="306" 
d="M27 542q12 49 32.5 72.5t40.5 23.5q23 0 40 -29.5t15 -87.5q-3 -73 -32 -156.5t-77 -152.5q-7 -10 -8 -15.5t-1 -30.5q1 -25 1.5 -28t4.5 5q26 42 53 64.5t50 22.5q17 0 30 -13q11 -12 6 -31.5t-22 -40t-43 -38.5t-56 -28l-15 -5l13 -20q29 -43 44.5 -61t31.5 -26
q11 -6 24 -6q57 0 139 106q14 18 18.5 22t8.5 -1q2 -3 -7 -16.5t-23 -30.5t-30.5 -35t-29.5 -28q-37 -31 -75 -31q-61 0 -117 86q-2 4 -0.5 -23.5t6.5 -81.5q3 -35 0.5 -42.5t-16.5 -2.5q-11 4 -14 11.5t-6 35.5q-8 74 -11 162.5t-1 174t8.5 159t17.5 116.5zM51 249
q29 51 48.5 104.5t28 103t5.5 90.5t-18 66q-5 8 -7.5 8t-10.5 -7q-15 -14 -24.5 -37t-16.5 -63.5t-11 -103t-7 -157.5q-1 -24 0 -24.5t13 20.5zM61 95q19 9 37.5 23t33 29t23.5 29.5t9 24.5q0 17 -12 17q-15 0 -42 -24t-53 -63q-30 -43 -15 -43q3 0 19 7z" />
    <glyph glyph-name="l" unicode="l" horiz-adv-x="278" 
d="M86 574q25 50 50.5 73t46.5 23q18 0 31.5 -14t20.5 -40.5t7 -64.5t-11 -85q-11 -50 -31 -99.5t-45.5 -90.5t-53.5 -71t-55 -41q-6 -2 -7 -4t0 -13q3 -47 13 -89t25 -73t33 -49t36 -18t39 20t40.5 46.5t35.5 53t22 40.5q8 17 14 12q3 -2 -4 -18.5t-20 -39t-29 -46.5
t-31 -41q-40 -48 -86 -36q-37 9 -63.5 44t-42 87t-20 117.5t3.5 136.5t28 143t53 137zM39 175q2 0 12 7q44 29 81.5 88t61 126t28.5 131.5t-15 105.5q-9 17 -20 17q-19 0 -42.5 -36t-45.5 -93t-38.5 -127t-21.5 -138q-1 -10 -1 -23.5v-26.5v-22t1 -9z" />
    <glyph glyph-name="m" unicode="m" horiz-adv-x="412" 
d="M21 168q10 0 12.5 -4t1.5 -15q-1 -10 -1.5 -24t-1 -28.5t-0.5 -28.5v-23l1 -25l8 23q17 53 32.5 76t32.5 23q20 0 34 -20.5t14 -37.5q0 -8 7 5q11 21 25 40.5t27.5 33.5t25.5 22.5t21 7.5q20 -2 28 -17t11 -59q1 -9 1.5 -21.5t1.5 -21.5q3 -44 10 -65.5t17 -17.5
q6 2 17 10.5t23 21t24.5 27.5t22.5 30q6 8 8.5 10t6.5 0q3 -2 -7 -18t-25.5 -34.5t-31.5 -35t-24 -20.5q-12 -5 -18 -5q-45 0 -55 135q-3 46 -6 58t-10 8q-20 -11 -44 -43.5t-38 -67.5q-9 -23 -20 -23q-14 0 -23 37q-7 26 -11.5 37.5t-9.5 11.5t-13 -9q-20 -21 -34.5 -59.5
t-19.5 -85.5q-3 -18 -19 -11q-11 4 -15.5 25.5t-5.5 75.5q-2 59 2.5 80.5t17.5 21.5z" />
    <glyph glyph-name="n" unicode="n" horiz-adv-x="303" 
d="M4 110q2 38 3.5 45.5t6.5 9.5q8 3 12 3q11 0 13.5 -22t0.5 -82l-1 -23l5 13q26 69 49 100.5t45 30.5q17 -1 24.5 -16.5t15.5 -70.5q17 -108 45 -108q10 0 34 26t45 59q8 14 11.5 16.5t8.5 -0.5q4 -3 -5 -19t-23 -34.5t-29 -35t-23 -20.5q-12 -6 -23 -6q-54 0 -72 129
q-5 37 -8 51t-8 14q-3 0 -9 -6q-14 -13 -27 -35.5t-24 -50.5t-19 -58.5t-11 -59.5q-3 -17 -24 -13q-9 2 -11.5 8.5t-4.5 35.5q0 10 -0.5 18.5t0 20.5t1.5 30.5t2 49.5z" />
    <glyph glyph-name="o" unicode="o" horiz-adv-x="206" 
d="M9 136q8 26 27 19q6 -2 6.5 -6t-2.5 -20q-5 -26 -4.5 -49.5t5 -41.5t12.5 -28.5t17 -10.5q15 0 27 25q5 10 5 12t-5 5q-17 10 -26.5 29.5t-11 39t5.5 34t23 14.5q23 0 33.5 -30t2.5 -72q-2 -12 -1 -13.5t9 -1.5q37 0 72 34q11 11 15 13.5t6 0.5q1 -2 -4.5 -10t-13.5 -16
q-35 -35 -78 -32q-8 1 -9.5 0.5t-3.5 -4.5q-15 -50 -58 -41q-18 4 -31 18.5t-19.5 35.5t-6.5 46t8 50zM89 70q10 -19 14 -19q5 0 6 18q1 11 -0.5 25t-4 26t-6.5 19.5t-7 5.5q-11 -7 -11.5 -31t9.5 -44z" />
    <glyph glyph-name="p" unicode="p" horiz-adv-x="294" 
d="M-3 -19q4 10 6 17t3 15t1 21v36q0 42 0.5 66.5t3 37t7 15t11.5 0.5q5 -1 7.5 -3.5t3.5 -8.5t1.5 -16.5t0.5 -29.5q0 -26 1 -28.5t9 10.5q16 27 32.5 39.5t32.5 12.5q28 0 45 -37.5t8 -100.5q-2 -11 -0.5 -13t12.5 -2q14 0 32.5 6.5t37 17t34 23t22.5 24.5q6 8 12 7
q5 -1 2.5 -7.5t-10.5 -15t-19.5 -18t-24.5 -17.5q-52 -32 -89 -29q-10 0 -12 -1t-5 -9q-8 -22 -22.5 -32.5t-30.5 -10.5q-15 0 -28 9t-21 29q-15 43 28 43q16 0 38 -6q4 -1 7.5 -2t5.5 -2q3 0 5 -1q2 2 2.5 11t1 21.5t0 25.5t-2.5 21q-7 54 -30 54q-21 0 -51 -55
q-8 -14 -12 -22t-5.5 -31t-1.5 -72.5v-146.5v-142t-1 -75.5t-2 -35t-4 -20.5q-8 -32 -33 -32q-7 0 -16 3q-25 9 -37 51.5t-11 106.5t15 142t41 157zM-11 -453q6 -8 7.5 -8t3.5 8q3 10 4.5 23.5t2 40t0.5 70.5v115l-1 155l-8 -27q-17 -61 -26.5 -120t-10.5 -109.5t6 -89
t22 -58.5zM88 -27q11 -15 25 -10q14 7 22 28q6 14 5.5 16.5t-8.5 4.5q-11 2 -23 7q-26 8 -33 -7t12 -39z" />
    <glyph glyph-name="q" unicode="q" horiz-adv-x="342" 
d="M11 86q14 42 42.5 65.5t55.5 23.5q15 0 27 -8t18 -25q2 -6 5 -9q1 -1 1 -5q0 -1 4 -3q4 -1 6 -6t2.5 -19t-0.5 -40t-4 -70l-3 -54t-1 -25.5t2 -7l6 1.5q33 9 78 53t84 107q13 20 17 23.5t9 0.5q3 -2 -2 -10.5t-28 -43.5q-84 -126 -153 -142q-14 -3 -13.5 -7t17.5 -28
q27 -41 41 -88t14.5 -85t-12.5 -60.5t-40 -14.5q-42 14 -54 124.5t7 317.5q1 14 2 23.5t1 10.5q-1 -2 -3 -5q-2 -2 -3.5 -5l-3.5 -7q-23 -43 -49 -64t-46 -21q-23 0 -32 25.5t8 76.5zM35 20q1 -21 7 -21q5 0 15 7q21 14 39.5 37t42.5 66q22 41 -20 55q-13 4 -28 -8.5
t-28 -34.5t-21 -49t-7 -52zM202 -373q14 11 18 35.5t0 55.5t-16 64t-31 62l-10 16l-1 -42q0 -42 3 -80t8.5 -65t13 -40t15.5 -6z" />
    <glyph glyph-name="r" unicode="r" horiz-adv-x="176" 
d="M32 103q0 -8 1.5 -7t6.5 12q19 36 49 59.5t52 23.5q15 0 21 -12q8 -17 -2 -17q-5 0 -6 1.5t-5 9.5q-2 8 -6 8.5t-13 -3.5q-19 -10 -36 -28t-29.5 -40.5t-20 -47.5t-7.5 -49q1 -17 -1.5 -20t-13.5 -1q-5 1 -8 3t-5 9t-3 20t-2 37q-5 65 -3 91t10 26t12 -10t6 -22.5
t2.5 -25t0.5 -17.5z" />
    <glyph glyph-name="s" unicode="s" 
d="M-40 -42q0 4 8.5 3.5t18.5 -4.5q17 -8 22 -8q2 0 5 3q12 13 11 44t-15 76q-28 90 11 110q8 3 15 3q8 0 12.5 -3.5t-1.5 -8.5q-11 -10 -13.5 -30.5t5.5 -46.5q9 -35 12 -48.5t4 -25.5q3 -32 -4 -52q0 -2 -0.5 -3.5t-0.5 -2.5l-1 -3q2 0 16.5 12.5t34 30t40.5 37t36 34.5
q20 19 23 14q2 -2 -16 -21.5t-42 -43t-47.5 -45t-33.5 -28.5q-15 -11 -35.5 -14.5t-35.5 1.5q-10 3 -19.5 9.5t-9.5 10.5z" />
    <glyph glyph-name="t" unicode="t" horiz-adv-x="95" 
d="M-106 389q3 -1 6.5 -1t11.5 1.5t21.5 4.5t36.5 8q18 4 31.5 6.5t14.5 2.5q4 0 5 7t5 41q2 24 3.5 36t3 17.5t4.5 6t8 0.5q8 0 12.5 -2t6.5 -9.5t1 -22.5t-3 -41q-1 -14 -1 -18.5t5 -4.5t21 3q83 12 142 12q49 0 75 -8t20 -24q-2 -4 -10 -2t-10 8q-4 8 -19 11t-51 1
q-19 0 -47.5 -2.5t-56.5 -6t-48.5 -6.5t-22.5 -5q-1 -8 -2 -17q-1 -8 -2 -18t-3 -22q-8 -81 -11 -155t-0.5 -131.5t9.5 -92.5t18 -37q13 -2 13 -5t-8 -4.5t-15 0.5q-18 4 -29.5 39.5t-17 96t-4 141.5t10.5 176q1 11 1.5 15.5t-4.5 4.5q-3 0 -26 -5q-34 -7 -53 -10t-30 -3
t-18 3q-10 5 -7 9.5t13 1.5z" />
    <glyph glyph-name="u" unicode="u" horiz-adv-x="341" 
d="M16 118q10 -2 12 -5.5t4 -24.5q5 -54 16 -80.5t28 -18.5q14 7 32 30t35.5 52t31.5 60t19 54q2 8 3.5 10t7.5 2t10 -1.5t6 -9t2.5 -22t1.5 -41.5q2 -66 7.5 -92.5t17.5 -35.5q8 -5 32 17.5t56 64.5q15 20 22 12q2 -2 -7.5 -17t-23.5 -33t-28.5 -34t-22.5 -20
q-15 -9 -27 -9q-26 0 -42 33.5t-18 93.5l-1 35l-8 -19q-37 -83 -67 -117t-59 -26q-46 13 -54 98q-2 27 0.5 36t13.5 8z" />
    <glyph glyph-name="v" unicode="v" horiz-adv-x="281" 
d="M11 145q6 1 10.5 -0.5t8.5 -9.5t7.5 -23.5t9.5 -41.5q19 -89 28 -89q5 0 12 10.5t13 23.5t9.5 25t0.5 16q-10 15 -14 37t-1.5 41.5t10 32t19.5 8.5q11 -3 13 -30.5t-6 -68.5q-5 -23 11 -34t43 -5q21 5 50 18.5t45 25.5q12 9 18.5 9.5t-2.5 -8.5q-23 -24 -61.5 -39
t-70.5 -15q-22 0 -36 9q-5 3 -6 1.5t-5 -13.5q-19 -58 -46 -58q-7 0 -17 5q-15 8 -25 32.5t-21 83.5q-4 20 -5.5 31t-1.5 16.5t2.5 7t7.5 2.5zM118 81q2 -2 4 12t2 31t-1.5 28t-3.5 9q-3 -3 -4 -14t-1 -24.5t1 -25.5t3 -16z" />
    <glyph glyph-name="w" unicode="w" horiz-adv-x="361" 
d="M1 91q2 49 6.5 64t18.5 15q8 0 10 -3.5t0 -23.5q-5 -66 2 -117t21 -63q6 -5 18.5 24t22.5 69q4 16 6.5 20t9.5 4q9 0 13 -5.5t10 -27.5q13 -51 31 -72q5 -6 7 -8.5t7 -5.5q6 -4 16 7.5t19 28t13.5 33t-0.5 20.5q-12 11 -16.5 30.5t-2 39.5t10.5 34.5t21 14.5
q17 0 22.5 -25.5t-2.5 -67.5q-2 -8 -3 -15t-2 -9q0 -4 8 -4q14 0 43.5 10t51.5 24q11 8 16 7.5t-3 -8.5q-7 -6 -20.5 -13t-29.5 -13t-31 -10.5t-25 -5.5t-12 -3t-6 -14q-28 -89 -78 -77q-19 5 -35 25.5t-25 50.5q-2 5 -3 8t-1 2t-2.5 -8t-5.5 -16q-11 -38 -19.5 -49
t-23.5 -11q-61 0 -58 144zM239 67q2 -5 3 -3.5t3 17.5q3 16 3.5 32.5t-1.5 27.5q-2 10 -3.5 10.5t-4.5 -7.5q-7 -19 -7.5 -41t7.5 -36z" />
    <glyph glyph-name="x" unicode="x" horiz-adv-x="232" 
d="M24 -55l18 37l-7 12q-16 30 -23 88q-2 17 -0.5 21t10.5 4q11 0 14 -5.5t11 -36.5q8 -36 10.5 -43t5.5 -1t9.5 17.5t15.5 25t19 27.5t19 26q14 20 20 28.5t6 11.5q1 5 5 4.5t5 -5.5q1 -7 -5.5 -18.5t-29.5 -46.5q-20 -29 -33 -50t-22 -37q-3 -7 1.5 -17t13 -19t18.5 -14.5
t17 -2.5q9 3 23 15t30 29.5t32 38.5t28 41q9 15 13 16q9 1 -2.5 -19.5t-31 -47t-42 -51t-34.5 -30.5q-13 -5 -24 -5q-27 0 -53 23l-8 7l-7 -12q-9 -16 -19 -37t-19 -41.5t-16 -36.5t-9 -23q-5 -20 -12 -8q-6 13 53 135z" />
    <glyph glyph-name="y" unicode="y" horiz-adv-x="368" 
d="M97 -198q36 36 56 55.5t29.5 30.5t11.5 17.5t3 15.5q5 42 7.5 95.5t1.5 92.5v31l-14 -25q-38 -65 -67 -95.5t-54 -30.5q-17 0 -34 15q-10 9 -17 32t-9 46.5t0.5 41.5t11.5 18q6 0 9.5 -1t5 -5t3 -12.5t2.5 -24.5q5 -58 12.5 -78t23.5 -12q51 23 111 144q10 19 15 26.5
t11 7.5q2 0 12 -4q5 -3 8.5 -31.5t5 -67t0 -77t-5.5 -60.5q0 -3 5.5 2.5l25.5 25.5q38 39 61.5 63t37 36.5t18 14.5t4.5 -2q0 -1 -16.5 -18t-54.5 -57q-6 -6 -15.5 -16.5t-20.5 -22t-21.5 -22.5t-16.5 -17q-6 -7 -7.5 -11t-3.5 -23q-11 -87 -34 -157t-54 -117.5t-68 -70
t-76 -13.5q-69 14 -44 80t141 180zM37 -439q24 11 47 37.5t42.5 64t35 85t24.5 101.5q2 9 3 16t2 9q0 1 -14 -12t-33.5 -32t-40 -40t-34.5 -36q-26 -29 -47.5 -57t-30.5 -47q-20 -40 -13 -68t33 -28q12 0 26 7z" />
    <glyph glyph-name="z" unicode="z" horiz-adv-x="332" 
d="M14 -241q8 8 21.5 22.5t25.5 28.5q18 19 40 40.5t63 60.5q9 8 10.5 12t0.5 22q-2 39 -14 59.5t-38 26.5q-15 4 -15.5 9t10.5 26q23 42 32.5 74.5t1.5 40.5q-5 4 -25.5 -11.5t-45.5 -41.5q-18 -19 -27.5 -29t-14.5 -14.5t-7 -4.5h-5q-22 0 -13 14q13 20 30 38.5t34.5 33
t34 23.5t27.5 10q44 3 47 -38.5t-38 -103.5q-8 -13 -7 -14l3 -1l6 -3q47 -20 57 -69q1 -3 1 -5.5t1 -4.5q0 -2 1 -4q1 -1 14 11t30 29.5t35.5 37t30.5 33.5q21 24 27 24q2 0 3 -4q0 -2 -7 -11.5t-19 -23t-27.5 -29t-31.5 -30.5q-22 -21 -33.5 -31.5t-16 -16.5t-5 -10
t-0.5 -12q0 -43 -12 -88t-31.5 -87t-45 -79t-53 -63.5t-56.5 -40t-54 -8.5q-50 11 -35 65.5t90 136.5zM-18 -426q24 9 49.5 32t49 56.5t43.5 75t33 86.5q3 10 6.5 24t6 26.5t4 21.5t0.5 10t-14 -11t-31.5 -31.5t-41.5 -44.5t-44 -48.5t-38.5 -44.5t-25.5 -32
q-37 -51 -41 -87.5t23 -36.5q10 0 21 4z" />
    <glyph glyph-name="braceleft" unicode="{" horiz-adv-x="294" 
d="M67 238q15 -5 33 4t26 26q8 16 9 37t-6 64q-16 106 13.5 181t98.5 107q27 12 53 12q25 0 39 -10.5t5 -27.5q-3 -6 -8.5 -5.5t-7.5 7.5q-4 20 -25 20q-20 0 -48 -19t-50 -51q-28 -42 -36.5 -93t0.5 -123q8 -67 -5.5 -98.5t-56.5 -41.5q-8 -2 -9 -3t3 -5q12 -11 20.5 -24.5
t15.5 -34.5t13.5 -53t14.5 -80q7 -45 15 -77t18.5 -55t25 -39t34.5 -29q31 -20 51 -20q25 0 38 27q5 9 13 9t9 -2.5t-4 -12.5q-21 -43 -80 -31q-34 7 -69 34.5t-52 60.5q-7 14 -12.5 27.5t-10 32.5t-9.5 46.5t-12 67.5q-24 152 -68 158q-15 3 -15 10q1 7 17 7q10 0 19 -3z
" />
    <glyph glyph-name="bar" unicode="|" horiz-adv-x="163" 
d="M69 395q3 81 9.5 161t14.5 161q2 29 4 33.5t11 4.5t13.5 -5t5.5 -23t-1.5 -52t-7.5 -93q-4 -51 -7 -93.5t-4.5 -83t-2 -83.5t0.5 -95q2 -152 13.5 -245t30.5 -113q6 -7 0 -10t-17 2q-15 8 -28 54t-21.5 118.5t-12.5 165.5t-1 196z" />
    <glyph glyph-name="braceright" unicode="}" horiz-adv-x="311" 
d="M98 664q32 -7 52.5 -22.5t31.5 -42t12.5 -65.5t-4.5 -94q-8 -83 4 -118.5t50 -40.5q22 -3 25 -5.5t-5 -11.5q-9 -11 -15 -23.5t-8.5 -31.5t-2.5 -45.5t2 -66.5q2 -36 -1.5 -65t-13.5 -55.5t-27.5 -51t-43.5 -51.5q-68 -70 -117 -56q-7 2 -13.5 7t-10.5 10.5t-5.5 10
t2.5 6.5q18 5 24 -6q7 -13 20 -13q29 0 82 64q22 27 36 50t21.5 49t9 58t-0.5 77q-2 50 4 81t22 49q4 5 4 5.5t-3 1.5q-26 5 -42.5 17t-25.5 34t-10 54.5t4 79.5q11 95 -4.5 139.5t-66.5 58.5q-18 5 -38.5 -0.5t-18.5 -16.5q1 -5 -6.5 -6t-11.5 5q-5 6 -1 12.5t13 11
t22.5 7.5t27.5 3t27 -3z" />
    <glyph glyph-name="asciitilde" unicode="~" horiz-adv-x="232" 
d="M90 122q24 10 51 -31q17 -26 26 -26q12 0 25 44q6 20 11.5 17t0.5 -23q-16 -66 -54 -54q-14 5 -23.5 15t-23.5 36q-5 8 -6 8.5t-4 -2.5q-6 -6 -12.5 -21.5t-6.5 -24.5q0 -4 -4 -4q-6 0 -6 9.5t3.5 21t9.5 22t13 13.5z" />
    <glyph glyph-name="exclamdown" unicode="&#xa1;" horiz-adv-x="132" 
d="M46 -195q11 72 17.5 138t7 118t-4 85t-14.5 38q-6 2 -6 4q0 4 10.5 4.5t15.5 -3.5q12 -7 19.5 -44.5t9 -92.5t-2.5 -121t-14 -130q-5 -37 -6.5 -52t0.5 -22q4 -14 -17 -14q-18 0 -21 17.5t6 74.5zM63 304q9 -2 12.5 -13t-2.5 -17q-6 -4 -15 -4q-15 0 -17 7q-3 12 4 20.5
t18 6.5z" />
    <glyph glyph-name="cent" unicode="&#xa2;" horiz-adv-x="284" 
d="M113 239q11 14 26 26.5t20 12.5q2 0 4 4.5t5 20.5t5 19.5t7 3.5q8 0 9.5 -8.5t-2.5 -29.5q-1 -6 1 -6t8 -2q17 -5 23 -26.5t-3 -45.5q-5 -13 -10 -15t0 11q5 17 2.5 35t-11.5 27q-7 5 -8 5q-4 0 -6 -9.5t-7 -35.5q-4 -26 -8.5 -59t-7.5 -62.5t-4.5 -50.5t0.5 -23
q3 -3 14 3.5t25 17.5t27.5 24t19.5 23q5 8 9.5 7t-0.5 -9q-13 -22 -37.5 -43t-49.5 -31q-5 -2 -7 -13t-2 -24.5t3 -27t9 -19.5q4 -5 1 -6q-3 -2 -9 2q-8 5 -14 26.5t-6 49.5q0 2 -2 2.5t-11 1.5q-28 2 -43.5 25t-17.5 56.5t10 72t38 70.5zM118 26q5 -4 11 -4q5 0 7 8.5
t3 28.5q2 45 5.5 90.5t8.5 75.5q3 19 3 20t-8 -7q-20 -25 -33 -57.5t-17.5 -63.5t0.5 -55.5t20 -35.5z" />
    <glyph glyph-name="sterling" unicode="&#xa3;" horiz-adv-x="493" 
d="M148 81q11 -5 13 -5t10 11q18 24 30.5 64.5t20.5 100.5q2 15 0 16t-25 -1q-28 -3 -47 -3q-36 0 -30 11q2 3 8 5t11 2q7 0 7 -3q-1 -2 4 -2q2 0 10 1t18.5 2.5t21 2.5t16.5 2q10 0 10 2q0 4 2 19t5 33t6 35t5 25q6 29 19 57t32.5 50t45.5 35t59 13q22 0 30 -8q7 -7 5 -9
t-12 2q-7 3 -16 3q-17 0 -37.5 -10t-36.5 -27q-13 -14 -23 -30t-17.5 -37t-13 -48t-10.5 -65q-2 -16 -3 -23.5t0.5 -10.5t6 -2.5t14.5 1.5q32 2 56 3t44 1q63 0 69 -14q3 -7 -6 -9.5t-13 4.5q-2 4 -4 5q-2 2 -28.5 1.5t-57.5 -2t-57 -3.5t-27 -4q0 -1 -0.5 -6t-1.5 -12
q-15 -137 -64 -186l-9 -10l12 -7q92 -50 157 -50q55 0 80 37q9 12 17 12q5 0 7 -5.5t-3 -15.5q-15 -26 -49.5 -37t-84.5 -5q-32 3 -71.5 17t-75.5 35q-8 5 -10 5t-8 -2q-17 -5 -31 -5q-24 0 -44 9.5t-25 23.5q-4 12 6 18.5t27 6.5q13 0 27.5 -3t28.5 -11zM137 57
q5 2 2.5 4.5t-15.5 8.5q-18 9 -27 9q-8 0 -8 -6q0 -11 17 -16.5t31 0.5z" />
    <glyph glyph-name="yen" unicode="&#xa5;" horiz-adv-x="585" 
d="M18 558q3 4 15 4q13 0 23 -5q18 -10 33 -30.5t41 -70.5q22 -40 39.5 -68t33 -45.5t30.5 -26.5t31 -11q20 -3 47.5 15t54 46.5t48 63t28.5 66.5q11 47 18.5 65t15.5 20q40 12 12 -51q-2 -6 -4.5 -15.5t-5.5 -25t-7.5 -39t-10.5 -59.5q-3 -19 -7.5 -39.5t-8.5 -39.5
t-7.5 -33.5t-5.5 -21.5q-1 -2 0.5 -2.5t8.5 0.5q19 2 38.5 0.5t35 -5t24 -8.5t5.5 -10t-12.5 -5.5t-7.5 4.5q4 10 -62 10h-34l-4 -13q-2 -5 -4.5 -15t-5.5 -19l-7 -21l8 1q4 0 9 0.5t10 0.5q33 3 48.5 2.5t18.5 -5.5q7 -7 -16 -7q-4 0 -17 -1t-27 -2.5t-25 -2.5t-13 -2
q-2 0 -9 -18q-72 -180 -185 -162q-39 6 -40 37q-1 15 7 15q10 0 11 -15q2 -14 10.5 -20t21.5 -6q18 0 40.5 11.5t39.5 34.5q8 11 19.5 30.5t21.5 38.5t16 33.5t3 15.5q-1 0 -9 -1t-19.5 -3l-23 -4t-19.5 -4q-17 -4 -22 -4t-8 2q-7 5 24 14.5t77 15.5q6 1 7.5 2t3.5 7
q1 4 4 13t6 19t5 17.5t2 8.5q0 3 -89 -13q-63 -12 -91 -12q-18 0 -18 5q0 3 4.5 4.5t18.5 3.5q8 1 27 4t39 7q34 7 62 11.5t44 6.5q4 0 7.5 5.5t7 19t8.5 37.5t12 62q6 29 4 29l-5 -7q-71 -108 -152 -108q-69 0 -126 84q-8 14 -17 30t-28 51q-28 53 -43 74.5t-23 19.5
q-7 -2 -10.5 1t0.5 8z" />
    <glyph glyph-name="dieresis" unicode="&#xa8;" horiz-adv-x="192" 
d="M117 374q24 0 16 -22q-7 -19 -21 -12q-12 5 -10 19.5t15 14.5zM59 372q7 2 15 0t10 -7q2 -3 -1 -12.5t-6 -11.5q-2 -2 -3.5 -2.5t-7.5 1.5q-11 2 -13.5 15.5t6.5 16.5z" />
    <glyph glyph-name="copyright" unicode="&#xa9;" horiz-adv-x="314" 
d="M82 266q5 8 3 10q-8 8 12.5 12.5t50.5 4.5q21 0 42.5 -2.5t36.5 -7.5q47 -15 55 -60t-24 -111q-27 -55 -61 -81t-72 -21q-62 7 -69 96q-1 18 0 40t4.5 44t9 42.5t12.5 33.5zM148 29q30 12 54 44t36.5 69.5t11.5 71.5t-21 49q-11 7 -39.5 12.5t-48.5 5.5q-16 0 -16 -4
q0 -2 -3 -5q-4 -2 -9.5 -20t-10.5 -41q-9 -43 -9.5 -79.5t5.5 -61.5t19 -36.5t31 -4.5zM136 200q15 32 38 29q14 -2 15.5 -9t-9.5 -13q-5 -3 -10 -13t-8.5 -23t-4.5 -25.5t2 -20.5q4 -11 8 -12t13 6q5 4 13 3t8 -5q0 -2 -6 -6.5t-12 -7.5q-5 -3 -14 -3t-15 2
q-23 9 -28.5 37.5t10.5 60.5z" />
    <glyph glyph-name="macron" unicode="&#xaf;" horiz-adv-x="193" 
d="M120 357q14 -2 16.5 -5.5t-9.5 -5.5q-6 -1 -20.5 -2.5t-27.5 -3.5q-7 0 -9 1q-9 3 -7 6t10.5 5.5t21 4t25.5 0.5z" />
    <glyph glyph-name="plusminus" unicode="&#xb1;" horiz-adv-x="284" 
d="M119 182l14 4l2 24q2 34 4.5 41t10.5 7q11 0 12.5 -6t-1.5 -37q-2 -20 -0.5 -22t10.5 -1q23 4 42 4t26 -4q5 -3 4 -5.5t-7 -1.5q-8 1 -20.5 0.5t-24.5 -2t-20.5 -3t-10.5 -3.5q-1 -1 -2 -16t-1.5 -33t0.5 -33.5t2 -18.5q2 -5 -3.5 -7t-10.5 1q-7 4 -9.5 16.5t-3.5 47.5
v36l-11 -3q-5 -1 -11 -3t-11 -4q-7 -2 -11 -2.5t-6 -0.5q-13 3 -2 10t39 15zM99 15q14 5 36 7.5t43 2.5q17 0 30.5 -1.5t17.5 -6.5q2 -3 -3 -4t-27 -2q-17 0 -28.5 -1t-28.5 -4q-23 -4 -28 -4.5t-11 1.5q-19 5 -1 12z" />
    <glyph glyph-name="acute" unicode="&#xb4;" horiz-adv-x="193" 
d="M130 382q7 -2 7 -5.5t-6 -12.5q-29 -38 -41 -31q-3 1 2 9t12.5 17t15 16.5t10.5 6.5z" />
    <glyph glyph-name="cedilla" unicode="&#xb8;" horiz-adv-x="123" 
d="M24 -44q1 5 7 4t8 -6q4 -10 15 -16t16 -1q9 9 8 21.5t-11 12.5q-11 0 -11 18q0 11 1.5 15t6.5 4q7 0 8.5 -3t0.5 -14q-1 -8 0 -10t8 -7q11 -8 14 -18t-1 -18.5t-13.5 -13t-22.5 -0.5q-15 5 -25.5 14.5t-8.5 17.5z" />
    <glyph glyph-name="questiondown" unicode="&#xbf;" horiz-adv-x="464" 
d="M56 -114q7 10 13 18.5t17.5 22t30.5 35.5t51 60q20 23 39 47t35.5 47t29 42.5t19.5 33.5q6 12 7.5 18.5t-0.5 17.5q-1 4 5.5 4.5t12.5 -3.5q23 -16 -15 -83t-133 -176q-101 -116 -106.5 -173t81.5 -79q15 -4 37 -4q39 0 83.5 14.5t82 36.5t62 49t24.5 53q0 10 7 10
q4 0 8 -5t6 -13q4 -28 -23.5 -58.5t-70.5 -55.5t-93.5 -39.5t-94.5 -9.5q-100 11 -132 63.5t17 126.5zM297 285q1 23 21 16q8 -2 11 -11t-2 -14q-3 -3 -10 -3t-13.5 3.5t-6.5 8.5z" />
    <glyph glyph-name="Agrave" unicode="&#xc0;" horiz-adv-x="934" 
d="M0 172q0 2 4 3.5t20 1.5t47 -0.5t85 -2.5q36 -1 66.5 -0.5t60.5 2.5t61.5 6t70.5 10l29 5l23 39q56 92 95.5 153t70.5 100.5t57.5 61.5t54.5 36q34 17 51 17q25 0 30 -32.5t-4 -109.5q-15 -130 -15 -207l-1 -35l17 -4q66 -14 83 -37q9 -12 7.5 -22.5t-11.5 -10.5
q-8 0 -9.5 1.5t-1.5 8.5q0 8 -8.5 16.5t-21 16t-27.5 12t-28 4.5q-2 0 -2 -22t2 -53.5t5 -66t6 -58.5q17 -119 36 -119q16 0 10 -8q-5 -5 -15 -6.5t-18 1.5q-12 5 -22.5 32.5t-19 68.5t-13.5 92.5t-5 103.5q0 30 -0.5 35t-3.5 6t-20.5 1h-39t-42 -1t-30.5 -2l-42.5 -5
t-49.5 -6.5t-41.5 -6t-19.5 -3.5q-4 -2 -33.5 -55t-79.5 -147q-31 -60 -53 -98.5t-37 -61.5t-26 -32t-22 -9q-6 0 -18 5q-5 3 -9 8t-7.5 20t-8 42t-11.5 73q-10 64 -22 108t-29 71.5t-39 40t-52 13.5q-20 0 -27 1.5t-7 4.5zM492 205q5 0 32 5q76 11 130.5 15t99.5 1l16 -1
l1 22q3 63 8 117t16 120q2 18 4.5 35.5l3.5 24.5q0 8 1 17t2 16q1 19 -9 19q-7 0 -24 -9q-25 -13 -50 -36t-56 -63.5t-70 -102.5t-93 -153q-13 -22 -14 -25t2 -2zM95 160q38 -22 63 -74t42 -145q23 -129 29 -129l3 3q1 2 5 8q6 9 13.5 21t17 29.5t23 42t31.5 59.5
q36 69 61 114.5t44 77.5q7 11 4.5 12t-31.5 -3q-51 -7 -94 -10.5t-92 -3.5q-26 0 -54.5 1t-61.5 3l-14 1zM789 715q7 2 11.5 -0.5t13.5 -13.5q8 -10 17.5 -19t11.5 -9q3 0 1.5 -2t-4.5 -4q-5 -2 -7 -1.5t-10 4.5q-10 5 -23 18q-14 14 -16.5 19t5.5 8z" />
    <glyph glyph-name="Aacute" unicode="&#xc1;" horiz-adv-x="934" 
d="M0 172q0 2 4 3.5t20 1.5t47 -0.5t85 -2.5q36 -1 66.5 -0.5t60.5 2.5t61.5 6t70.5 10l29 5l23 39q56 92 95.5 153t70.5 100.5t57.5 61.5t54.5 36q34 17 51 17q25 0 30 -32.5t-4 -109.5q-15 -130 -15 -207l-1 -35l17 -4q66 -14 83 -37q9 -12 7.5 -22.5t-11.5 -10.5
q-8 0 -9.5 1.5t-1.5 8.5q0 8 -8.5 16.5t-21 16t-27.5 12t-28 4.5q-2 0 -2 -22t2 -53.5t5 -66t6 -58.5q17 -119 36 -119q16 0 10 -8q-5 -5 -15 -6.5t-18 1.5q-12 5 -22.5 32.5t-19 68.5t-13.5 92.5t-5 103.5q0 30 -0.5 35t-3.5 6t-20.5 1h-39t-42 -1t-30.5 -2l-42.5 -5
t-49.5 -6.5t-41.5 -6t-19.5 -3.5q-4 -2 -33.5 -55t-79.5 -147q-31 -60 -53 -98.5t-37 -61.5t-26 -32t-22 -9q-6 0 -18 5q-5 3 -9 8t-7.5 20t-8 42t-11.5 73q-10 64 -22 108t-29 71.5t-39 40t-52 13.5q-20 0 -27 1.5t-7 4.5zM492 205q5 0 32 5q76 11 130.5 15t99.5 1l16 -1
l1 22q3 63 8 117t16 120q2 18 4.5 35.5l3.5 24.5q0 8 1 17t2 16q1 19 -9 19q-7 0 -24 -9q-25 -13 -50 -36t-56 -63.5t-70 -102.5t-93 -153q-13 -22 -14 -25t2 -2zM95 160q38 -22 63 -74t42 -145q23 -129 29 -129l3 3q1 2 5 8q6 9 13.5 21t17 29.5t23 42t31.5 59.5
q36 69 61 114.5t44 77.5q7 11 4.5 12t-31.5 -3q-51 -7 -94 -10.5t-92 -3.5q-26 0 -54.5 1t-61.5 3l-14 1zM871 709q7 -2 7 -5.5t-6 -12.5q-29 -38 -41 -31q-3 1 2 9t12.5 17t15 16.5t10.5 6.5z" />
    <glyph glyph-name="Acircumflex" unicode="&#xc2;" horiz-adv-x="934" 
d="M0 172q0 2 4 3.5t20 1.5t47 -0.5t85 -2.5q36 -1 66.5 -0.5t60.5 2.5t61.5 6t70.5 10l29 5l23 39q56 92 95.5 153t70.5 100.5t57.5 61.5t54.5 36q34 17 51 17q25 0 30 -32.5t-4 -109.5q-15 -130 -15 -207l-1 -35l17 -4q66 -14 83 -37q9 -12 7.5 -22.5t-11.5 -10.5
q-8 0 -9.5 1.5t-1.5 8.5q0 8 -8.5 16.5t-21 16t-27.5 12t-28 4.5q-2 0 -2 -22t2 -53.5t5 -66t6 -58.5q17 -119 36 -119q16 0 10 -8q-5 -5 -15 -6.5t-18 1.5q-12 5 -22.5 32.5t-19 68.5t-13.5 92.5t-5 103.5q0 30 -0.5 35t-3.5 6t-20.5 1h-39t-42 -1t-30.5 -2l-42.5 -5
t-49.5 -6.5t-41.5 -6t-19.5 -3.5q-4 -2 -33.5 -55t-79.5 -147q-31 -60 -53 -98.5t-37 -61.5t-26 -32t-22 -9q-6 0 -18 5q-5 3 -9 8t-7.5 20t-8 42t-11.5 73q-10 64 -22 108t-29 71.5t-39 40t-52 13.5q-20 0 -27 1.5t-7 4.5zM492 205q5 0 32 5q76 11 130.5 15t99.5 1l16 -1
l1 22q3 63 8 117t16 120q2 18 4.5 35.5l3.5 24.5q0 8 1 17t2 16q1 19 -9 19q-7 0 -24 -9q-25 -13 -50 -36t-56 -63.5t-70 -102.5t-93 -153q-13 -22 -14 -25t2 -2zM95 160q38 -22 63 -74t42 -145q23 -129 29 -129l3 3q1 2 5 8q6 9 13.5 21t17 29.5t23 42t31.5 59.5
q36 69 61 114.5t44 77.5q7 11 4.5 12t-31.5 -3q-51 -7 -94 -10.5t-92 -3.5q-26 0 -54.5 1t-61.5 3l-14 1zM803 680q13 22 24 22t24 -25q9 -15 15 -24q8 -10 -1 -10q-5 0 -11 6t-17 21q-9 14 -12 14q-2 0 -13 -20q-12 -22 -19 -22q-3 0 -5 3q-3 3 15 35z" />
    <glyph glyph-name="Atilde" unicode="&#xc3;" horiz-adv-x="934" 
d="M0 172q0 2 4 3.5t20 1.5t47 -0.5t85 -2.5q36 -1 66.5 -0.5t60.5 2.5t61.5 6t70.5 10l29 5l23 39q56 92 95.5 153t70.5 100.5t57.5 61.5t54.5 36q34 17 51 17q25 0 30 -32.5t-4 -109.5q-15 -130 -15 -207l-1 -35l17 -4q66 -14 83 -37q9 -12 7.5 -22.5t-11.5 -10.5
q-8 0 -9.5 1.5t-1.5 8.5q0 8 -8.5 16.5t-21 16t-27.5 12t-28 4.5q-2 0 -2 -22t2 -53.5t5 -66t6 -58.5q17 -119 36 -119q16 0 10 -8q-5 -5 -15 -6.5t-18 1.5q-12 5 -22.5 32.5t-19 68.5t-13.5 92.5t-5 103.5q0 30 -0.5 35t-3.5 6t-20.5 1h-39t-42 -1t-30.5 -2l-42.5 -5
t-49.5 -6.5t-41.5 -6t-19.5 -3.5q-4 -2 -33.5 -55t-79.5 -147q-31 -60 -53 -98.5t-37 -61.5t-26 -32t-22 -9q-6 0 -18 5q-5 3 -9 8t-7.5 20t-8 42t-11.5 73q-10 64 -22 108t-29 71.5t-39 40t-52 13.5q-20 0 -27 1.5t-7 4.5zM492 205q5 0 32 5q76 11 130.5 15t99.5 1l16 -1
l1 22q3 63 8 117t16 120q2 18 4.5 35.5l3.5 24.5q0 8 1 17t2 16q1 19 -9 19q-7 0 -24 -9q-25 -13 -50 -36t-56 -63.5t-70 -102.5t-93 -153q-13 -22 -14 -25t2 -2zM95 160q38 -22 63 -74t42 -145q23 -129 29 -129l3 3q1 2 5 8q6 9 13.5 21t17 29.5t23 42t31.5 59.5
q36 69 61 114.5t44 77.5q7 11 4.5 12t-31.5 -3q-51 -7 -94 -10.5t-92 -3.5q-26 0 -54.5 1t-61.5 3l-14 1zM799 708q21 8 45 -28q14 -23 23 -23q10 0 22 39q5 17 10.5 14.5t0.5 -19.5q-15 -58 -48 -48q-13 4 -21.5 13t-20.5 32q-4 7 -5 7.5t-4 -2.5q-5 -5 -10.5 -18.5
t-5.5 -21.5q0 -4 -4 -4q-5 0 -5 8t3 18.5t8.5 20t11.5 12.5z" />
    <glyph glyph-name="Adieresis" unicode="&#xc4;" horiz-adv-x="934" 
d="M0 172q0 2 4 3.5t20 1.5t47 -0.5t85 -2.5q36 -1 66.5 -0.5t60.5 2.5t61.5 6t70.5 10l29 5l23 39q56 92 95.5 153t70.5 100.5t57.5 61.5t54.5 36q34 17 51 17q25 0 30 -32.5t-4 -109.5q-15 -130 -15 -207l-1 -35l17 -4q66 -14 83 -37q9 -12 7.5 -22.5t-11.5 -10.5
q-8 0 -9.5 1.5t-1.5 8.5q0 8 -8.5 16.5t-21 16t-27.5 12t-28 4.5q-2 0 -2 -22t2 -53.5t5 -66t6 -58.5q17 -119 36 -119q16 0 10 -8q-5 -5 -15 -6.5t-18 1.5q-12 5 -22.5 32.5t-19 68.5t-13.5 92.5t-5 103.5q0 30 -0.5 35t-3.5 6t-20.5 1h-39t-42 -1t-30.5 -2l-42.5 -5
t-49.5 -6.5t-41.5 -6t-19.5 -3.5q-4 -2 -33.5 -55t-79.5 -147q-31 -60 -53 -98.5t-37 -61.5t-26 -32t-22 -9q-6 0 -18 5q-5 3 -9 8t-7.5 20t-8 42t-11.5 73q-10 64 -22 108t-29 71.5t-39 40t-52 13.5q-20 0 -27 1.5t-7 4.5zM492 205q5 0 32 5q76 11 130.5 15t99.5 1l16 -1
l1 22q3 63 8 117t16 120q2 18 4.5 35.5l3.5 24.5q0 8 1 17t2 16q1 19 -9 19q-7 0 -24 -9q-25 -13 -50 -36t-56 -63.5t-70 -102.5t-93 -153q-13 -22 -14 -25t2 -2zM95 160q38 -22 63 -74t42 -145q23 -129 29 -129l3 3q1 2 5 8q6 9 13.5 21t17 29.5t23 42t31.5 59.5
q36 69 61 114.5t44 77.5q7 11 4.5 12t-31.5 -3q-51 -7 -94 -10.5t-92 -3.5q-26 0 -54.5 1t-61.5 3l-14 1zM847 701q24 0 16 -22q-7 -19 -21 -12q-12 5 -10 19.5t15 14.5zM789 699q7 2 15 0t10 -7q2 -3 -1 -12.5t-6 -11.5q-2 -2 -3.5 -2.5t-7.5 1.5q-11 2 -13.5 15.5
t6.5 16.5z" />
    <glyph glyph-name="Aring" unicode="&#xc5;" horiz-adv-x="934" 
d="M0 172q0 2 4 3.5t20 1.5t47 -0.5t85 -2.5q36 -1 66.5 -0.5t60.5 2.5t61.5 6t70.5 10l29 5l23 39q56 92 95.5 153t70.5 100.5t57.5 61.5t54.5 36q34 17 51 17q25 0 30 -32.5t-4 -109.5q-15 -130 -15 -207l-1 -35l17 -4q66 -14 83 -37q9 -12 7.5 -22.5t-11.5 -10.5
q-8 0 -9.5 1.5t-1.5 8.5q0 8 -8.5 16.5t-21 16t-27.5 12t-28 4.5q-2 0 -2 -22t2 -53.5t5 -66t6 -58.5q17 -119 36 -119q16 0 10 -8q-5 -5 -15 -6.5t-18 1.5q-12 5 -22.5 32.5t-19 68.5t-13.5 92.5t-5 103.5q0 30 -0.5 35t-3.5 6t-20.5 1h-39t-42 -1t-30.5 -2l-42.5 -5
t-49.5 -6.5t-41.5 -6t-19.5 -3.5q-4 -2 -33.5 -55t-79.5 -147q-31 -60 -53 -98.5t-37 -61.5t-26 -32t-22 -9q-6 0 -18 5q-5 3 -9 8t-7.5 20t-8 42t-11.5 73q-10 64 -22 108t-29 71.5t-39 40t-52 13.5q-20 0 -27 1.5t-7 4.5zM492 205q5 0 32 5q76 11 130.5 15t99.5 1l16 -1
l1 22q3 63 8 117t16 120q2 18 4.5 35.5l3.5 24.5q0 8 1 17t2 16q1 19 -9 19q-7 0 -24 -9q-25 -13 -50 -36t-56 -63.5t-70 -102.5t-93 -153q-13 -22 -14 -25t2 -2zM95 160q38 -22 63 -74t42 -145q23 -129 29 -129l3 3q1 2 5 8q6 9 13.5 21t17 29.5t23 42t31.5 59.5
q36 69 61 114.5t44 77.5q7 11 4.5 12t-31.5 -3q-51 -7 -94 -10.5t-92 -3.5q-26 0 -54.5 1t-61.5 3l-14 1zM822 727q5 2 9 1t3 -4q-1 -1 5 -3q10 -3 16.5 -11.5t4.5 -18.5q-1 -14 -14.5 -21.5t-26.5 -1.5q-6 3 -9 11.5t-2.5 18t4 18t10.5 11.5zM827 691q0 -14 2.5 -16.5
t10.5 3.5q14 9 6 25q-6 12 -10 12q-9 0 -9 -24z" />
    <glyph glyph-name="AE" unicode="&#xc6;" horiz-adv-x="1498" 
d="M0 171q0 2 4 3.5t20 1.5t47 -0.5t85 -2.5q36 -1 66 -0.5t60 3t62 6.5t71 10l29 4l23 39q56 92 95.5 153t70.5 100.5t57.5 61.5t54.5 36q34 17 51 17q25 0 30 -32.5t-4 -109.5q-3 -27 -6 -56t-5 -54.5t-3 -44.5t-1 -25q1 -5 2.5 -4t10.5 15q44 66 105.5 122.5t130.5 96.5
t140 61t134 16q94 -7 109.5 -55t-52.5 -124q-21 -23 -47.5 -43.5t-53 -35.5t-51 -23.5t-42.5 -8.5q-19 0 -27 12q-2 4 4.5 5t13.5 -2q14 -6 39.5 3.5t54.5 29t57.5 46.5t47.5 55q39 59 19.5 92t-93.5 33q-52 0 -110.5 -19.5t-116 -54t-111.5 -82t-97 -103.5
q-10 -13 -20.5 -29t-19 -30.5t-13 -25t-3.5 -11.5l5 -1q2 -1 5.5 -1.5t6.5 -1.5q39 -10 60 -25.5t18 -32.5q-1 -9 -11 -9q-8 0 -9.5 1t-1.5 9q0 28 -62 43q-10 3 -13 3q-4 0 -4.5 -3t-2.5 -11q-9 -54 25.5 -82t107.5 -28q29 0 68 5.5t79.5 15t76.5 23t59 28.5
q36 24 63.5 33.5t40.5 3.5q12 -7 -5 -18t-73 -33q-34 -14 -66 -42.5t-57.5 -63t-42 -71.5t-21.5 -67t4.5 -49.5t37.5 -19.5q23 0 66 21t95.5 55.5t108.5 78.5t104 91q19 19 25 22.5t12 -1.5q5 -3 -10.5 -20t-42.5 -41.5t-62.5 -54t-71.5 -56.5t-69 -49.5t-56 -33.5
q-59 -30 -104 -30q-39 0 -58.5 23.5t-15.5 62t31 88t81 102.5l20 20q-3 0 -18 -5q-111 -35 -202 -35q-32 0 -68 6.5t-63 26.5q-1 0 0.5 -16.5t4 -39.5t6 -47t6.5 -39q8 -39 13.5 -53t13.5 -14q17 0 10 -7q-5 -6 -14.5 -7.5t-17.5 1.5q-12 5 -22.5 32.5t-19 68.5t-13.5 92.5
t-5 104.5q0 29 -0.5 34t-3.5 6t-20.5 1.5t-39.5 0.5t-42.5 -1t-29.5 -2q-17 -2 -42.5 -5.5t-49.5 -7t-41.5 -6t-19.5 -3.5q-4 -2 -33.5 -54.5t-79.5 -146.5q-32 -60 -53.5 -99t-37 -62t-26.5 -32t-21 -9q-8 0 -18 5q-6 3 -9.5 8t-7.5 20t-8 42t-11 73q-10 64 -22.5 108
t-29 71.5t-39 40t-51.5 13.5q-20 1 -27 2t-7 4zM492 204q2 0 11 1.5l21 3.5q76 11 130.5 15t99.5 1l16 -1l1 22q2 63 7.5 117t15.5 121q3 17 5.5 34.5t2.5 25.5q1 7 2 16.5t1 15.5q3 19 -8 19q-7 0 -25 -9q-25 -13 -50 -36t-55.5 -63.5t-69.5 -102.5t-93 -153
q-13 -22 -14.5 -25t2.5 -2zM95 160q38 -23 63 -75t42 -144q12 -67 19.5 -98.5t9.5 -31.5l3 3q1 2 5 8q6 9 13.5 21t17 30t23 42.5t31.5 59.5q36 68 61 113.5t44 77.5q7 12 4.5 13t-31.5 -4q-51 -7 -94 -10t-92 -3q-50 0 -116 3l-14 1z" />
    <glyph glyph-name="Ccedilla" unicode="&#xc7;" horiz-adv-x="621" 
d="M163 449q68 78 136.5 117.5t122.5 39.5q46 0 73.5 -30t25.5 -92q-2 -46 -29.5 -101t-66 -102.5t-82 -79.5t-76.5 -32q-11 0 -21 5q-8 5 -4.5 8t13.5 0q20 -5 46 9.5t53.5 41.5t53.5 63.5t45.5 74.5t30 74.5t6.5 63.5q-6 43 -26 62.5t-49 19.5q-31 0 -69.5 -20t-79 -55
t-79.5 -81.5t-70.5 -100.5t-53 -112t-26.5 -115q-6 -58 7.5 -106t41 -83t66.5 -56.5t84 -25.5q1 1 5 1q6 0 8 -2q40 -2 82.5 10t85.5 41q25 16 54.5 40.5t58.5 51.5t54 54.5t41 48.5q6 8 12.5 9.5t1.5 -6.5q-8 -15 -30 -41t-51 -55t-61 -57.5t-59 -48.5q-91 -67 -189 -64
q-1 -7 0.5 -8.5t8.5 -6.5q11 -8 14 -18t-1 -18.5t-13.5 -13t-22.5 -0.5q-15 5 -25.5 14.5t-8.5 17.5q1 5 7 4t8 -6q4 -10 15 -16t16 -1q9 9 8 21.5t-11 12.5q-11 0 -11 18v2h-8q-102 12 -158 73t-64.5 149.5t31 195t129.5 211.5z" />
    <glyph glyph-name="Egrave" unicode="&#xc8;" horiz-adv-x="712" 
d="M203 459q43 34 88.5 58.5t90 41t85.5 24.5t76 8q44 0 74.5 -12t42.5 -35t1.5 -56.5t-49.5 -77.5q-21 -23 -47.5 -43.5t-53.5 -35.5t-51.5 -23.5t-41.5 -8.5q-21 0 -27 12q-2 4 4 5t14 -2q14 -6 39.5 3.5t54.5 29t57 46.5t47 55q40 58 20.5 91.5t-93.5 33.5
q-68 0 -142 -31t-140.5 -79t-119 -106t-78.5 -112t-19 -96.5t59 -60.5q26 -9 69 -9q35 0 75 5.5t79.5 15t74.5 23t58 28.5q36 23 63.5 33t40.5 3q12 -6 -5 -17t-74 -34q-34 -13 -65.5 -41.5t-57 -63.5t-42.5 -71.5t-21.5 -66.5t5 -49.5t37.5 -19.5q23 0 66 21t95.5 55.5
t108 78.5t103.5 91q20 19 26 22.5t11 -1.5q4 -3 -12 -21t-45.5 -45t-68.5 -59t-81 -63q-127 -96 -205 -96q-14 0 -28 3q-33 8 -44.5 34.5t-2.5 64.5t37 83t73 90l14 14t5 6q-2 -1 -5 -1q-2 -1 -5 -1.5t-7 -2.5q-59 -19 -108.5 -27.5t-90.5 -8.5q-83 0 -126 32.5t-41 87.5
t51.5 127t151.5 151zM366 688q7 2 11.5 -0.5t13.5 -13.5q8 -10 17.5 -19t11.5 -9q3 0 1.5 -2t-4.5 -4q-5 -2 -7 -1.5t-10 4.5q-10 5 -23 18q-14 14 -16.5 19t5.5 8z" />
    <glyph glyph-name="Eacute" unicode="&#xc9;" horiz-adv-x="712" 
d="M203 459q43 34 88.5 58.5t90 41t85.5 24.5t76 8q44 0 74.5 -12t42.5 -35t1.5 -56.5t-49.5 -77.5q-21 -23 -47.5 -43.5t-53.5 -35.5t-51.5 -23.5t-41.5 -8.5q-21 0 -27 12q-2 4 4 5t14 -2q14 -6 39.5 3.5t54.5 29t57 46.5t47 55q40 58 20.5 91.5t-93.5 33.5
q-68 0 -142 -31t-140.5 -79t-119 -106t-78.5 -112t-19 -96.5t59 -60.5q26 -9 69 -9q35 0 75 5.5t79.5 15t74.5 23t58 28.5q36 23 63.5 33t40.5 3q12 -6 -5 -17t-74 -34q-34 -13 -65.5 -41.5t-57 -63.5t-42.5 -71.5t-21.5 -66.5t5 -49.5t37.5 -19.5q23 0 66 21t95.5 55.5
t108 78.5t103.5 91q20 19 26 22.5t11 -1.5q4 -3 -12 -21t-45.5 -45t-68.5 -59t-81 -63q-127 -96 -205 -96q-14 0 -28 3q-33 8 -44.5 34.5t-2.5 64.5t37 83t73 90l14 14t5 6q-2 -1 -5 -1q-2 -1 -5 -1.5t-7 -2.5q-59 -19 -108.5 -27.5t-90.5 -8.5q-83 0 -126 32.5t-41 87.5
t51.5 127t151.5 151zM448 682q7 -2 7 -5.5t-6 -12.5q-29 -38 -41 -31q-3 1 2 9t12.5 17t15 16.5t10.5 6.5z" />
    <glyph glyph-name="Ecircumflex" unicode="&#xca;" horiz-adv-x="712" 
d="M203 459q43 34 88.5 58.5t90 41t85.5 24.5t76 8q44 0 74.5 -12t42.5 -35t1.5 -56.5t-49.5 -77.5q-21 -23 -47.5 -43.5t-53.5 -35.5t-51.5 -23.5t-41.5 -8.5q-21 0 -27 12q-2 4 4 5t14 -2q14 -6 39.5 3.5t54.5 29t57 46.5t47 55q40 58 20.5 91.5t-93.5 33.5
q-68 0 -142 -31t-140.5 -79t-119 -106t-78.5 -112t-19 -96.5t59 -60.5q26 -9 69 -9q35 0 75 5.5t79.5 15t74.5 23t58 28.5q36 23 63.5 33t40.5 3q12 -6 -5 -17t-74 -34q-34 -13 -65.5 -41.5t-57 -63.5t-42.5 -71.5t-21.5 -66.5t5 -49.5t37.5 -19.5q23 0 66 21t95.5 55.5
t108 78.5t103.5 91q20 19 26 22.5t11 -1.5q4 -3 -12 -21t-45.5 -45t-68.5 -59t-81 -63q-127 -96 -205 -96q-14 0 -28 3q-33 8 -44.5 34.5t-2.5 64.5t37 83t73 90l14 14t5 6q-2 -1 -5 -1q-2 -1 -5 -1.5t-7 -2.5q-59 -19 -108.5 -27.5t-90.5 -8.5q-83 0 -126 32.5t-41 87.5
t51.5 127t151.5 151zM380 653q13 22 24 22t24 -25q9 -15 15 -24q8 -10 -1 -10q-5 0 -11 6t-17 21q-9 14 -12 14q-2 0 -13 -20q-12 -22 -19 -22q-3 0 -5 3q-3 3 15 35z" />
    <glyph glyph-name="Edieresis" unicode="&#xcb;" horiz-adv-x="712" 
d="M203 459q43 34 88.5 58.5t90 41t85.5 24.5t76 8q44 0 74.5 -12t42.5 -35t1.5 -56.5t-49.5 -77.5q-21 -23 -47.5 -43.5t-53.5 -35.5t-51.5 -23.5t-41.5 -8.5q-21 0 -27 12q-2 4 4 5t14 -2q14 -6 39.5 3.5t54.5 29t57 46.5t47 55q40 58 20.5 91.5t-93.5 33.5
q-68 0 -142 -31t-140.5 -79t-119 -106t-78.5 -112t-19 -96.5t59 -60.5q26 -9 69 -9q35 0 75 5.5t79.5 15t74.5 23t58 28.5q36 23 63.5 33t40.5 3q12 -6 -5 -17t-74 -34q-34 -13 -65.5 -41.5t-57 -63.5t-42.5 -71.5t-21.5 -66.5t5 -49.5t37.5 -19.5q23 0 66 21t95.5 55.5
t108 78.5t103.5 91q20 19 26 22.5t11 -1.5q4 -3 -12 -21t-45.5 -45t-68.5 -59t-81 -63q-127 -96 -205 -96q-14 0 -28 3q-33 8 -44.5 34.5t-2.5 64.5t37 83t73 90l14 14t5 6q-2 -1 -5 -1q-2 -1 -5 -1.5t-7 -2.5q-59 -19 -108.5 -27.5t-90.5 -8.5q-83 0 -126 32.5t-41 87.5
t51.5 127t151.5 151zM424 674q24 0 16 -22q-7 -19 -21 -12q-12 5 -10 19.5t15 14.5zM366 672q7 2 15 0t10 -7q2 -3 -1 -12.5t-6 -11.5q-2 -2 -3.5 -2.5t-7.5 1.5q-11 2 -13.5 15.5t6.5 16.5z" />
    <glyph glyph-name="Igrave" unicode="&#xcc;" horiz-adv-x="414" 
d="M235 619q35 13 63 13q65 0 77 -84.5t-23 -275.5q-11 -62 -19.5 -111t-14 -88.5t-9 -72t-5.5 -60.5l-1 -17l16 2q14 2 27.5 3t26.5 1q42 0 70 -9.5t30 -25.5q1 -5 -2.5 -7.5t-8.5 -2.5q-7 0 -10 7q-4 13 -18.5 17.5t-52.5 4.5q-10 0 -23 -0.5t-24.5 -1.5t-20 -2.5
t-9.5 -2.5q-2 -2 -1 -8.5t3 -13t5 -12t6 -5.5q9 0 10.5 -4.5t-6.5 -7.5q-13 -7 -28 -1q-17 8 -21 34q-2 10 -3 10q0 1 -14.5 -3t-34.5 -9q-42 -11 -67.5 -15.5t-40.5 -4.5q-18 0 -25 7q-7 6 1 10t18 -1q5 -2 23 1.5t63 14.5q17 5 34 9t25 6l17 4l1 31q1 29 3.5 61t7.5 71
t12.5 87.5t18.5 110.5q31 176 26.5 254t-50.5 78q-29 0 -78 -29q-24 -14 -56 -42t-61 -57t-49 -54.5t-20 -35.5q0 -5 -7.5 -6t-12.5 4q-6 8 3 25.5t27.5 40.5t44.5 48.5t53.5 48t55 40.5t48.5 26zM266 746q7 2 11.5 -0.5t13.5 -13.5q8 -10 17.5 -19t11.5 -9q3 0 1.5 -2
t-4.5 -4q-5 -2 -7 -1.5t-10 4.5q-10 5 -23 18q-14 14 -16.5 19t5.5 8z" />
    <glyph glyph-name="Iacute" unicode="&#xcd;" horiz-adv-x="414" 
d="M235 619q35 13 63 13q65 0 77 -84.5t-23 -275.5q-11 -62 -19.5 -111t-14 -88.5t-9 -72t-5.5 -60.5l-1 -17l16 2q14 2 27.5 3t26.5 1q42 0 70 -9.5t30 -25.5q1 -5 -2.5 -7.5t-8.5 -2.5q-7 0 -10 7q-4 13 -18.5 17.5t-52.5 4.5q-10 0 -23 -0.5t-24.5 -1.5t-20 -2.5
t-9.5 -2.5q-2 -2 -1 -8.5t3 -13t5 -12t6 -5.5q9 0 10.5 -4.5t-6.5 -7.5q-13 -7 -28 -1q-17 8 -21 34q-2 10 -3 10q0 1 -14.5 -3t-34.5 -9q-42 -11 -67.5 -15.5t-40.5 -4.5q-18 0 -25 7q-7 6 1 10t18 -1q5 -2 23 1.5t63 14.5q17 5 34 9t25 6l17 4l1 31q1 29 3.5 61t7.5 71
t12.5 87.5t18.5 110.5q31 176 26.5 254t-50.5 78q-29 0 -78 -29q-24 -14 -56 -42t-61 -57t-49 -54.5t-20 -35.5q0 -5 -7.5 -6t-12.5 4q-6 8 3 25.5t27.5 40.5t44.5 48.5t53.5 48t55 40.5t48.5 26zM348 740q7 -2 7 -5.5t-6 -12.5q-29 -38 -41 -31q-3 1 2 9t12.5 17t15 16.5
t10.5 6.5z" />
    <glyph glyph-name="Icircumflex" unicode="&#xce;" horiz-adv-x="414" 
d="M235 619q35 13 63 13q65 0 77 -84.5t-23 -275.5q-11 -62 -19.5 -111t-14 -88.5t-9 -72t-5.5 -60.5l-1 -17l16 2q14 2 27.5 3t26.5 1q42 0 70 -9.5t30 -25.5q1 -5 -2.5 -7.5t-8.5 -2.5q-7 0 -10 7q-4 13 -18.5 17.5t-52.5 4.5q-10 0 -23 -0.5t-24.5 -1.5t-20 -2.5
t-9.5 -2.5q-2 -2 -1 -8.5t3 -13t5 -12t6 -5.5q9 0 10.5 -4.5t-6.5 -7.5q-13 -7 -28 -1q-17 8 -21 34q-2 10 -3 10q0 1 -14.5 -3t-34.5 -9q-42 -11 -67.5 -15.5t-40.5 -4.5q-18 0 -25 7q-7 6 1 10t18 -1q5 -2 23 1.5t63 14.5q17 5 34 9t25 6l17 4l1 31q1 29 3.5 61t7.5 71
t12.5 87.5t18.5 110.5q31 176 26.5 254t-50.5 78q-29 0 -78 -29q-24 -14 -56 -42t-61 -57t-49 -54.5t-20 -35.5q0 -5 -7.5 -6t-12.5 4q-6 8 3 25.5t27.5 40.5t44.5 48.5t53.5 48t55 40.5t48.5 26zM280 711q13 22 24 22t24 -25q9 -15 15 -24q8 -10 -1 -10q-5 0 -11 6t-17 21
q-9 14 -12 14q-2 0 -13 -20q-12 -22 -19 -22q-3 0 -5 3q-3 3 15 35z" />
    <glyph glyph-name="Idieresis" unicode="&#xcf;" horiz-adv-x="414" 
d="M235 619q35 13 63 13q65 0 77 -84.5t-23 -275.5q-11 -62 -19.5 -111t-14 -88.5t-9 -72t-5.5 -60.5l-1 -17l16 2q14 2 27.5 3t26.5 1q42 0 70 -9.5t30 -25.5q1 -5 -2.5 -7.5t-8.5 -2.5q-7 0 -10 7q-4 13 -18.5 17.5t-52.5 4.5q-10 0 -23 -0.5t-24.5 -1.5t-20 -2.5
t-9.5 -2.5q-2 -2 -1 -8.5t3 -13t5 -12t6 -5.5q9 0 10.5 -4.5t-6.5 -7.5q-13 -7 -28 -1q-17 8 -21 34q-2 10 -3 10q0 1 -14.5 -3t-34.5 -9q-42 -11 -67.5 -15.5t-40.5 -4.5q-18 0 -25 7q-7 6 1 10t18 -1q5 -2 23 1.5t63 14.5q17 5 34 9t25 6l17 4l1 31q1 29 3.5 61t7.5 71
t12.5 87.5t18.5 110.5q31 176 26.5 254t-50.5 78q-29 0 -78 -29q-24 -14 -56 -42t-61 -57t-49 -54.5t-20 -35.5q0 -5 -7.5 -6t-12.5 4q-6 8 3 25.5t27.5 40.5t44.5 48.5t53.5 48t55 40.5t48.5 26zM324 732q24 0 16 -22q-7 -19 -21 -12q-12 5 -10 19.5t15 14.5zM266 730
q7 2 15 0t10 -7q2 -3 -1 -12.5t-6 -11.5q-2 -2 -3.5 -2.5t-7.5 1.5q-11 2 -13.5 15.5t6.5 16.5z" />
    <glyph glyph-name="Ntilde" unicode="&#xd1;" horiz-adv-x="753" 
d="M142 630q35 2 54.5 -15t25.5 -64t-1.5 -130t-26.5 -215q-4 -29 -6 -45.5t-3 -23.5t0 -6t3 6q25 61 58.5 122t71 116.5t77 103.5t77.5 83.5t71.5 55.5t59.5 20q24 0 39 -9t22.5 -33t8.5 -66.5t-3 -110.5q-6 -106 -4 -195t11.5 -155.5t26 -109t39.5 -55.5q21 -12 -2 -12
q-30 0 -53.5 41.5t-38.5 112.5t-20 166t2 201q8 109 1.5 158.5t-33.5 49.5q-24 0 -77 -44q-65 -54 -126.5 -135.5t-112 -174.5t-84.5 -189t-43 -179q-5 -39 -10 -47t-23 -3q-7 2 -7.5 6t1.5 24q2 11 3.5 29t3.5 34q4 35 7 65t7 60t8 63t10 74q16 114 23.5 192t6.5 126.5
t-11 70t-31 21.5q-23 0 -61 -23q-27 -17 -46 -34t-14 -22q3 -4 -5 -5.5t-13 2.5q-10 7 2.5 22.5t35.5 32t50.5 29.5t48.5 14zM430 736q21 8 45 -28q14 -23 23 -23q10 0 22 39q5 17 10.5 14.5t0.5 -19.5q-15 -58 -48 -48q-13 4 -21.5 13t-20.5 32q-4 7 -5 7.5t-4 -2.5
q-5 -5 -10.5 -18.5t-5.5 -21.5q0 -4 -4 -4q-5 0 -5 8t3 18.5t8.5 20t11.5 12.5zM183 127v-1h1q0 1 -1 1z" />
    <glyph glyph-name="Ograve" unicode="&#xd2;" horiz-adv-x="650" 
d="M36 361q5 4 13 4q9 0 14 -5.5t-2 -13.5q-4 -4 -7.5 -17.5t-6.5 -33t-5.5 -42.5t-2.5 -45q-2 -81 15 -149.5t49.5 -119t78.5 -80.5t101 -33q19 -1 41 7.5t42 23.5t36.5 35.5t24.5 42.5q2 2 -28 2q-60 2 -109 27t-85 66.5t-57 97t-25.5 118.5t9 130t47.5 132q35 65 78.5 95
t88.5 30q42 0 82 -24t70.5 -68.5t48 -107.5t15.5 -141q-2 -81 -20.5 -157t-55.5 -156q-5 -11 -4 -11.5t18 5.5q24 9 48 22t45 27.5t37.5 29.5t25.5 28q5 9 7.5 10.5t7.5 1.5q8 0 8.5 -2.5t-5.5 -11.5q-25 -38 -74 -71t-112 -55q-14 -5 -17.5 -8t-10.5 -15
q-35 -62 -76.5 -91.5t-95.5 -29.5q-10 0 -19.5 1t-20.5 3q-109 20 -172.5 108.5t-74.5 235.5q-2 29 0.5 62.5t7.5 63t12 51.5t15 28zM196 105q16 -37 40.5 -67t54.5 -50t64.5 -29.5t68.5 -5.5q6 1 9.5 1.5t6 3.5t5.5 9.5t9 18.5q38 83 56.5 165.5t17.5 158t-21.5 140
t-60.5 110.5q-46 54 -98 54q-35 0 -69 -27.5t-62 -81.5q-51 -97 -56.5 -201t35.5 -199zM313 750q7 2 11.5 -0.5t13.5 -13.5q8 -10 17.5 -19t11.5 -9q3 0 1.5 -2t-4.5 -4q-5 -2 -7 -1.5t-10 4.5q-10 5 -23 18q-14 14 -16.5 19t5.5 8z" />
    <glyph glyph-name="Oacute" unicode="&#xd3;" horiz-adv-x="650" 
d="M36 361q5 4 13 4q9 0 14 -5.5t-2 -13.5q-4 -4 -7.5 -17.5t-6.5 -33t-5.5 -42.5t-2.5 -45q-2 -81 15 -149.5t49.5 -119t78.5 -80.5t101 -33q19 -1 41 7.5t42 23.5t36.5 35.5t24.5 42.5q2 2 -28 2q-60 2 -109 27t-85 66.5t-57 97t-25.5 118.5t9 130t47.5 132q35 65 78.5 95
t88.5 30q42 0 82 -24t70.5 -68.5t48 -107.5t15.5 -141q-2 -81 -20.5 -157t-55.5 -156q-5 -11 -4 -11.5t18 5.5q24 9 48 22t45 27.5t37.5 29.5t25.5 28q5 9 7.5 10.5t7.5 1.5q8 0 8.5 -2.5t-5.5 -11.5q-25 -38 -74 -71t-112 -55q-14 -5 -17.5 -8t-10.5 -15
q-35 -62 -76.5 -91.5t-95.5 -29.5q-10 0 -19.5 1t-20.5 3q-109 20 -172.5 108.5t-74.5 235.5q-2 29 0.5 62.5t7.5 63t12 51.5t15 28zM196 105q16 -37 40.5 -67t54.5 -50t64.5 -29.5t68.5 -5.5q6 1 9.5 1.5t6 3.5t5.5 9.5t9 18.5q38 83 56.5 165.5t17.5 158t-21.5 140
t-60.5 110.5q-46 54 -98 54q-35 0 -69 -27.5t-62 -81.5q-51 -97 -56.5 -201t35.5 -199zM395 744q7 -2 7 -5.5t-6 -12.5q-29 -38 -41 -31q-3 1 2 9t12.5 17t15 16.5t10.5 6.5z" />
    <glyph glyph-name="Ocircumflex" unicode="&#xd4;" horiz-adv-x="650" 
d="M36 361q5 4 13 4q9 0 14 -5.5t-2 -13.5q-4 -4 -7.5 -17.5t-6.5 -33t-5.5 -42.5t-2.5 -45q-2 -81 15 -149.5t49.5 -119t78.5 -80.5t101 -33q19 -1 41 7.5t42 23.5t36.5 35.5t24.5 42.5q2 2 -28 2q-60 2 -109 27t-85 66.5t-57 97t-25.5 118.5t9 130t47.5 132q35 65 78.5 95
t88.5 30q42 0 82 -24t70.5 -68.5t48 -107.5t15.5 -141q-2 -81 -20.5 -157t-55.5 -156q-5 -11 -4 -11.5t18 5.5q24 9 48 22t45 27.5t37.5 29.5t25.5 28q5 9 7.5 10.5t7.5 1.5q8 0 8.5 -2.5t-5.5 -11.5q-25 -38 -74 -71t-112 -55q-14 -5 -17.5 -8t-10.5 -15
q-35 -62 -76.5 -91.5t-95.5 -29.5q-10 0 -19.5 1t-20.5 3q-109 20 -172.5 108.5t-74.5 235.5q-2 29 0.5 62.5t7.5 63t12 51.5t15 28zM196 105q16 -37 40.5 -67t54.5 -50t64.5 -29.5t68.5 -5.5q6 1 9.5 1.5t6 3.5t5.5 9.5t9 18.5q38 83 56.5 165.5t17.5 158t-21.5 140
t-60.5 110.5q-46 54 -98 54q-35 0 -69 -27.5t-62 -81.5q-51 -97 -56.5 -201t35.5 -199zM327 715q13 22 24 22t24 -25q9 -15 15 -24q8 -10 -1 -10q-5 0 -11 6t-17 21q-9 14 -12 14q-2 0 -13 -20q-12 -22 -19 -22q-3 0 -5 3q-3 3 15 35z" />
    <glyph glyph-name="Otilde" unicode="&#xd5;" horiz-adv-x="650" 
d="M36 361q5 4 13 4q9 0 14 -5.5t-2 -13.5q-4 -4 -7.5 -17.5t-6.5 -33t-5.5 -42.5t-2.5 -45q-2 -81 15 -149.5t49.5 -119t78.5 -80.5t101 -33q19 -1 41 7.5t42 23.5t36.5 35.5t24.5 42.5q2 2 -28 2q-60 2 -109 27t-85 66.5t-57 97t-25.5 118.5t9 130t47.5 132q35 65 78.5 95
t88.5 30q42 0 82 -24t70.5 -68.5t48 -107.5t15.5 -141q-2 -81 -20.5 -157t-55.5 -156q-5 -11 -4 -11.5t18 5.5q24 9 48 22t45 27.5t37.5 29.5t25.5 28q5 9 7.5 10.5t7.5 1.5q8 0 8.5 -2.5t-5.5 -11.5q-25 -38 -74 -71t-112 -55q-14 -5 -17.5 -8t-10.5 -15
q-35 -62 -76.5 -91.5t-95.5 -29.5q-10 0 -19.5 1t-20.5 3q-109 20 -172.5 108.5t-74.5 235.5q-2 29 0.5 62.5t7.5 63t12 51.5t15 28zM196 105q16 -37 40.5 -67t54.5 -50t64.5 -29.5t68.5 -5.5q6 1 9.5 1.5t6 3.5t5.5 9.5t9 18.5q38 83 56.5 165.5t17.5 158t-21.5 140
t-60.5 110.5q-46 54 -98 54q-35 0 -69 -27.5t-62 -81.5q-51 -97 -56.5 -201t35.5 -199zM323 743q21 8 45 -28q14 -23 23 -23q10 0 22 39q5 17 10.5 14.5t0.5 -19.5q-15 -58 -48 -48q-13 4 -21.5 13t-20.5 32q-4 7 -5 7.5t-4 -2.5q-5 -5 -10.5 -18.5t-5.5 -21.5q0 -4 -4 -4
q-5 0 -5 8t3 18.5t8.5 20t11.5 12.5z" />
    <glyph glyph-name="Odieresis" unicode="&#xd6;" horiz-adv-x="650" 
d="M36 361q5 4 13 4q9 0 14 -5.5t-2 -13.5q-4 -4 -7.5 -17.5t-6.5 -33t-5.5 -42.5t-2.5 -45q-2 -81 15 -149.5t49.5 -119t78.5 -80.5t101 -33q19 -1 41 7.5t42 23.5t36.5 35.5t24.5 42.5q2 2 -28 2q-60 2 -109 27t-85 66.5t-57 97t-25.5 118.5t9 130t47.5 132q35 65 78.5 95
t88.5 30q42 0 82 -24t70.5 -68.5t48 -107.5t15.5 -141q-2 -81 -20.5 -157t-55.5 -156q-5 -11 -4 -11.5t18 5.5q24 9 48 22t45 27.5t37.5 29.5t25.5 28q5 9 7.5 10.5t7.5 1.5q8 0 8.5 -2.5t-5.5 -11.5q-25 -38 -74 -71t-112 -55q-14 -5 -17.5 -8t-10.5 -15
q-35 -62 -76.5 -91.5t-95.5 -29.5q-10 0 -19.5 1t-20.5 3q-109 20 -172.5 108.5t-74.5 235.5q-2 29 0.5 62.5t7.5 63t12 51.5t15 28zM196 105q16 -37 40.5 -67t54.5 -50t64.5 -29.5t68.5 -5.5q6 1 9.5 1.5t6 3.5t5.5 9.5t9 18.5q38 83 56.5 165.5t17.5 158t-21.5 140
t-60.5 110.5q-46 54 -98 54q-35 0 -69 -27.5t-62 -81.5q-51 -97 -56.5 -201t35.5 -199zM371 736q24 0 16 -22q-7 -19 -21 -12q-12 5 -10 19.5t15 14.5zM313 734q7 2 15 0t10 -7q2 -3 -1 -12.5t-6 -11.5q-2 -2 -3.5 -2.5t-7.5 1.5q-11 2 -13.5 15.5t6.5 16.5z" />
    <glyph glyph-name="multiply" unicode="&#xd7;" horiz-adv-x="209" 
d="M95 57l14 20l-8 13q-14 22 -20 36t-1 16q8 5 14.5 -0.5t18.5 -26.5q10 -16 12 -16t8 8q23 29 33 29t8 -4.5t-20 -26.5q-8 -10 -13.5 -17t-5.5 -9q0 -1 4 -8t10 -15l12 -16l9 -12q10 -10 7 -12q-8 -5 -17.5 1.5t-26.5 27.5q-5 5 -7.5 8.5t-6.5 3.5q-7 0 -31 -42
q-8 -14 -12 -16.5t-9 -0.5q-4 2 4.5 19t23.5 40z" />
    <glyph glyph-name="Oslash" unicode="&#xd8;" horiz-adv-x="660" 
d="M8 280q8 43 16.5 62.5t21.5 21.5t17.5 -4t-3.5 -14q-5 -6 -11 -41q-12 -60 -10 -122.5t15 -119t36.5 -102.5t55.5 -74l9 -8l11 35q5 14 12.5 35.5t12.5 37.5l14 38l-7 9q-40 51 -58.5 119.5t-16.5 140.5t25 142.5t66 125.5q26 35 61 52t72 17q53 0 99 -34l12 -9l8 21
q10 25 13.5 41t0.5 19q-5 5 -2.5 8t10.5 2q38 -5 2 -99l-7 -19l10 -13q36 -50 53 -114.5t16 -138.5t-20 -154.5t-57 -161.5q-5 -11 -4 -12t18 6q24 9 48 22t45 27.5t37.5 29.5t25.5 28q6 8 8 10t8 2q13 0 3 -14q-25 -38 -74 -71.5t-112 -55.5q-15 -5 -18.5 -8t-9.5 -14
q-69 -122 -173 -122q-48 0 -108 26q-5 2 -6 0.5t-4 -15.5q-16 -60 -6 -76q5 -9 1.5 -11.5t-13.5 3.5q-30 15 -9 98q3 13 3.5 16t-1.5 4q-39 22 -69 66.5t-48.5 103t-24 125.5t5.5 133zM242 29l14 -14q35 -32 80.5 -49.5t87.5 -12.5q12 1 15 4.5t15 27.5q34 73 52.5 146.5
t21.5 142.5t-9.5 130.5t-41.5 110.5q-6 10 -8 10t-10 -18q-56 -112 -108 -224t-98 -228zM184 136q3 -10 8.5 -23.5t11 -25t10 -19t5.5 -6.5q1 0 4 8.5t8 19.5q17 42 33 81.5t34 79.5t39 84t46 95l40.5 82.5t17.5 39.5t-0.5 15.5t-12.5 10.5q-39 35 -81 35t-79.5 -36.5
t-67.5 -108.5q-70 -162 -16 -332zM181 -141l10 -5q31 -17 63 -24t56 -2q15 3 33 13.5t34.5 25.5t30 32.5t19.5 34.5q1 2 -5.5 2t-23.5 1q-45 1 -86.5 16t-74.5 42q-5 4 -6 3t-5 -10q-8 -22 -17.5 -47.5t-17.5 -48.5z" />
    <glyph glyph-name="Ugrave" unicode="&#xd9;" horiz-adv-x="858" 
d="M95 561q43 34 85 34q22 0 39.5 -10.5t26.5 -32.5q6 -13 9 -24t4.5 -31t1.5 -54v-93q0 -66 0.5 -112.5t3 -81.5t6 -63t9.5 -58q26 -131 74 -131q57 0 166 182q36 60 75 136t75 156t66.5 159t50.5 145q5 16 8.5 19.5t15.5 2.5q11 -1 12.5 -4.5t-3.5 -24.5
q-25 -108 -33 -235.5t2 -267.5q10 -130 26.5 -216t37.5 -114q9 -12 -2 -12q-1 0 -2 -0.5t-2 -0.5q-4 0 -7 1q-15 3 -29.5 36t-26 85.5t-20 120t-13 140.5t-4 147t7.5 140q2 20 1.5 21.5t-5.5 -10.5q-51 -126 -103.5 -233.5t-100.5 -188.5t-90 -132t-74 -64q-19 -8 -35 -8
q-64 0 -94.5 115t-29.5 353q1 68 0.5 97t-1.5 38q-6 46 -16.5 68t-29.5 22q-17 0 -38.5 -15.5t-42.5 -36.5t-38.5 -42.5t-25.5 -33.5q-10 -13 -21 -13q-7 0 -10 6q-3 4 5.5 18.5t23 32.5t32 36.5t33.5 31.5zM466 788q7 2 11.5 -0.5t13.5 -13.5q8 -10 17.5 -19t11.5 -9
q3 0 1.5 -2t-4.5 -4q-5 -2 -7 -1.5t-10 4.5q-10 5 -23 18q-14 14 -16.5 19t5.5 8z" />
    <glyph glyph-name="Uacute" unicode="&#xda;" horiz-adv-x="858" 
d="M95 561q43 34 85 34q22 0 39.5 -10.5t26.5 -32.5q6 -13 9 -24t4.5 -31t1.5 -54v-93q0 -66 0.5 -112.5t3 -81.5t6 -63t9.5 -58q26 -131 74 -131q57 0 166 182q36 60 75 136t75 156t66.5 159t50.5 145q5 16 8.5 19.5t15.5 2.5q11 -1 12.5 -4.5t-3.5 -24.5
q-25 -108 -33 -235.5t2 -267.5q10 -130 26.5 -216t37.5 -114q9 -12 -2 -12q-1 0 -2 -0.5t-2 -0.5q-4 0 -7 1q-15 3 -29.5 36t-26 85.5t-20 120t-13 140.5t-4 147t7.5 140q2 20 1.5 21.5t-5.5 -10.5q-51 -126 -103.5 -233.5t-100.5 -188.5t-90 -132t-74 -64q-19 -8 -35 -8
q-64 0 -94.5 115t-29.5 353q1 68 0.5 97t-1.5 38q-6 46 -16.5 68t-29.5 22q-17 0 -38.5 -15.5t-42.5 -36.5t-38.5 -42.5t-25.5 -33.5q-10 -13 -21 -13q-7 0 -10 6q-3 4 5.5 18.5t23 32.5t32 36.5t33.5 31.5zM548 782q7 -2 7 -5.5t-6 -12.5q-29 -38 -41 -31q-3 1 2 9t12.5 17
t15 16.5t10.5 6.5z" />
    <glyph glyph-name="Ucircumflex" unicode="&#xdb;" horiz-adv-x="858" 
d="M95 561q43 34 85 34q22 0 39.5 -10.5t26.5 -32.5q6 -13 9 -24t4.5 -31t1.5 -54v-93q0 -66 0.5 -112.5t3 -81.5t6 -63t9.5 -58q26 -131 74 -131q57 0 166 182q36 60 75 136t75 156t66.5 159t50.5 145q5 16 8.5 19.5t15.5 2.5q11 -1 12.5 -4.5t-3.5 -24.5
q-25 -108 -33 -235.5t2 -267.5q10 -130 26.5 -216t37.5 -114q9 -12 -2 -12q-1 0 -2 -0.5t-2 -0.5q-4 0 -7 1q-15 3 -29.5 36t-26 85.5t-20 120t-13 140.5t-4 147t7.5 140q2 20 1.5 21.5t-5.5 -10.5q-51 -126 -103.5 -233.5t-100.5 -188.5t-90 -132t-74 -64q-19 -8 -35 -8
q-64 0 -94.5 115t-29.5 353q1 68 0.5 97t-1.5 38q-6 46 -16.5 68t-29.5 22q-17 0 -38.5 -15.5t-42.5 -36.5t-38.5 -42.5t-25.5 -33.5q-10 -13 -21 -13q-7 0 -10 6q-3 4 5.5 18.5t23 32.5t32 36.5t33.5 31.5zM480 753q13 22 24 22t24 -25q9 -15 15 -24q8 -10 -1 -10
q-5 0 -11 6t-17 21q-9 14 -12 14q-2 0 -13 -20q-12 -22 -19 -22q-3 0 -5 3q-3 3 15 35z" />
    <glyph glyph-name="Udieresis" unicode="&#xdc;" horiz-adv-x="858" 
d="M95 561q43 34 85 34q22 0 39.5 -10.5t26.5 -32.5q6 -13 9 -24t4.5 -31t1.5 -54v-93q0 -66 0.5 -112.5t3 -81.5t6 -63t9.5 -58q26 -131 74 -131q57 0 166 182q36 60 75 136t75 156t66.5 159t50.5 145q5 16 8.5 19.5t15.5 2.5q11 -1 12.5 -4.5t-3.5 -24.5
q-25 -108 -33 -235.5t2 -267.5q10 -130 26.5 -216t37.5 -114q9 -12 -2 -12q-1 0 -2 -0.5t-2 -0.5q-4 0 -7 1q-15 3 -29.5 36t-26 85.5t-20 120t-13 140.5t-4 147t7.5 140q2 20 1.5 21.5t-5.5 -10.5q-51 -126 -103.5 -233.5t-100.5 -188.5t-90 -132t-74 -64q-19 -8 -35 -8
q-64 0 -94.5 115t-29.5 353q1 68 0.5 97t-1.5 38q-6 46 -16.5 68t-29.5 22q-17 0 -38.5 -15.5t-42.5 -36.5t-38.5 -42.5t-25.5 -33.5q-10 -13 -21 -13q-7 0 -10 6q-3 4 5.5 18.5t23 32.5t32 36.5t33.5 31.5zM524 774q24 0 16 -22q-7 -19 -21 -12q-12 5 -10 19.5t15 14.5z
M466 772q7 2 15 0t10 -7q2 -3 -1 -12.5t-6 -11.5q-2 -2 -3.5 -2.5t-7.5 1.5q-11 2 -13.5 15.5t6.5 16.5z" />
    <glyph glyph-name="Yacute" unicode="&#xdd;" horiz-adv-x="880" 
d="M129 594q25 6 50.5 -0.5t43.5 -24.5q11 -12 19.5 -26t16 -36.5t14.5 -54.5t15 -80q2 -11 7 -37t13 -58t18 -66t23 -62.5t27.5 -46.5t31.5 -18q24 0 59 32t67 84q10 17 25 47t32 66.5t34 76t31 74.5t24 62t12 39q2 10 4 12.5t10 2.5q7 0 11 -1.5t5.5 -8t1 -21t-2.5 -41.5
q-2 -23 -3 -51t-1 -44v-25.5t0.5 -27.5t1.5 -39t3 -61q4 -84 2.5 -152t-8.5 -111q-2 -9 -0.5 -10t12.5 4q57 26 99 49.5t60 40.5q11 10 16 10q13 0 2.5 -11t-37 -28t-64.5 -37t-80 -39q-9 -4 -11 -6.5t-4 -13.5q-23 -100 -86 -157t-150 -57q-21 0 -42 3q-34 6 -49.5 20
t-13 32.5t22.5 39t57 39.5q18 9 40.5 18.5t66.5 26.5q47 17 71 26t34.5 15t12.5 11.5t3 15.5q15 102 6 289q-4 68 -4 110t4 81q0 7 -0.5 6t-5.5 -12q-40 -103 -70 -171t-55 -111.5t-48 -66.5t-49 -37q-21 -11 -44 -11q-105 0 -160 312q-18 109 -38.5 156t-52.5 47
q-21 0 -54 -22q-16 -10 -32 -25.5t-28 -30.5t-18 -26t-2 -14q3 -2 -0.5 -4t-8.5 -2q-20 0 -15 19t25 43t48.5 46t54.5 29zM395 -207q2 -17 21 -26t48 -9q82 0 132 50.5t69 126.5q4 14 2 14.5t-23 -8.5q-11 -4 -32 -12t-41 -16q-51 -20 -85 -35.5t-54.5 -29.5t-29 -27
t-7.5 -28zM523 682q7 -2 7 -5.5t-6 -12.5q-29 -38 -41 -31q-3 1 2 9t12.5 17t15 16.5t10.5 6.5z" />
    <glyph glyph-name="Thorn" unicode="&#xde;" horiz-adv-x="560" 
d="M64 93q5 2 16 -2q14 -4 30 -1.5t14 7.5q-3 15 -5 59.5t-2.5 100t0.5 114t4 103.5q0 8 0.5 14.5t-0.5 6.5l-5 -1h-5.5t-7.5 -1q-36 -3 -39 7q-2 4 6.5 6.5t33.5 5.5l18 4q1 1 1.5 10t0.5 20v23v19q-1 15 2 19t14 4q13 0 16 -9t4 -46l1 -37l19 1q114 7 197 -13.5
t124.5 -58.5t37 -89t-66.5 -105q-24 -21 -65 -47t-85.5 -50.5t-86.5 -43.5t-69 -26q-7 -2 -7.5 -5t1.5 -21q5 -43 12 -62t19 -23q14 -5 3.5 -9t-24.5 0q-21 6 -32 49q-1 5 -3 14t-3.5 18.5t-3 17t-1.5 9.5q0 1 -12 1q-10 -1 -21.5 0.5t-20 4.5t-12 6.5t2.5 5.5zM156 109
q0 -5 3.5 -4t30.5 12q116 50 190.5 104t102.5 104.5t7.5 92t-95.5 65.5q-13 5 -35.5 8.5t-48 6.5t-51.5 4.5t-48 1.5q-19 0 -32.5 -1.5t-18.5 -4.5q-1 -1 -3 -26t-3 -62t-2 -78.5t-1 -74.5q0 -21 0.5 -45t1 -45t1 -37t1.5 -21z" />
    <glyph glyph-name="germandbls" unicode="&#xdf;" horiz-adv-x="414" 
d="M229 563q64 15 70.5 -34.5t-45.5 -159.5q-14 -31 -16.5 -40.5t2.5 -8.5q14 3 26.5 4t23.5 1q41 0 66.5 -16t33.5 -45t-1.5 -69t-39.5 -87q-91 -144 -151 -124q-15 6 -21 37q-3 15 9 15q13 0 18 -16q2 -8 5.5 -15.5t5.5 -7.5q6 0 21 14.5t32 37t34 49t29 49.5
q20 41 25 73.5t-5 55t-33 32.5t-59 4q-11 -2 -19 -3t-14 -1q-18 0 -14.5 16t24.5 63q35 78 39 123.5t-22 45.5q-8 0 -22 -6q-30 -14 -56 -57.5t-44 -106t-26.5 -138t-4.5 -153.5q1 -17 1.5 -37t1.5 -32q1 -26 0 -29.5t-11 -3.5q-7 0 -11.5 3.5t-7 17t-4 39t-3.5 68.5
q-3 78 9 154t34.5 137t53.5 102t66 49z" />
    <glyph glyph-name="agrave" unicode="&#xe0;" horiz-adv-x="232" 
d="M41 160q17 15 37 15q14 0 26 -8t17 -23q2 -9 12 -9q7 -1 8.5 -7.5t2.5 -38.5q1 -38 5 -57.5t12 -29.5q7 -7 25.5 12t44.5 59q15 22 20 14q1 -1 -3.5 -9t-11.5 -19t-15 -23.5t-16 -21.5q-25 -32 -53 -25q-17 5 -28 26t-13 52v16l-11 -21q-20 -39 -32.5 -54.5t-25.5 -15.5
q-6 0 -18 5q-14 7 -19.5 27t-3 44.5t13 49.5t26.5 42zM38 27q2 -14 3.5 -15t8.5 7q6 6 16.5 22t21 33.5t18 31.5t7.5 17q0 6 -8.5 19t-13.5 17q-8 5 -18 -8t-18.5 -34t-13.5 -45.5t-3 -44.5zM53 306q7 2 11.5 -0.5t13.5 -13.5q8 -10 17.5 -19t11.5 -9q3 0 1.5 -2t-4.5 -4
q-5 -2 -7 -1.5t-10 4.5q-10 5 -23 18q-14 14 -16.5 19t5.5 8z" />
    <glyph glyph-name="aacute" unicode="&#xe1;" horiz-adv-x="232" 
d="M41 160q17 15 37 15q14 0 26 -8t17 -23q2 -9 12 -9q7 -1 8.5 -7.5t2.5 -38.5q1 -38 5 -57.5t12 -29.5q7 -7 25.5 12t44.5 59q15 22 20 14q1 -1 -3.5 -9t-11.5 -19t-15 -23.5t-16 -21.5q-25 -32 -53 -25q-17 5 -28 26t-13 52v16l-11 -21q-20 -39 -32.5 -54.5t-25.5 -15.5
q-6 0 -18 5q-14 7 -19.5 27t-3 44.5t13 49.5t26.5 42zM38 27q2 -14 3.5 -15t8.5 7q6 6 16.5 22t21 33.5t18 31.5t7.5 17q0 6 -8.5 19t-13.5 17q-8 5 -18 -8t-18.5 -34t-13.5 -45.5t-3 -44.5zM135 300q7 -2 7 -5.5t-6 -12.5q-29 -38 -41 -31q-3 1 2 9t12.5 17t15 16.5
t10.5 6.5z" />
    <glyph glyph-name="acircumflex" unicode="&#xe2;" horiz-adv-x="232" 
d="M41 160q17 15 37 15q14 0 26 -8t17 -23q2 -9 12 -9q7 -1 8.5 -7.5t2.5 -38.5q1 -38 5 -57.5t12 -29.5q7 -7 25.5 12t44.5 59q15 22 20 14q1 -1 -3.5 -9t-11.5 -19t-15 -23.5t-16 -21.5q-25 -32 -53 -25q-17 5 -28 26t-13 52v16l-11 -21q-20 -39 -32.5 -54.5t-25.5 -15.5
q-6 0 -18 5q-14 7 -19.5 27t-3 44.5t13 49.5t26.5 42zM38 27q2 -14 3.5 -15t8.5 7q6 6 16.5 22t21 33.5t18 31.5t7.5 17q0 6 -8.5 19t-13.5 17q-8 5 -18 -8t-18.5 -34t-13.5 -45.5t-3 -44.5zM67 271q13 22 24 22t24 -25q9 -15 15 -24q8 -10 -1 -10q-5 0 -11 6t-17 21
q-9 14 -12 14q-2 0 -13 -20q-12 -22 -19 -22q-3 0 -5 3q-3 3 15 35z" />
    <glyph glyph-name="atilde" unicode="&#xe3;" horiz-adv-x="232" 
d="M41 160q17 15 37 15q14 0 26 -8t17 -23q2 -9 12 -9q7 -1 8.5 -7.5t2.5 -38.5q1 -38 5 -57.5t12 -29.5q7 -7 25.5 12t44.5 59q15 22 20 14q1 -1 -3.5 -9t-11.5 -19t-15 -23.5t-16 -21.5q-25 -32 -53 -25q-17 5 -28 26t-13 52v16l-11 -21q-20 -39 -32.5 -54.5t-25.5 -15.5
q-6 0 -18 5q-14 7 -19.5 27t-3 44.5t13 49.5t26.5 42zM38 27q2 -14 3.5 -15t8.5 7q6 6 16.5 22t21 33.5t18 31.5t7.5 17q0 6 -8.5 19t-13.5 17q-8 5 -18 -8t-18.5 -34t-13.5 -45.5t-3 -44.5zM63 299q21 8 45 -28q14 -23 23 -23q10 0 22 39q5 17 10.5 14.5t0.5 -19.5
q-15 -58 -48 -48q-13 4 -21.5 13t-20.5 32q-4 7 -5 7.5t-4 -2.5q-5 -5 -10.5 -18.5t-5.5 -21.5q0 -4 -4 -4q-5 0 -5 8t3 18.5t8.5 20t11.5 12.5z" />
    <glyph glyph-name="adieresis" unicode="&#xe4;" horiz-adv-x="232" 
d="M41 160q17 15 37 15q14 0 26 -8t17 -23q2 -9 12 -9q7 -1 8.5 -7.5t2.5 -38.5q1 -38 5 -57.5t12 -29.5q7 -7 25.5 12t44.5 59q15 22 20 14q1 -1 -3.5 -9t-11.5 -19t-15 -23.5t-16 -21.5q-25 -32 -53 -25q-17 5 -28 26t-13 52v16l-11 -21q-20 -39 -32.5 -54.5t-25.5 -15.5
q-6 0 -18 5q-14 7 -19.5 27t-3 44.5t13 49.5t26.5 42zM38 27q2 -14 3.5 -15t8.5 7q6 6 16.5 22t21 33.5t18 31.5t7.5 17q0 6 -8.5 19t-13.5 17q-8 5 -18 -8t-18.5 -34t-13.5 -45.5t-3 -44.5zM111 292q24 0 16 -22q-7 -19 -21 -12q-12 5 -10 19.5t15 14.5zM53 290q7 2 15 0
t10 -7q2 -3 -1 -12.5t-6 -11.5q-2 -2 -3.5 -2.5t-7.5 1.5q-11 2 -13.5 15.5t6.5 16.5z" />
    <glyph glyph-name="aring" unicode="&#xe5;" horiz-adv-x="232" 
d="M41 160q17 15 37 15q14 0 26 -8t17 -23q2 -9 12 -9q7 -1 8.5 -7.5t2.5 -38.5q1 -38 5 -57.5t12 -29.5q7 -7 25.5 12t44.5 59q15 22 20 14q1 -1 -3.5 -9t-11.5 -19t-15 -23.5t-16 -21.5q-25 -32 -53 -25q-17 5 -28 26t-13 52v16l-11 -21q-20 -39 -32.5 -54.5t-25.5 -15.5
q-6 0 -18 5q-14 7 -19.5 27t-3 44.5t13 49.5t26.5 42zM38 27q2 -14 3.5 -15t8.5 7q6 6 16.5 22t21 33.5t18 31.5t7.5 17q0 6 -8.5 19t-13.5 17q-8 5 -18 -8t-18.5 -34t-13.5 -45.5t-3 -44.5zM86 318q5 2 9 1t3 -4q-1 -1 5 -3q10 -3 16.5 -11.5t4.5 -18.5q-1 -14 -14.5 -21.5
t-26.5 -1.5q-6 3 -9 11.5t-2.5 18t4 18t10.5 11.5zM104 269q14 9 6 25q-6 12 -10 12q-9 0 -9 -24q0 -14 2.5 -16.5t10.5 3.5z" />
    <glyph glyph-name="ae" unicode="&#xe6;" horiz-adv-x="295" 
d="M7 93q9 35 31 54.5t44 19.5q13 0 24 -7t18 -22l5 -11l5 14q31 85 71 85q7 0 14 -3q14 -7 14.5 -26.5t-9 -41.5t-27 -42.5t-38.5 -29.5q-9 -4 -9.5 -19t4.5 -32t14.5 -31t20.5 -15q26 -5 53 18.5t62 79.5q8 11 10.5 8t-3.5 -15q-25 -50 -55 -76.5t-59 -26.5q-22 0 -39 13
q-7 5 -8 4t4 -12q2 -5 3.5 -6t5.5 -1q12 0 7 -6q-3 -3 -10.5 -3t-12.5 3q-10 6 -19.5 33t-11.5 53l-1 16l-6 -15q-14 -33 -31.5 -48.5t-34.5 -15.5q-23 0 -36.5 27.5t0.5 76.5zM67 10q9 10 18.5 27t16.5 35t9.5 34t-0.5 22q-10 22 -24 22q-13 0 -28 -25q-10 -17 -15.5 -38
t-6 -40t4 -31.5t12.5 -12.5q6 0 13 7zM164 96q29 20 44 52.5t7 56.5q-3 7 -7 7q-6 0 -14 -10.5t-16 -27.5t-15 -38.5t-11 -42.5q-1 -5 1 -4.5t11 7.5z" />
    <glyph glyph-name="ccedilla" unicode="&#xe7;" horiz-adv-x="239" 
d="M32 171q12 19 28.5 28.5t30.5 9.5q17 0 29 -11.5t12 -34.5q0 -6 -3 -14.5t-6 -8.5q-5 0 -4 8q2 13 -5.5 30.5t-15.5 15.5q-16 -4 -29.5 -24t-22 -46t-10.5 -55.5t4 -53.5q15 -59 48 -59q16 0 40.5 16.5t49 38.5t45 44t29.5 33q5 6 11.5 6t4.5 -6q-1 -3 -10 -14
t-21.5 -24.5t-26.5 -28t-26 -25.5q-35 -32 -56 -43.5t-41 -9.5v-6q-1 -8 0 -10t8 -7q11 -8 14 -18t-1 -18.5t-13.5 -13t-22.5 -0.5q-15 5 -25.5 14.5t-8.5 17.5q1 5 7 4t8 -6q4 -10 15 -16t16 -1q9 9 8 21.5t-11 12.5q-11 0 -11 18v11q-27 9 -44 33.5t-22.5 56.5t1 68
t27.5 67z" />
    <glyph glyph-name="egrave" unicode="&#xe8;" 
d="M101 224q14 -7 12.5 -28t-12.5 -44t-28.5 -43t-36.5 -25q-5 -1 -6 -9.5t0.5 -20t5.5 -23t10 -19.5q12 -16 29 -16q31 0 77 51q8 8 15.5 17t12.5 14q9 9 12 11t7 -1q2 -1 -6 -11.5t-20 -24.5t-25.5 -27.5t-22.5 -20.5q-17 -13 -30 -17t-29 -2q-14 2 -27 9t-21 18
q-17 24 -17 61t11 71.5t31 59t42 24.5q9 0 16 -4zM41 96q14 9 25.5 24t19 31t10 31.5t-2.5 25.5q-3 5 -6 5q-6 0 -13.5 -8.5t-15 -22.5t-14 -32t-10.5 -36t-2.5 -21t9.5 3zM66 344q7 2 11.5 -0.5t13.5 -13.5q8 -10 17.5 -19t11.5 -9q3 0 1.5 -2t-4.5 -4q-5 -2 -7 -1.5
t-10 4.5q-10 5 -23 18q-14 14 -16.5 19t5.5 8z" />
    <glyph glyph-name="eacute" unicode="&#xe9;" 
d="M101 224q14 -7 12.5 -28t-12.5 -44t-28.5 -43t-36.5 -25q-5 -1 -6 -9.5t0.5 -20t5.5 -23t10 -19.5q12 -16 29 -16q31 0 77 51q8 8 15.5 17t12.5 14q9 9 12 11t7 -1q2 -1 -6 -11.5t-20 -24.5t-25.5 -27.5t-22.5 -20.5q-17 -13 -30 -17t-29 -2q-14 2 -27 9t-21 18
q-17 24 -17 61t11 71.5t31 59t42 24.5q9 0 16 -4zM41 96q14 9 25.5 24t19 31t10 31.5t-2.5 25.5q-3 5 -6 5q-6 0 -13.5 -8.5t-15 -22.5t-14 -32t-10.5 -36t-2.5 -21t9.5 3zM148 338q7 -2 7 -5.5t-6 -12.5q-29 -38 -41 -31q-3 1 2 9t12.5 17t15 16.5t10.5 6.5z" />
    <glyph glyph-name="ecircumflex" unicode="&#xea;" 
d="M101 224q14 -7 12.5 -28t-12.5 -44t-28.5 -43t-36.5 -25q-5 -1 -6 -9.5t0.5 -20t5.5 -23t10 -19.5q12 -16 29 -16q31 0 77 51q8 8 15.5 17t12.5 14q9 9 12 11t7 -1q2 -1 -6 -11.5t-20 -24.5t-25.5 -27.5t-22.5 -20.5q-17 -13 -30 -17t-29 -2q-14 2 -27 9t-21 18
q-17 24 -17 61t11 71.5t31 59t42 24.5q9 0 16 -4zM41 96q14 9 25.5 24t19 31t10 31.5t-2.5 25.5q-3 5 -6 5q-6 0 -13.5 -8.5t-15 -22.5t-14 -32t-10.5 -36t-2.5 -21t9.5 3zM80 309q13 22 24 22t24 -25q9 -15 15 -24q8 -10 -1 -10q-5 0 -11 6t-17 21q-9 14 -12 14
q-2 0 -13 -20q-12 -22 -19 -22q-3 0 -5 3q-3 3 15 35z" />
    <glyph glyph-name="edieresis" unicode="&#xeb;" 
d="M101 224q14 -7 12.5 -28t-12.5 -44t-28.5 -43t-36.5 -25q-5 -1 -6 -9.5t0.5 -20t5.5 -23t10 -19.5q12 -16 29 -16q31 0 77 51q8 8 15.5 17t12.5 14q9 9 12 11t7 -1q2 -1 -6 -11.5t-20 -24.5t-25.5 -27.5t-22.5 -20.5q-17 -13 -30 -17t-29 -2q-14 2 -27 9t-21 18
q-17 24 -17 61t11 71.5t31 59t42 24.5q9 0 16 -4zM41 96q14 9 25.5 24t19 31t10 31.5t-2.5 25.5q-3 5 -6 5q-6 0 -13.5 -8.5t-15 -22.5t-14 -32t-10.5 -36t-2.5 -21t9.5 3zM124 330q24 0 16 -22q-7 -19 -21 -12q-12 5 -10 19.5t15 14.5zM66 328q7 2 15 0t10 -7
q2 -3 -1 -12.5t-6 -11.5q-2 -2 -3.5 -2.5t-7.5 1.5q-11 2 -13.5 15.5t6.5 16.5z" />
    <glyph glyph-name="igrave" unicode="&#xec;" horiz-adv-x="182" 
d="M19 156q8 -3 9 -7.5t2 -25.5q8 -138 53 -138q36 0 94 82q13 17 16.5 21t6.5 2q2 -2 2 -3.5t-5 -9.5q-64 -115 -118 -107q-36 5 -57.5 44.5t-21.5 103.5q0 23 2 32t7 9q4 0 10 -3zM-14 262q7 2 11.5 -0.5t13.5 -13.5q8 -10 17.5 -19t11.5 -9q3 0 1.5 -2t-4.5 -4
q-5 -2 -7 -1.5t-10 4.5q-10 5 -23 18q-14 14 -16.5 19t5.5 8z" />
    <glyph glyph-name="iacute" unicode="&#xed;" horiz-adv-x="182" 
d="M0 118q0 23 2 32t7 9q4 0 10 -3q8 -3 9 -7.5t2 -25.5q8 -138 53 -138q36 0 94 82q13 17 16.5 21t6.5 2q2 -2 2 -3.5t-5 -9.5q-64 -115 -118 -107q-36 5 -57.5 44.5t-21.5 103.5zM68 256q7 -2 7 -5.5t-6 -12.5q-29 -38 -41 -31q-3 1 2 9t12.5 17t15 16.5t10.5 6.5z" />
    <glyph glyph-name="icircumflex" unicode="&#xee;" horiz-adv-x="182" 
d="M0 118q0 23 2 32t7 9q4 0 10 -3q8 -3 9 -7.5t2 -25.5q8 -138 53 -138q36 0 94 82q13 17 16.5 21t6.5 2q2 -2 2 -3.5t-5 -9.5q-64 -115 -118 -107q-36 5 -57.5 44.5t-21.5 103.5zM0 227q13 22 24 22t24 -25q9 -15 15 -24q8 -10 -1 -10q-5 0 -11 6t-17 21q-9 14 -12 14
q-2 0 -13 -20q-12 -22 -19 -22q-4 0 -5 3q-3 3 15 35z" />
    <glyph glyph-name="idieresis" unicode="&#xef;" horiz-adv-x="182" 
d="M19 156q8 -3 9 -7.5t2 -25.5q8 -138 53 -138q36 0 94 82q13 17 16.5 21t6.5 2q2 -2 2 -3.5t-5 -9.5q-64 -115 -118 -107q-36 5 -57.5 44.5t-21.5 103.5q0 23 2 32t7 9q4 0 10 -3zM44 248q24 0 16 -22q-7 -19 -21 -12q-12 5 -10 19.5t15 14.5zM-14 246q7 2 15 0t10 -7
q2 -3 -1 -12.5t-6 -11.5q-2 -2 -3.5 -2.5t-7.5 1.5q-11 2 -13.5 15.5t6.5 16.5z" />
    <glyph glyph-name="eth" unicode="&#xf0;" horiz-adv-x="507" 
d="M57 558q32 20 73.5 31t85.5 11q32 0 61.5 -6t53.5 -18q8 -5 10.5 -4.5t7.5 6.5q3 3 9 10t13 14q6 7 11 13t6 8q3 8 12 5q12 -4 8.5 -11.5t-28.5 -33.5q-9 -10 -13.5 -14.5t-5.5 -7t1.5 -4t7.5 -5.5q40 -32 68 -82t36 -104q9 -69 -17.5 -139t-74.5 -124t-110 -85t-125 -22
q-46 6 -69.5 25.5t-24.5 45t20.5 54t65.5 52.5q33 18 74 27t79 9q32 0 57.5 -6.5t38.5 -20.5q5 -5 6.5 -3.5t9.5 15.5q45 91 34.5 178.5t-74.5 154.5q-15 15 -18 15q-4 0 -12 -10q-35 -44 -52.5 -77.5t-12.5 -46.5q2 -6 2 -7t-3 -1q-23 0 -9.5 38.5t57.5 97.5q12 17 11.5 19
t-15.5 10q-20 10 -43.5 14.5t-48.5 4.5q-53 0 -104 -19t-77 -53q-13 -16 -15 -29.5t8 -16.5q7 -2 4 -5t-10 -1q-15 4 -20 14.5t-0.5 24.5t17.5 29.5t34 29.5zM366 133q11 14 12.5 19t-0.5 13q-5 17 -25 24t-48 7q-22 0 -47.5 -4.5t-50.5 -13t-47.5 -20.5t-39.5 -28
q-24 -22 -31.5 -43.5t-1 -38.5t25.5 -27.5t47 -10.5q30 0 59.5 10.5t56.5 28t50 39.5t40 45z" />
    <glyph glyph-name="ntilde" unicode="&#xf1;" horiz-adv-x="303" 
d="M4 110q2 38 3.5 45.5t6.5 9.5q8 3 12 3q11 0 13.5 -22t0.5 -82l-1 -23l5 13q26 69 49 100.5t45 30.5q17 -1 24.5 -16.5t15.5 -70.5q17 -108 45 -108q10 0 34 26t45 59q8 14 11.5 16.5t8.5 -0.5q4 -3 -5 -19t-23 -34.5t-29 -35t-23 -20.5q-12 -6 -23 -6q-54 0 -72 129
q-5 37 -8 51t-8 14q-3 0 -9 -6q-14 -13 -27 -35.5t-24 -50.5t-19 -58.5t-11 -59.5q-3 -17 -24 -13q-9 2 -11.5 8.5t-4.5 35.5q0 10 -0.5 18.5t0 20.5t1.5 30.5t2 49.5zM76 281q21 8 45 -28q14 -23 23 -23q10 0 22 39q5 17 10.5 14.5t0.5 -19.5q-15 -58 -48 -48
q-13 4 -21.5 13t-20.5 32q-4 7 -5 7.5t-4 -2.5q-5 -5 -10.5 -18.5t-5.5 -21.5q0 -4 -4 -4q-5 0 -5 8t3 18.5t8.5 20t11.5 12.5z" />
    <glyph glyph-name="ograve" unicode="&#xf2;" horiz-adv-x="206" 
d="M9 136q8 26 27 19q6 -2 6.5 -6t-2.5 -20q-5 -26 -4.5 -49.5t5 -41.5t12.5 -28.5t17 -10.5q15 0 27 25q5 10 5 12t-5 5q-17 10 -26.5 29.5t-11 39t5.5 34t23 14.5q23 0 33.5 -30t2.5 -72q-2 -12 -1 -13.5t9 -1.5q37 0 72 34q11 11 15 13.5t6 0.5q1 -2 -4.5 -10t-13.5 -16
q-35 -35 -78 -32q-8 1 -9.5 0.5t-3.5 -4.5q-15 -50 -58 -41q-18 4 -31 18.5t-19.5 35.5t-6.5 46t8 50zM89 70q10 -19 14 -19q5 0 6 18q1 11 -0.5 25t-4 26t-6.5 19.5t-7 5.5q-11 -7 -11.5 -31t9.5 -44zM32 288q7 2 11.5 -0.5t13.5 -13.5q8 -10 17.5 -19t11.5 -9q3 0 1.5 -2
t-4.5 -4q-5 -2 -7 -1.5t-10 4.5q-10 5 -23 18q-14 14 -16.5 19t5.5 8z" />
    <glyph glyph-name="oacute" unicode="&#xf3;" horiz-adv-x="206" 
d="M9 136q8 26 27 19q6 -2 6.5 -6t-2.5 -20q-5 -26 -4.5 -49.5t5 -41.5t12.5 -28.5t17 -10.5q15 0 27 25q5 10 5 12t-5 5q-17 10 -26.5 29.5t-11 39t5.5 34t23 14.5q23 0 33.5 -30t2.5 -72q-2 -12 -1 -13.5t9 -1.5q37 0 72 34q11 11 15 13.5t6 0.5q1 -2 -4.5 -10t-13.5 -16
q-35 -35 -78 -32q-8 1 -9.5 0.5t-3.5 -4.5q-15 -50 -58 -41q-18 4 -31 18.5t-19.5 35.5t-6.5 46t8 50zM89 70q10 -19 14 -19q5 0 6 18q1 11 -0.5 25t-4 26t-6.5 19.5t-7 5.5q-11 -7 -11.5 -31t9.5 -44zM114 282q7 -2 7 -5.5t-6 -12.5q-29 -38 -41 -31q-3 1 2 9t12.5 17
t15 16.5t10.5 6.5z" />
    <glyph glyph-name="ocircumflex" unicode="&#xf4;" horiz-adv-x="206" 
d="M9 136q8 26 27 19q6 -2 6.5 -6t-2.5 -20q-5 -26 -4.5 -49.5t5 -41.5t12.5 -28.5t17 -10.5q15 0 27 25q5 10 5 12t-5 5q-17 10 -26.5 29.5t-11 39t5.5 34t23 14.5q23 0 33.5 -30t2.5 -72q-2 -12 -1 -13.5t9 -1.5q37 0 72 34q11 11 15 13.5t6 0.5q1 -2 -4.5 -10t-13.5 -16
q-35 -35 -78 -32q-8 1 -9.5 0.5t-3.5 -4.5q-15 -50 -58 -41q-18 4 -31 18.5t-19.5 35.5t-6.5 46t8 50zM89 70q10 -19 14 -19q5 0 6 18q1 11 -0.5 25t-4 26t-6.5 19.5t-7 5.5q-11 -7 -11.5 -31t9.5 -44zM46 253q13 22 24 22t24 -25q9 -15 15 -24q8 -10 -1 -10q-5 0 -11 6
t-17 21q-9 14 -12 14q-2 0 -13 -20q-12 -22 -19 -22q-3 0 -5 3q-3 3 15 35z" />
    <glyph glyph-name="otilde" unicode="&#xf5;" horiz-adv-x="206" 
d="M9 136q8 26 27 19q6 -2 6.5 -6t-2.5 -20q-5 -26 -4.5 -49.5t5 -41.5t12.5 -28.5t17 -10.5q15 0 27 25q5 10 5 12t-5 5q-17 10 -26.5 29.5t-11 39t5.5 34t23 14.5q23 0 33.5 -30t2.5 -72q-2 -12 -1 -13.5t9 -1.5q37 0 72 34q11 11 15 13.5t6 0.5q1 -2 -4.5 -10t-13.5 -16
q-35 -35 -78 -32q-8 1 -9.5 0.5t-3.5 -4.5q-15 -50 -58 -41q-18 4 -31 18.5t-19.5 35.5t-6.5 46t8 50zM42 281q21 8 45 -28q14 -23 23 -23q10 0 22 39q5 17 10.5 14.5t0.5 -19.5q-15 -58 -48 -48q-13 4 -21.5 13t-20.5 32q-4 7 -5 7.5t-4 -2.5q-5 -5 -10.5 -18.5t-5.5 -21.5
q0 -4 -4 -4q-5 0 -5 8t3 18.5t8.5 20t11.5 12.5zM89 70q10 -19 14 -19q5 0 6 18q1 11 -0.5 25t-4 26t-6.5 19.5t-7 5.5q-11 -7 -11.5 -31t9.5 -44z" />
    <glyph glyph-name="odieresis" unicode="&#xf6;" horiz-adv-x="206" 
d="M9 136q8 26 27 19q6 -2 6.5 -6t-2.5 -20q-5 -26 -4.5 -49.5t5 -41.5t12.5 -28.5t17 -10.5q15 0 27 25q5 10 5 12t-5 5q-17 10 -26.5 29.5t-11 39t5.5 34t23 14.5q23 0 33.5 -30t2.5 -72q-2 -12 -1 -13.5t9 -1.5q37 0 72 34q11 11 15 13.5t6 0.5q1 -2 -4.5 -10t-13.5 -16
q-35 -35 -78 -32q-8 1 -9.5 0.5t-3.5 -4.5q-15 -50 -58 -41q-18 4 -31 18.5t-19.5 35.5t-6.5 46t8 50zM89 70q10 -19 14 -19q5 0 6 18q1 11 -0.5 25t-4 26t-6.5 19.5t-7 5.5q-11 -7 -11.5 -31t9.5 -44zM90 274q24 0 16 -22q-7 -19 -21 -12q-12 5 -10 19.5t15 14.5zM32 272
q7 2 15 0t10 -7q2 -3 -1 -12.5t-6 -11.5q-2 -2 -3.5 -2.5t-7.5 1.5q-11 2 -13.5 15.5t6.5 16.5z" />
    <glyph glyph-name="divide" unicode="&#xf7;" horiz-adv-x="247" 
d="M69 95q10 5 42.5 8t60.5 3q30 0 37 -3q10 -5 5.5 -6.5t-30.5 -2.5q-12 0 -26.5 -1.5t-28.5 -3t-25 -3t-16 -3.5l-8 -2l-6 2q-8 2 -9.5 5.5t4.5 6.5zM138 176q23 0 16 -23q-1 -4 -2 -7.5t-1 -5.5q-1 -4 -7 -5t-12 1q-5 3 -7 9.5t-1 13t4.5 12t9.5 5.5zM133 58q16 0 20 -4
t0 -16q-7 -18 -20 -10q-8 5 -8 17t8 13z" />
    <glyph glyph-name="oslash" unicode="&#xf8;" horiz-adv-x="206" 
d="M36 155q6 -2 6.5 -5.5t-2.5 -19.5q-11 -55 2 -96q3 -10 4 -10q2 0 10 21q4 9 7 16.5t4 9.5q1 3 -3 17q-11 33 1.5 55.5t35.5 12.5q6 -2 7 -2q2 0 5 11t3 15q0 5 3 5q5 -1 4.5 -9.5t-5.5 -21.5q-2 -5 -2.5 -7t0.5 -5q10 -23 11.5 -41.5t-3.5 -44.5q-2 -11 -1 -12.5t9 -1.5
q38 0 72 33q11 11 15 13.5t6 0.5q1 -2 -4.5 -9.5t-13.5 -15.5q-17 -17 -37.5 -25.5t-40.5 -6.5q-8 1 -9.5 0.5t-3.5 -5.5q-13 -41 -45 -41q-9 0 -21 3q-1 0 -4 -6.5t-6 -15t-5 -17t-1 -11.5q2 -6 -6 -3q-7 4 7 47q2 9 1.5 11.5t-6.5 7.5q-16 16 -23.5 44t-6.5 54.5
t10.5 43.5t25.5 11zM60 3q9 -8 16 -4q11 6 21 25q5 10 5 12.5t-5 5.5q-2 1 -6 4.5t-8 7.5l-8 8l-10 -27q-8 -20 -9 -24t4 -8zM90 70q10 -19 13 -19q5 0 6 18q2 11 0.5 25.5t-3.5 23.5q-2 5 -3 3t-8 -17q-8 -17 -9 -21.5t4 -12.5zM80 101q1 2 3 5t3.5 6l3.5 7q7 13 7.5 15.5
t-1.5 7.5q-3 5 -5 3.5t-6 -10.5q-4 -8 -6 -22.5t1 -11.5z" />
    <glyph glyph-name="ugrave" unicode="&#xf9;" horiz-adv-x="341" 
d="M16 118q10 -2 12 -5.5t4 -24.5q5 -54 16 -80.5t28 -18.5q14 7 32 30t35.5 52t31.5 60t19 54q2 8 3.5 10t7.5 2t10 -1.5t6 -9t2.5 -22t1.5 -41.5q2 -66 7.5 -92.5t17.5 -35.5q8 -5 32 17.5t56 64.5q15 20 22 12q2 -2 -7.5 -17t-23.5 -33t-28.5 -34t-22.5 -20
q-15 -9 -27 -9q-26 0 -42 33.5t-18 93.5l-1 35l-8 -19q-37 -83 -67 -117t-59 -26q-46 13 -54 98q-2 27 0.5 36t13.5 8zM66 288q7 2 11.5 -0.5t13.5 -13.5q8 -10 17.5 -19t11.5 -9q3 0 1.5 -2t-4.5 -4q-5 -2 -7 -1.5t-10 4.5q-10 5 -23 18q-14 14 -16.5 19t5.5 8z" />
    <glyph glyph-name="uacute" unicode="&#xfa;" horiz-adv-x="341" 
d="M16 118q10 -2 12 -5.5t4 -24.5q5 -54 16 -80.5t28 -18.5q14 7 32 30t35.5 52t31.5 60t19 54q2 8 3.5 10t7.5 2t10 -1.5t6 -9t2.5 -22t1.5 -41.5q2 -66 7.5 -92.5t17.5 -35.5q8 -5 32 17.5t56 64.5q15 20 22 12q2 -2 -7.5 -17t-23.5 -33t-28.5 -34t-22.5 -20
q-15 -9 -27 -9q-26 0 -42 33.5t-18 93.5l-1 35l-8 -19q-37 -83 -67 -117t-59 -26q-46 13 -54 98q-2 27 0.5 36t13.5 8zM148 282q7 -2 7 -5.5t-6 -12.5q-29 -38 -41 -31q-3 1 2 9t12.5 17t15 16.5t10.5 6.5z" />
    <glyph glyph-name="ucircumflex" unicode="&#xfb;" horiz-adv-x="341" 
d="M16 118q10 -2 12 -5.5t4 -24.5q5 -54 16 -80.5t28 -18.5q14 7 32 30t35.5 52t31.5 60t19 54q2 8 3.5 10t7.5 2t10 -1.5t6 -9t2.5 -22t1.5 -41.5q2 -66 7.5 -92.5t17.5 -35.5q8 -5 32 17.5t56 64.5q15 20 22 12q2 -2 -7.5 -17t-23.5 -33t-28.5 -34t-22.5 -20
q-15 -9 -27 -9q-26 0 -42 33.5t-18 93.5l-1 35l-8 -19q-37 -83 -67 -117t-59 -26q-46 13 -54 98q-2 27 0.5 36t13.5 8zM80 253q13 22 24 22t24 -25q9 -15 15 -24q8 -10 -1 -10q-5 0 -11 6t-17 21q-9 14 -12 14q-2 0 -13 -20q-12 -22 -19 -22q-3 0 -5 3q-3 3 15 35z" />
    <glyph glyph-name="udieresis" unicode="&#xfc;" horiz-adv-x="341" 
d="M16 118q10 -2 12 -5.5t4 -24.5q5 -54 16 -80.5t28 -18.5q14 7 32 30t35.5 52t31.5 60t19 54q2 8 3.5 10t7.5 2t10 -1.5t6 -9t2.5 -22t1.5 -41.5q2 -66 7.5 -92.5t17.5 -35.5q8 -5 32 17.5t56 64.5q15 20 22 12q2 -2 -7.5 -17t-23.5 -33t-28.5 -34t-22.5 -20
q-15 -9 -27 -9q-26 0 -42 33.5t-18 93.5l-1 35l-8 -19q-37 -83 -67 -117t-59 -26q-46 13 -54 98q-2 27 0.5 36t13.5 8zM124 274q24 0 16 -22q-7 -19 -21 -12q-12 5 -10 19.5t15 14.5zM66 272q7 2 15 0t10 -7q2 -3 -1 -12.5t-6 -11.5q-2 -2 -3.5 -2.5t-7.5 1.5
q-11 2 -13.5 15.5t6.5 16.5z" />
    <glyph glyph-name="yacute" unicode="&#xfd;" horiz-adv-x="368" 
d="M97 -198q36 36 56 55.5t29.5 30.5t11.5 17.5t3 15.5q5 42 7.5 95.5t1.5 92.5v31l-14 -25q-38 -65 -67 -95.5t-54 -30.5q-17 0 -34 15q-10 9 -17 32t-9 46.5t0.5 41.5t11.5 18q6 0 9.5 -1t5 -5t3 -12.5t2.5 -24.5q5 -58 12.5 -78t23.5 -12q51 23 111 144q10 19 15 26.5
t11 7.5q2 0 12 -4q5 -3 8.5 -31.5t5 -67t0 -77t-5.5 -60.5q0 -3 5.5 2.5l25.5 25.5q38 39 61.5 63t37 36.5t18 14.5t4.5 -2q0 -1 -16.5 -18t-54.5 -57q-6 -6 -15.5 -16.5t-20.5 -22t-21.5 -22.5t-16.5 -17q-6 -7 -7.5 -11t-3.5 -23q-11 -87 -34 -157t-54 -117.5t-68 -70
t-76 -13.5q-69 14 -44 80t141 180zM37 -439q24 11 47 37.5t42.5 64t35 85t24.5 101.5q2 9 3 16t2 9q0 1 -14 -12t-33.5 -32t-40 -40t-34.5 -36q-26 -29 -47.5 -57t-30.5 -47q-20 -40 -13 -68t33 -28q12 0 26 7zM178 282q7 -2 7 -5.5t-6 -12.5q-29 -38 -41 -31q-3 1 2 9
t12.5 17t15 16.5t10.5 6.5z" />
    <glyph glyph-name="thorn" unicode="&#xfe;" horiz-adv-x="235" 
d="M78 459q6 -2 10 -12.5t6 -34t2.5 -61.5t-1.5 -94q-1 -26 -1.5 -54t-0.5 -42l-1 -32l7 13q11 21 24.5 31t26.5 10q14 0 26 -10t19.5 -27.5t9 -41.5t-6.5 -51q-8 -29 -24.5 -44t-33.5 -15q-25 0 -41 25q-5 7 -5.5 6t0.5 -12q1 -6 1 -16.5t1 -19.5q2 -60 6.5 -111.5
t10.5 -89t13.5 -58.5t14.5 -21q3 0 5 -2q5 -4 -5.5 -6t-18.5 1q-35 16 -54 223q-7 90 -9.5 184t0.5 215q3 104 -3 133q-5 22 22 14zM98 56q18 -47 37 -47q5 0 9 4q12 12 19 34.5t8 46.5t-3.5 44.5t-15.5 29.5q-8 6 -19.5 -5.5t-21 -31t-14 -41t0.5 -34.5z" />
    <glyph glyph-name="ydieresis" unicode="&#xff;" horiz-adv-x="368" 
d="M97 -198q36 36 56 55.5t29.5 30.5t11.5 17.5t3 15.5q5 42 7.5 95.5t1.5 92.5v31l-14 -25q-38 -65 -67 -95.5t-54 -30.5q-17 0 -34 15q-10 9 -17 32t-9 46.5t0.5 41.5t11.5 18q6 0 9.5 -1t5 -5t3 -12.5t2.5 -24.5q5 -58 12.5 -78t23.5 -12q51 23 111 144q10 19 15 26.5
t11 7.5q2 0 12 -4q5 -3 8.5 -31.5t5 -67t0 -77t-5.5 -60.5q0 -3 5.5 2.5l25.5 25.5q38 39 61.5 63t37 36.5t18 14.5t4.5 -2q0 -1 -16.5 -18t-54.5 -57q-6 -6 -15.5 -16.5t-20.5 -22t-21.5 -22.5t-16.5 -17q-6 -7 -7.5 -11t-3.5 -23q-11 -87 -34 -157t-54 -117.5t-68 -70
t-76 -13.5q-69 14 -44 80t141 180zM37 -439q24 11 47 37.5t42.5 64t35 85t24.5 101.5q2 9 3 16t2 9q0 1 -14 -12t-33.5 -32t-40 -40t-34.5 -36q-26 -29 -47.5 -57t-30.5 -47q-20 -40 -13 -68t33 -28q12 0 26 7zM154 274q24 0 16 -22q-7 -19 -21 -12q-12 5 -10 19.5t15 14.5z
M96 272q7 2 15 0t10 -7q2 -3 -1 -12.5t-6 -11.5q-2 -2 -3.5 -2.5t-7.5 1.5q-11 2 -13.5 15.5t6.5 16.5z" />
    <glyph glyph-name="Amacron" unicode="&#x100;" horiz-adv-x="934" 
d="M0 172q0 2 4 3.5t20 1.5t47 -0.5t85 -2.5q36 -1 66.5 -0.5t60.5 2.5t61.5 6t70.5 10l29 5l23 39q56 92 95.5 153t70.5 100.5t57.5 61.5t54.5 36q34 17 51 17q25 0 30 -32.5t-4 -109.5q-15 -130 -15 -207l-1 -35l17 -4q66 -14 83 -37q9 -12 7.5 -22.5t-11.5 -10.5
q-8 0 -9.5 1.5t-1.5 8.5q0 8 -8.5 16.5t-21 16t-27.5 12t-28 4.5q-2 0 -2 -22t2 -53.5t5 -66t6 -58.5q17 -119 36 -119q16 0 10 -8q-5 -5 -15 -6.5t-18 1.5q-12 5 -22.5 32.5t-19 68.5t-13.5 92.5t-5 103.5q0 30 -0.5 35t-3.5 6t-20.5 1h-39t-42 -1t-30.5 -2l-42.5 -5
t-49.5 -6.5t-41.5 -6t-19.5 -3.5q-4 -2 -33.5 -55t-79.5 -147q-31 -60 -53 -98.5t-37 -61.5t-26 -32t-22 -9q-6 0 -18 5q-5 3 -9 8t-7.5 20t-8 42t-11.5 73q-10 64 -22 108t-29 71.5t-39 40t-52 13.5q-20 0 -27 1.5t-7 4.5zM492 205q5 0 32 5q76 11 130.5 15t99.5 1l16 -1
l1 22q3 63 8 117t16 120q2 18 4.5 35.5l3.5 24.5q0 8 1 17t2 16q1 19 -9 19q-7 0 -24 -9q-25 -13 -50 -36t-56 -63.5t-70 -102.5t-93 -153q-13 -22 -14 -25t2 -2zM95 160q38 -22 63 -74t42 -145q23 -129 29 -129l3 3q1 2 5 8q6 9 13.5 21t17 29.5t23 42t31.5 59.5
q36 69 61 114.5t44 77.5q7 11 4.5 12t-31.5 -3q-51 -7 -94 -10.5t-92 -3.5q-26 0 -54.5 1t-61.5 3l-14 1zM850 684q14 -2 16.5 -5.5t-9.5 -5.5q-6 -1 -20.5 -2.5t-27.5 -3.5q-7 0 -9 1q-9 3 -7 6t10.5 5.5t21 4t25.5 0.5z" />
    <glyph glyph-name="amacron" unicode="&#x101;" horiz-adv-x="232" 
d="M41 160q17 15 37 15q14 0 26 -8t17 -23q2 -9 12 -9q7 -1 8.5 -7.5t2.5 -38.5q1 -38 5 -57.5t12 -29.5q7 -7 25.5 12t44.5 59q15 22 20 14q1 -1 -3.5 -9t-11.5 -19t-15 -23.5t-16 -21.5q-25 -32 -53 -25q-17 5 -28 26t-13 52v16l-11 -21q-20 -39 -32.5 -54.5t-25.5 -15.5
q-6 0 -18 5q-14 7 -19.5 27t-3 44.5t13 49.5t26.5 42zM38 27q2 -14 3.5 -15t8.5 7q6 6 16.5 22t21 33.5t18 31.5t7.5 17q0 6 -8.5 19t-13.5 17q-8 5 -18 -8t-18.5 -34t-13.5 -45.5t-3 -44.5zM114 275q14 -2 16.5 -5.5t-9.5 -5.5q-6 -1 -20.5 -2.5t-27.5 -3.5q-7 0 -9 1
q-9 3 -7 6t10.5 5.5t21 4t25.5 0.5z" />
    <glyph glyph-name="Abreve" unicode="&#x102;" horiz-adv-x="934" 
d="M0 172q0 2 4 3.5t20 1.5t47 -0.5t85 -2.5q36 -1 66.5 -0.5t60.5 2.5t61.5 6t70.5 10l29 5l23 39q56 92 95.5 153t70.5 100.5t57.5 61.5t54.5 36q34 17 51 17q25 0 30 -32.5t-4 -109.5q-15 -130 -15 -207l-1 -35l17 -4q66 -14 83 -37q9 -12 7.5 -22.5t-11.5 -10.5
q-8 0 -9.5 1.5t-1.5 8.5q0 8 -8.5 16.5t-21 16t-27.5 12t-28 4.5q-2 0 -2 -22t2 -53.5t5 -66t6 -58.5q17 -119 36 -119q16 0 10 -8q-5 -5 -15 -6.5t-18 1.5q-12 5 -22.5 32.5t-19 68.5t-13.5 92.5t-5 103.5q0 30 -0.5 35t-3.5 6t-20.5 1h-39t-42 -1t-30.5 -2l-42.5 -5
t-49.5 -6.5t-41.5 -6t-19.5 -3.5q-4 -2 -33.5 -55t-79.5 -147q-31 -60 -53 -98.5t-37 -61.5t-26 -32t-22 -9q-6 0 -18 5q-5 3 -9 8t-7.5 20t-8 42t-11.5 73q-10 64 -22 108t-29 71.5t-39 40t-52 13.5q-20 0 -27 1.5t-7 4.5zM492 205q5 0 32 5q76 11 130.5 15t99.5 1l16 -1
l1 22q3 63 8 117t16 120q2 18 4.5 35.5l3.5 24.5q0 8 1 17t2 16q1 19 -9 19q-7 0 -24 -9q-25 -13 -50 -36t-56 -63.5t-70 -102.5t-93 -153q-13 -22 -14 -25t2 -2zM95 160q38 -22 63 -74t42 -145q23 -129 29 -129l3 3q1 2 5 8q6 9 13.5 21t17 29.5t23 42t31.5 59.5
q36 69 61 114.5t44 77.5q7 11 4.5 12t-31.5 -3q-51 -7 -94 -10.5t-92 -3.5q-26 0 -54.5 1t-61.5 3l-14 1zM791 715q5 5 11 2.5t7 -8.5q0 -17 8 -32.5t16 -13.5q4 1 8.5 6.5t8.5 13t6.5 15t1.5 11.5t0 4.5t6 0.5q18 -2 2 -35t-47 -23q-8 2 -15.5 10t-12 17.5t-5 18.5t4.5 13z
" />
    <glyph glyph-name="abreve" unicode="&#x103;" horiz-adv-x="232" 
d="M41 160q17 15 37 15q14 0 26 -8t17 -23q2 -9 12 -9q7 -1 8.5 -7.5t2.5 -38.5q1 -38 5 -57.5t12 -29.5q7 -7 25.5 12t44.5 59q15 22 20 14q1 -1 -3.5 -9t-11.5 -19t-15 -23.5t-16 -21.5q-25 -32 -53 -25q-17 5 -28 26t-13 52v16l-11 -21q-20 -39 -32.5 -54.5t-25.5 -15.5
q-6 0 -18 5q-14 7 -19.5 27t-3 44.5t13 49.5t26.5 42zM38 27q2 -14 3.5 -15t8.5 7q6 6 16.5 22t21 33.5t18 31.5t7.5 17q0 6 -8.5 19t-13.5 17q-8 5 -18 -8t-18.5 -34t-13.5 -45.5t-3 -44.5zM55 306q5 5 11 2.5t7 -8.5q0 -17 8 -32.5t16 -13.5q4 1 8.5 6.5t8.5 13t6.5 15
t1.5 11.5t0 4.5t6 0.5q18 -2 2 -35t-47 -23q-8 2 -15.5 10t-12 17.5t-5 18.5t4.5 13z" />
    <glyph glyph-name="Aogonek" unicode="&#x104;" horiz-adv-x="934" 
d="M156 174q36 -1 66.5 -0.5t60.5 2.5t61.5 6t70.5 10l29 5l23 39q56 92 95.5 153t70.5 100.5t57.5 61.5t54.5 36q34 17 51 17q25 0 30 -32.5t-4 -109.5q-15 -130 -15 -207l-1 -35l17 -4q66 -14 83 -37q9 -12 7.5 -22.5t-11.5 -10.5q-8 0 -9.5 1.5t-1.5 8.5q0 8 -8.5 16.5
t-21 16t-27.5 12t-28 4.5q-2 0 -2 -22t2 -53.5t5 -66t6 -58.5q17 -119 36 -119q16 0 10 -8l-5 -4q0 -4 -3 -22q-4 -19 -3.5 -32t5.5 -13t13.5 6.5t12.5 13.5q5 8 10.5 7t0.5 -10q-7 -13 -20.5 -20.5t-24.5 -4.5q-14 5 -18 20t3 37l4 15l-8 2q-12 5 -22.5 32.5t-19 68.5
t-13.5 92.5t-5 103.5q0 30 -0.5 35t-3.5 6t-20.5 1h-39t-42 -1t-30.5 -2l-42.5 -5t-49.5 -6.5t-41.5 -6t-19.5 -3.5q-4 -2 -33.5 -55t-79.5 -147q-31 -60 -53 -98.5t-37 -61.5t-26 -32t-22 -9q-6 0 -18 5q-5 3 -9 8t-7.5 20t-8 42t-11.5 73q-10 64 -22 108t-29 71.5t-39 40
t-52 13.5q-20 0 -27 1.5t-7 4.5q0 2 4 3.5t20 1.5t47 -0.5t85 -2.5zM492 205q5 0 32 5q76 11 130.5 15t99.5 1l16 -1l1 22q3 63 8 117t16 120l8 60q0 8 1 17t2 16q1 19 -9 19q-7 0 -24 -9q-25 -13 -50 -36t-56 -63.5t-70 -102.5t-93 -153q-13 -22 -14 -25t2 -2zM84 167
l11 -7q38 -22 63 -74t42 -145q23 -129 29 -129l3 3q1 2 5 8q6 9 13.5 21t17 29.5t23 42t31.5 59.5q36 69 61 114.5t44 77.5q7 11 4.5 12t-31.5 -3q-51 -7 -94 -10.5t-92 -3.5q-26 0 -54.5 1t-61.5 3z" />
    <glyph glyph-name="aogonek" unicode="&#x105;" horiz-adv-x="232" 
d="M41 160q17 15 37 15q14 0 26 -8t17 -23q2 -9 12 -9q7 -1 8.5 -7.5t2.5 -38.5q1 -38 5 -57.5t12 -29.5q7 -7 25.5 12t44.5 59q15 22 20 14q1 -1 -3.5 -9t-11.5 -19t-15 -23.5t-16 -21.5q-21 -26 -41 -26q0 -6 -3 -22q-4 -19 -3.5 -32t5.5 -13t13.5 6.5t12.5 13.5
q5 8 10.5 7t0.5 -10q-7 -13 -20.5 -20.5t-24.5 -4.5q-14 5 -18 20t3 37q4 15 7 21q-15 7 -24.5 27t-11.5 49v16l-11 -21q-20 -39 -32.5 -54.5t-25.5 -15.5q-6 0 -18 5q-14 7 -19.5 27t-3 44.5t13 49.5t26.5 42zM38 27q2 -14 3.5 -15t8.5 7q6 6 16.5 22t21 33.5t18 31.5
t7.5 17q0 6 -8.5 19t-13.5 17q-8 5 -18 -8t-18.5 -34t-13.5 -45.5t-3 -44.5z" />
    <glyph glyph-name="Cacute" unicode="&#x106;" horiz-adv-x="621" 
d="M163 449q68 78 136.5 117.5t122.5 39.5q46 0 73.5 -30t25.5 -92q-2 -46 -29.5 -101t-66 -102.5t-82 -79.5t-76.5 -32q-11 0 -21 5q-8 5 -4.5 8t13.5 0q20 -5 46 9.5t53.5 41.5t53.5 63.5t45.5 74.5t30 74.5t6.5 63.5q-6 43 -26 62.5t-49 19.5q-31 0 -69.5 -20t-79 -55
t-79.5 -81.5t-70.5 -100.5t-53 -112t-26.5 -115q-6 -61 9.5 -111.5t46 -86.5t73.5 -55.5t92 -19.5q38 0 78.5 12.5t80.5 39.5q25 16 54.5 40.5t58.5 51.5t54 54.5t41 48.5q6 8 12.5 9.5t1.5 -6.5q-8 -15 -30 -41t-51 -55t-61 -57.5t-59 -48.5q-100 -75 -213 -62
q-102 12 -158 73t-64.5 149.5t31 195t129.5 211.5zM492 713q7 -2 7 -5.5t-6 -12.5q-29 -38 -41 -31q-3 1 2 9t12.5 17t15 16.5t10.5 6.5z" />
    <glyph glyph-name="cacute" unicode="&#x107;" horiz-adv-x="239" 
d="M32 171q12 19 28.5 28.5t30.5 9.5q17 0 29 -11.5t12 -34.5q0 -6 -3 -14.5t-6 -8.5q-5 0 -4 8q2 13 -5.5 30.5t-15.5 15.5q-16 -4 -29.5 -24t-22 -46t-10.5 -55.5t4 -53.5q15 -59 48 -59q16 0 40.5 16.5t49 38.5t45 44t29.5 33q5 6 11.5 6t4.5 -6q-1 -3 -10 -14
t-21.5 -24.5t-26.5 -28t-26 -25.5q-40 -38 -62 -48t-47 -3q-28 7 -46.5 31.5t-24.5 57t0.5 69t27.5 68.5zM148 328q7 -2 7 -5.5t-6 -12.5q-29 -38 -41 -31q-3 1 2 9t12.5 17t15 16.5t10.5 6.5z" />
    <glyph glyph-name="Ccircumflex" unicode="&#x108;" horiz-adv-x="621" 
d="M163 449q68 78 136.5 117.5t122.5 39.5q46 0 73.5 -30t25.5 -92q-2 -46 -29.5 -101t-66 -102.5t-82 -79.5t-76.5 -32q-11 0 -21 5q-8 5 -4.5 8t13.5 0q20 -5 46 9.5t53.5 41.5t53.5 63.5t45.5 74.5t30 74.5t6.5 63.5q-6 43 -26 62.5t-49 19.5q-31 0 -69.5 -20t-79 -55
t-79.5 -81.5t-70.5 -100.5t-53 -112t-26.5 -115q-6 -61 9.5 -111.5t46 -86.5t73.5 -55.5t92 -19.5q38 0 78.5 12.5t80.5 39.5q25 16 54.5 40.5t58.5 51.5t54 54.5t41 48.5q6 8 12.5 9.5t1.5 -6.5q-8 -15 -30 -41t-51 -55t-61 -57.5t-59 -48.5q-100 -75 -213 -62
q-102 12 -158 73t-64.5 149.5t31 195t129.5 211.5zM424 684q13 22 24 22t24 -25q9 -15 15 -24q8 -10 -1 -10q-5 0 -11 6t-17 21q-9 14 -12 14q-2 0 -13 -20q-12 -22 -19 -22q-3 0 -5 3q-3 3 15 35z" />
    <glyph glyph-name="ccircumflex" unicode="&#x109;" horiz-adv-x="239" 
d="M32 171q12 19 28.5 28.5t30.5 9.5q17 0 29 -11.5t12 -34.5q0 -6 -3 -14.5t-6 -8.5q-5 0 -4 8q2 13 -5.5 30.5t-15.5 15.5q-16 -4 -29.5 -24t-22 -46t-10.5 -55.5t4 -53.5q15 -59 48 -59q16 0 40.5 16.5t49 38.5t45 44t29.5 33q5 6 11.5 6t4.5 -6q-1 -3 -10 -14
t-21.5 -24.5t-26.5 -28t-26 -25.5q-40 -38 -62 -48t-47 -3q-28 7 -46.5 31.5t-24.5 57t0.5 69t27.5 68.5zM80 299q13 22 24 22t24 -25q9 -15 15 -24q8 -10 -1 -10q-5 0 -11 6t-17 21q-9 14 -12 14q-2 0 -13 -20q-12 -22 -19 -22q-3 0 -5 3q-3 3 15 35z" />
    <glyph glyph-name="Cdotaccent" unicode="&#x10a;" horiz-adv-x="621" 
d="M163 449q68 78 136.5 117.5t122.5 39.5q46 0 73.5 -30t25.5 -92q-2 -46 -29.5 -101t-66 -102.5t-82 -79.5t-76.5 -32q-11 0 -21 5q-8 5 -4.5 8t13.5 0q20 -5 46 9.5t53.5 41.5t53.5 63.5t45.5 74.5t30 74.5t6.5 63.5q-6 43 -26 62.5t-49 19.5q-31 0 -69.5 -20t-79 -55
t-79.5 -81.5t-70.5 -100.5t-53 -112t-26.5 -115q-6 -61 9.5 -111.5t46 -86.5t73.5 -55.5t92 -19.5q38 0 78.5 12.5t80.5 39.5q25 16 54.5 40.5t58.5 51.5t54 54.5t41 48.5q6 8 12.5 9.5t1.5 -6.5q-8 -15 -30 -41t-51 -55t-61 -57.5t-59 -48.5q-100 -75 -213 -62
q-102 12 -158 73t-64.5 149.5t31 195t129.5 211.5zM444 699q24 0 17 -21q-3 -10 -6.5 -12.5t-12.5 -0.5q-8 2 -11.5 7.5t-3.5 11.5t4.5 10.5t12.5 4.5z" />
    <glyph glyph-name="cdotaccent" unicode="&#x10b;" horiz-adv-x="239" 
d="M32 171q12 19 28.5 28.5t30.5 9.5q17 0 29 -11.5t12 -34.5q0 -6 -3 -14.5t-6 -8.5q-5 0 -4 8q2 13 -5.5 30.5t-15.5 15.5q-16 -4 -29.5 -24t-22 -46t-10.5 -55.5t4 -53.5q15 -59 48 -59q16 0 40.5 16.5t49 38.5t45 44t29.5 33q5 6 11.5 6t4.5 -6q-1 -3 -10 -14
t-21.5 -24.5t-26.5 -28t-26 -25.5q-40 -38 -62 -48t-47 -3q-28 7 -46.5 31.5t-24.5 57t0.5 69t27.5 68.5zM100 314q24 0 17 -21q-3 -10 -6.5 -12.5t-12.5 -0.5q-8 2 -11.5 7.5t-3.5 11.5t4.5 10.5t12.5 4.5z" />
    <glyph glyph-name="Ccaron" unicode="&#x10c;" horiz-adv-x="621" 
d="M163 449q68 78 136.5 117.5t122.5 39.5q46 0 73.5 -30t25.5 -92q-2 -46 -29.5 -101t-66 -102.5t-82 -79.5t-76.5 -32q-11 0 -21 5q-8 5 -4.5 8t13.5 0q20 -5 46 9.5t53.5 41.5t53.5 63.5t45.5 74.5t30 74.5t6.5 63.5q-6 43 -26 62.5t-49 19.5q-31 0 -69.5 -20t-79 -55
t-79.5 -81.5t-70.5 -100.5t-53 -112t-26.5 -115q-6 -61 9.5 -111.5t46 -86.5t73.5 -55.5t92 -19.5q38 0 78.5 12.5t80.5 39.5q25 16 54.5 40.5t58.5 51.5t54 54.5t41 48.5q6 8 12.5 9.5t1.5 -6.5q-8 -15 -30 -41t-51 -55t-61 -57.5t-59 -48.5q-100 -75 -213 -62
q-102 12 -158 73t-64.5 149.5t31 195t129.5 211.5zM405 717q12 6 33 -26q5 -6 7 -9.5t4 -3.5q4 0 17 20q14 20 21 28t12 8q9 0 1 -9q-2 -2 -6 -8.5t-9 -14.5q-14 -23 -18.5 -28.5t-7.5 -7.5q-4 -2 -11 -1.5t-11 2.5q-5 3 -12 11t-12 16.5t-8 15t0 7.5z" />
    <glyph glyph-name="ccaron" unicode="&#x10d;" horiz-adv-x="239" 
d="M32 171q12 19 28.5 28.5t30.5 9.5q17 0 29 -11.5t12 -34.5q0 -6 -3 -14.5t-6 -8.5q-5 0 -4 8q2 13 -5.5 30.5t-15.5 15.5q-16 -4 -29.5 -24t-22 -46t-10.5 -55.5t4 -53.5q15 -59 48 -59q16 0 40.5 16.5t49 38.5t45 44t29.5 33q5 6 11.5 6t4.5 -6q-1 -3 -10 -14
t-21.5 -24.5t-26.5 -28t-26 -25.5q-40 -38 -62 -48t-47 -3q-28 7 -46.5 31.5t-24.5 57t0.5 69t27.5 68.5zM61 332q12 6 33 -26q5 -6 7 -9.5t4 -3.5q4 0 17 20q14 20 21 28t12 8q9 0 1 -9q-2 -2 -6 -8.5t-9 -14.5q-14 -23 -18.5 -28.5t-7.5 -7.5q-4 -2 -11 -1.5t-11 2.5
q-5 3 -12 11t-12 16.5t-8 15t0 7.5z" />
    <glyph glyph-name="Dcaron" unicode="&#x10e;" horiz-adv-x="811" 
d="M457 -16q114 81 185.5 163.5t97 157t4 137t-93.5 105.5q-38 23 -90.5 33.5t-112.5 10.5q-51 0 -105 -7.5t-107 -21.5t-102 -35t-91 -48q-14 -9 -22.5 -11t-15.5 1q-9 5 7 18t48.5 29t75 32.5t85.5 28.5q63 17 120 25t109 8q111 0 192 -34t119 -92t28.5 -136t-79.5 -166
q-59 -75 -137.5 -140t-160 -111t-158 -68.5t-131.5 -12.5q-38 7 -56 27.5t-15.5 50.5t25 66.5t64.5 73.5l17 16l1 69q1 43 2 75t4 63t8 65.5t13 82.5q4 26 7 47t4 25q1 8 3.5 10t11.5 2q8 0 12.5 -2.5t5 -13t-2 -31t-7.5 -57.5q-6 -42 -10.5 -74.5t-7.5 -62t-4.5 -59
t-3.5 -64.5q-2 -40 -0.5 -43t13.5 6q47 34 92.5 60t85 43t71 24t50.5 2q11 -3 18.5 -8.5t3.5 -8.5t-18 4q-12 6 -25 6q-26 0 -65 -16.5t-79.5 -39.5t-76 -47.5t-55.5 -39.5l-16 -13l1 -33q1 -44 4 -63t10 -21q8 -2 6.5 -5.5t-9.5 -5.5q-19 -5 -28 10.5t-13 57.5q-3 29 -6 29
q-2 0 -13 -13q-42 -44 -58.5 -78t-13 -57.5t25.5 -35.5t57 -12q55 0 134.5 30t167.5 93zM411 724q12 6 33 -26q5 -6 7 -9.5t4 -3.5q4 0 17 20q14 20 21 28t12 8q9 0 1 -9q-2 -2 -6 -8.5t-9 -14.5q-14 -23 -18.5 -28.5t-7.5 -7.5q-4 -2 -11 -1.5t-11 2.5q-5 3 -12 11
t-12 16.5t-8 15t0 7.5z" />
    <glyph glyph-name="dcaron" unicode="&#x10f;" horiz-adv-x="372" 
d="M130 170q7 -2 8 0.5t2 21.5q1 13 3.5 46t8.5 74.5t14.5 87t20.5 83t27.5 61.5t34.5 24t27 -26q9 -38 6 -93.5t-16 -115.5t-34.5 -118t-49.5 -103q-3 -5 -2.5 -19.5t3.5 -32.5t8.5 -36.5t11.5 -30.5q9 -17 24 -29.5t26 -10.5q12 2 28.5 13t33 28t32.5 38t28 43
q6 11 8.5 13.5t7.5 0.5q2 -1 -1.5 -9.5t-10.5 -20.5t-16.5 -25.5t-18.5 -25.5q-35 -43 -61 -58t-52 -7q-30 8 -51.5 35t-29.5 69l-2 13l-11 -13q-54 -72 -95 -72q-30 0 -39 42q-6 27 1.5 55t23.5 50.5t37.5 37t43.5 14.5q5 0 10.5 -1t10.5 -3zM194 172q25 51 41 108.5
t23 115.5q2 23 2 50.5t-1.5 51.5t-4.5 38.5t-7 11.5q-12 -10 -24.5 -52t-23 -98.5t-17.5 -118.5t-7 -113q0 -25 2 -24t17 30zM39 21q1 -26 11 -26q2 0 4.5 1t6.5 3q6 4 16.5 13.5t22 22t22.5 26t18 23.5q2 4 2 18t-2 27q-6 26 -22 26q-12 0 -27 -12.5t-27 -32t-19.5 -43
t-5.5 -46.5zM318 446q3 3 6.5 26t3.5 41q0 15 1.5 18t9.5 3q19 0 10 -44q-5 -31 -12 -42t-18 -8q-7 2 -1 6z" />
    <glyph glyph-name="Emacron" unicode="&#x112;" horiz-adv-x="712" 
d="M203 459q43 34 88.5 58.5t90 41t85.5 24.5t76 8q44 0 74.5 -12t42.5 -35t1.5 -56.5t-49.5 -77.5q-21 -23 -47.5 -43.5t-53.5 -35.5t-51.5 -23.5t-41.5 -8.5q-21 0 -27 12q-2 4 4 5t14 -2q14 -6 39.5 3.5t54.5 29t57 46.5t47 55q40 58 20.5 91.5t-93.5 33.5
q-68 0 -142 -31t-140.5 -79t-119 -106t-78.5 -112t-19 -96.5t59 -60.5q26 -9 69 -9q35 0 75 5.5t79.5 15t74.5 23t58 28.5q36 23 63.5 33t40.5 3q12 -6 -5 -17t-74 -34q-34 -13 -65.5 -41.5t-57 -63.5t-42.5 -71.5t-21.5 -66.5t5 -49.5t37.5 -19.5q23 0 66 21t95.5 55.5
t108 78.5t103.5 91q20 19 26 22.5t11 -1.5q4 -3 -12 -21t-45.5 -45t-68.5 -59t-81 -63q-127 -96 -205 -96q-14 0 -28 3q-33 8 -44.5 34.5t-2.5 64.5t37 83t73 90l14 14t5 6q-2 -1 -5 -1q-2 -1 -5 -1.5t-7 -2.5q-59 -19 -108.5 -27.5t-90.5 -8.5q-83 0 -126 32.5t-41 87.5
t51.5 127t151.5 151zM427 657q14 -2 16.5 -5.5t-9.5 -5.5q-6 -1 -20.5 -2.5t-27.5 -3.5q-7 0 -9 1q-9 3 -7 6t10.5 5.5t21 4t25.5 0.5z" />
    <glyph glyph-name="emacron" unicode="&#x113;" 
d="M101 224q14 -7 12.5 -28t-12.5 -44t-28.5 -43t-36.5 -25q-5 -1 -6 -9.5t0.5 -20t5.5 -23t10 -19.5q12 -16 29 -16q31 0 77 51q8 8 15.5 17t12.5 14q9 9 12 11t7 -1q2 -1 -6 -11.5t-20 -24.5t-25.5 -27.5t-22.5 -20.5q-17 -13 -30 -17t-29 -2q-14 2 -27 9t-21 18
q-17 24 -17 61t11 71.5t31 59t42 24.5q9 0 16 -4zM41 96q14 9 25.5 24t19 31t10 31.5t-2.5 25.5q-3 5 -6 5q-6 0 -13.5 -8.5t-15 -22.5t-14 -32t-10.5 -36t-2.5 -21t9.5 3zM127 313q14 -2 16.5 -5.5t-9.5 -5.5q-6 -1 -20.5 -2.5t-27.5 -3.5q-7 0 -9 1q-9 3 -7 6t10.5 5.5
t21 4t25.5 0.5z" />
    <glyph glyph-name="Ebreve" unicode="&#x114;" horiz-adv-x="712" 
d="M203 459q43 34 88.5 58.5t90 41t85.5 24.5t76 8q44 0 74.5 -12t42.5 -35t1.5 -56.5t-49.5 -77.5q-21 -23 -47.5 -43.5t-53.5 -35.5t-51.5 -23.5t-41.5 -8.5q-21 0 -27 12q-2 4 4 5t14 -2q14 -6 39.5 3.5t54.5 29t57 46.5t47 55q40 58 20.5 91.5t-93.5 33.5
q-68 0 -142 -31t-140.5 -79t-119 -106t-78.5 -112t-19 -96.5t59 -60.5q26 -9 69 -9q35 0 75 5.5t79.5 15t74.5 23t58 28.5q36 23 63.5 33t40.5 3q12 -6 -5 -17t-74 -34q-34 -13 -65.5 -41.5t-57 -63.5t-42.5 -71.5t-21.5 -66.5t5 -49.5t37.5 -19.5q23 0 66 21t95.5 55.5
t108 78.5t103.5 91q20 19 26 22.5t11 -1.5q4 -3 -12 -21t-45.5 -45t-68.5 -59t-81 -63q-127 -96 -205 -96q-14 0 -28 3q-33 8 -44.5 34.5t-2.5 64.5t37 83t73 90l14 14t5 6q-2 -1 -5 -1q-2 -1 -5 -1.5t-7 -2.5q-59 -19 -108.5 -27.5t-90.5 -8.5q-83 0 -126 32.5t-41 87.5
t51.5 127t151.5 151zM368 688q5 5 11 2.5t7 -8.5q0 -17 8 -32.5t16 -13.5q4 1 8.5 6.5t8.5 13t6.5 15t1.5 11.5t0 4.5t6 0.5q18 -2 2 -35t-47 -23q-8 2 -15.5 10t-12 17.5t-5 18.5t4.5 13z" />
    <glyph glyph-name="ebreve" unicode="&#x115;" 
d="M101 224q14 -7 12.5 -28t-12.5 -44t-28.5 -43t-36.5 -25q-5 -1 -6 -9.5t0.5 -20t5.5 -23t10 -19.5q12 -16 29 -16q31 0 77 51q8 8 15.5 17t12.5 14q9 9 12 11t7 -1q2 -1 -6 -11.5t-20 -24.5t-25.5 -27.5t-22.5 -20.5q-17 -13 -30 -17t-29 -2q-14 2 -27 9t-21 18
q-17 24 -17 61t11 71.5t31 59t42 24.5q9 0 16 -4zM41 96q14 9 25.5 24t19 31t10 31.5t-2.5 25.5q-3 5 -6 5q-6 0 -13.5 -8.5t-15 -22.5t-14 -32t-10.5 -36t-2.5 -21t9.5 3zM68 344q5 5 11 2.5t7 -8.5q0 -17 8 -32.5t16 -13.5q4 1 8.5 6.5t8.5 13t6.5 15t1.5 11.5t0 4.5
t6 0.5q18 -2 2 -35t-47 -23q-8 2 -15.5 10t-12 17.5t-5 18.5t4.5 13z" />
    <glyph glyph-name="Edotaccent" unicode="&#x116;" horiz-adv-x="712" 
d="M203 459q43 34 88.5 58.5t90 41t85.5 24.5t76 8q44 0 74.5 -12t42.5 -35t1.5 -56.5t-49.5 -77.5q-21 -23 -47.5 -43.5t-53.5 -35.5t-51.5 -23.5t-41.5 -8.5q-21 0 -27 12q-2 4 4 5t14 -2q14 -6 39.5 3.5t54.5 29t57 46.5t47 55q40 58 20.5 91.5t-93.5 33.5
q-68 0 -142 -31t-140.5 -79t-119 -106t-78.5 -112t-19 -96.5t59 -60.5q26 -9 69 -9q35 0 75 5.5t79.5 15t74.5 23t58 28.5q36 23 63.5 33t40.5 3q12 -6 -5 -17t-74 -34q-34 -13 -65.5 -41.5t-57 -63.5t-42.5 -71.5t-21.5 -66.5t5 -49.5t37.5 -19.5q23 0 66 21t95.5 55.5
t108 78.5t103.5 91q20 19 26 22.5t11 -1.5q4 -3 -12 -21t-45.5 -45t-68.5 -59t-81 -63q-127 -96 -205 -96q-14 0 -28 3q-33 8 -44.5 34.5t-2.5 64.5t37 83t73 90l14 14t5 6q-2 -1 -5 -1q-2 -1 -5 -1.5t-7 -2.5q-59 -19 -108.5 -27.5t-90.5 -8.5q-83 0 -126 32.5t-41 87.5
t51.5 127t151.5 151zM400 668q24 0 17 -21q-3 -10 -6.5 -12.5t-12.5 -0.5q-8 2 -11.5 7.5t-3.5 11.5t4.5 10.5t12.5 4.5z" />
    <glyph glyph-name="edotaccent" unicode="&#x117;" 
d="M101 224q14 -7 12.5 -28t-12.5 -44t-28.5 -43t-36.5 -25q-5 -1 -6 -9.5t0.5 -20t5.5 -23t10 -19.5q12 -16 29 -16q31 0 77 51q8 8 15.5 17t12.5 14q9 9 12 11t7 -1q2 -1 -6 -11.5t-20 -24.5t-25.5 -27.5t-22.5 -20.5q-17 -13 -30 -17t-29 -2q-14 2 -27 9t-21 18
q-17 24 -17 61t11 71.5t31 59t42 24.5q9 0 16 -4zM41 96q14 9 25.5 24t19 31t10 31.5t-2.5 25.5q-3 5 -6 5q-6 0 -13.5 -8.5t-15 -22.5t-14 -32t-10.5 -36t-2.5 -21t9.5 3zM100 324q24 0 17 -21q-3 -10 -6.5 -12.5t-12.5 -0.5q-8 2 -11.5 7.5t-3.5 11.5t4.5 10.5t12.5 4.5z
" />
    <glyph glyph-name="Eogonek" unicode="&#x118;" horiz-adv-x="712" 
d="M203 459q43 34 88.5 58.5t90 41t85.5 24.5t76 8q44 0 74.5 -12t42.5 -35t1.5 -56.5t-49.5 -77.5q-21 -23 -47.5 -43.5t-53.5 -35.5t-51.5 -23.5t-41.5 -8.5q-21 0 -27 12q-2 4 4 5t14 -2q14 -6 39.5 3.5t54.5 29t57 46.5t47 55q40 58 20.5 91.5t-93.5 33.5
q-68 0 -142 -31t-140.5 -79t-119 -106t-78.5 -112t-19 -96.5t59 -60.5q26 -9 69 -9q35 0 75 5.5t79.5 15t74.5 23t58 28.5q36 23 63.5 33t40.5 3q12 -6 -5 -17t-74 -34q-34 -13 -65.5 -41.5t-57 -63.5t-42.5 -71.5t-21.5 -66.5t5 -49.5t37.5 -19.5q23 0 66 21t95.5 55.5
t108 78.5t103.5 91q20 19 26 22.5t11 -1.5q4 -3 -12 -21t-45.5 -45t-68.5 -59t-81 -63q-126 -95 -201 -96q1 -3 0 -9t-3 -17q-4 -19 -3.5 -32t5.5 -13t13.5 6.5t12.5 13.5q5 8 10.5 7t0.5 -10q-7 -13 -20.5 -20.5t-24.5 -4.5q-14 5 -18 20t3 37q4 18 8 22l-16 3
q-33 8 -44.5 34.5t-2.5 64.5t37 83t73 90l14 14t5 6q-2 -1 -5 -1q-2 -1 -5 -1.5t-7 -2.5q-59 -19 -108.5 -27.5t-90.5 -8.5q-83 0 -126 32.5t-41 87.5t51.5 127t151.5 151z" />
    <glyph glyph-name="eogonek" unicode="&#x119;" 
d="M100 224q14 -7 12.5 -28t-12 -44t-28 -43t-36.5 -25q-5 -1 -6 -9.5t0.5 -20t5.5 -23t10 -19.5q12 -16 29 -16q31 0 77 51q8 8 15.5 17t12.5 14q9 9 12.5 11t7.5 -1q2 -1 -6 -11.5t-20 -24.5t-26 -27.5t-23 -20.5q-24 -18 -41 -19q0 -6 -3 -21q-4 -19 -3.5 -32t5.5 -13
t13.5 6.5t12.5 13.5q5 8 10.5 7t0.5 -10q-7 -13 -20.5 -20.5t-24.5 -4.5q-14 5 -18 20t3 37l5 17q-31 5 -47 27q-17 24 -17.5 61t11 71.5t31 59t41.5 24.5q9 0 16 -4zM41 96q14 9 25.5 24t19 31t10 31.5t-2.5 25.5q-3 5 -6 5q-6 0 -13.5 -8.5t-15 -22.5t-14 -32t-10.5 -36
t-2.5 -21t9.5 3z" />
    <glyph glyph-name="Ecaron" unicode="&#x11a;" horiz-adv-x="712" 
d="M203 459q43 34 88.5 58.5t90 41t85.5 24.5t76 8q44 0 74.5 -12t42.5 -35t1.5 -56.5t-49.5 -77.5q-21 -23 -47.5 -43.5t-53.5 -35.5t-51.5 -23.5t-41.5 -8.5q-21 0 -27 12q-2 4 4 5t14 -2q14 -6 39.5 3.5t54.5 29t57 46.5t47 55q40 58 20.5 91.5t-93.5 33.5
q-68 0 -142 -31t-140.5 -79t-119 -106t-78.5 -112t-19 -96.5t59 -60.5q26 -9 69 -9q35 0 75 5.5t79.5 15t74.5 23t58 28.5q36 23 63.5 33t40.5 3q12 -6 -5 -17t-74 -34q-34 -13 -65.5 -41.5t-57 -63.5t-42.5 -71.5t-21.5 -66.5t5 -49.5t37.5 -19.5q23 0 66 21t95.5 55.5
t108 78.5t103.5 91q20 19 26 22.5t11 -1.5q4 -3 -12 -21t-45.5 -45t-68.5 -59t-81 -63q-127 -96 -205 -96q-14 0 -28 3q-33 8 -44.5 34.5t-2.5 64.5t37 83t73 90l14 14t5 6q-2 -1 -5 -1q-2 -1 -5 -1.5t-7 -2.5q-59 -19 -108.5 -27.5t-90.5 -8.5q-83 0 -126 32.5t-41 87.5
t51.5 127t151.5 151zM361 686q12 6 33 -26q5 -6 7 -9.5t4 -3.5q4 0 17 20q14 20 21 28t12 8q9 0 1 -9q-2 -2 -6 -8.5t-9 -14.5q-14 -23 -18.5 -28.5t-7.5 -7.5q-4 -2 -11 -1.5t-11 2.5q-5 3 -12 11t-12 16.5t-8 15t0 7.5z" />
    <glyph glyph-name="ecaron" unicode="&#x11b;" 
d="M101 224q14 -7 12.5 -28t-12.5 -44t-28.5 -43t-36.5 -25q-5 -1 -6 -9.5t0.5 -20t5.5 -23t10 -19.5q12 -16 29 -16q31 0 77 51q8 8 15.5 17t12.5 14q9 9 12 11t7 -1q2 -1 -6 -11.5t-20 -24.5t-25.5 -27.5t-22.5 -20.5q-17 -13 -30 -17t-29 -2q-14 2 -27 9t-21 18
q-17 24 -17 61t11 71.5t31 59t42 24.5q9 0 16 -4zM41 96q14 9 25.5 24t19 31t10 31.5t-2.5 25.5q-3 5 -6 5q-6 0 -13.5 -8.5t-15 -22.5t-14 -32t-10.5 -36t-2.5 -21t9.5 3zM61 342q12 6 33 -26q5 -6 7 -9.5t4 -3.5q4 0 17 20q14 20 21 28t12 8q9 0 1 -9q-2 -2 -6 -8.5
t-9 -14.5q-14 -23 -18.5 -28.5t-7.5 -7.5q-4 -2 -11 -1.5t-11 2.5q-5 3 -12 11t-12 16.5t-8 15t0 7.5z" />
    <glyph glyph-name="Gcircumflex" unicode="&#x11c;" horiz-adv-x="738" 
d="M4 166q11 75 54.5 147.5t102 129.5t124 92t120.5 35q23 0 43 -6.5t36 -21.5q22 -19 20 -61t-21 -90t-52.5 -95.5t-75.5 -79.5q-16 -11 -35 -18.5t-31 -7.5q-11 0 -11 7q0 2 2 2h15q18 0 42 20t49 52.5t47 72.5t35 81q22 66 2.5 96.5t-62.5 30.5q-28 0 -64 -12.5
t-74.5 -37.5t-76.5 -61t-71 -83q-45 -63 -66.5 -125t-20.5 -114.5t25 -90t70 -50.5q13 -4 34 -4q39 0 88 17t98.5 46.5t96.5 69.5t83 86q12 18 29 12q3 -2 6 -6t11 -18q26 -52 37 -95.5t7 -88.5v-15q-1 -3 -1 -6l5.5 3t12 8t14 10.5t11.5 8.5q26 20 46 40.5t30 35.5
q5 7 6.5 8t6.5 1q12 0 3.5 -15t-28.5 -36.5t-47 -44t-53 -37.5q-11 -7 -11 -10q-12 -56 -34 -101t-51 -76.5t-63 -46.5t-70 -11q-36 5 -54 22.5t-10 41.5q5 17 18 33.5t36 34t56.5 37t80.5 43.5q27 13 44 22q10 6 18 10q0 1 0.5 6t1.5 13q6 48 -1 90.5t-29 91.5
q-9 20 -11 20q-1 0 -12 -13q-43 -51 -90.5 -89t-95.5 -64t-94 -38.5t-87 -12.5t-74.5 13t-56 38.5t-32 64t-1.5 89.5zM358 -237q0 -19 23.5 -30t47.5 -4q33 10 66 41t54 73q6 11 12 26.5t10.5 29.5t7 23.5t0.5 9.5q-1 0 -14.5 -6.5t-31 -15.5t-34 -17.5t-23.5 -12.5
q-57 -33 -87.5 -63.5t-30.5 -53.5zM406 653q13 22 24 22t24 -25q9 -15 15 -24q8 -10 -1 -10q-5 0 -11 6t-17 21q-9 14 -12 14q-2 0 -13 -20q-12 -22 -19 -22q-3 0 -5 3q-3 3 15 35z" />
    <glyph glyph-name="gcircumflex" unicode="&#x11d;" horiz-adv-x="297" 
d="M-107 -417q5 24 16.5 48t34.5 54.5t59.5 70.5t91.5 96l56 58v19q0 8 -1 36.5t-2.5 60t-3 59t-2.5 33.5q-1 8 -2.5 6.5t-9.5 -17.5q-21 -40 -35 -64t-23.5 -37t-17 -16.5t-16.5 -1.5q-19 3 -27.5 19t-9 38.5t7 48t20 47t29.5 35.5t37 14q32 0 49 -25q3 -4 9 -4
q16 -2 18 -10q3 -10 7 -49t6 -89q2 -29 2 -43t5 -14q3 0 18.5 16.5t34.5 37t35.5 40t20.5 25.5q8 11 11 13.5t5 0.5q6 -4 -24 -41.5t-87 -97.5q-13 -14 -15 -19t-3 -21q-4 -97 -22 -176.5t-45.5 -136.5t-63.5 -88t-78 -31q-13 0 -26 3q-35 9 -51 36.5t-8 65.5zM-19 -505
q54 16 94.5 87.5t59.5 184.5q3 15 5.5 36t5 39.5t3.5 32t0 14.5q-1 0 -11.5 -11t-26.5 -27q-54 -56 -91 -98t-60 -74t-34 -58t-14 -50q-2 -18 3 -34t14.5 -27t23 -15.5t28.5 0.5zM39 4q2 -5 3 -5t7 5q4 3 8 7.5t11 14.5t17 27t25 43q12 20 17.5 30.5t7.5 15.5t1 7t-3 5
q-15 19 -28 19q-7 0 -12 -4q-15 -11 -27.5 -33t-20.5 -46.5t-10 -48t4 -37.5zM70 275q13 22 24 22t24 -25q9 -15 15 -24q8 -10 -1 -10q-5 0 -11 6t-17 21q-9 14 -12 14q-2 0 -13 -20q-12 -22 -19 -22q-3 0 -5 3q-3 3 15 35z" />
    <glyph glyph-name="Gbreve" unicode="&#x11e;" horiz-adv-x="738" 
d="M4 166q11 75 54.5 147.5t102 129.5t124 92t120.5 35q23 0 43 -6.5t36 -21.5q22 -19 20 -61t-21 -90t-52.5 -95.5t-75.5 -79.5q-16 -11 -35 -18.5t-31 -7.5q-11 0 -11 7q0 2 2 2h15q18 0 42 20t49 52.5t47 72.5t35 81q22 66 2.5 96.5t-62.5 30.5q-28 0 -64 -12.5
t-74.5 -37.5t-76.5 -61t-71 -83q-45 -63 -66.5 -125t-20.5 -114.5t25 -90t70 -50.5q13 -4 34 -4q39 0 88 17t98.5 46.5t96.5 69.5t83 86q12 18 29 12q3 -2 6 -6t11 -18q26 -52 37 -95.5t7 -88.5v-15q-1 -3 -1 -6l5.5 3t12 8t14 10.5t11.5 8.5q26 20 46 40.5t30 35.5
q5 7 6.5 8t6.5 1q12 0 3.5 -15t-28.5 -36.5t-47 -44t-53 -37.5q-11 -7 -11 -10q-12 -56 -34 -101t-51 -76.5t-63 -46.5t-70 -11q-36 5 -54 22.5t-10 41.5q5 17 18 33.5t36 34t56.5 37t80.5 43.5q27 13 44 22q10 6 18 10q0 1 0.5 6t1.5 13q6 48 -1 90.5t-29 91.5
q-9 20 -11 20q-1 0 -12 -13q-43 -51 -90.5 -89t-95.5 -64t-94 -38.5t-87 -12.5t-74.5 13t-56 38.5t-32 64t-1.5 89.5zM429 -271q33 10 66 41t54 73q6 11 12 26.5t10.5 29.5t7 23.5t0.5 9.5q-1 0 -14.5 -6.5t-31 -15.5t-34 -17.5t-23.5 -12.5q-57 -33 -87.5 -63.5
t-30.5 -53.5q0 -19 23.5 -30t47.5 -4zM394 688q5 5 11 2.5t7 -8.5q0 -17 8 -32.5t16 -13.5q4 1 8.5 6.5t8.5 13t6.5 15t1.5 11.5t0 4.5t6 0.5q18 -2 2 -35t-47 -23q-8 2 -15.5 10t-12 17.5t-5 18.5t4.5 13z" />
    <glyph glyph-name="gbreve" unicode="&#x11f;" horiz-adv-x="297" 
d="M-107 -417q5 24 16.5 48t34.5 54.5t59.5 70.5t91.5 96l56 58v19q0 8 -1 36.5t-2.5 60t-3 59t-2.5 33.5q-1 8 -2.5 6.5t-9.5 -17.5q-21 -40 -35 -64t-23.5 -37t-17 -16.5t-16.5 -1.5q-19 3 -27.5 19t-9 38.5t7 48t20 47t29.5 35.5t37 14q32 0 49 -25q3 -4 9 -4
q16 -2 18 -10q3 -10 7 -49t6 -89q2 -29 2 -43t5 -14q3 0 18.5 16.5t34.5 37t35.5 40t20.5 25.5q8 11 11 13.5t5 0.5q6 -4 -24 -41.5t-87 -97.5q-13 -14 -15 -19t-3 -21q-4 -97 -22 -176.5t-45.5 -136.5t-63.5 -88t-78 -31q-13 0 -26 3q-35 9 -51 36.5t-8 65.5zM-19 -505
q54 16 94.5 87.5t59.5 184.5q3 15 5.5 36t5 39.5t3.5 32t0 14.5q-1 0 -11.5 -11t-26.5 -27q-54 -56 -91 -98t-60 -74t-34 -58t-14 -50q-2 -18 3 -34t14.5 -27t23 -15.5t28.5 0.5zM39 4q2 -5 3 -5t7 5q4 3 8 7.5t11 14.5t17 27t25 43q12 20 17.5 30.5t7.5 15.5t1 7t-3 5
q-15 19 -28 19q-7 0 -12 -4q-15 -11 -27.5 -33t-20.5 -46.5t-10 -48t4 -37.5zM58 310q5 5 11 2.5t7 -8.5q0 -17 8 -32.5t16 -13.5q4 1 8.5 6.5t8.5 13t6.5 15t1.5 11.5t0 4.5t6 0.5q18 -2 2 -35t-47 -23q-8 2 -15.5 10t-12 17.5t-5 18.5t4.5 13z" />
    <glyph glyph-name="Gdotaccent" unicode="&#x120;" horiz-adv-x="738" 
d="M4 166q11 75 54.5 147.5t102 129.5t124 92t120.5 35q23 0 43 -6.5t36 -21.5q22 -19 20 -61t-21 -90t-52.5 -95.5t-75.5 -79.5q-16 -11 -35 -18.5t-31 -7.5q-11 0 -11 7q0 2 2 2h15q18 0 42 20t49 52.5t47 72.5t35 81q22 66 2.5 96.5t-62.5 30.5q-28 0 -64 -12.5
t-74.5 -37.5t-76.5 -61t-71 -83q-45 -63 -66.5 -125t-20.5 -114.5t25 -90t70 -50.5q13 -4 34 -4q39 0 88 17t98.5 46.5t96.5 69.5t83 86q12 18 29 12q3 -2 6 -6t11 -18q26 -52 37 -95.5t7 -88.5v-15q-1 -3 -1 -6l5.5 3t12 8t14 10.5t11.5 8.5q26 20 46 40.5t30 35.5
q5 7 6.5 8t6.5 1q12 0 3.5 -15t-28.5 -36.5t-47 -44t-53 -37.5q-11 -7 -11 -10q-12 -56 -34 -101t-51 -76.5t-63 -46.5t-70 -11q-36 5 -54 22.5t-10 41.5q5 17 18 33.5t36 34t56.5 37t80.5 43.5q27 13 44 22q10 6 18 10q0 1 0.5 6t1.5 13q6 48 -1 90.5t-29 91.5
q-9 20 -11 20q-1 0 -12 -13q-43 -51 -90.5 -89t-95.5 -64t-94 -38.5t-87 -12.5t-74.5 13t-56 38.5t-32 64t-1.5 89.5zM358 -237q0 -19 23.5 -30t47.5 -4q33 10 66 41t54 73q6 11 12 26.5t10.5 29.5t7 23.5t0.5 9.5q-1 0 -14.5 -6.5t-31 -15.5t-34 -17.5t-23.5 -12.5
q-57 -33 -87.5 -63.5t-30.5 -53.5zM426 668q24 0 17 -21q-3 -10 -6.5 -12.5t-12.5 -0.5q-8 2 -11.5 7.5t-3.5 11.5t4.5 10.5t12.5 4.5z" />
    <glyph glyph-name="gdotaccent" unicode="&#x121;" horiz-adv-x="297" 
d="M-107 -417q5 24 16.5 48t34.5 54.5t59.5 70.5t91.5 96l56 58v19q0 8 -1 36.5t-2.5 60t-3 59t-2.5 33.5q-1 8 -2.5 6.5t-9.5 -17.5q-21 -40 -35 -64t-23.5 -37t-17 -16.5t-16.5 -1.5q-19 3 -27.5 19t-9 38.5t7 48t20 47t29.5 35.5t37 14q32 0 49 -25q3 -4 9 -4
q16 -2 18 -10q3 -10 7 -49t6 -89q2 -29 2 -43t5 -14q3 0 18.5 16.5t34.5 37t35.5 40t20.5 25.5q8 11 11 13.5t5 0.5q6 -4 -24 -41.5t-87 -97.5q-13 -14 -15 -19t-3 -21q-4 -97 -22 -176.5t-45.5 -136.5t-63.5 -88t-78 -31q-13 0 -26 3q-35 9 -51 36.5t-8 65.5zM-19 -505
q54 16 94.5 87.5t59.5 184.5q3 15 5.5 36t5 39.5t3.5 32t0 14.5q-1 0 -11.5 -11t-26.5 -27q-54 -56 -91 -98t-60 -74t-34 -58t-14 -50q-2 -18 3 -34t14.5 -27t23 -15.5t28.5 0.5zM39 4q2 -5 3 -5t7 5q4 3 8 7.5t11 14.5t17 27t25 43q12 20 17.5 30.5t7.5 15.5t1 7t-3 5
q-15 19 -28 19q-7 0 -12 -4q-15 -11 -27.5 -33t-20.5 -46.5t-10 -48t4 -37.5zM90 290q24 0 17 -21q-3 -10 -6.5 -12.5t-12.5 -0.5q-8 2 -11.5 7.5t-3.5 11.5t4.5 10.5t12.5 4.5z" />
    <glyph glyph-name="uni0122" unicode="&#x122;" horiz-adv-x="738" 
d="M4 166q11 75 54.5 147.5t102 129.5t124 92t120.5 35q23 0 43 -6.5t36 -21.5q22 -19 20 -61t-21 -90t-52.5 -95.5t-75.5 -79.5q-16 -11 -35 -18.5t-31 -7.5q-11 0 -11 7q0 2 2 2h15q18 0 42 20t49 52.5t47 72.5t35 81q22 66 2.5 96.5t-62.5 30.5q-28 0 -64 -12.5
t-74.5 -37.5t-76.5 -61t-71 -83q-45 -63 -66.5 -125t-20.5 -114.5t25 -90t70 -50.5q13 -4 34 -4q39 0 88 17t98.5 46.5t96.5 69.5t83 86q12 18 29 12q3 -2 6 -6t11 -18q26 -52 37 -95.5t7 -88.5v-15q-1 -3 -1 -6l5.5 3t12 8t14 10.5t11.5 8.5q26 20 46 40.5t30 35.5
q5 7 6.5 8t6.5 1q12 0 3.5 -15t-28.5 -36.5t-47 -44t-53 -37.5q-11 -7 -11 -10q-12 -56 -34 -101t-51 -76.5t-63 -46.5t-70 -11q-36 5 -54 22.5t-10 41.5q5 17 18 33.5t36 34t56.5 37t80.5 43.5q27 13 44 22q10 6 18 10q0 1 0.5 6t1.5 13q6 48 -1 90.5t-29 91.5
q-9 20 -11 20q-1 0 -12 -13q-43 -51 -90.5 -89t-95.5 -64t-94 -38.5t-87 -12.5t-74.5 13t-56 38.5t-32 64t-1.5 89.5zM429 -271q33 10 66 41t54 73q6 11 12 26.5t10.5 29.5t7 23.5t0.5 9.5q-1 0 -14.5 -6.5t-31 -15.5t-34 -17.5t-23.5 -12.5q-57 -33 -87.5 -63.5
t-30.5 -53.5q0 -19 23.5 -30t47.5 -4zM294 -388q3 3 6.5 26t3.5 41q0 15 1.5 18t9.5 3q19 0 10 -44q-5 -31 -12 -42t-18 -8q-5 2 -1 6z" />
    <glyph glyph-name="uni0123" unicode="&#x123;" horiz-adv-x="297" 
d="M-107 -417q5 24 16.5 48t34.5 54.5t59.5 70.5t91.5 96l56 58v19q0 8 -1 36.5t-2.5 60t-3 59t-2.5 33.5q-1 8 -2.5 6.5t-9.5 -17.5q-21 -40 -35 -64t-23.5 -37t-17 -16.5t-16.5 -1.5q-19 3 -27.5 19t-9 38.5t7 48t20 47t29.5 35.5t37 14q32 0 49 -25q3 -4 9 -4
q16 -2 18 -10q3 -10 7 -49t6 -89q2 -29 2 -43t5 -14q3 0 18.5 16.5t34.5 37t35.5 40t20.5 25.5q8 11 11 13.5t5 0.5q6 -4 -24 -41.5t-87 -97.5q-13 -14 -15 -19t-3 -21q-4 -97 -22 -176.5t-45.5 -136.5t-63.5 -88t-78 -31q-13 0 -26 3q-35 9 -51 36.5t-8 65.5zM-19 -505
q54 16 94.5 87.5t59.5 184.5q3 15 5.5 36t5 39.5t3.5 32t0 14.5q-1 0 -11.5 -11t-26.5 -27q-54 -56 -91 -98t-60 -74t-34 -58t-14 -50q-2 -18 3 -34t14.5 -27t23 -15.5t28.5 0.5zM39 4q2 -5 3 -5t7 5q4 3 8 7.5t11 14.5t17 27t25 43q12 20 17.5 30.5t7.5 15.5t1 7t-3 5
q-15 19 -28 19q-7 0 -12 -4q-15 -11 -27.5 -33t-20.5 -46.5t-10 -48t4 -37.5zM91 267q6 31 13 42t18 8q5 -2 1 -6q-3 -3 -6.5 -26t-3.5 -41q0 -15 -1.5 -18t-9.5 -3q-18 0 -11 44z" />
    <glyph glyph-name="Hcircumflex" unicode="&#x124;" horiz-adv-x="972" 
d="M6 138q4 2 10.5 2.5t30.5 0.5h24t19.5 2.5t27 7.5t46.5 14q57 17 104 29t85 20l9 1.5t5 4t4 11.5l6 24q42 177 28.5 266t-79.5 89q-43 0 -110 -41q-29 -18 -61.5 -46t-59.5 -57.5t-44.5 -55t-17.5 -38.5q0 -12 -12 -5q-6 3 -1.5 17.5t17 35t31 43.5t39.5 44q57 57 116 88
t109 31q29 0 53 -12q51 -25 58 -115.5t-29 -242.5q-3 -14 -5 -20.5t1 -8.5t12.5 0t28.5 5q85 15 151 24.5t102 11.5l28.5 1.5t13.5 1.5t4 3v6q1 10 5 33.5t9.5 54t12 66t12.5 68.5q7 34 11 59t4 31q0 10 14 11q11 1 16 -1.5t5.5 -15.5t-4 -40t-13.5 -76q-10 -56 -17 -98
t-12 -70q-2 -10 -3 -18.5t-1 -10.5q-1 -2 1 -2.5t15 -2.5q63 -4 100 -20.5t37 -40.5q0 -14 -8.5 -20.5t-16.5 -0.5q-3 2 -1 7q10 23 -19 39t-90 21q-9 1 -13 1t-6.5 -2.5t-3 -9.5t-2.5 -21q-8 -76 -6 -149.5t11.5 -130.5t26 -91.5t36.5 -34.5q6 0 14 5q16 11 25 7t-5 -15
q-19 -15 -38 -15q-29 0 -52.5 34.5t-38 94t-18 138t6.5 166.5q2 13 1.5 18.5t-12.5 5.5q-8 0 -21 -2t-35 -4q-24 -3 -67 -9t-87 -12.5t-79 -12.5t-41 -8q-2 0 -4 -8q-14 -54 -38 -129.5t-54 -160.5q-8 -23 -14 -41.5t-7 -22.5q-3 -20 -8.5 -34t-10.5 -16q-11 -4 -19 -1
q-10 2 -9 11t14 50q9 28 7 60t-12.5 63t-29 59t-43.5 47q-26 20 -57 32.5t-48 9.5q-16 -3 -31 -2.5t-25 2.5t-13 5.5t5 7.5zM119 127q127 -45 162 -174q1 -4 2 -5t3.5 4.5t7.5 20t14 42.5q8 24 17.5 55t17.5 59.5t13.5 48t4.5 20.5t-17 -2.5t-40.5 -9.5t-53 -13.5
t-53.5 -15.5q-20 -6 -41 -11.5t-29 -7.5l-22 -6zM580 673q13 22 24 22t24 -25q9 -15 15 -24q8 -10 -1 -10q-5 0 -11 6t-17 21q-9 14 -12 14q-2 0 -13 -20q-12 -22 -19 -22q-3 0 -5 3q-3 3 15 35z" />
    <glyph glyph-name="hcircumflex" unicode="&#x125;" horiz-adv-x="367" 
d="M168 662q21 -6 31 -34t9 -68.5t-13.5 -89t-35.5 -95.5q-13 -26 -28 -50t-30.5 -43.5t-29.5 -32.5t-25 -17q-4 -1 -5.5 -28.5t-1.5 -67.5t2.5 -84.5t6.5 -79.5q1 -6 2 -3.5t9 25.5q15 47 33 85t37 64t37 39t34 10q12 -2 19.5 -7.5t13 -19t10 -36.5t9.5 -60q11 -84 32 -84
q23 0 86 103q5 7 11 8t6 -5q0 -3 -6.5 -16.5t-16 -29.5t-20 -31.5t-17.5 -23.5q-21 -24 -42 -24q-26 0 -44.5 33.5t-25.5 94.5q-6 58 -11 72t-17 9q-31 -15 -65 -77t-61 -153q-8 -28 -29 -18q-11 5 -15 16.5t-8 43.5q-9 84 -8 169t9.5 162.5t24 144t36 113.5t45.5 70.5
t52 15.5zM69 267q35 35 61.5 87.5t41 107t15 103.5t-17.5 77q-4 6 -9 6q-10 0 -24 -21.5t-28 -56.5t-27.5 -81t-22.5 -95q-3 -15 -6 -37t-5.5 -43.5t-4 -40t-1.5 -27.5q0 -7 28 21zM153 732q13 22 24 22t24 -25q9 -15 15 -24q8 -10 -1 -10q-5 0 -11 6t-17 21q-9 14 -12 14
q-2 0 -13 -20q-12 -22 -19 -22q-3 0 -5 3q-3 3 15 35z" />
    <glyph glyph-name="Itilde" unicode="&#x128;" horiz-adv-x="414" 
d="M235 619q35 13 63 13q65 0 77 -84.5t-23 -275.5q-11 -62 -19.5 -111t-14 -88.5t-9 -72t-5.5 -60.5l-1 -17l16 2q14 2 27.5 3t26.5 1q42 0 70 -9.5t30 -25.5q1 -5 -2.5 -7.5t-8.5 -2.5q-7 0 -10 7q-4 13 -18.5 17.5t-52.5 4.5q-10 0 -23 -0.5t-24.5 -1.5t-20 -2.5
t-9.5 -2.5q-2 -2 -1 -8.5t3 -13t5 -12t6 -5.5q9 0 10.5 -4.5t-6.5 -7.5q-13 -7 -28 -1q-17 8 -21 34q-2 10 -3 10q0 1 -14.5 -3t-34.5 -9q-42 -11 -67.5 -15.5t-40.5 -4.5q-18 0 -25 7q-7 6 1 10t18 -1q5 -2 23 1.5t63 14.5q17 5 34 9t25 6l17 4l1 31q1 29 3.5 61t7.5 71
t12.5 87.5t18.5 110.5q31 176 26.5 254t-50.5 78q-29 0 -78 -29q-24 -14 -56 -42t-61 -57t-49 -54.5t-20 -35.5q0 -5 -7.5 -6t-12.5 4q-6 8 3 25.5t27.5 40.5t44.5 48.5t53.5 48t55 40.5t48.5 26zM276 739q21 8 45 -28q14 -23 23 -23q10 0 22 39q5 17 10.5 14.5t0.5 -19.5
q-15 -58 -48 -48q-13 4 -21.5 13t-20.5 32q-4 7 -5 7.5t-4 -2.5q-5 -5 -10.5 -18.5t-5.5 -21.5q0 -4 -4 -4q-5 0 -5 8t3 18.5t8.5 20t11.5 12.5z" />
    <glyph glyph-name="itilde" unicode="&#x129;" horiz-adv-x="182" 
d="M19 156q8 -3 9 -7.5t2 -25.5q8 -138 53 -138q36 0 94 82q13 17 16.5 21t6.5 2q2 -2 2 -3.5t-5 -9.5q-64 -115 -118 -107q-36 5 -57.5 44.5t-21.5 103.5q0 23 2 32t7 9q4 0 10 -3zM-4 255q21 8 45 -28q14 -23 23 -23q10 0 22 39q5 17 10.5 14.5t0.5 -19.5q-15 -58 -48 -48
q-13 4 -21.5 13t-20.5 32q-4 7 -5 7.5t-4 -2.5q-5 -5 -10.5 -18.5t-5.5 -21.5q0 -4 -4 -4q-5 0 -5 8t3 18.5t8.5 20t11.5 12.5z" />
    <glyph glyph-name="Imacron" unicode="&#x12a;" horiz-adv-x="414" 
d="M235 619q35 13 63 13q65 0 77 -84.5t-23 -275.5q-11 -62 -19.5 -111t-14 -88.5t-9 -72t-5.5 -60.5l-1 -17l16 2q14 2 27.5 3t26.5 1q42 0 70 -9.5t30 -25.5q1 -5 -2.5 -7.5t-8.5 -2.5q-7 0 -10 7q-4 13 -18.5 17.5t-52.5 4.5q-10 0 -23 -0.5t-24.5 -1.5t-20 -2.5
t-9.5 -2.5q-2 -2 -1 -8.5t3 -13t5 -12t6 -5.5q9 0 10.5 -4.5t-6.5 -7.5q-13 -7 -28 -1q-17 8 -21 34q-2 10 -3 10q0 1 -14.5 -3t-34.5 -9q-42 -11 -67.5 -15.5t-40.5 -4.5q-18 0 -25 7q-7 6 1 10t18 -1q5 -2 23 1.5t63 14.5q17 5 34 9t25 6l17 4l1 31q1 29 3.5 61t7.5 71
t12.5 87.5t18.5 110.5q31 176 26.5 254t-50.5 78q-29 0 -78 -29q-24 -14 -56 -42t-61 -57t-49 -54.5t-20 -35.5q0 -5 -7.5 -6t-12.5 4q-6 8 3 25.5t27.5 40.5t44.5 48.5t53.5 48t55 40.5t48.5 26zM327 715q14 -2 16.5 -5.5t-9.5 -5.5q-6 -1 -20.5 -2.5t-27.5 -3.5q-7 0 -9 1
q-9 3 -7 6t10.5 5.5t21 4t25.5 0.5z" />
    <glyph glyph-name="imacron" unicode="&#x12b;" horiz-adv-x="182" 
d="M0 118q0 23 2 32t7 9q4 0 10 -3q8 -3 9 -7.5t2 -25.5q8 -138 53 -138q36 0 94 82q13 17 16.5 21t6.5 2q2 -2 2 -3.5t-5 -9.5q-64 -115 -118 -107q-36 5 -57.5 44.5t-21.5 103.5zM47 231q14 -2 16.5 -5.5t-9.5 -5.5q-6 -1 -20.5 -2.5t-27.5 -3.5q-7 0 -9 1q-9 3 -7 6
t10.5 5.5t21 4t25.5 0.5z" />
    <glyph glyph-name="Ibreve" unicode="&#x12c;" horiz-adv-x="414" 
d="M235 619q35 13 63 13q65 0 77 -84.5t-23 -275.5q-11 -62 -19.5 -111t-14 -88.5t-9 -72t-5.5 -60.5l-1 -17l16 2q14 2 27.5 3t26.5 1q42 0 70 -9.5t30 -25.5q1 -5 -2.5 -7.5t-8.5 -2.5q-7 0 -10 7q-4 13 -18.5 17.5t-52.5 4.5q-10 0 -23 -0.5t-24.5 -1.5t-20 -2.5
t-9.5 -2.5q-2 -2 -1 -8.5t3 -13t5 -12t6 -5.5q9 0 10.5 -4.5t-6.5 -7.5q-13 -7 -28 -1q-17 8 -21 34q-2 10 -3 10q0 1 -14.5 -3t-34.5 -9q-42 -11 -67.5 -15.5t-40.5 -4.5q-18 0 -25 7q-7 6 1 10t18 -1q5 -2 23 1.5t63 14.5q17 5 34 9t25 6l17 4l1 31q1 29 3.5 61t7.5 71
t12.5 87.5t18.5 110.5q31 176 26.5 254t-50.5 78q-29 0 -78 -29q-24 -14 -56 -42t-61 -57t-49 -54.5t-20 -35.5q0 -5 -7.5 -6t-12.5 4q-6 8 3 25.5t27.5 40.5t44.5 48.5t53.5 48t55 40.5t48.5 26zM268 746q5 5 11 2.5t7 -8.5q0 -17 8 -32.5t16 -13.5q4 1 8.5 6.5t8.5 13
t6.5 15t1.5 11.5t0 4.5t6 0.5q18 -2 2 -35t-47 -23q-8 2 -15.5 10t-12 17.5t-5 18.5t4.5 13z" />
    <glyph glyph-name="ibreve" unicode="&#x12d;" horiz-adv-x="182" 
d="M19 156q8 -3 9 -7.5t2 -25.5q8 -138 53 -138q36 0 94 82q13 17 16.5 21t6.5 2q2 -2 2 -3.5t-5 -9.5q-64 -115 -118 -107q-36 5 -57.5 44.5t-21.5 103.5q0 23 2 32t7 9q4 0 10 -3zM-12 262q5 5 11 2.5t7 -8.5q0 -17 8 -32.5t16 -13.5q4 1 8.5 6.5t8.5 13t6.5 15t1.5 11.5
t0 4.5t6 0.5q18 -2 2 -35t-47 -23q-8 2 -15.5 10t-12 17.5t-5 18.5t4.5 13z" />
    <glyph glyph-name="Iogonek" unicode="&#x12e;" horiz-adv-x="414" 
d="M235 619q35 13 63 13q65 0 77 -84.5t-23 -275.5q-11 -62 -19.5 -111t-14 -88.5t-9 -72t-5.5 -60.5l-1 -17l16 2q14 2 27.5 3t26.5 1q42 0 70 -9.5t30 -25.5q1 -5 -2.5 -7.5t-8.5 -2.5q-7 0 -10 7q-4 13 -18.5 17.5t-52.5 4.5q-10 0 -23 -0.5t-24.5 -1.5t-20 -2.5
t-9.5 -2.5q-2 -2 -1 -8.5t3 -13t5 -12t6 -5.5q9 0 10.5 -4.5t-6.5 -7.5q-4 -2 -6 -2l-3 -16q-4 -19 -3.5 -32t5.5 -13t13.5 6.5t12.5 13.5q5 8 10.5 7t0.5 -10q-7 -13 -20.5 -20.5t-24.5 -4.5q-14 5 -18 20t3 37l3 13h-1q-17 8 -21 34q-2 10 -3 10q0 1 -14.5 -3t-34.5 -9
q-42 -11 -67.5 -15.5t-40.5 -4.5q-18 0 -25 7q-7 6 1 10t18 -1q5 -2 23 1.5t63 14.5q17 5 34 9t25 6l17 4l1 31q1 29 3.5 61t7.5 71t12.5 87.5t18.5 110.5q31 176 26.5 254t-50.5 78q-29 0 -78 -29q-24 -14 -56 -42t-61 -57t-49 -54.5t-20 -35.5q0 -5 -7.5 -6t-12.5 4
q-6 8 3 25.5t27.5 40.5t44.5 48.5t53.5 48t55 40.5t48.5 26z" />
    <glyph glyph-name="iogonek" unicode="&#x12f;" horiz-adv-x="182" 
d="M19 156q8 -3 9 -7.5t2 -25.5q8 -138 53 -138q36 0 94 82q13 17 16.5 21t6.5 2q2 -2 2 -3.5t-5 -9.5q-55 -98 -102 -106l-3 -17q-4 -19 -3.5 -32t5.5 -13t13.5 6.5t12.5 13.5q5 8 10.5 7t0.5 -10q-7 -13 -20.5 -20.5t-24.5 -4.5q-14 5 -18 20t3 37l3 13q-34 7 -54 45.5
t-20 101.5q0 23 2 32t7 9q4 0 10 -3zM19 229q12 0 14 -3t-3 -17q-3 -9 -3 -14t-7 -5.5t-12 4.5q-10 8 -6 21.5t17 13.5z" />
    <glyph glyph-name="Idotaccent" unicode="&#x130;" horiz-adv-x="414" 
d="M235 619q35 13 63 13q65 0 77 -84.5t-23 -275.5q-11 -62 -19.5 -111t-14 -88.5t-9 -72t-5.5 -60.5l-1 -17l16 2q14 2 27.5 3t26.5 1q42 0 70 -9.5t30 -25.5q1 -5 -2.5 -7.5t-8.5 -2.5q-7 0 -10 7q-4 13 -18.5 17.5t-52.5 4.5q-10 0 -23 -0.5t-24.5 -1.5t-20 -2.5
t-9.5 -2.5q-2 -2 -1 -8.5t3 -13t5 -12t6 -5.5q9 0 10.5 -4.5t-6.5 -7.5q-13 -7 -28 -1q-17 8 -21 34q-2 10 -3 10q0 1 -14.5 -3t-34.5 -9q-42 -11 -67.5 -15.5t-40.5 -4.5q-18 0 -25 7q-7 6 1 10t18 -1q5 -2 23 1.5t63 14.5q17 5 34 9t25 6l17 4l1 31q1 29 3.5 61t7.5 71
t12.5 87.5t18.5 110.5q31 176 26.5 254t-50.5 78q-29 0 -78 -29q-24 -14 -56 -42t-61 -57t-49 -54.5t-20 -35.5q0 -5 -7.5 -6t-12.5 4q-6 8 3 25.5t27.5 40.5t44.5 48.5t53.5 48t55 40.5t48.5 26zM300 726q24 0 17 -21q-3 -10 -6.5 -12.5t-12.5 -0.5q-8 2 -11.5 7.5
t-3.5 11.5t4.5 10.5t12.5 4.5z" />
    <glyph glyph-name="dotlessi" unicode="&#x131;" horiz-adv-x="182" 
d="M19 156q8 -3 9 -7.5t2 -25.5q8 -138 53 -138q36 0 94 82q13 17 16.5 21t6.5 2q2 -2 2 -3.5t-5 -9.5q-64 -115 -118 -107q-36 5 -57.5 44.5t-21.5 103.5q0 23 2 32t7 9q4 0 10 -3zM19 229q12 0 14 -3t-3 -17q-3 -9 -3 -14t-7 -5.5t-12 4.5q-10 8 -6 21.5t17 13.5z" />
    <glyph glyph-name="Jcircumflex" unicode="&#x134;" horiz-adv-x="664" 
d="M40 198q23 37 60.5 72.5t79.5 63t82 44.5t68 17q21 0 31 -10q8 -8 13 -21t0 -15q-16 -6 -22 12q-6 20 -25 20q-18 0 -55 -19q-74 -38 -127 -87t-81 -101.5t-29.5 -106t26.5 -101.5q32 -54 82.5 -85t103.5 -31q47 0 95 29.5t90 72.5t73.5 92.5t45.5 88.5q14 38 21.5 72.5
t10 74t0.5 87t-9 110.5q-14 118 2 148q2 3 -0.5 3.5t-19.5 -1.5q-8 -1 -31.5 -3t-46.5 -4q-98 -7 -164.5 -15t-111.5 -19t-73.5 -26t-50.5 -36q-12 -12 -22 -26.5t-15 -27.5t-5.5 -23.5t5.5 -15.5q3 -2 1.5 -3.5t-6.5 -1.5q-9 0 -13.5 7.5t-5 19.5t3.5 26.5t13 27.5
q19 29 48.5 49t76 35t114.5 25t165 17q47 4 76 6.5t45.5 4t23.5 3t11 2.5q13 5 23.5 1.5t2.5 -11.5q-14 -12 -15.5 -50t7.5 -113q6 -54 9 -94t2 -73.5t-5.5 -63t-12.5 -61.5q-17 -68 -49.5 -124t-89.5 -114q-124 -128 -247 -112q-70 9 -120 45t-75.5 87.5t-22.5 112.5
t39 119zM406 708q13 22 24 22t24 -25q9 -15 15 -24q8 -10 -1 -10q-5 0 -11 6t-17 21q-9 14 -12 14q-2 0 -13 -20q-12 -22 -19 -22q-3 0 -5 3q-3 3 15 35z" />
    <glyph glyph-name="jcircumflex" unicode="&#x135;" horiz-adv-x="185" 
d="M-206 -416q6 20 16.5 40.5t28.5 45t44.5 54.5t63.5 69q30 32 42 45t13 16q2 4 3 32.5t1.5 66.5t0 79t-2.5 71q-1 27 -2 41.5t0 21t4 7.5t8 1q8 1 12.5 -2t7.5 -16.5t5 -39.5t4 -70q1 -11 1.5 -36t-0.5 -50v-35t0.5 -17.5t2 -5t3.5 3.5q12 14 33.5 39.5t43 53t39.5 50
t23 30.5q5 7 10.5 9.5t5.5 -2.5q0 -3 -11 -19t-30 -40t-43 -54t-50 -61q-11 -13 -17 -20t-8.5 -11t-3 -6.5t-0.5 -5.5t-1 -13.5t-2 -23t-2 -24t-2 -15.5q0 -2 -0.5 -7t-1.5 -10q-17 -138 -53 -206.5t-96 -75.5q-10 -1 -15.5 -1t-13.5 1q-35 3 -53 29.5t-8 60.5zM-128 -492h4
t6 1q21 4 37 23t28.5 47t22 62t15.5 67.5t9.5 63t5.5 49.5q1 8 -1.5 6t-22.5 -23q-42 -45 -70.5 -78.5t-47 -60t-28 -47.5t-12.5 -42q-5 -26 11 -46t43 -22zM-2 253q13 22 24 22t24 -25q9 -15 15 -24q8 -10 -1 -10q-5 0 -11 6t-17 21q-9 14 -12 14q-2 0 -13 -20
q-12 -22 -19 -22q-4 0 -5 3q-3 3 15 35z" />
    <glyph glyph-name="uni0136" unicode="&#x136;" horiz-adv-x="696" 
d="M171 653q42 18 74 18q57 0 80 -58.5t14 -179.5q-1 -18 -4 -46.5t-5.5 -57t-4.5 -52t-3 -29.5q-2 -13 16 2t46.5 47t61 75t59.5 84q41 64 69 99t56 56q19 14 36 14q11 0 18.5 -6t5.5 -18q-1 -10 -4.5 -11t-6.5 8t-10 9q-27 0 -115 -139q-62 -96 -110 -152t-91 -82l-10 -6
l21 -16q18 -14 34 -27t33.5 -28.5t38 -35.5t48.5 -47q57 -57 101 -94.5t82 -61.5t73 -36.5t75 -17.5q15 -2 32 -1.5t31.5 3.5t25 8t13.5 11q2 4 4 1q3 -8 -4 -16t-21.5 -14t-33.5 -9.5t-39 -2.5q-42 2 -80.5 13.5t-79.5 35t-86.5 60.5t-101.5 91q-54 53 -98 90.5t-86 66.5
l-4.5 3t-2.5 -3t-2 -13.5t-3 -29.5q-9 -114 -10.5 -193t5.5 -107q1 -5 2 -5.5t6 -0.5q19 0 8 -11q-10 -11 -28 -7q-49 9 -20 357q1 11 1.5 19t-0.5 8q0 1 -9 2.5t-23 4.5q-13 2 -23 4t-12 3q-5 1 -7 11t3 14q2 2 21.5 2t35.5 -2q8 -1 12 1.5t7.5 18t6.5 49t7 93.5
q10 124 -2.5 178t-54.5 54q-22 0 -51 -13q-27 -12 -59.5 -38.5t-59 -56t-40.5 -54.5t-4 -33q3 -2 1 -4t-7 -2q-25 0 -17.5 26t33 60.5t63 68t73.5 48.5zM464 -210q3 3 6.5 26t3.5 41q0 15 1.5 18t9.5 3q19 0 10 -44q-5 -31 -12 -42t-18 -8q-5 2 -1 6z" />
    <glyph glyph-name="uni0137" unicode="&#x137;" horiz-adv-x="306" 
d="M27 542q12 49 32.5 72.5t40.5 23.5q23 0 40 -29.5t15 -87.5q-3 -73 -32 -156.5t-77 -152.5q-7 -10 -8 -15.5t-1 -30.5q1 -25 1.5 -28t4.5 5q26 42 53 64.5t50 22.5q17 0 30 -13q11 -12 6 -31.5t-22 -40t-43 -38.5t-56 -28l-15 -5l13 -20q29 -43 44.5 -61t31.5 -26
q11 -6 24 -6q57 0 139 106q14 18 18.5 22t8.5 -1q2 -3 -7 -16.5t-23 -30.5t-30.5 -35t-29.5 -28q-37 -31 -75 -31q-61 0 -117 86q-2 4 -0.5 -23.5t6.5 -81.5q3 -35 0.5 -42.5t-16.5 -2.5q-11 4 -14 11.5t-6 35.5q-8 74 -11 162.5t-1 174t8.5 159t17.5 116.5zM51 249
q29 51 48.5 104.5t28 103t5.5 90.5t-18 66q-5 8 -7.5 8t-10.5 -7q-15 -14 -24.5 -37t-16.5 -63.5t-11 -103t-7 -157.5q-1 -24 0 -24.5t13 20.5zM61 95q19 9 37.5 23t33 29t23.5 29.5t9 24.5q0 17 -12 17q-15 0 -42 -24t-53 -63q-30 -43 -15 -43q3 0 19 7zM92 -169
q3 3 6.5 26t3.5 41q0 15 1.5 18t9.5 3q19 0 10 -44q-5 -31 -12 -42t-18 -8q-5 2 -1 6z" />
    <glyph glyph-name="Lacute" unicode="&#x139;" horiz-adv-x="461" 
d="M203 673q27 -1 43 -15t22 -51t2.5 -101.5t-14.5 -167.5q-13 -124 -20.5 -197t-9 -111.5t2 -49.5t12.5 -11q1 0 11.5 -4.5t26.5 -11t35 -15t36 -16.5q72 -33 138.5 -58.5t123 -43t100.5 -26.5t72 -9q44 0 43 23q-1 13 2.5 14.5t7.5 -9.5q12 -29 -13 -44t-79 -9
q-153 15 -397 124q-56 25 -90.5 40t-57 22.5t-38 10t-33.5 2.5q-21 0 -24 1.5t-3 10.5q-1 10 11.5 15.5t32.5 5.5q18 0 34 -4l12 -3v49q0 24 1.5 48t4 57t7 79t11.5 114q9 91 13 149t3 93.5t-7 52.5t-17 26q-12 9 -43 -8.5t-62.5 -47t-56 -62t-24.5 -53.5q0 -7 -9 -7t-11 7
q-6 21 15 54t53.5 64t69 52.5t63.5 20.5zM248 782q7 -2 7 -5.5t-6 -12.5q-29 -38 -41 -31q-3 1 2 9t12.5 17t15 16.5t10.5 6.5z" />
    <glyph glyph-name="lacute" unicode="&#x13a;" horiz-adv-x="278" 
d="M86 574q25 50 50.5 73t46.5 23q18 0 31.5 -14t20.5 -40.5t7 -64.5t-11 -85q-11 -50 -31 -99.5t-45.5 -90.5t-53.5 -71t-55 -41q-6 -2 -7 -4t0 -13q3 -47 13 -89t25 -73t33 -49t36 -18t39 20t40.5 46.5t35.5 53t22 40.5q8 17 14 12q3 -2 -4 -18.5t-20 -39t-29 -46.5
t-31 -41q-40 -48 -86 -36q-37 9 -63.5 44t-42 87t-20 117.5t3.5 136.5t28 143t53 137zM39 175q2 0 12 7q44 29 81.5 88t61 126t28.5 131.5t-15 105.5q-9 17 -20 17q-19 0 -42.5 -36t-45.5 -93t-38.5 -127t-21.5 -138q-1 -10 -1 -23.5v-26.5v-22t1 -9zM248 765q7 -2 7 -5.5
t-6 -12.5q-29 -38 -41 -31q-3 1 2 9t12.5 17t15 16.5t10.5 6.5z" />
    <glyph glyph-name="uni013B" unicode="&#x13b;" horiz-adv-x="461" 
d="M203 673q27 -1 43 -15t22 -51t2.5 -101.5t-14.5 -167.5q-13 -124 -20.5 -197t-9 -111.5t2 -49.5t12.5 -11q1 0 11.5 -4.5t26.5 -11t35 -15t36 -16.5q72 -33 138.5 -58.5t123 -43t100.5 -26.5t72 -9q44 0 43 23q-1 13 2.5 14.5t7.5 -9.5q12 -29 -13 -44t-79 -9
q-153 15 -397 124q-56 25 -90.5 40t-57 22.5t-38 10t-33.5 2.5q-21 0 -24 1.5t-3 10.5q-1 10 11.5 15.5t32.5 5.5q18 0 34 -4l12 -3v49q0 24 1.5 48t4 57t7 79t11.5 114q9 91 13 149t3 93.5t-7 52.5t-17 26q-12 9 -43 -8.5t-62.5 -47t-56 -62t-24.5 -53.5q0 -7 -9 -7t-11 7
q-6 21 15 54t53.5 64t69 52.5t63.5 20.5zM290 -241q3 3 6.5 26t3.5 41q0 15 1.5 18t9.5 3q19 0 10 -44q-5 -31 -12 -42t-18 -8q-5 2 -1 6z" />
    <glyph glyph-name="uni013C" unicode="&#x13c;" horiz-adv-x="278" 
d="M86 574q25 50 50.5 73t46.5 23q18 0 31.5 -14t20.5 -40.5t7 -64.5t-11 -85q-11 -50 -31 -99.5t-45.5 -90.5t-53.5 -71t-55 -41q-6 -2 -7 -4t0 -13q3 -47 13 -89t25 -73t33 -49t36 -18t39 20t40.5 46.5t35.5 53t22 40.5q8 17 14 12q3 -2 -4 -18.5t-20 -39t-29 -46.5
t-31 -41q-40 -48 -86 -36q-37 9 -63.5 44t-42 87t-20 117.5t3.5 136.5t28 143t53 137zM39 175q2 0 12 7q44 29 81.5 88t61 126t28.5 131.5t-15 105.5q-9 17 -20 17q-19 0 -42.5 -36t-45.5 -93t-38.5 -127t-21.5 -138q-1 -10 -1 -23.5v-26.5v-22t1 -9zM121 -209q3 3 6.5 26
t3.5 41q0 15 1.5 18t9.5 3q19 0 10 -44q-5 -31 -12 -42t-18 -8q-5 2 -1 6z" />
    <glyph glyph-name="Lcaron" unicode="&#x13d;" horiz-adv-x="461" 
d="M203 673q27 -1 43 -15t22 -51t2.5 -101.5t-14.5 -167.5q-13 -124 -20.5 -197t-9 -111.5t2 -49.5t12.5 -11q1 0 11.5 -4.5t26.5 -11t35 -15t36 -16.5q72 -33 138.5 -58.5t123 -43t100.5 -26.5t72 -9q44 0 43 23q-1 13 2.5 14.5t7.5 -9.5q12 -29 -13 -44t-79 -9
q-153 15 -397 124q-56 25 -90.5 40t-57 22.5t-38 10t-33.5 2.5q-21 0 -24 1.5t-3 10.5q-1 10 11.5 15.5t32.5 5.5q18 0 34 -4l12 -3v49q0 24 1.5 48t4 57t7 79t11.5 114q9 91 13 149t3 93.5t-7 52.5t-17 26q-12 9 -43 -8.5t-62.5 -47t-56 -62t-24.5 -53.5q0 -7 -9 -7t-11 7
q-6 21 15 54t53.5 64t69 52.5t63.5 20.5zM169 752q12 6 33 -26q5 -6 7 -9.5t4 -3.5q4 0 17 20q14 20 21 28t12 8q9 0 1 -9q-2 -2 -6 -8.5t-9 -14.5q-14 -23 -18.5 -28.5t-7.5 -7.5q-4 -2 -11 -1.5t-11 2.5q-5 3 -12 11t-12 16.5t-8 15t0 7.5z" />
    <glyph glyph-name="lcaron" unicode="&#x13e;" horiz-adv-x="275" 
d="M86 574q25 50 50.5 73t46.5 23q18 0 31.5 -14t20.5 -40.5t7 -64.5t-11 -85q-11 -50 -31 -99.5t-45.5 -90.5t-53.5 -71t-55 -41q-6 -2 -7 -4t0 -13q3 -47 13 -89t25 -73t33 -49t36 -18t39 20t40.5 46.5t35.5 53t22 40.5q8 17 14 12q3 -2 -4 -18.5t-20 -39t-29 -46.5
t-31 -41q-40 -48 -86 -36q-37 9 -63.5 44t-42 87t-20 117.5t3.5 136.5t28 143t53 137zM39 175q2 0 12 7q44 29 81.5 88t61 126t28.5 131.5t-15 105.5q-9 17 -20 17q-19 0 -42.5 -36t-45.5 -93t-38.5 -127t-21.5 -138q-1 -10 -1 -23.5v-26.5v-22t1 -9zM269 541q3 3 6.5 26
t3.5 41q0 15 1.5 18t9.5 3q19 0 10 -44q-5 -31 -12 -42t-18 -8q-7 2 -1 6z" />
    <glyph glyph-name="Ldot" unicode="&#x13f;" horiz-adv-x="461" 
d="M203 673q27 -1 43 -15t22 -51t2.5 -101.5t-14.5 -167.5q-13 -124 -20.5 -197t-9 -111.5t2 -49.5t12.5 -11q1 0 11.5 -4.5t26.5 -11t35 -15t36 -16.5q72 -33 138.5 -58.5t123 -43t100.5 -26.5t72 -9q44 0 43 23q-1 13 2.5 14.5t7.5 -9.5q12 -29 -13 -44t-79 -9
q-153 15 -397 124q-56 25 -90.5 40t-57 22.5t-38 10t-33.5 2.5q-21 0 -24 1.5t-3 10.5q-1 10 11.5 15.5t32.5 5.5q18 0 34 -4l12 -3v49q0 24 1.5 48t4 57t7 79t11.5 114q9 91 13 149t3 93.5t-7 52.5t-17 26q-12 9 -43 -8.5t-62.5 -47t-56 -62t-24.5 -53.5q0 -7 -9 -7t-11 7
q-6 21 15 54t53.5 64t69 52.5t63.5 20.5zM318 182q6 3 14 3q15 0 17 -7q3 -13 -5.5 -21.5t-19.5 -3.5q-7 4 -9 15t3 14z" />
    <glyph glyph-name="ldot" unicode="&#x140;" horiz-adv-x="278" 
d="M86 574q25 50 50.5 73t46.5 23q18 0 31.5 -14t20.5 -40.5t7 -64.5t-11 -85q-11 -50 -31 -99.5t-45.5 -90.5t-53.5 -71t-55 -41q-6 -2 -7 -4t0 -13q3 -47 13 -89t25 -73t33 -49t36 -18t39 20t40.5 46.5t35.5 53t22 40.5q8 17 14 12q3 -2 -4 -18.5t-20 -39t-29 -46.5
t-31 -41q-40 -48 -86 -36q-37 9 -63.5 44t-42 87t-20 117.5t3.5 136.5t28 143t53 137zM39 175q2 0 12 7q44 29 81.5 88t61 126t28.5 131.5t-15 105.5q-9 17 -20 17q-19 0 -42.5 -36t-45.5 -93t-38.5 -127t-21.5 -138q-1 -10 -1 -23.5v-26.5v-22t1 -9zM129 156q6 3 14 3
q15 0 17 -7q3 -13 -5.5 -21.5t-19.5 -3.5q-7 4 -9 15t3 14z" />
    <glyph glyph-name="Lslash" unicode="&#x141;" horiz-adv-x="526" 
d="M174 669q8 2 14.5 3t12.5 1q46 0 61.5 -52.5t4.5 -167.5q-2 -14 -5 -47t-7 -65q-5 -47 -6.5 -62t2.5 -15q2 0 9 5q15 11 18 5q2 -3 -21 -18q-5 -3 -8 -6t-5 -14.5t-4 -35.5t-7 -71q-5 -51 -7 -83t-1.5 -49.5t4.5 -23.5t11 -6q1 0 11.5 -4.5t26.5 -11t34.5 -15t35.5 -15.5
q73 -33 139.5 -58.5t122.5 -43t100.5 -26.5t72.5 -9q44 0 43 23q-1 12 2.5 14t7.5 -9q12 -29 -13 -44t-79 -10q-155 17 -397 125q-56 25 -90.5 40t-57 22.5t-38 10t-33.5 2.5q-21 0 -24 1t-3 11q-1 10 12 15.5t33 5.5q18 0 33 -4l11 -3l1 49q0 18 1 33t2 32t2.5 37.5
t3.5 48.5q2 15 3 26t0 12l-5 -3q-3 -3 -11 -8q-13 -9 -16 -10t-6 1q-2 2 2.5 6t22.5 16l15 11l10 97q9 90 13 148t3 93t-7 52t-17 26q-8 6 -25.5 0t-38 -20.5t-42 -34.5t-39.5 -41t-29.5 -40.5t-11.5 -33.5q0 -8 -9 -8t-11 8q-5 17 12 46t44.5 58.5t59.5 53.5t57 30z" />
    <glyph glyph-name="lslash" unicode="&#x142;" horiz-adv-x="277" 
d="M-18 234q13 12 15 16.5t4 18.5q7 79 26.5 151.5t45.5 128t55 88.5t56 33q19 0 33 -17q20 -23 23.5 -64.5t-5 -91t-27.5 -103t-44.5 -100.5t-56 -82t-62.5 -48q-7 -3 -8 -5t0 -12q3 -48 13 -89.5t25 -72.5t33 -49t36 -18t39.5 19.5t41 46t35 53t21.5 40.5q5 11 7.5 13
t6.5 0q3 -2 -4 -18.5t-19.5 -39t-28.5 -46.5t-31 -41q-39 -48 -87 -37q-28 7 -51.5 31.5t-40 62t-25.5 87t-9 106.5v16.5t-1 12.5v12q-1 0 -14 -11q-10 -9 -13.5 -11t-4.5 1t16 19zM37 174q3 0 13 7q44 29 81.5 88t60.5 126t28.5 132t-14.5 105q-7 16 -20 16
q-16 0 -37.5 -29t-42 -77t-37.5 -109t-26 -126q-3 -20 -2 -22t10 3q9 6 13 6q3 0 0.5 -4.5t-11.5 -11.5q-14 -9 -14 -12q-1 -1 -1.5 -16t-0.5 -31.5v-30.5v-14z" />
    <glyph glyph-name="Nacute" unicode="&#x143;" horiz-adv-x="753" 
d="M142 630q35 2 54.5 -15t25.5 -64t-1.5 -130t-26.5 -215q-4 -29 -6 -45.5t-3 -23.5t0 -6t3 6q25 61 58.5 122t71 116.5t77 103.5t77.5 83.5t71.5 55.5t59.5 20q24 0 39 -9t22.5 -33t8.5 -66.5t-3 -110.5q-6 -106 -4 -195t11.5 -155.5t26 -109t39.5 -55.5q21 -12 -2 -12
q-30 0 -53.5 41.5t-38.5 112.5t-20 166t2 201q8 109 1.5 158.5t-33.5 49.5q-24 0 -77 -44q-65 -54 -126.5 -135.5t-112 -174.5t-84.5 -189t-43 -179q-5 -39 -10 -47t-23 -3q-7 2 -7.5 6t1.5 24q2 11 3.5 29t3.5 34q4 35 7 65t7 60t8 63t10 74q16 114 23.5 192t6.5 126.5
t-11 70t-31 21.5q-23 0 -61 -23q-27 -17 -46 -34t-14 -22q3 -4 -5 -5.5t-13 2.5q-10 7 2.5 22.5t35.5 32t50.5 29.5t48.5 14zM502 737q7 -2 7 -5.5t-6 -12.5q-29 -38 -41 -31q-3 1 2 9t12.5 17t15 16.5t10.5 6.5zM184 126q0 1 -1 1v-1h1z" />
    <glyph glyph-name="nacute" unicode="&#x144;" horiz-adv-x="303" 
d="M4 110q2 38 3.5 45.5t6.5 9.5q8 3 12 3q11 0 13.5 -22t0.5 -82l-1 -23l5 13q26 69 49 100.5t45 30.5q17 -1 24.5 -16.5t15.5 -70.5q17 -108 45 -108q10 0 34 26t45 59q8 14 11.5 16.5t8.5 -0.5q4 -3 -5 -19t-23 -34.5t-29 -35t-23 -20.5q-12 -6 -23 -6q-54 0 -72 129
q-5 37 -8 51t-8 14q-3 0 -9 -6q-14 -13 -27 -35.5t-24 -50.5t-19 -58.5t-11 -59.5q-3 -17 -24 -13q-9 2 -11.5 8.5t-4.5 35.5q0 10 -0.5 18.5t0 20.5t1.5 30.5t2 49.5zM148 282q7 -2 7 -5.5t-6 -12.5q-29 -38 -41 -31q-3 1 2 9t12.5 17t15 16.5t10.5 6.5z" />
    <glyph glyph-name="uni0145" unicode="&#x145;" horiz-adv-x="753" 
d="M142 630q35 2 54.5 -15t25.5 -64t-1.5 -130t-26.5 -215q-4 -29 -6 -45.5t-3 -23.5t0 -6t3 6q25 61 58.5 122t71 116.5t77 103.5t77.5 83.5t71.5 55.5t59.5 20q24 0 39 -9t22.5 -33t8.5 -66.5t-3 -110.5q-6 -106 -4 -195t11.5 -155.5t26 -109t39.5 -55.5q21 -12 -2 -12
q-30 0 -53.5 41.5t-38.5 112.5t-20 166t2 201q8 109 1.5 158.5t-33.5 49.5q-24 0 -77 -44q-65 -54 -126.5 -135.5t-112 -174.5t-84.5 -189t-43 -179q-5 -39 -10 -47t-23 -3q-7 2 -7.5 6t1.5 24q2 11 3.5 29t3.5 34q4 35 7 65t7 60t8 63t10 74q16 114 23.5 192t6.5 126.5
t-11 70t-31 21.5q-23 0 -61 -23q-27 -17 -46 -34t-14 -22q3 -4 -5 -5.5t-13 2.5q-10 7 2.5 22.5t35.5 32t50.5 29.5t48.5 14zM409 -188q3 3 6.5 26t3.5 41q0 15 1.5 18t9.5 3q19 0 10 -44q-5 -31 -12 -42t-18 -8q-5 2 -1 6zM183 127v-1h1q0 1 -1 1z" />
    <glyph glyph-name="uni0146" unicode="&#x146;" horiz-adv-x="303" 
d="M4 110q2 38 3.5 45.5t6.5 9.5q8 3 12 3q11 0 13.5 -22t0.5 -82l-1 -23l5 13q26 69 49 100.5t45 30.5q17 -1 24.5 -16.5t15.5 -70.5q17 -108 45 -108q10 0 34 26t45 59q8 14 11.5 16.5t8.5 -0.5q4 -3 -5 -19t-23 -34.5t-29 -35t-23 -20.5q-12 -6 -23 -6q-54 0 -72 129
q-5 37 -8 51t-8 14q-3 0 -9 -6q-14 -13 -27 -35.5t-24 -50.5t-19 -58.5t-11 -59.5q-3 -17 -24 -13q-9 2 -11.5 8.5t-4.5 35.5q0 10 -0.5 18.5t0 20.5t1.5 30.5t2 49.5zM92 -128q3 3 6.5 26t3.5 41q0 15 1.5 18t9.5 3q19 0 10 -44q-5 -31 -12 -42t-18 -8q-5 2 -1 6z" />
    <glyph glyph-name="Ncaron" unicode="&#x147;" horiz-adv-x="753" 
d="M142 630q35 2 54.5 -15t25.5 -64t-1.5 -130t-26.5 -215q-4 -29 -6 -45.5t-3 -23.5t0 -6t3 6q25 61 58.5 122t71 116.5t77 103.5t77.5 83.5t71.5 55.5t59.5 20q24 0 39 -9t22.5 -33t8.5 -66.5t-3 -110.5q-6 -106 -4 -195t11.5 -155.5t26 -109t39.5 -55.5q21 -12 -2 -12
q-30 0 -53.5 41.5t-38.5 112.5t-20 166t2 201q8 109 1.5 158.5t-33.5 49.5q-24 0 -77 -44q-65 -54 -126.5 -135.5t-112 -174.5t-84.5 -189t-43 -179q-5 -39 -10 -47t-23 -3q-7 2 -7.5 6t1.5 24q2 11 3.5 29t3.5 34q4 35 7 65t7 60t8 63t10 74q16 114 23.5 192t6.5 126.5
t-11 70t-31 21.5q-23 0 -61 -23q-27 -17 -46 -34t-14 -22q3 -4 -5 -5.5t-13 2.5q-10 7 2.5 22.5t35.5 32t50.5 29.5t48.5 14zM415 741q12 6 33 -26q5 -6 7 -9.5t4 -3.5q4 0 17 20q14 20 21 28t12 8q9 0 1 -9q-2 -2 -6 -8.5t-9 -14.5q-14 -23 -18.5 -28.5t-7.5 -7.5
q-4 -2 -11 -1.5t-11 2.5q-5 3 -12 11t-12 16.5t-8 15t0 7.5zM183 126h1q0 1 -1 1v-1z" />
    <glyph glyph-name="ncaron" unicode="&#x148;" horiz-adv-x="303" 
d="M4 110q2 38 3.5 45.5t6.5 9.5q8 3 12 3q11 0 13.5 -22t0.5 -82l-1 -23l5 13q26 69 49 100.5t45 30.5q17 -1 24.5 -16.5t15.5 -70.5q17 -108 45 -108q10 0 34 26t45 59q8 14 11.5 16.5t8.5 -0.5q4 -3 -5 -19t-23 -34.5t-29 -35t-23 -20.5q-12 -6 -23 -6q-54 0 -72 129
q-5 37 -8 51t-8 14q-3 0 -9 -6q-14 -13 -27 -35.5t-24 -50.5t-19 -58.5t-11 -59.5q-3 -17 -24 -13q-9 2 -11.5 8.5t-4.5 35.5q0 10 -0.5 18.5t0 20.5t1.5 30.5t2 49.5zM61 286q12 6 33 -26q5 -6 7 -9.5t4 -3.5q4 0 17 20q14 20 21 28t12 8q9 0 1 -9q-2 -2 -6 -8.5t-9 -14.5
q-14 -23 -18.5 -28.5t-7.5 -7.5q-4 -2 -11 -1.5t-11 2.5q-5 3 -12 11t-12 16.5t-8 15t0 7.5z" />
    <glyph glyph-name="napostrophe" unicode="&#x149;" horiz-adv-x="303" 
d="M4 110q2 38 3.5 45.5t6.5 9.5q8 3 12 3q11 0 13.5 -22t0.5 -82l-1 -23l5 13q26 69 49 100.5t45 30.5q17 -1 24.5 -16.5t15.5 -70.5q17 -108 45 -108q10 0 34 26t45 59q8 14 11.5 16.5t8.5 -0.5q4 -3 -5 -19t-23 -34.5t-29 -35t-23 -20.5q-12 -6 -23 -6q-54 0 -72 129
q-5 37 -8 51t-8 14q-3 0 -9 -6q-14 -13 -27 -35.5t-24 -50.5t-19 -58.5t-11 -59.5q-3 -17 -24 -13q-9 2 -11.5 8.5t-4.5 35.5q0 10 -0.5 18.5t0 20.5t1.5 30.5t2 49.5zM14 205q3 3 6.5 26t3.5 41q0 15 1.5 18t9.5 3q19 0 10 -44q-5 -31 -12 -42t-18 -8q-5 2 -1 6z" />
    <glyph glyph-name="Omacron" unicode="&#x14c;" horiz-adv-x="650" 
d="M36 361q5 4 13 4q9 0 14 -5.5t-2 -13.5q-4 -4 -7.5 -17.5t-6.5 -33t-5.5 -42.5t-2.5 -45q-2 -81 15 -149.5t49.5 -119t78.5 -80.5t101 -33q19 -1 41 7.5t42 23.5t36.5 35.5t24.5 42.5q2 2 -28 2q-60 2 -109 27t-85 66.5t-57 97t-25.5 118.5t9 130t47.5 132q35 65 78.5 95
t88.5 30q42 0 82 -24t70.5 -68.5t48 -107.5t15.5 -141q-2 -81 -20.5 -157t-55.5 -156q-5 -11 -4 -11.5t18 5.5q24 9 48 22t45 27.5t37.5 29.5t25.5 28q5 9 7.5 10.5t7.5 1.5q8 0 8.5 -2.5t-5.5 -11.5q-25 -38 -74 -71t-112 -55q-14 -5 -17.5 -8t-10.5 -15
q-35 -62 -76.5 -91.5t-95.5 -29.5q-10 0 -19.5 1t-20.5 3q-109 20 -172.5 108.5t-74.5 235.5q-2 29 0.5 62.5t7.5 63t12 51.5t15 28zM196 105q16 -37 40.5 -67t54.5 -50t64.5 -29.5t68.5 -5.5q6 1 9.5 1.5t6 3.5t5.5 9.5t9 18.5q38 83 56.5 165.5t17.5 158t-21.5 140
t-60.5 110.5q-46 54 -98 54q-35 0 -69 -27.5t-62 -81.5q-51 -97 -56.5 -201t35.5 -199zM374 719q14 -2 16.5 -5.5t-9.5 -5.5q-6 -1 -20.5 -2.5t-27.5 -3.5q-7 0 -9 1q-9 3 -7 6t10.5 5.5t21 4t25.5 0.5z" />
    <glyph glyph-name="omacron" unicode="&#x14d;" horiz-adv-x="206" 
d="M9 136q8 26 27 19q6 -2 6.5 -6t-2.5 -20q-5 -26 -4.5 -49.5t5 -41.5t12.5 -28.5t17 -10.5q15 0 27 25q5 10 5 12t-5 5q-17 10 -26.5 29.5t-11 39t5.5 34t23 14.5q23 0 33.5 -30t2.5 -72q-2 -12 -1 -13.5t9 -1.5q37 0 72 34q11 11 15 13.5t6 0.5q1 -2 -4.5 -10t-13.5 -16
q-35 -35 -78 -32q-8 1 -9.5 0.5t-3.5 -4.5q-15 -50 -58 -41q-18 4 -31 18.5t-19.5 35.5t-6.5 46t8 50zM89 70q10 -19 14 -19q5 0 6 18q1 11 -0.5 25t-4 26t-6.5 19.5t-7 5.5q-11 -7 -11.5 -31t9.5 -44zM93 257q14 -2 16.5 -5.5t-9.5 -5.5q-6 -1 -20.5 -2.5t-27.5 -3.5
q-7 0 -9 1q-9 3 -7 6t10.5 5.5t21 4t25.5 0.5z" />
    <glyph glyph-name="Obreve" unicode="&#x14e;" horiz-adv-x="650" 
d="M36 361q5 4 13 4q9 0 14 -5.5t-2 -13.5q-4 -4 -7.5 -17.5t-6.5 -33t-5.5 -42.5t-2.5 -45q-2 -81 15 -149.5t49.5 -119t78.5 -80.5t101 -33q19 -1 41 7.5t42 23.5t36.5 35.5t24.5 42.5q2 2 -28 2q-60 2 -109 27t-85 66.5t-57 97t-25.5 118.5t9 130t47.5 132q35 65 78.5 95
t88.5 30q42 0 82 -24t70.5 -68.5t48 -107.5t15.5 -141q-2 -81 -20.5 -157t-55.5 -156q-5 -11 -4 -11.5t18 5.5q24 9 48 22t45 27.5t37.5 29.5t25.5 28q5 9 7.5 10.5t7.5 1.5q8 0 8.5 -2.5t-5.5 -11.5q-25 -38 -74 -71t-112 -55q-14 -5 -17.5 -8t-10.5 -15
q-35 -62 -76.5 -91.5t-95.5 -29.5q-10 0 -19.5 1t-20.5 3q-109 20 -172.5 108.5t-74.5 235.5q-2 29 0.5 62.5t7.5 63t12 51.5t15 28zM196 105q16 -37 40.5 -67t54.5 -50t64.5 -29.5t68.5 -5.5q6 1 9.5 1.5t6 3.5t5.5 9.5t9 18.5q38 83 56.5 165.5t17.5 158t-21.5 140
t-60.5 110.5q-46 54 -98 54q-35 0 -69 -27.5t-62 -81.5q-51 -97 -56.5 -201t35.5 -199zM315 750q5 5 11 2.5t7 -8.5q0 -17 8 -32.5t16 -13.5q4 1 8.5 6.5t8.5 13t6.5 15t1.5 11.5t0 4.5t6 0.5q18 -2 2 -35t-47 -23q-8 2 -15.5 10t-12 17.5t-5 18.5t4.5 13z" />
    <glyph glyph-name="obreve" unicode="&#x14f;" horiz-adv-x="206" 
d="M9 136q8 26 27 19q6 -2 6.5 -6t-2.5 -20q-5 -26 -4.5 -49.5t5 -41.5t12.5 -28.5t17 -10.5q15 0 27 25q5 10 5 12t-5 5q-17 10 -26.5 29.5t-11 39t5.5 34t23 14.5q23 0 33.5 -30t2.5 -72q-2 -12 -1 -13.5t9 -1.5q37 0 72 34q11 11 15 13.5t6 0.5q1 -2 -4.5 -10t-13.5 -16
q-35 -35 -78 -32q-8 1 -9.5 0.5t-3.5 -4.5q-15 -50 -58 -41q-18 4 -31 18.5t-19.5 35.5t-6.5 46t8 50zM34 288q5 5 11 2.5t7 -8.5q0 -17 8 -32.5t16 -13.5q4 1 8.5 6.5t8.5 13t6.5 15t1.5 11.5t0 4.5t6 0.5q18 -2 2 -35t-47 -23q-8 2 -15.5 10t-12 17.5t-5 18.5t4.5 13z
M89 70q10 -19 14 -19q5 0 6 18q1 11 -0.5 25t-4 26t-6.5 19.5t-7 5.5q-11 -7 -11.5 -31t9.5 -44z" />
    <glyph glyph-name="Ohungarumlaut" unicode="&#x150;" horiz-adv-x="650" 
d="M36 361q5 4 13 4q9 0 14 -5.5t-2 -13.5q-4 -4 -7.5 -17.5t-6.5 -33t-5.5 -42.5t-2.5 -45q-2 -81 15 -149.5t49.5 -119t78.5 -80.5t101 -33q19 -1 41 7.5t42 23.5t36.5 35.5t24.5 42.5q2 2 -28 2q-60 2 -109 27t-85 66.5t-57 97t-25.5 118.5t9 130t47.5 132q35 65 78.5 95
t88.5 30q42 0 82 -24t70.5 -68.5t48 -107.5t15.5 -141q-2 -81 -20.5 -157t-55.5 -156q-5 -11 -4 -11.5t18 5.5q24 9 48 22t45 27.5t37.5 29.5t25.5 28q5 9 7.5 10.5t7.5 1.5q8 0 8.5 -2.5t-5.5 -11.5q-25 -38 -74 -71t-112 -55q-14 -5 -17.5 -8t-10.5 -15
q-35 -62 -76.5 -91.5t-95.5 -29.5q-10 0 -19.5 1t-20.5 3q-109 20 -172.5 108.5t-74.5 235.5q-2 29 0.5 62.5t7.5 63t12 51.5t15 28zM196 105q16 -37 40.5 -67t54.5 -50t64.5 -29.5t68.5 -5.5q6 1 9.5 1.5t6 3.5t5.5 9.5t9 18.5q38 83 56.5 165.5t17.5 158t-21.5 140
t-60.5 110.5q-46 54 -98 54q-35 0 -69 -27.5t-62 -81.5q-51 -97 -56.5 -201t35.5 -199zM405 740q7 -2 7 -5.5t-6 -12.5q-29 -38 -41 -31q-3 1 2 9t12.5 17t15 16.5t10.5 6.5zM358 740q7 -2 7 -5.5t-6 -12.5q-29 -38 -41 -31q-3 1 2 9t12.5 17t15 16.5t10.5 6.5z" />
    <glyph glyph-name="ohungarumlaut" unicode="&#x151;" horiz-adv-x="206" 
d="M9 136q8 26 27 19q6 -2 6.5 -6t-2.5 -20q-5 -26 -4.5 -49.5t5 -41.5t12.5 -28.5t17 -10.5q15 0 27 25q5 10 5 12t-5 5q-17 10 -26.5 29.5t-11 39t5.5 34t23 14.5q23 0 33.5 -30t2.5 -72q-2 -12 -1 -13.5t9 -1.5q37 0 72 34q11 11 15 13.5t6 0.5q1 -2 -4.5 -10t-13.5 -16
q-35 -35 -78 -32q-8 1 -9.5 0.5t-3.5 -4.5q-15 -50 -58 -41q-18 4 -31 18.5t-19.5 35.5t-6.5 46t8 50zM89 70q10 -19 14 -19q5 0 6 18q1 11 -0.5 25t-4 26t-6.5 19.5t-7 5.5q-11 -7 -11.5 -31t9.5 -44zM124 278q7 -2 7 -5.5t-6 -12.5q-29 -38 -41 -31q-3 1 2 9t12.5 17
t15 16.5t10.5 6.5zM77 278q7 -2 7 -5.5t-6 -12.5q-29 -38 -41 -31q-3 1 2 9t12.5 17t15 16.5t10.5 6.5z" />
    <glyph glyph-name="OE" unicode="&#x152;" horiz-adv-x="1252" 
d="M36 359q5 4 13 4q9 0 14 -5.5t-2 -13.5q-4 -4 -7.5 -17.5t-6.5 -33t-5.5 -42.5t-2.5 -44q-2 -81 15 -149.5t49.5 -119t78.5 -80.5t101 -34q19 -1 41 7.5t42 23.5t36.5 35.5t24.5 42.5q2 2 -28 2q-60 2 -109 27t-85 66.5t-57 97t-25.5 118.5t9 130t47.5 132t78 95t90 30
q42 0 81 -23.5t69.5 -67t48.5 -105t16 -137.5v-18t1 -6l3 5q2 2 4 5.5t4 6.5q44 66 105.5 122t130.5 96t140 61t134 16q94 -7 110 -55t-53 -124q-21 -23 -47.5 -43.5t-53 -35.5t-51 -23.5t-41.5 -8.5q-21 0 -27 12q-2 4 4 5.5t13 -2.5q14 -6 39.5 3.5t54.5 29t57.5 46.5
t47.5 55q39 59 19.5 92t-93.5 33q-68 0 -142 -31t-140 -79t-118.5 -106t-79 -112t-19.5 -96.5t59 -60.5q26 -9 69 -9q35 0 75 5.5t79.5 15t74.5 23t58 28.5q36 24 63.5 33.5t40.5 3.5q12 -6 -5 -17t-73 -34q-34 -14 -65.5 -42.5t-57 -63t-42.5 -71.5t-22 -67t4.5 -49.5
t37.5 -19.5q23 0 66.5 21t95.5 55.5t108 78.5t104 91q19 19 25 22.5t12 -1.5q4 -3 -12.5 -21t-46 -45t-68.5 -59t-80 -63q-130 -96 -206 -96q-14 0 -28 3q-33 8 -44.5 34.5t-2.5 64.5t37 83t73 90l20 20q-3 0 -18 -5q-55 -17 -105.5 -25.5t-94.5 -8.5q-57 0 -97 13.5
t-58 41.5q-2 3 -2.5 2.5t-2.5 -7.5q-20 -75 -55 -145q2 0 15 5t21 9q20 8 21 1t-10.5 -14t-38.5 -16q-15 -5 -18.5 -8t-9.5 -14q-37 -67 -78.5 -94.5t-102.5 -25.5q-59 2 -107.5 27t-84.5 69.5t-58 108t-28 141.5q-2 29 0.5 62.5t7.5 63.5t12 51.5t15 27.5zM196 104
q16 -37 40.5 -67t54.5 -50.5t64.5 -29.5t68.5 -6q6 1 9.5 1.5t6 3.5t5.5 9.5t9 18.5q38 83 56.5 165.5t17.5 158.5t-21.5 140.5t-60.5 110.5q-46 53 -98 53q-35 0 -69 -27.5t-62 -81.5q-51 -97 -56.5 -201t35.5 -198z" />
    <glyph glyph-name="oe" unicode="&#x153;" horiz-adv-x="298" 
d="M26 144q16 1 11 -12q-5 -15 -4.5 -36.5t5 -41.5t12 -34t15.5 -14q5 0 12.5 8t14.5 18.5t12.5 22t5.5 17.5q0 1 -8 3q-18 6 -30.5 20.5t-18 33t-2.5 38.5t15 38q13 19 27 19t24.5 -19.5t10.5 -54.5v-14l9 17q17 35 37.5 54t38.5 19q13 0 23 -12q9 -11 4.5 -32t-17 -42.5
t-31 -40t-37.5 -24.5q-7 -2 -9.5 -12.5t0 -24t8.5 -26t15 -19.5q11 -7 21 -7q22 0 50 22t54 60q13 18 16.5 21.5t6.5 1.5q2 -1 -4 -11.5t-15.5 -23.5t-20.5 -26.5t-20 -22.5q-33 -33 -63 -33q-27 0 -48 18t-28 44l-3 10l-4 -8q-10 -23 -23.5 -34t-27.5 -11q-22 0 -39.5 24
t-19.5 66q-3 58 25 61zM147 84q0 -3 15 4q14 8 27 23t22 32t13 33.5t1 27.5q-1 7 -7 7q-7 0 -19.5 -14t-23.5 -34t-19.5 -41.5t-8.5 -37.5zM103 86q8 -4 9 -1.5t3 22.5q5 45 -2.5 75t-18.5 30t-19 -32q-8 -27 1 -55t27 -39z" />
    <glyph glyph-name="Racute" unicode="&#x154;" horiz-adv-x="736" 
d="M30 563q87 22 165.5 37.5t170.5 15.5q98 0 174.5 -20t120 -55.5t47.5 -84t-44 -105.5q-27 -32 -78 -65t-113.5 -60t-128.5 -46t-123 -24q-20 -2 -21 -2.5t9 -8.5q4 -3 15.5 -11.5t23.5 -17.5q275 -206 395 -206q41 0 65 24q5 6 6.5 6t0.5 -6q-4 -20 -38.5 -30.5
t-74.5 -5.5q-43 5 -93.5 27t-101.5 52t-98.5 63t-85.5 60q-17 12 -20 12q-4 0 -4 -11t1 -39q3 -69 9 -101t16 -31q22 1 10 -12q-7 -9 -20 -9q-14 0 -24 13q-11 17 -18.5 67t-9.5 111q-1 17 -1 26t-1.5 13.5t-5 7t-10.5 6.5q-6 4 -15.5 9t-19 9.5t-16.5 7.5t-9 3q-5 0 -5 7.5
t5 12.5q4 4 11 4q20 0 50 -19q5 -3 7.5 -5t4.5 -2t2.5 7t1.5 27q1 23 2.5 44t4 45t6 53t8.5 68q4 30 6.5 53.5t2.5 33.5q1 8 1.5 17t0.5 13q1 3 1 8l1 3q0 4 12.5 5t18.5 -2q4 -2 6 -8t1.5 -21t-3.5 -41t-8 -68q-10 -75 -15 -124.5t-7 -84.5q0 -18 -2 -28q0 -9 14 -9
q11 0 28.5 3.5t46.5 10.5q88 22 161 55.5t124 72t76 80t16 78.5q-15 63 -89.5 95t-189.5 32q-66 0 -141 -10.5t-159 -33.5q-23 -6 -38.5 -9.5t-25.5 -3.5q-8 0 -16 4q-8 5 -3.5 8.5t27.5 9.5zM439 718q7 -2 7 -5.5t-6 -12.5q-29 -38 -41 -31q-3 1 2 9t12.5 17t15 16.5
t10.5 6.5z" />
    <glyph glyph-name="racute" unicode="&#x155;" horiz-adv-x="176" 
d="M32 103q0 -8 1.5 -7t6.5 12q19 36 49 59.5t52 23.5q15 0 21 -12q8 -17 -2 -17q-5 0 -6 1.5t-5 9.5q-2 8 -6 8.5t-13 -3.5q-19 -10 -36 -28t-29.5 -40.5t-20 -47.5t-7.5 -49q1 -17 -1.5 -20t-13.5 -1q-5 1 -8 3t-5 9t-3 20t-2 37q-5 65 -3 91t10 26t12 -10t6 -22.5
t2.5 -25t0.5 -17.5zM128 297q7 -2 7 -5.5t-6 -12.5q-29 -38 -41 -31q-3 1 2 9t12.5 17t15 16.5t10.5 6.5z" />
    <glyph glyph-name="uni0156" unicode="&#x156;" horiz-adv-x="736" 
d="M30 563q87 22 165.5 37.5t170.5 15.5q98 0 174.5 -20t120 -55.5t47.5 -84t-44 -105.5q-27 -32 -78 -65t-113.5 -60t-128.5 -46t-123 -24q-20 -2 -21 -2.5t9 -8.5q4 -3 15.5 -11.5t23.5 -17.5q275 -206 395 -206q41 0 65 24q5 6 6.5 6t0.5 -6q-4 -20 -38.5 -30.5
t-74.5 -5.5q-43 5 -93.5 27t-101.5 52t-98.5 63t-85.5 60q-17 12 -20 12q-4 0 -4 -11t1 -39q3 -69 9 -101t16 -31q22 1 10 -12q-7 -9 -20 -9q-14 0 -24 13q-11 17 -18.5 67t-9.5 111q-1 17 -1 26t-1.5 13.5t-5 7t-10.5 6.5q-6 4 -15.5 9t-19 9.5t-16.5 7.5t-9 3q-5 0 -5 7.5
t5 12.5q4 4 11 4q20 0 50 -19q5 -3 7.5 -5t4.5 -2t2.5 7t1.5 27q1 23 2.5 44t4 45t6 53t8.5 68q4 30 6.5 53.5t2.5 33.5q1 8 1.5 17t0.5 13q1 3 1 8l1 3q0 4 12.5 5t18.5 -2q4 -2 6 -8t1.5 -21t-3.5 -41t-8 -68q-10 -75 -15 -124.5t-7 -84.5q0 -18 -2 -28q0 -9 14 -9
q11 0 28.5 3.5t46.5 10.5q88 22 161 55.5t124 72t76 80t16 78.5q-15 63 -89.5 95t-189.5 32q-66 0 -141 -10.5t-159 -33.5q-23 -6 -38.5 -9.5t-25.5 -3.5q-8 0 -16 4q-8 5 -3.5 8.5t27.5 9.5zM346 -188q3 3 6.5 26t3.5 41q0 15 1.5 18t9.5 3q19 0 10 -44q-5 -31 -12 -42
t-18 -8q-5 2 -1 6z" />
    <glyph glyph-name="uni0157" unicode="&#x157;" horiz-adv-x="176" 
d="M32 103q0 -8 1.5 -7t6.5 12q19 36 49 59.5t52 23.5q15 0 21 -12q8 -17 -2 -17q-5 0 -6 1.5t-5 9.5q-2 8 -6 8.5t-13 -3.5q-19 -10 -36 -28t-29.5 -40.5t-20 -47.5t-7.5 -49q1 -17 -1.5 -20t-13.5 -1q-5 1 -8 3t-5 9t-3 20t-2 37q-5 65 -3 91t10 26t12 -10t6 -22.5
t2.5 -25t0.5 -17.5zM10 -122q3 3 6.5 26t3.5 41q0 15 1.5 18t9.5 3q19 0 10 -44q-5 -31 -12 -42t-18 -8q-5 2 -1 6z" />
    <glyph glyph-name="Rcaron" unicode="&#x158;" horiz-adv-x="736" 
d="M30 563q87 22 165.5 37.5t170.5 15.5q98 0 174.5 -20t120 -55.5t47.5 -84t-44 -105.5q-27 -32 -78 -65t-113.5 -60t-128.5 -46t-123 -24q-20 -2 -21 -2.5t9 -8.5q4 -3 15.5 -11.5t23.5 -17.5q275 -206 395 -206q41 0 65 24q5 6 6.5 6t0.5 -6q-4 -20 -38.5 -30.5
t-74.5 -5.5q-43 5 -93.5 27t-101.5 52t-98.5 63t-85.5 60q-17 12 -20 12q-4 0 -4 -11t1 -39q3 -69 9 -101t16 -31q22 1 10 -12q-7 -9 -20 -9q-14 0 -24 13q-11 17 -18.5 67t-9.5 111q-1 17 -1 26t-1.5 13.5t-5 7t-10.5 6.5q-6 4 -15.5 9t-19 9.5t-16.5 7.5t-9 3q-5 0 -5 7.5
t5 12.5q4 4 11 4q20 0 50 -19q5 -3 7.5 -5t4.5 -2t2.5 7t1.5 27q1 23 2.5 44t4 45t6 53t8.5 68q4 30 6.5 53.5t2.5 33.5q1 8 1.5 17t0.5 13q1 3 1 8l1 3q0 4 12.5 5t18.5 -2q4 -2 6 -8t1.5 -21t-3.5 -41t-8 -68q-10 -75 -15 -124.5t-7 -84.5q0 -18 -2 -28q0 -9 14 -9
q11 0 28.5 3.5t46.5 10.5q88 22 161 55.5t124 72t76 80t16 78.5q-15 63 -89.5 95t-189.5 32q-66 0 -141 -10.5t-159 -33.5q-23 -6 -38.5 -9.5t-25.5 -3.5q-8 0 -16 4q-8 5 -3.5 8.5t27.5 9.5zM352 722q12 6 33 -26q5 -6 7 -9.5t4 -3.5q4 0 17 20q14 20 21 28t12 8q9 0 1 -9
q-2 -2 -6 -8.5t-9 -14.5q-14 -23 -18.5 -28.5t-7.5 -7.5q-4 -2 -11 -1.5t-11 2.5q-5 3 -12 11t-12 16.5t-8 15t0 7.5z" />
    <glyph glyph-name="rcaron" unicode="&#x159;" horiz-adv-x="176" 
d="M32 103q0 -8 1.5 -7t6.5 12q19 36 49 59.5t52 23.5q15 0 21 -12q8 -17 -2 -17q-5 0 -6 1.5t-5 9.5q-2 8 -6 8.5t-13 -3.5q-19 -10 -36 -28t-29.5 -40.5t-20 -47.5t-7.5 -49q1 -17 -1.5 -20t-13.5 -1q-5 1 -8 3t-5 9t-3 20t-2 37q-5 65 -3 91t10 26t12 -10t6 -22.5
t2.5 -25t0.5 -17.5zM41 301q12 6 33 -26q5 -6 7 -9.5t4 -3.5q4 0 17 20q14 20 21 28t12 8q9 0 1 -9q-2 -2 -6 -8.5t-9 -14.5q-14 -23 -18.5 -28.5t-7.5 -7.5q-4 -2 -11 -1.5t-11 2.5q-5 3 -12 11t-12 16.5t-8 15t0 7.5z" />
    <glyph glyph-name="Sacute" unicode="&#x15a;" horiz-adv-x="768" 
d="M157 146q43 26 84 47t76 34.5t62.5 19t43.5 1.5q17 -4 14 -8t-22 -3q-23 2 -67 -15t-93 -43t-95.5 -57.5t-73.5 -59.5q-39 -40 -47.5 -73t9 -57t58 -37t99.5 -13q34 0 73 4.5t84 14.5q81 18 147 49t109.5 68.5t61 79t3.5 80.5q-9 26 -28 48.5t-49.5 44t-75.5 43
t-107 45.5q-130 50 -162.5 91.5t17.5 91.5q41 41 102 62.5t115 21.5q42 0 70.5 -14.5t28.5 -44.5q0 -11 -9.5 -26.5t-24.5 -30.5t-32.5 -27.5t-33.5 -17.5q-14 -4 -17 -1t9 8q16 8 31.5 21t27 28t18 30t3.5 25q-5 19 -24 27.5t-45 8.5q-31 0 -68.5 -10.5t-69.5 -27.5
t-53.5 -40t-21.5 -47q0 -15 7.5 -28t24.5 -26t46 -26t72 -30q71 -27 122.5 -51.5t86 -49.5t54 -51.5t27.5 -56.5q10 -36 -7 -74t-54.5 -72.5t-92 -64.5t-118.5 -51t-134.5 -32t-140.5 -7q-85 4 -129.5 29.5t-47 64.5t36.5 87.5t120 97.5zM548 737q7 -2 7 -5.5t-6 -12.5
q-29 -38 -41 -31q-3 1 2 9t12.5 17t15 16.5t10.5 6.5z" />
    <glyph glyph-name="sacute" unicode="&#x15b;" 
d="M-40 -42q0 4 8.5 3.5t18.5 -4.5q17 -8 22 -8q2 0 5 3q12 13 11 44t-15 76q-28 90 11 110q8 3 15 3q8 0 12.5 -3.5t-1.5 -8.5q-11 -10 -13.5 -30.5t5.5 -46.5q9 -35 12 -48.5t4 -25.5q3 -32 -4 -52q0 -2 -0.5 -3.5t-0.5 -2.5l-1 -3q2 0 16.5 12.5t34 30t40.5 37t36 34.5
q20 19 23 14q2 -2 -16 -21.5t-42 -43t-47.5 -45t-33.5 -28.5q-15 -11 -35.5 -14.5t-35.5 1.5q-10 3 -19.5 9.5t-9.5 10.5zM95 297q7 -2 7 -5.5t-6 -12.5q-29 -38 -41 -31q-3 1 2 9t12.5 17t15 16.5t10.5 6.5z" />
    <glyph glyph-name="Scircumflex" unicode="&#x15c;" horiz-adv-x="768" 
d="M157 146q43 26 84 47t76 34.5t62.5 19t43.5 1.5q17 -4 14 -8t-22 -3q-23 2 -67 -15t-93 -43t-95.5 -57.5t-73.5 -59.5q-39 -40 -47.5 -73t9 -57t58 -37t99.5 -13q34 0 73 4.5t84 14.5q81 18 147 49t109.5 68.5t61 79t3.5 80.5q-9 26 -28 48.5t-49.5 44t-75.5 43
t-107 45.5q-130 50 -162.5 91.5t17.5 91.5q41 41 102 62.5t115 21.5q42 0 70.5 -14.5t28.5 -44.5q0 -11 -9.5 -26.5t-24.5 -30.5t-32.5 -27.5t-33.5 -17.5q-14 -4 -17 -1t9 8q16 8 31.5 21t27 28t18 30t3.5 25q-5 19 -24 27.5t-45 8.5q-31 0 -68.5 -10.5t-69.5 -27.5
t-53.5 -40t-21.5 -47q0 -15 7.5 -28t24.5 -26t46 -26t72 -30q71 -27 122.5 -51.5t86 -49.5t54 -51.5t27.5 -56.5q10 -36 -7 -74t-54.5 -72.5t-92 -64.5t-118.5 -51t-134.5 -32t-140.5 -7q-85 4 -129.5 29.5t-47 64.5t36.5 87.5t120 97.5zM480 708q13 22 24 22t24 -25
q9 -15 15 -24q8 -10 -1 -10q-5 0 -11 6t-17 21q-9 14 -12 14q-2 0 -13 -20q-12 -22 -19 -22q-3 0 -5 3q-3 3 15 35z" />
    <glyph glyph-name="scircumflex" unicode="&#x15d;" 
d="M-40 -42q0 4 8.5 3.5t18.5 -4.5q17 -8 22 -8q2 0 5 3q12 13 11 44t-15 76q-28 90 11 110q8 3 15 3q8 0 12.5 -3.5t-1.5 -8.5q-11 -10 -13.5 -30.5t5.5 -46.5q9 -35 12 -48.5t4 -25.5q3 -32 -4 -52q0 -2 -0.5 -3.5t-0.5 -2.5l-1 -3q2 0 16.5 12.5t34 30t40.5 37t36 34.5
q20 19 23 14q2 -2 -16 -21.5t-42 -43t-47.5 -45t-33.5 -28.5q-15 -11 -35.5 -14.5t-35.5 1.5q-10 3 -19.5 9.5t-9.5 10.5zM27 268q13 22 24 22t24 -25q9 -15 15 -24q8 -10 -1 -10q-5 0 -11 6t-17 21q-9 14 -12 14q-2 0 -13 -20q-12 -22 -19 -22q-3 0 -5 3q-3 3 15 35z" />
    <glyph glyph-name="Scedilla" unicode="&#x15e;" horiz-adv-x="768" 
d="M157 146q43 26 84 47t76 34.5t62.5 19t43.5 1.5q17 -4 14 -8t-22 -3q-23 2 -67 -15t-93 -43t-95.5 -57.5t-73.5 -59.5q-39 -40 -47.5 -73t9 -57t58 -37t99.5 -13q34 0 73 4.5t84 14.5q81 18 147 49t109.5 68.5t61 79t3.5 80.5q-9 26 -28 48.5t-49.5 44t-75.5 43
t-107 45.5q-130 50 -162.5 91.5t17.5 91.5q41 41 102 62.5t115 21.5q42 0 70.5 -14.5t28.5 -44.5q0 -11 -9.5 -26.5t-24.5 -30.5t-32.5 -27.5t-33.5 -17.5q-14 -4 -17 -1t9 8q16 8 31.5 21t27 28t18 30t3.5 25q-5 19 -24 27.5t-45 8.5q-31 0 -68.5 -10.5t-69.5 -27.5
t-53.5 -40t-21.5 -47q0 -15 7.5 -28t24.5 -26t46 -26t72 -30q71 -27 122.5 -51.5t86 -49.5t54 -51.5t27.5 -56.5q13 -47 -19 -95.5t-93 -90t-144.5 -71.5t-174.5 -40q1 -1 1 -14q-1 -8 0 -10t8 -7q11 -8 14 -18t-1 -18.5t-13.5 -13t-22.5 -0.5q-15 5 -25.5 14.5t-8.5 17.5
q1 5 7 4t8 -6q4 -10 15 -16t16 -1q9 9 8 21.5t-11 12.5q-11 0 -11 18q0 11 1 14q-26 -2 -51 -3t-50 1q-85 4 -129.5 29.5t-47 64.5t36.5 87.5t120 97.5z" />
    </font>
</defs>
</svg>
