<?xml version="1.0" encoding="UTF-8"?><svg id="Calque_2" xmlns="http://www.w3.org/2000/svg" viewBox="0 0 323.44 327.71"><defs><style>.cls-1,.cls-2,.cls-3,.cls-4,.cls-5,.cls-6,.cls-7,.cls-8{fill:none;}.cls-9,.cls-2,.cls-4,.cls-10,.cls-11,.cls-5,.cls-6,.cls-12,.cls-13,.cls-7{stroke:#fff;}.cls-9,.cls-10,.cls-11,.cls-5,.cls-6,.cls-7,.cls-8{stroke-miterlimit:10;}.cls-14,.cls-10,.cls-15,.cls-16{fill:#fff;}.cls-2,.cls-12,.cls-7{stroke-width:.25px;}.cls-3,.cls-4,.cls-15,.cls-8{stroke-width:.5px;}.cls-3,.cls-15{stroke:#000;}.cls-11,.cls-12{fill:#23203b;}.cls-5,.cls-13{stroke-width:4px;}.cls-13{fill:#252542;}.cls-16{font-family:CaviarDreams-Bold, 'Caviar Dreams';font-size:13.58px;}.cls-8{stroke:#252542;}</style></defs><g id="logo"><g><polyline class="cls-6" points="312.84 255 312.84 255.03 312.84 256.78 312.84 265.19 312.84 273.88 312.84 317.1 269.61 317.1 260.92 317.1 252.52 317.1 252.51 317.1 70.93 317.1 62.52 317.1 53.83 317.1 10.6 317.1 10.6 273.88 10.6 265.19 10.6 256.78 10.6 253.43"/><polyline class="cls-6" points="312.84 76.99 312.84 76.96 312.84 75.2 312.84 66.73 312.84 58.04 312.84 14.86 269.62 14.86 260.94 14.86 260.93 14.86 252.52 14.86 252.51 14.86 70.93 14.86"/><polyline class="cls-6" points="62.51 14.86 53.82 14.86 10.6 14.86 10.6 58.04 10.6 66.73 10.6 75.2 10.6 78.55"/><g id="frame"><path id="background" class="cls-1" d="M321.44,58.74v18.98c-3.5,10.76-6.39,21.8-8.6,33.08-3.52,17.85-5.35,36.3-5.35,55.18s1.83,37.33,5.35,55.18c2.21,11.28,5.1,22.32,8.6,33.08v18.92c-.52,0-1.04,.01-1.54,.04-.13,0-.24,0-.37,.01h-.01c-.38,0-.76,.01-1.14,.05-.29,.01-.58,.03-.87,.05h-.09c-.24,.01-.51,.04-.75,.08-.11,.01-.23,.01-.34,.03-.46,.04-.92,.09-1.38,.15-.71,.09-1.42,.19-2.11,.3-22.13,3.64-39.59,21.1-43.23,43.23-.47,2.79-.71,5.67-.71,8.6H54.54c0-2.93-.24-5.8-.71-8.6-3.64-22.13-21.1-39.59-43.23-43.23-.7-.11-1.4-.22-2.11-.3-.58-.08-1.15-.14-1.73-.19-.04,0-.09-.01-.13-.01-.47-.03-.92-.06-1.39-.09-.61-.04-1.23-.06-1.83-.08-.47-.04-.94-.04-1.4-.04v-20.52c3.55-11.12,6.44-22.53,8.6-34.21,3.17-17,4.83-34.53,4.83-52.45s-1.66-35.46-4.83-52.45c-2.16-11.67-5.05-23.09-8.6-34.21v-20.59c.47,0,.92,0,1.38-.04,.48-.01,.96-.03,1.44-.05,.3-.01,.61-.03,.9-.05,.34-.01,.68-.05,1.02-.08,.58-.05,1.16-.11,1.75-.19,.71-.09,1.42-.19,2.11-.3,22.12-3.63,39.57-21.07,43.22-43.17,.48-2.79,.72-5.67,.72-8.6h214.36c0,2.93,.24,5.8,.72,8.6,3.65,22.1,21.1,39.54,43.22,43.17,.7,.11,1.4,.21,2.11,.3,.54,.08,1.1,.14,1.66,.18h.03c.3,.04,.63,.06,.95,.08,.06,0,.11,.01,.18,.01h.05c.05,0,.09,.01,.14,.01,.43,.04,.86,.06,1.3,.08,.1,0,.19,.01,.29,.01,.63,.03,1.26,.04,1.9,.04Z"/><path class="cls-6" d="M321.44,58.74v8.59c-1.75,0-3.46-.08-5.16-.23-1.16-.09-2.3-.21-3.44-.38-26.85-3.78-48.1-25.01-51.91-51.86-.4-2.81-.62-5.68-.62-8.6h8.59c0,2.93,.24,5.8,.72,8.6,3.65,22.1,21.1,39.54,43.22,43.17,.7,.11,1.4,.21,2.11,.3,.54,.08,1.1,.14,1.66,.18h.03c.3,.04,.63,.06,.95,.08,.06,0,.11,.01,.18,.01h.05c.05,0,.09,.01,.14,.01,.43,.04,.86,.06,1.3,.08,.1,0,.19,.01,.29,.01,.63,.03,1.26,.04,1.9,.04Z"/><path class="cls-6" d="M63.13,6.27c0,2.92-.22,5.79-.62,8.6-3.81,26.85-25.06,48.08-51.91,51.86-1.3,.19-2.62,.33-3.95,.43-1.53,.11-3.09,.18-4.65,.18v-8.59c.47,0,.92,0,1.38-.04,.48,.01,.96-.01,1.44-.05,.3,0,.61-.03,.9-.05,.34-.01,.68-.04,1.02-.08,.58-.05,1.16-.11,1.75-.19,.71-.09,1.42-.19,2.11-.3,22.12-3.63,39.57-21.07,43.22-43.17,.48-2.79,.72-5.67,.72-8.6h8.59Z"/><path class="cls-6" d="M321.44,264.58v8.59c-.52,0-1.04,.01-1.54,.04-.13,0-.24,0-.37,.01h-.01c-.38,0-.76,.01-1.14,.05-.29,.01-.58,.03-.87,.05h-.09c-.25,.03-.51,.04-.75,.08-.11,.01-.23,.01-.34,.03-.46,.04-.92,.09-1.38,.15-.71,.09-1.42,.19-2.11,.3-22.13,3.64-39.59,21.1-43.23,43.23-.47,2.79-.71,5.67-.71,8.6h-8.59c0-2.92,.2-5.79,.61-8.6,3.78-26.87,25.05-48.14,51.92-51.92,1.13-.16,2.26-.29,3.41-.38,1.71-.15,3.44-.23,5.18-.23Z"/><path class="cls-6" d="M63.13,325.71h-8.59c0-2.93-.24-5.8-.71-8.6-3.64-22.13-21.1-39.59-43.23-43.23-.7-.11-1.4-.22-2.11-.3-.58-.08-1.15-.14-1.73-.19-.04,0-.09-.01-.13-.01-.46-.04-.92-.08-1.39-.09-.61-.05-1.21-.08-1.83-.08-.47-.04-.94-.04-1.4-.04v-8.59c1.58,0,3.14,.06,4.68,.18,1.33,.1,2.63,.24,3.92,.43,26.87,3.78,48.14,25.05,51.92,51.92,.4,2.81,.61,5.68,.61,8.6Z"/><path class="cls-5" d="M321.44,58.74v18.98c-3.5,10.76-6.39,21.8-8.6,33.08-3.52,17.85-5.35,36.3-5.35,55.18s1.83,37.33,5.35,55.18c2.21,11.28,5.1,22.32,8.6,33.08v18.92c-.52,0-1.04,.01-1.54,.04-.13,0-.24,0-.37,.01h-.01c-.38,0-.76,.01-1.14,.05-.29,.01-.58,.03-.87,.05h-.09c-.24,.01-.51,.04-.75,.08-.11,.01-.23,.01-.34,.03-.46,.04-.92,.09-1.38,.15-.71,.09-1.42,.19-2.11,.3-22.13,3.64-39.59,21.1-43.23,43.23-.47,2.79-.71,5.67-.71,8.6H54.54c0-2.93-.24-5.8-.71-8.6-3.64-22.13-21.1-39.59-43.23-43.23-.7-.11-1.4-.22-2.11-.3-.58-.08-1.15-.14-1.73-.19-.04,0-.09-.01-.13-.01-.47-.03-.92-.06-1.39-.09-.61-.04-1.23-.06-1.83-.08-.47-.04-.94-.04-1.4-.04v-20.52c3.55-11.12,6.44-22.53,8.6-34.21,3.17-17,4.83-34.53,4.83-52.45s-1.66-35.46-4.83-52.45c-2.16-11.67-5.05-23.09-8.6-34.21v-20.59c.47,0,.92,0,1.38-.04,.48-.01,.96-.03,1.44-.05,.3-.01,.61-.03,.9-.05,.34-.01,.68-.05,1.02-.08,.58-.05,1.16-.11,1.75-.19,.71-.09,1.42-.19,2.11-.3,22.12-3.63,39.57-21.07,43.22-43.17,.48-2.79,.72-5.67,.72-8.6h214.36c0,2.93,.24,5.8,.72,8.6,3.65,22.1,21.1,39.54,43.22,43.17,.7,.11,1.4,.21,2.11,.3,.54,.08,1.1,.14,1.66,.18h.03c.3,.04,.63,.06,.95,.08,.06,0,.11,.01,.18,.01h.05c.05,0,.09,.01,.14,.01,.43,.04,.86,.06,1.3,.08,.1,0,.19,.01,.29,.01,.63,.03,1.26,.04,1.9,.04Z"/><path class="cls-6" d="M10.6,253.43v20.45c22.13,3.64,39.59,21.1,43.23,43.23h215.78c3.64-22.13,21.1-39.59,43.23-43.23v-18.85"/><path class="cls-6" d="M312.84,76.95v-18.92c-22.12-3.63-39.57-21.07-43.22-43.17H53.82c-3.65,22.1-21.1,39.54-43.22,43.17v20.51"/><path class="cls-5" d="M71.46,6.27c0,2.91-.18,5.78-.53,8.6-3.88,31.49-28.84,56.45-60.33,60.33-.35,.05-.71,.09-1.06,.13-2.48,.27-4.99,.4-7.54,.4v-16.98c.47,0,.92,0,1.38-.04,.48-.01,.96-.03,1.44-.05,.3,0,.61-.03,.9-.05,.34-.01,.68-.05,1.02-.08,.58-.05,1.16-.11,1.75-.19,.71-.09,1.42-.19,2.11-.3,22.12-3.63,39.57-21.07,43.22-43.17,.48-2.79,.72-5.67,.72-8.6h16.92Z"/><path class="cls-5" d="M321.44,58.74v16.98c-2.72,0-5.4-.15-8.04-.47-.18-.01-.37-.04-.56-.06-31.49-3.88-56.45-28.84-60.33-60.33-.35-2.82-.53-5.69-.53-8.6h16.92c0,2.93,.24,5.8,.72,8.6,3.65,22.1,21.1,39.54,43.22,43.17,.7,.11,1.4,.21,2.11,.3,.54,.08,1.1,.14,1.66,.18h.03c.3,.04,.63,.06,.95,.08,.06,0,.11,.01,.18,.01h.05c.05,0,.09,.01,.14,.01,.43,.04,.86,.06,1.3,.08,.1,0,.19,.01,.29,.01,.63,.03,1.26,.04,1.9,.04Z"/><path class="cls-5" d="M71.46,325.71h-16.92c0-2.93-.24-5.8-.71-8.6-3.64-22.13-21.1-39.59-43.23-43.23-.7-.11-1.4-.22-2.11-.3-.58-.08-1.15-.14-1.73-.19-.04,0-.09-.01-.13-.01-.47-.03-.92-.06-1.39-.09-.61-.04-1.23-.06-1.83-.08-.47-.04-.94-.04-1.4-.04v-16.92c2.54,0,5.06,.14,7.54,.4,.35,.04,.71,.08,1.06,.13,31.49,3.88,56.45,28.84,60.33,60.33,.35,2.82,.53,5.69,.53,8.6Z"/><path class="cls-5" d="M321.44,256.25v16.92c-.52,0-1.04,.01-1.54,.04-.13,0-.24,0-.37,.01h-.01c-.38,0-.76,.01-1.14,.05-.29,.01-.58,.03-.87,.05h-.09c-.24,.01-.51,.04-.75,.08-.11,.01-.23,.01-.34,.03-.46,.04-.92,.09-1.38,.15-.71,.09-1.42,.19-2.11,.3-22.13,3.64-39.59,21.1-43.23,43.23-.47,2.79-.71,5.67-.71,8.6h-16.92c0-2.91,.18-5.78,.53-8.6,3.88-31.49,28.84-56.45,60.33-60.33,.19-.03,.38-.05,.56-.06,2.64-.32,5.32-.47,8.04-.47Z"/><path class="cls-6" d="M313.4,75.26c-.19,.57-.38,1.13-.56,1.69-9.22,28.01-14.2,57.94-14.2,89.03s4.98,61.03,14.2,89.03c.18,.57,.37,1.13,.56,1.69"/><path class="cls-6" d="M305.64,56.96c-.23,.68-.46,1.35-.67,2.04-11.08,33.66-17.07,69.63-17.07,107s5.99,73.34,17.07,107c.21,.68,.44,1.35,.67,2.04"/><path class="cls-6" d="M16.68,275.02c.23-.68,.46-1.35,.67-2.04,11.08-33.66,17.07-69.63,17.07-107s-5.99-73.34-17.07-107c-.21-.68-.44-1.35-.67-2.04"/><path class="cls-6" d="M9.54,75.32c.37,1.07,.72,2.15,1.06,3.22,8.89,27.55,13.68,56.93,13.68,87.44s-4.79,59.89-13.68,87.44c-.34,1.07-.7,2.15-1.06,3.22"/><path class="cls-8" d="M321.44,58.74v18.98c-3.5,10.76-6.39,21.8-8.6,33.08-3.52,17.85-5.35,36.3-5.35,55.18s1.83,37.33,5.35,55.18c2.21,11.28,5.1,22.32,8.6,33.08v18.92c-.52,0-1.04,.01-1.54,.04-.13,0-.24,0-.37,.01h-.01c-.38,0-.76,.01-1.14,.05-.29,.01-.58,.03-.87,.05h-.09c-.24,.01-.51,.04-.75,.08-.11,.01-.23,.01-.34,.03-.46,.04-.92,.09-1.38,.15-.71,.09-1.42,.19-2.11,.3-22.13,3.64-39.59,21.1-43.23,43.23-.47,2.79-.71,5.67-.71,8.6H54.54c0-2.93-.24-5.8-.71-8.6-3.64-22.13-21.1-39.59-43.23-43.23-.7-.11-1.4-.22-2.11-.3-.58-.08-1.15-.14-1.73-.19-.04,0-.09-.01-.13-.01-.47-.03-.92-.06-1.39-.09-.61-.04-1.23-.06-1.83-.08-.47-.04-.94-.04-1.4-.04v-20.52c3.55-11.12,6.44-22.53,8.6-34.21,3.17-17,4.83-34.53,4.83-52.45s-1.66-35.46-4.83-52.45c-2.16-11.67-5.05-23.09-8.6-34.21v-20.59c.47,0,.92,0,1.38-.04,.48-.01,.96-.03,1.44-.05,.3-.01,.61-.03,.9-.05,.34-.01,.68-.05,1.02-.08,.58-.05,1.16-.11,1.75-.19,.71-.09,1.42-.19,2.11-.3,22.12-3.63,39.57-21.07,43.22-43.17,.48-2.79,.72-5.67,.72-8.6h214.36c0,2.93,.24,5.8,.72,8.6,3.65,22.1,21.1,39.54,43.22,43.17,.7,.11,1.4,.21,2.11,.3,.54,.08,1.1,.14,1.66,.18h.03c.3,.04,.63,.06,.95,.08,.06,0,.11,.01,.18,.01h.05c.05,0,.09,.01,.14,.01,.43,.04,.86,.06,1.3,.08,.1,0,.19,.01,.29,.01,.63,.03,1.26,.04,1.9,.04Z"/></g><g id="D"><path class="cls-14" d="M232.12,74.04c-.89,.66-1.93,1.19-3.1,1.59l.38-.95,.78-1.97,.25-.64c-.27,.25-.56,.48-.85,.71-1.15,.85-2.53,1.49-4.13,1.91-1.44,.39-3.07,.59-4.88,.63-2.86,.05-6.03-.16-9.55-.63-1.81-.25-3.69-.56-5.68-.94-2.59-.51-5.29-1.07-8.07-1.72-3.07-.72-6.26-1.52-9.56-2.42-.43-.11-.87-.24-1.3-.35-2.78-.76-5.6-1.53-8.46-2.29-3.01-.81-6.04-1.62-9.12-2.42-1.11-.3-2.24-.59-3.36-.89-2.39-.62-4.78-1.21-7.16-1.77-3.68-.89-7.36-1.68-11.01-2.42-1.07-.21-2.15-.43-3.22-.63-5.44-1.02-10.6-1.67-15.47-1.91-1.48-.08-2.92-.11-4.35-.11h-.23l-.9,.9c-.3,.3-.67,.71-1.13,1.24-.44,.52-.97,1.07-1.57,1.68-.42,.42-.82,.83-1.2,1.25-.32,.33-.63,.66-.92,.99-.67,.75-1.38,1.57-2.12,2.47-.48,.52-.97,1.06-1.48,1.62-1.23,1.37-2.53,2.83-3.89,4.43-.16,.21-.32,.42-.48,.63-.29,.38-.58,.77-.87,1.16-.44,.59-.96,1.19-1.57,1.78-.44,.75-.92,1.43-1.45,2.02-.03,.04-.06,.06-.09,.1-.49,.57-1.02,1.2-1.59,1.91-.8,1.02-1.58,2.09-2.33,3.16-.24,.33-.47,.66-.7,.99-.87,1.26-1.82,2.63-2.88,4.08-.11,.16-.24,.33-.37,.51-1.01,1.45-1.99,2.97-2.93,4.56-.04,.05-.06,.09-.09,.14-.97,1.64-1.97,3.28-3.01,4.92-.01,0-.01,.01-.01,.01l-2.53,5.06-.15,.32c-.61,1.19-1.05,2.16-1.35,2.91-.15,.44-.29,.9-.44,1.34-.05,.16-.1,.33-.16,.51-.09,.32-.19,.67-.29,1.06-.42,1.15-.76,2.49-1.02,4.01-.13,.64-.23,1.33-.32,2.05-.14,1.02-.16,2.04-.08,3.02,.09,1.18,.34,2.34,.75,3.46,.15,.56,.33,1.09,.53,1.61,.61,1.58,1.48,2.98,2.6,4.22,.29,.29,.58,.57,.87,.83,1.48,1.37,2.91,2.35,4.29,2.97,.38,.19,.77,.36,1.15,.52,.46,.28,.92,.54,1.38,.75,3.58,1.8,7.38,2.24,11.42,1.34,1.64-.14,3.29-.82,4.93-2.01,.04-.03,.08-.05,.11-.08,1.02-.63,1.91-1.38,2.64-2.23,.3-.33,.57-.7,.82-1.06,.16-.19,.33-.39,.48-.58,.8-1.04,1.38-2.18,1.75-3.41,0-.01,.01-.03,.01-.04,.46-1.34,.68-2.68,.68-4.03,.04-.34,.06-.67,.09-1,.06-.85,.06-1.67,.01-2.47-.06-.95-.15-1.82-.27-2.6-.01-.14-.04-.28-.06-.42-.15-.75-.3-1.45-.46-2.14-.14-.67-.29-1.23-.44-1.67-.11-.24-.19-.52-.22-.85-.01-.09-.01-.18-.01-.28l-.21-.23h-.46c.15,.15,.23,.3,.23,.46v.05c.01,.29,.09,.56,.23,.85,0,.75,.06,1.34,.21,1.78v2.24c.01,.06,.03,.14,.03,.2,.13,.83,.11,1.75-.03,2.72v1.45c0,.29-.03,.58-.06,.9-.04,.25-.09,.52-.15,.78-.15,.59-.3,1.15-.46,1.68-.15,.52-.37,1.15-.67,1.9-.09,.24-.19,.48-.3,.71-.43,.91-1,1.71-1.71,2.43-.64,.75-1.29,1.37-1.93,1.87-.16,.13-.33,.22-.49,.34,.3-.27,.6-.54,.86-.84,.3-.33,.57-.7,.82-1.06,.16-.19,.33-.39,.48-.58,.8-1.04,1.38-2.18,1.75-3.41,0-.01,.01-.03,.01-.04,.46-1.34,.68-2.68,.68-4.03,.04-.34,.06-.67,.09-1,.06-.85,.06-1.67,.01-2.47-.06-.95-.15-1.82-.27-2.6-.01-.14-.04-.28-.06-.42-.15-.75-.3-1.45-.46-2.14-.14-.67-.29-1.23-.44-1.67-.11-.24-.19-.52-.22-.85-.01-.09-.01-.18-.01-.28l-.21-.23h-.46c.15,.15,.23,.3,.23,.46v.05c.01,.29,.09,.56,.23,.85,0,.75,.06,1.34,.21,1.78v2.24c.01,.06,.03,.14,.03,.2,.13,.83,.11,1.75-.03,2.72v1.45c0,.29-.03,.58-.06,.9-.04,.25-.09,.52-.15,.78-.15,.59-.3,1.15-.46,1.68-.15,.52-.37,1.15-.67,1.9-.09,.24-.19,.48-.3,.71-.43,.91-1,1.71-1.71,2.43-.64,.75-1.29,1.37-1.93,1.87-.37,.29-.73,.54-1.1,.76-.04,.03-.06,.04-.1,.06-1.35,.75-2.77,1.19-4.26,1.34-.39,.1-.78,.18-1.18,.21-1.91,.28-3.86,.03-5.84-.75-1.59-.97-2.75-1.93-3.44-2.91-.48-.59-.9-1.19-1.25-1.76-.54-.86-.95-1.69-1.21-2.5-.15-.59-.23-1.42-.23-2.45,0-.04,0-.09-.01-.11-.01-.1-.05-.18-.1-.23-.08-.08-.11-.19-.11-.34v-.44l.23-.23v-1.34c0-.56,.14-1.39,.39-2.49,.01-.06,.04-.14,.05-.2l.68-2.68c.21-.9,.44-1.62,.67-2.19,.06-.19,.14-.35,.21-.51,.3-1.19,.61-2.09,.9-2.68,.21-.63,.46-1.25,.73-1.88,.13-.27,.25-.54,.39-.81,.44-.9,.82-1.8,1.11-2.68,.29-.53,.58-1.05,.86-1.58,.62-1.11,1.23-2.24,1.83-3.35,.32-.57,.63-1.14,.96-1.71,.62-1.07,1.26-2.15,1.95-3.22,.42-.66,.89-1.26,1.39-1.85,1.09-1.28,2.39-2.38,3.88-3.3,.13-.08,.25-.15,.38-.23,1.1-.66,2.25-1.16,3.45-1.54,1.02-.33,2.1-.57,3.2-.7h.03c.75,0,1.53-.04,2.35-.11,.81-.08,1.67-.11,2.57-.11,2.73,0,5.74,.32,9.03,.92,.85,.15,1.72,.33,2.62,.53,3.47,.78,7.18,1.73,11.12,2.85l-.49,.43-5.8,5.07-1.96,1.71,4-1.71,3.79-1.62-3.3,2.88-1.96,1.71,4-1.71,4.21-1.8,1.45-.62,1.8-.77-3.71,1.92-9.77,5.06-5.21,2.69-4.99,2.38-4.41,2.1c2.4-.58,4.5-.75,6.33-.54l-3.8,1.81c3.34-.8,6.12-.84,8.35-.13,.84,.58,1.5,1.19,1.99,1.84,.67,.9,1.01,1.85,1.01,2.86v34.94l-2.97,2.76-5.44,5.06-5.46,5.07-1.81,1.68c1.08,.19,2.14,.41,3.17,.66l-.65,.6c3.66,.63,7.06,1.66,10.2,3.05,1.92,1.15,3.74,2.51,5.43,4.15,.64,.61,1.28,1.26,1.88,1.95,.83,.92,1.52,1.97,2.06,3.12,.19,.4,.37,.83,.53,1.26,.12,.31,.21,.65,.3,.98-.22-.28-.45-.57-.7-.85-.04-.04-.08-.09-.11-.13-1.04-1.14-2.34-2.06-3.92-2.78v.26c-.75-.58-1.58-1.09-2.53-1.52v38.74c0,1.81-.52,3.34-1.58,4.58-.06,.08-.11,.14-.18,.2-.11,.13-.24,.25-.37,.38-1.43,1.34-3.17,2.01-5.27,2.01-.99,0-1.97,.03-2.96,.06-1.61,.06-3.21,.19-4.82,.37-.68,.06-1.38,.15-2.07,.24-1.66,.1-3.15,.71-4.48,1.81-.72,.59-1.39,1.34-2.02,2.23l-1.82,2.85-3.26,5.07-3.24,5.06-3.26,5.07-.06,.1-3.52,4.97-2.98,4.21c-.18,.29-.33,.58-.43,.86-.38,.91-.42,1.82-.13,2.73,.34,1.09,1.02,1.87,2.06,2.34,.09,.05,.19,.09,.29,.13,.44,.18,.9,.38,1.38,.59,.26,.21,.53,.4,.86,.54,.09,.05,.19,.09,.29,.13,1.11,.46,2.32,1.01,3.63,1.64,0,0,0,0,0,0,1.18,.61,2.28,1.28,3.3,2.02,.99,.71,1.91,1.49,2.74,2.34,.86,.86,1.59,1.77,2.2,2.73,.62,.99,1.13,2.01,1.5,3.1,.23,.63,.35,1.29,.4,1.97,.11,1.57-.2,3.26-.97,5.07-.03,.08-.06,.16-.1,.24l.22-.24,3.39-3.74c.1,1.55-.21,3.22-.97,5.01-.03,.08-.06,.16-.1,.24l.22-.24,4.59-5.07,3.09-3.4h0s.83-.92,.83-.92c.18-.25,.34-.49,.49-.75,.49-.8,.94-1.59,1.32-2.42,.42-.87,.76-1.76,1.04-2.66,.25-.8,.46-1.59,.61-2.42,.16-.86,.27-1.75,.32-2.64,.04-.44,.05-.89,.05-1.34,0-.37-.01-.72-.05-1.07-.06-.94-.24-1.83-.49-2.66-.28-.87-.66-1.67-1.14-2.42-.63-.99-1.45-1.87-2.44-2.66-.52-.42-1.09-.81-1.71-1.16-.3,0-.53-.08-.67-.21-.19-.1-.41-.17-.63-.24-.39-.28-.79-.56-1.22-.81-.3,0-.53-.08-.67-.21-.24-.12-.51-.22-.81-.3,.39,0,.78,0,1.18,.02,2.48,.06,4.94,.23,7.41,.51,1.62,.16,3.22,.39,4.84,.66,2.76,.46,5.51,1.04,8.26,1.76,1.16,.3,2.33,.62,3.49,.97,4.43,1.32,8.62,2.68,12.61,4.1,3.88,1.39,7.56,2.82,11.03,4.3,.58,.25,1.16,.51,1.73,.77,2.78,1.23,5.5,2.54,8.19,3.89,3.08,1.59,6.09,3.25,9.05,4.98,.68,.39,1.35,.78,2.02,1.19,.02-.06,.05-.11,.08-.17,.14,.08,.29,.16,.43,.24,.68,.39,1.35,.78,2.02,1.19,.18-.4,.35-.8,.56-1.19,.61-1.3,1.28-2.55,2.02-3.77,.25-.44,.53-.87,.81-1.3,.53-.82,1.09-1.63,1.67-2.42,.67-.91,1.39-1.78,2.15-2.64,.62-.73,1.29-1.44,1.97-2.12,.09-.1,.19-.19,.29-.29,.89-.91,1.85-1.8,2.88-2.66,.97-.82,2.02-1.63,3.12-2.42,1.29-.91,2.67-1.8,4.13-2.66,.78-.47,1.61-.94,2.44-1.38,.7-.37,1.4-.72,2.15-1.04,1.86-.82,3.87-1.48,6.02-1.99,1.13-.27,2.29-.49,3.5-.67,2.54-.38,5.26-.57,8.16-.57,0-.75-.16-1.39-.47-1.95-.19-.35-.44-.67-.76-.96-.63-.57-1.37-.88-2.21-.92-.1-.12-.2-.23-.32-.34-.58-.52-1.25-.82-2.01-.9-.03-.16-.05-.33-.05-.53V106.03c0-.77,.01-1.54,.06-2.33,.04-.81,.09-1.61,.16-2.42,.09-.89,.2-1.77,.34-2.66,.11-.81,.25-1.61,.42-2.42,.18-.89,.39-1.77,.62-2.64,.2-.81,.42-1.61,.67-2.42,.25-.87,.54-1.73,.86-2.6l.03-.05,.96-2.42,1.05-2.66,.96-2.42,1.05-2.66,.96-2.42,.78-1.97,.25-.64c-.27,.25-.56,.48-.85,.71Zm-43.08,160.18c-.27-.15-.54-.29-.82-.43-1.35-.68-2.72-1.35-4.08-1.99-1.93-.92-3.88-1.8-5.84-2.64-1.97-.83-3.97-1.64-5.98-2.42-.11-.04-.21-.09-.33-.13-2.38-.9-4.72-1.73-7.01-2.53-2.55-.87-5.03-1.67-7.47-2.42-.48-.15-.96-.29-1.43-.43-3.26-.96-6.11-1.69-8.56-2.23-1.3-.28-2.49-.49-3.56-.65l9.19-3.16,14.78-5.07,7.03-2.42s-.04,0-.05-.01c-1.22-.17-2.36-.48-3.43-.93l.95-.33s-.04,0-.05-.01c-1-.14-1.94-.39-2.84-.72-.32-.21-.64-.41-.94-.65-.64-.49-1.25-1.07-1.82-1.72-.2-.23-.39-.46-.57-.7-.64-.83-1.16-1.72-1.57-2.66-.34-.77-.61-1.57-.78-2.42-.18-.85-.28-1.73-.3-2.66-.01-.14-.01-.29-.01-.43V99.99c0-.46,.01-.91,.03-1.35,.05-.83,.13-1.64,.25-2.42,.13-.92,.33-1.81,.58-2.64,.08-.25,.16-.51,.25-.76,.81,.24,1.67,.49,2.6,.76,1.06,.3,2.2,.62,3.41,.95,1.66,.46,3.45,.92,5.41,1.43,3.63,.95,7.36,1.83,11.18,2.68,1.04,.23,2.09,.46,3.15,.68,3.87,.81,7.63,1.47,11.27,1.97,.54,.08,1.09,.15,1.63,.21h.04c.43,.06,.86,.11,1.29,.16,.57,.06,1.13,.12,1.67,.17-.53,.09-1.06,.17-1.62,.25-1.42,.15-2.96,.27-4.63,.35-1.44,.09-2.97,.15-4.6,.18-.24,.01-.48,.03-.73,.03-1.73,.04-3.57-.04-5.5-.2-2.31-.2-4.78-.54-7.38-1.04l1.97,1.04,2.73,1.43c1.81,.91,3.38,2.12,4.67,3.64,.63,.73,1.21,1.53,1.72,2.42,.51,.87,.94,1.76,1.26,2.66,.63,1.63,.99,3.33,1.06,5.07,.03,.27,.03,.52,.03,.78v116.69l1.63,1.74,2.25,2.42,1.11,1.19c-1.21-.78-2.48-1.57-3.83-2.34-1.53-.89-3.15-1.77-4.87-2.66-.27-.15-.54-.29-.82-.43-.53-.27-1.07-.51-1.6-.78-.04-.02-.07-.04-.11-.06ZM101.39,88.51c-.11,.16-.24,.33-.37,.51-.06,.09-.12,.18-.18,.27,.04-.06,.08-.13,.12-.19,.29-.45,.6-.87,.93-1.28-.17,.24-.32,.46-.5,.7Z"/><path class="cls-13" d="M228.21,103.62c0-.77,.01-1.54,.06-2.33,.08-1.68,.24-3.38,.51-5.07,.24-1.68,.59-3.38,1.04-5.06,.42-1.68,.92-3.35,1.53-5.02l.03-.05,2.01-5.07,2.01-5.07,2-5.03c-1.76,1.63-4.16,2.66-7.21,3.06-.19,.03-.39,.05-.59,.06-.66,.08-1.34,.11-2.06,.13-4.32,.08-9.41-.46-15.22-1.57-2.59-.51-5.29-1.07-8.07-1.72-3.48-.81-7.09-1.73-10.86-2.77-2.78-.76-5.6-1.53-8.46-2.29-4.1-1.1-8.26-2.2-12.48-3.3-2.39-.62-4.78-1.21-7.16-1.77-4.77-1.14-9.51-2.15-14.24-3.05-7.09-1.34-13.69-2.02-19.81-2.02h-.23l-.9,.9c-.3,.3-.67,.71-1.13,1.24-.11,.13-.23,.27-.35,.39-.35,.4-.77,.83-1.21,1.29-.42,.42-.82,.83-1.2,1.25-.32,.33-.63,.66-.92,.99-.67,.75-1.38,1.57-2.12,2.47-.48,.52-.97,1.06-1.48,1.62-1.23,1.37-2.53,2.83-3.89,4.43-.16,.21-.32,.42-.48,.63-.29,.38-.58,.77-.87,1.16-.44,.59-.96,1.19-1.57,1.78-.44,.75-.92,1.43-1.45,2.02-.03,.04-.06,.06-.09,.1-.49,.57-1.02,1.2-1.59,1.91-.8,1.02-1.58,2.09-2.33,3.16-.24,.33-.47,.66-.7,.99-.64,.94-1.34,1.93-2.09,2.97-.25,.37-.52,.73-.8,1.11-.11,.16-.24,.33-.37,.51-1.01,1.45-1.99,2.97-2.93,4.56-.04,.05-.06,.09-.09,.14-.97,1.64-1.97,3.28-3.01,4.92-.01,0-.01,.01-.01,.01l-2.53,5.06-.15,.32c-.61,1.19-1.05,2.16-1.35,2.91-.15,.44-.29,.9-.44,1.34-.05,.16-.1,.33-.16,.51-.09,.32-.19,.67-.29,1.06-.42,1.15-.76,2.49-1.02,4.01-.13,.64-.23,1.33-.32,2.05-.14,1.02-.16,2.04-.08,3.02,.09,1.18,.34,2.34,.75,3.46,.15,.56,.33,1.09,.53,1.61,.61,1.58,1.48,2.98,2.6,4.22,.29,.29,.58,.57,.87,.83,1.48,1.37,2.91,2.35,4.29,2.97,.86,.43,1.73,.78,2.62,1.06,2.21,.68,4.51,.89,6.89,.61,.63-.08,1.26-.19,1.91-.33,1.64-.14,3.29-.82,4.93-2.01,1.07-.64,2-1.42,2.76-2.3,.3-.33,.57-.7,.82-1.06,1.04-1.18,1.78-2.52,2.23-4,0-.01,.01-.03,.01-.04,.46-1.34,.68-2.68,.68-4.03,.04-.34,.06-.67,.09-1,.06-.85,.06-1.67,.01-2.47-.06-.95-.15-1.82-.27-2.6-.01-.14-.04-.28-.06-.42-.15-.75-.3-1.45-.46-2.14-.14-.67-.29-1.23-.44-1.67-.11-.24-.19-.52-.22-.85-.01-.09-.01-.18-.01-.28l-.21-.23h-.46c.15,.15,.23,.3,.23,.46v.05c.01,.29,.09,.56,.23,.85,0,.75,.06,1.34,.21,1.78v2.24c.01,.06,.03,.14,.03,.2,.13,.83,.11,1.75-.03,2.72v1.45c0,.29-.03,.58-.06,.9-.04,.25-.09,.52-.15,.78-.15,.59-.3,1.15-.46,1.68-.15,.52-.37,1.15-.67,1.9-.09,.24-.19,.48-.3,.71-.43,.91-1,1.71-1.71,2.43-1.01,1.16-2.04,2.04-3.03,2.63-.04,.03-.06,.04-.1,.06-.51,.28-1.02,.52-1.56,.71-.87,.33-1.77,.54-2.71,.63-.49,.13-1,.21-1.49,.25-2.4,.28-4.87-.28-7.38-1.66-.1-.05-.2-.1-.3-.16-1.8-1.05-3.06-2.09-3.81-3.14-.48-.59-.9-1.19-1.25-1.76-.54-.86-.95-1.69-1.21-2.5-.15-.59-.23-1.42-.23-2.45,0-.04,0-.09-.01-.11-.01-.1-.05-.18-.1-.23-.08-.08-.11-.19-.11-.34v-.44l.23-.23v-1.34c0-.56,.14-1.39,.39-2.49,.01-.06,.04-.14,.05-.2l.68-2.68c.21-.9,.44-1.62,.67-2.19,.06-.19,.14-.35,.21-.51,.3-1.19,.61-2.09,.9-2.68,.21-.63,.46-1.25,.73-1.88,.13-.27,.25-.54,.39-.81,.44-.9,.82-1.8,1.11-2.68,.29-.53,.58-1.05,.86-1.58,.62-1.11,1.23-2.24,1.83-3.35,.32-.57,.63-1.14,.96-1.71,.62-1.07,1.26-2.15,1.95-3.22,.42-.66,.89-1.26,1.39-1.85,1.09-1.28,2.39-2.38,3.88-3.3,.03-.01,.05-.03,.08-.05h.03c1.19-.75,2.43-1.32,3.73-1.72,1.04-.33,2.11-.57,3.22-.7,.75,0,1.53-.04,2.35-.11,.81-.08,1.67-.11,2.57-.11,2.73,0,5.74,.32,9.03,.92,.85,.15,1.72,.33,2.62,.53,4.34,.97,9.04,2.21,14.11,3.71l-.96,.83-5.8,5.07-.71,.62-1.25,1.09,4-1.71,11.89-5.07,10.94-4.68,.94-.39,11.87-5.07,.24-.1-.19,.1-9.8,5.07-19.6,10.14-9.77,5.06-5.21,2.69-4.99,2.38-4.41,2.1c4.32-1.04,7.73-.81,10.19,.68,1.18,.71,2.06,1.47,2.68,2.29,.67,.9,1.01,1.85,1.01,2.86v34.94l-2.97,2.76-5.44,5.06-5.46,5.07-1.81,1.68c3.97,.68,7.64,1.81,10.99,3.39,.3,.13,.59,.27,.89,.42,2.24,1.24,4.34,2.78,6.28,4.65,.64,.61,1.28,1.26,1.88,1.95,.83,.92,1.52,1.97,2.06,3.12,.71,1.49,1.19,3.19,1.44,5.06,.13,.99,.19,2.04,.19,3.14-.3-1.05-.66-2.09-1.05-3.14-.15-.44-.33-.9-.51-1.34-.61-1.2-1.43-2.39-2.47-3.59-.04-.04-.08-.09-.11-.13-1.04-1.14-2.34-2.06-3.92-2.78v38.74c0,1.81-.52,3.34-1.58,4.58-.16,.2-.34,.39-.54,.58-1.43,1.34-3.17,2.01-5.27,2.01-.44,0-.87,0-1.32,.03-2.85,.04-5.7,.27-8.54,.64-1.66,.1-3.15,.71-4.48,1.81-.14,.11-.28,.23-.4,.37-.57,.52-1.11,1.14-1.62,1.86l-1.82,2.85-3.26,5.07-3.24,5.06-3.26,5.07-.06,.1-3.52,4.97-2.98,4.21c-.18,.29-.33,.58-.43,.86-.38,.91-.42,1.82-.13,2.73,.34,1.09,1.02,1.87,2.06,2.34,.09,.05,.19,.09,.29,.13,1.8,.75,3.84,1.71,6.16,2.91,1.18,.61,2.28,1.28,3.3,2.02,.99,.71,1.91,1.49,2.74,2.34,.86,.86,1.59,1.77,2.2,2.73,.62,.99,1.13,2.01,1.5,3.1,.11,.32,.2,.64,.27,.97h0c.08,.33,.11,.66,.14,1,.11,1.57-.2,3.26-.97,5.07-.03,.08-.06,.16-.1,.24l.22-.24,4.59-5.07,3.92-4.32c.18-.25,.34-.49,.49-.75,1.02-1.63,1.81-3.33,2.35-5.07,.52-1.63,.83-3.31,.92-5.06,.04-.44,.05-.89,.05-1.34,0-1.34-.19-2.59-.54-3.73-.53-1.71-1.48-3.17-2.82-4.41-.24-.23-.49-.44-.76-.66-.52-.42-1.09-.81-1.71-1.16-.3,0-.53-.08-.67-.21-1.2-.61-3.17-.68-5.94-.23-1.07,.18-2.14,.53-3.17,1.1-.29,.15-.58,.32-.86,.51-.27,.18-.53,.35-.78,.56-1.06,.78-2.1,1.78-3.12,2.98,0-.3,.21-.82,.67-1.57,.25-.42,.57-.85,.97-1.26,.21-.24,.47-.47,.73-.71,.1-.09,.2-.18,.3-.27,.11-.09,.23-.18,.34-.27,.81-.63,1.71-1.18,2.68-1.64,1.13-.52,2.35-.78,3.71-.78,7.64,0,15.25,.99,22.82,2.96,1.16,.3,2.33,.62,3.49,.97,4.43,1.32,8.62,2.68,12.61,4.1,3.88,1.39,7.56,2.82,11.03,4.3,.58,.25,1.16,.51,1.73,.77,3.59,1.59,7.11,3.29,10.55,5.06,2.33,1.2,4.6,2.44,6.87,3.72,.78,.44,1.57,.9,2.35,1.35,.68,.39,1.35,.78,2.02,1.19,.18-.4,.35-.8,.56-1.19,.82-1.77,1.77-3.45,2.83-5.07,1.14-1.78,2.4-3.46,3.82-5.06,.62-.73,1.29-1.44,1.97-2.12,.97-1.01,2.02-2,3.17-2.95,2.12-1.8,4.54-3.48,7.26-5.07,.78-.47,1.61-.94,2.44-1.38,.39-.22,.8-.42,1.21-.61,3.07-1.48,6.56-2.5,10.46-3.09,.24-.04,.48-.08,.73-.1,2.33-.32,4.81-.47,7.42-.47,0-1.2-.42-2.16-1.23-2.91-.82-.75-1.83-1.05-3.02-.9-.66,0-1.1-.23-1.35-.7-.14-.29-.21-.64-.21-1.1V103.62Zm-19.71,137.09c-1.15-.86-2.38-1.72-3.69-2.57-2.6-1.69-5.54-3.39-8.81-5.07-.23-.14-.48-.25-.72-.38-.04-.01-.06-.04-.1-.05-3.28-1.66-6.58-3.19-9.93-4.63-2.09-.89-4.19-1.73-6.31-2.54-2.38-.9-4.72-1.73-7.01-2.53-3.05-1.04-6.01-1.99-8.9-2.85-3.26-.96-6.11-1.69-8.56-2.23-1.38-.29-2.63-.52-3.76-.68l-3.12,.68-13.01,2.85-.22,.05,8.43-2.9,14.77-5.07,14.78-5.07h.03s7.01-2.42,7.01-2.42c-2.43-.33-4.54-1.2-6.36-2.64-.64-.49-1.25-1.07-1.82-1.72-.91-1.02-1.62-2.15-2.14-3.35-.68-1.54-1.05-3.24-1.09-5.07-.01-.14-.01-.29-.01-.43V97.57c0-.46,.01-.91,.03-1.35,.04-.58,.08-1.14,.15-1.69,.14-1.19,.37-2.31,.68-3.36,.08-.25,.16-.51,.25-.76,.81,.24,1.67,.49,2.6,.76,2.5,.72,5.44,1.5,8.83,2.38,3.63,.95,7.36,1.83,11.18,2.68,1.04,.23,2.09,.46,3.15,.68,4.93,1.04,9.67,1.82,14.23,2.35,4.55,.52,8.32,.48,11.32-.11-2.54,.75-5.46,1.34-8.74,1.8-1.42,.15-2.96,.27-4.63,.35-1.66,.1-3.44,.16-5.34,.2-.28,.01-.57,.01-.86,.01h-.04c-1.45,0-3-.08-4.6-.21-2.31-.2-4.78-.54-7.38-1.04l1.97,1.04,2.73,1.43c.68,.34,1.34,.73,1.96,1.16,1,.71,1.91,1.54,2.71,2.48,.63,.73,1.21,1.53,1.72,2.42,.51,.87,.94,1.76,1.26,2.66,.63,1.63,.99,3.33,1.06,5.07,.03,.27,.03,.52,.03,.78v116.69l3.88,4.16,2.39,2.57Z"/><line class="cls-4" x1="131.22" y1="55.68" x2="130.99" y2="55.68"/><line class="cls-4" x1="165.28" y1="60.75" x2="126.2" y2="60.75"/><line class="cls-4" x1="184.91" y1="65.82" x2="121.67" y2="65.82"/><line class="cls-4" x1="204.23" y1="70.88" x2="117.3" y2="70.88"/><polyline class="cls-4" points="235.39 75.95 181.88 75.95 181.83 75.95 113.32 75.95"/><polyline class="cls-4" points="109.4 81.02 117.02 81.02 134.19 81.02 169.95 81.02"/><line class="cls-4" x1="233.38" y1="81.02" x2="172.08" y2="81.02"/><line class="cls-4" x1="158.08" y1="86.09" x2="149.96" y2="86.09"/><line class="cls-4" x1="231.37" y1="86.09" x2="162.28" y2="86.09"/><line class="cls-4" x1="109.31" y1="86.09" x2="105.82" y2="86.09"/><line class="cls-4" x1="105.97" y1="91.16" x2="102.52" y2="91.16"/><line class="cls-4" x1="146.19" y1="91.16" x2="144.16" y2="91.16"/><polyline class="cls-4" points="152.48 91.16 168.82 91.16 171.67 91.16 229.82 91.16"/><line class="cls-4" x1="228.78" y1="96.22" x2="191.68" y2="96.22"/><line class="cls-4" x1="103.17" y1="96.22" x2="99.42" y2="96.22"/><line class="cls-4" x1="167.98" y1="96.22" x2="142.7" y2="96.22"/><polyline class="cls-4" points="228.27 101.29 207 101.29 196.17 101.29 190.76 101.29"/><line class="cls-4" x1="100.81" y1="101.29" x2="96.88" y2="101.29"/><line class="cls-4" x1="167.96" y1="101.29" x2="132.5" y2="101.29"/><line class="cls-4" x1="228.21" y1="106.36" x2="198.15" y2="106.36"/><line class="cls-4" x1="123.61" y1="106.36" x2="123.15" y2="106.36"/><line class="cls-4" x1="167.96" y1="106.36" x2="140.96" y2="106.36"/><line class="cls-4" x1="98.96" y1="106.36" x2="94.77" y2="106.36"/><line class="cls-4" x1="228.21" y1="111.43" x2="201.14" y2="111.43"/><line class="cls-4" x1="124.79" y1="111.43" x2="123.62" y2="111.43"/><line class="cls-4" x1="97.56" y1="111.43" x2="93.45" y2="111.43"/><line class="cls-4" x1="167.96" y1="111.43" x2="141.97" y2="111.43"/><line class="cls-4" x1="228.21" y1="116.5" x2="202.2" y2="116.5"/><line class="cls-4" x1="125.04" y1="116.5" x2="123.53" y2="116.5"/><line class="cls-4" x1="97.16" y1="116.5" x2="93.06" y2="116.5"/><line class="cls-4" x1="167.96" y1="116.5" x2="141.97" y2="116.5"/><line class="cls-4" x1="228.21" y1="121.57" x2="202.22" y2="121.57"/><line class="cls-4" x1="124.25" y1="121.57" x2="121.95" y2="121.57"/><line class="cls-4" x1="98.61" y1="121.57" x2="94.34" y2="121.57"/><line class="cls-4" x1="167.96" y1="121.57" x2="141.97" y2="121.57"/><line class="cls-4" x1="228.21" y1="126.63" x2="202.22" y2="126.63"/><line class="cls-4" x1="103.97" y1="126.63" x2="97.81" y2="126.63"/><line class="cls-4" x1="121.21" y1="126.63" x2="117.21" y2="126.63"/><line class="cls-4" x1="167.96" y1="126.63" x2="141.97" y2="126.63"/><line class="cls-4" x1="228.21" y1="131.7" x2="202.22" y2="131.7"/><line class="cls-4" x1="167.96" y1="131.7" x2="141.97" y2="131.7"/><line class="cls-4" x1="228.21" y1="136.77" x2="202.22" y2="136.77"/><line class="cls-4" x1="167.96" y1="136.77" x2="141.97" y2="136.77"/><line class="cls-4" x1="228.21" y1="141.84" x2="202.22" y2="141.84"/><line class="cls-4" x1="167.96" y1="141.84" x2="141.97" y2="141.84"/><line class="cls-4" x1="228.21" y1="146.91" x2="202.22" y2="146.91"/><line class="cls-4" x1="167.96" y1="146.91" x2="139" y2="146.91"/><line class="cls-4" x1="228.21" y1="151.97" x2="202.22" y2="151.97"/><line class="cls-4" x1="167.96" y1="151.97" x2="133.56" y2="151.97"/><line class="cls-4" x1="228.21" y1="157.04" x2="202.22" y2="157.04"/><line class="cls-4" x1="167.96" y1="157.04" x2="128.1" y2="157.04"/><line class="cls-4" x1="228.21" y1="162.11" x2="202.22" y2="162.11"/><line class="cls-4" x1="167.96" y1="162.11" x2="137.28" y2="162.11"/><line class="cls-4" x1="228.21" y1="167.18" x2="202.22" y2="167.18"/><line class="cls-4" x1="167.96" y1="167.18" x2="144.45" y2="167.18"/><line class="cls-4" x1="228.21" y1="172.25" x2="202.22" y2="172.25"/><line class="cls-4" x1="145.89" y1="172.25" x2="141.97" y2="172.25"/><line class="cls-4" x1="167.96" y1="172.25" x2="148.39" y2="172.25"/><line class="cls-4" x1="228.21" y1="177.31" x2="202.22" y2="177.31"/><polyline class="cls-4" points="141.97 177.31 148.98 177.31 149.84 177.31 167.96 177.31"/><line class="cls-4" x1="228.21" y1="182.38" x2="202.22" y2="182.38"/><line class="cls-4" x1="167.96" y1="182.38" x2="141.97" y2="182.38"/><line class="cls-4" x1="228.21" y1="187.45" x2="202.22" y2="187.45"/><line class="cls-4" x1="167.96" y1="187.45" x2="141.97" y2="187.45"/><line class="cls-4" x1="228.21" y1="192.52" x2="202.22" y2="192.52"/><line class="cls-4" x1="167.97" y1="192.52" x2="141.97" y2="192.52"/><line class="cls-4" x1="228.21" y1="197.6" x2="202.22" y2="197.6"/><line class="cls-4" x1="169.06" y1="197.6" x2="141.97" y2="197.6"/><line class="cls-4" x1="228.21" y1="202.67" x2="202.22" y2="202.67"/><line class="cls-4" x1="173.01" y1="202.67" x2="141.97" y2="202.67"/><line class="cls-4" x1="228.21" y1="207.72" x2="202.22" y2="207.72"/><line class="cls-4" x1="172.34" y1="207.72" x2="141.97" y2="207.72"/><line class="cls-4" x1="228.21" y1="212.79" x2="202.22" y2="212.79"/><line class="cls-4" x1="157.56" y1="212.79" x2="140.39" y2="212.79"/><line class="cls-4" x1="228.21" y1="217.87" x2="202.22" y2="217.87"/><line class="cls-4" x1="154.46" y1="217.87" x2="147.58" y2="217.87"/><line class="cls-4" x1="142.79" y1="217.87" x2="120.25" y2="217.87"/><line class="cls-4" x1="228.21" y1="222.94" x2="202.22" y2="222.94"/><line class="cls-4" x1="171.93" y1="222.94" x2="116.4" y2="222.94"/><line class="cls-4" x1="228.21" y1="228.01" x2="202.22" y2="228.01"/><line class="cls-4" x1="185.24" y1="228.01" x2="113.14" y2="228.01"/><line class="cls-4" x1="195.99" y1="233.07" x2="109.9" y2="233.07"/><line class="cls-4" x1="228.43" y1="233.07" x2="202.22" y2="233.07"/><polyline class="cls-4" points="106.64 238.14 204.8 238.14 206.11 238.14 225.87 238.14"/><line class="cls-4" x1="211.76" y1="243.21" x2="141.5" y2="243.21"/><polyline class="cls-4" points="125.53 243.21 113.18 243.21 111.65 243.21 103.06 243.21"/><line class="cls-4" x1="204.5" y1="248.28" x2="157.6" y2="248.28"/><line class="cls-4" x1="129.11" y1="248.28" x2="99.65" y2="248.28"/><line class="cls-4" x1="199.35" y1="253.35" x2="170.36" y2="253.35"/><line class="cls-4" x1="129.6" y1="253.35" x2="101.58" y2="253.35"/><line class="cls-4" x1="195.53" y1="258.41" x2="180.9" y2="258.41"/><line class="cls-4" x1="128.68" y1="258.41" x2="111.33" y2="258.41"/><line class="cls-4" x1="192.7" y1="263.48" x2="190.12" y2="263.48"/><line class="cls-4" x1="126.33" y1="263.48" x2="116.27" y2="263.48"/><line class="cls-4" x1="121.91" y1="268.55" x2="118.18" y2="268.55"/><path class="cls-3" d="M228.21,103.62c0-.77,.01-1.54,.06-2.33,.08-1.68,.24-3.38,.51-5.07,.24-1.68,.59-3.38,1.04-5.06,.42-1.68,.92-3.35,1.53-5.02l.03-.05,2.01-5.07,2.01-5.07,2-5.03c-1.76,1.63-4.16,2.66-7.21,3.06-.19,.03-.39,.05-.59,.06-.66,.08-1.34,.11-2.06,.13-4.32,.08-9.41-.46-15.22-1.57-2.59-.51-5.29-1.07-8.07-1.72-3.48-.81-7.09-1.73-10.86-2.77-2.78-.76-5.6-1.53-8.46-2.29-4.1-1.1-8.26-2.2-12.48-3.3-2.39-.62-4.78-1.21-7.16-1.77-4.77-1.14-9.51-2.15-14.24-3.05-7.09-1.34-13.69-2.02-19.81-2.02h-.23l-.9,.9c-.3,.3-.67,.71-1.13,1.24-.11,.13-.23,.27-.35,.39-.35,.4-.77,.83-1.21,1.29-.42,.42-.82,.83-1.2,1.25-.32,.33-.63,.66-.92,.99-.67,.75-1.38,1.57-2.12,2.47-.48,.52-.97,1.06-1.48,1.62-1.23,1.37-2.53,2.83-3.89,4.43-.16,.21-.32,.42-.48,.63-.29,.38-.58,.77-.87,1.16-.44,.59-.96,1.19-1.57,1.78-.44,.75-.92,1.43-1.45,2.02-.03,.04-.06,.06-.09,.1-.49,.57-1.02,1.2-1.59,1.91-.8,1.02-1.58,2.09-2.33,3.16-.24,.33-.47,.66-.7,.99-.64,.94-1.34,1.93-2.09,2.97-.25,.37-.52,.73-.8,1.11-.11,.16-.24,.33-.37,.51-1.01,1.45-1.99,2.97-2.93,4.56-.04,.05-.06,.09-.09,.14-.97,1.64-1.97,3.28-3.01,4.92-.01,0-.01,.01-.01,.01l-2.53,5.06-.15,.32c-.61,1.19-1.05,2.16-1.35,2.91-.15,.44-.29,.9-.44,1.34-.05,.16-.1,.33-.16,.51-.09,.32-.19,.67-.29,1.06-.42,1.15-.76,2.49-1.02,4.01-.13,.64-.23,1.33-.32,2.05-.14,1.02-.16,2.04-.08,3.02,.09,1.18,.34,2.34,.75,3.46,.15,.56,.33,1.09,.53,1.61,.61,1.58,1.48,2.98,2.6,4.22,.29,.29,.58,.57,.87,.83,1.48,1.37,2.91,2.35,4.29,2.97,.86,.43,1.73,.78,2.62,1.06,2.21,.68,4.51,.89,6.89,.61,.63-.08,1.26-.19,1.91-.33,1.64-.14,3.29-.82,4.93-2.01,1.07-.64,2-1.42,2.76-2.3,.3-.33,.57-.7,.82-1.06,1.04-1.18,1.78-2.52,2.23-4,0-.01,.01-.03,.01-.04,.46-1.34,.68-2.68,.68-4.03,.04-.34,.06-.67,.09-1,.06-.85,.06-1.67,.01-2.47-.06-.95-.15-1.82-.27-2.6-.01-.14-.04-.28-.06-.42-.15-.75-.3-1.45-.46-2.14-.14-.67-.29-1.23-.44-1.67-.11-.24-.19-.52-.22-.85-.01-.09-.01-.18-.01-.28l-.21-.23h-.46c.15,.15,.23,.3,.23,.46v.05c.01,.29,.09,.56,.23,.85,0,.75,.06,1.34,.21,1.78v2.24c.01,.06,.03,.14,.03,.2,.13,.83,.11,1.75-.03,2.72v1.45c0,.29-.03,.58-.06,.9-.04,.25-.09,.52-.15,.78-.15,.59-.3,1.15-.46,1.68-.15,.52-.37,1.15-.67,1.9-.09,.24-.19,.48-.3,.71-.43,.91-1,1.71-1.71,2.43-1.01,1.16-2.04,2.04-3.03,2.63-.04,.03-.06,.04-.1,.06-.51,.28-1.02,.52-1.56,.71-.87,.33-1.77,.54-2.71,.63-.49,.13-1,.21-1.49,.25-2.4,.28-4.87-.28-7.38-1.66-.1-.05-.2-.1-.3-.16-1.8-1.05-3.06-2.09-3.81-3.14-.48-.59-.9-1.19-1.25-1.76-.54-.86-.95-1.69-1.21-2.5-.15-.59-.23-1.42-.23-2.45,0-.04,0-.09-.01-.11-.01-.1-.05-.18-.1-.23-.08-.08-.11-.19-.11-.34v-.44l.23-.23v-1.34c0-.56,.14-1.39,.39-2.49,.01-.06,.04-.14,.05-.2l.68-2.68c.21-.9,.44-1.62,.67-2.19,.06-.19,.14-.35,.21-.51,.3-1.19,.61-2.09,.9-2.68,.21-.63,.46-1.25,.73-1.88,.13-.27,.25-.54,.39-.81,.44-.9,.82-1.8,1.11-2.68,.29-.53,.58-1.05,.86-1.58,.62-1.11,1.23-2.24,1.83-3.35,.32-.57,.63-1.14,.96-1.71,.62-1.07,1.26-2.15,1.95-3.22,.42-.66,.89-1.26,1.39-1.85,1.09-1.28,2.39-2.38,3.88-3.3,.03-.01,.05-.03,.08-.05h.03c1.19-.75,2.43-1.32,3.73-1.72,1.04-.33,2.11-.57,3.22-.7,.75,0,1.53-.04,2.35-.11,.81-.08,1.67-.11,2.57-.11,2.73,0,5.74,.32,9.03,.92,.85,.15,1.72,.33,2.62,.53,4.34,.97,9.04,2.21,14.11,3.71l-.96,.83-5.8,5.07-.71,.62-1.25,1.09,4-1.71,11.89-5.07,10.94-4.68,.94-.39,11.87-5.07,.24-.1-.19,.1-9.8,5.07-19.6,10.14-9.77,5.06-5.21,2.69-4.99,2.38-4.41,2.1c4.32-1.04,7.73-.81,10.19,.68,1.18,.71,2.06,1.47,2.68,2.29,.67,.9,1.01,1.85,1.01,2.86v34.94l-2.97,2.76-5.44,5.06-5.46,5.07-1.81,1.68c3.97,.68,7.64,1.81,10.99,3.39,.3,.13,.59,.27,.89,.42,2.24,1.24,4.34,2.78,6.28,4.65,.64,.61,1.28,1.26,1.88,1.95,.83,.92,1.52,1.97,2.06,3.12,.71,1.49,1.19,3.19,1.44,5.06,.13,.99,.19,2.04,.19,3.14-.3-1.05-.66-2.09-1.05-3.14-.15-.44-.33-.9-.51-1.34-.61-1.2-1.43-2.39-2.47-3.59-.04-.04-.08-.09-.11-.13-1.04-1.14-2.34-2.06-3.92-2.78v38.74c0,1.81-.52,3.34-1.58,4.58-.16,.2-.34,.39-.54,.58-1.43,1.34-3.17,2.01-5.27,2.01-.44,0-.87,0-1.32,.03-2.85,.04-5.7,.27-8.54,.64-1.66,.1-3.15,.71-4.48,1.81-.14,.11-.28,.23-.4,.37-.57,.52-1.11,1.14-1.62,1.86l-1.82,2.85-3.26,5.07-3.24,5.06-3.26,5.07-.06,.1-3.52,4.97-2.98,4.21c-.18,.29-.33,.58-.43,.86-.38,.91-.42,1.82-.13,2.73,.34,1.09,1.02,1.87,2.06,2.34,.09,.05,.19,.09,.29,.13,1.8,.75,3.84,1.71,6.16,2.91,1.18,.61,2.28,1.28,3.3,2.02,.99,.71,1.91,1.49,2.74,2.34,.86,.86,1.59,1.77,2.2,2.73,.62,.99,1.13,2.01,1.5,3.1,.11,.32,.2,.64,.27,.97h0c.08,.33,.11,.66,.14,1,.11,1.57-.2,3.26-.97,5.07-.03,.08-.06,.16-.1,.24l.22-.24,4.59-5.07,3.92-4.32c.18-.25,.34-.49,.49-.75,1.02-1.63,1.81-3.33,2.35-5.07,.52-1.63,.83-3.31,.92-5.06,.04-.44,.05-.89,.05-1.34,0-1.34-.19-2.59-.54-3.73-.53-1.71-1.48-3.17-2.82-4.41-.24-.23-.49-.44-.76-.66-.52-.42-1.09-.81-1.71-1.16-.3,0-.53-.08-.67-.21-1.2-.61-3.17-.68-5.94-.23-1.07,.18-2.14,.53-3.17,1.1-.29,.15-.58,.32-.86,.51-.27,.18-.53,.35-.78,.56-1.06,.78-2.1,1.78-3.12,2.98,0-.3,.21-.82,.67-1.57,.25-.42,.57-.85,.97-1.26,.21-.24,.47-.47,.73-.71,.1-.09,.2-.18,.3-.27,.11-.09,.23-.18,.34-.27,.81-.63,1.71-1.18,2.68-1.64,1.13-.52,2.35-.78,3.71-.78,7.64,0,15.25,.99,22.82,2.96,1.16,.3,2.33,.62,3.49,.97,4.43,1.32,8.62,2.68,12.61,4.1,3.88,1.39,7.56,2.82,11.03,4.3,.58,.25,1.16,.51,1.73,.77,3.59,1.59,7.11,3.29,10.55,5.06,2.33,1.2,4.6,2.44,6.87,3.72,.78,.44,1.57,.9,2.35,1.35,.68,.39,1.35,.78,2.02,1.19,.18-.4,.35-.8,.56-1.19,.82-1.77,1.77-3.45,2.83-5.07,1.14-1.78,2.4-3.46,3.82-5.06,.62-.73,1.29-1.44,1.97-2.12,.97-1.01,2.02-2,3.17-2.95,2.12-1.8,4.54-3.48,7.26-5.07,.78-.47,1.61-.94,2.44-1.38,.39-.22,.8-.42,1.21-.61,3.07-1.48,6.56-2.5,10.46-3.09,.24-.04,.48-.08,.73-.1,2.33-.32,4.81-.47,7.42-.47,0-1.2-.42-2.16-1.23-2.91-.82-.75-1.83-1.05-3.02-.9-.66,0-1.1-.23-1.35-.7-.14-.29-.21-.64-.21-1.1V103.62Zm-19.71,137.09c-1.15-.86-2.38-1.72-3.69-2.57-2.6-1.69-5.54-3.39-8.81-5.07-.23-.14-.48-.25-.72-.38-.04-.01-.06-.04-.1-.05-3.28-1.66-6.58-3.19-9.93-4.63-2.09-.89-4.19-1.73-6.31-2.54-2.38-.9-4.72-1.73-7.01-2.53-3.05-1.04-6.01-1.99-8.9-2.85-3.26-.96-6.11-1.69-8.56-2.23-1.38-.29-2.63-.52-3.76-.68l-3.12,.68-13.01,2.85-.22,.05,8.43-2.9,14.77-5.07,14.78-5.07h.03s7.01-2.42,7.01-2.42c-2.43-.33-4.54-1.2-6.36-2.64-.64-.49-1.25-1.07-1.82-1.72-.91-1.02-1.62-2.15-2.14-3.35-.68-1.54-1.05-3.24-1.09-5.07-.01-.14-.01-.29-.01-.43V97.57c0-.46,.01-.91,.03-1.35,.04-.58,.08-1.14,.15-1.69,.14-1.19,.37-2.31,.68-3.36,.08-.25,.16-.51,.25-.76,.81,.24,1.67,.49,2.6,.76,2.5,.72,5.44,1.5,8.83,2.38,3.63,.95,7.36,1.83,11.18,2.68,1.04,.23,2.09,.46,3.15,.68,4.93,1.04,9.67,1.82,14.23,2.35,4.55,.52,8.32,.48,11.32-.11-2.54,.75-5.46,1.34-8.74,1.8-1.42,.15-2.96,.27-4.63,.35-1.66,.1-3.44,.16-5.34,.2-.28,.01-.57,.01-.86,.01h-.04c-1.45,0-3-.08-4.6-.21-2.31-.2-4.78-.54-7.38-1.04l1.97,1.04,2.73,1.43c.68,.34,1.34,.73,1.96,1.16,1,.71,1.91,1.54,2.71,2.48,.63,.73,1.21,1.53,1.72,2.42,.51,.87,.94,1.76,1.26,2.66,.63,1.63,.99,3.33,1.06,5.07,.03,.27,.03,.52,.03,.78v116.69l3.88,4.16,2.39,2.57Z"/></g><g id="stars_less"><path class="cls-14" d="M173,217.53c-.8-.8-1.51-.8-2.31,0,.8-.8,.8-1.51,0-2.31,.8,.8,1.51,.8,2.31,0-.8,.8-.8,1.51,0,2.31Z"/><path class="cls-14" d="M186.07,210.22c-.8-.8-1.51-.8-2.31,0,.8-.8,.8-1.51,0-2.31,.8,.8,1.51,.8,2.31,0-.8,.8-.8,1.51,0,2.31Z"/><path class="cls-14" d="M266.46,213.41c-.93-.93-1.75-.93-2.68,0,.93-.93,.93-1.75,0-2.68,.93,.93,1.75,.93,2.68,0-.93,.93-.93,1.75,0,2.68Z"/><path class="cls-14" d="M94.48,222.4c-1.03-1.03-1.95-1.03-2.98,0,1.03-1.03,1.03-1.95,0-2.98,1.03,1.03,1.95,1.03,2.98,0-1.03,1.03-1.03,1.95,0,2.98Z"/><path class="cls-14" d="M102.52,155.7c-.8-.8-1.51-.8-2.31,0,.8-.8,.8-1.51,0-2.31,.8,.8,1.51,.8,2.31,0-.8,.8-.8,1.51,0,2.31Z"/><path class="cls-14" d="M80.57,223.74c-.93-.93-1.75-.93-2.68,0,.93-.93,.93-1.75,0-2.68,.93,.93,1.75,.93,2.68,0-.93,.93-.93,1.75,0,2.68Z"/><path class="cls-14" d="M125.97,197.77c-.93-.93-1.75-.93-2.68,0,.93-.93,.93-1.75,0-2.68,.93,.93,1.75,.93,2.68,0-.93,.93-.93,1.75,0,2.68Z"/><path class="cls-14" d="M57.43,205.23c-.93-.93-1.75-.93-2.68,0,.93-.93,.93-1.75,0-2.68,.93,.93,1.75,.93,2.68,0-.93,.93-.93,1.75,0,2.68Z"/><path class="cls-14" d="M81.92,197.77c-.93-.93-1.75-.93-2.68,0,.93-.93,.93-1.75,0-2.68,.93,.93,1.75,.93,2.68,0-.93,.93-.93,1.75,0,2.68Z"/><path class="cls-14" d="M115.13,210.22c-.93-.93-1.75-.93-2.68,0,.93-.93,.93-1.75,0-2.68,.93,.93,1.75,.93,2.68,0-.93,.93-.93,1.75,0,2.68Z"/><path class="cls-14" d="M94.34,190.03c-.93-.93-1.75-.93-2.68,0,.93-.93,.93-1.75,0-2.68,.93,.93,1.75,.93,2.68,0-.93,.93-.93,1.75,0,2.68Z"/><path class="cls-14" d="M96.47,206.57c-.93-.93-1.75-.93-2.68,0,.93-.93,.93-1.75,0-2.68,.93,.93,1.75,.93,2.68,0-.93,.93-.93,1.75,0,2.68Z"/><path class="cls-14" d="M109.19,167.96c-.93-.93-1.75-.93-2.68,0,.93-.93,.93-1.75,0-2.68,.93,.93,1.75,.93,2.68,0-.93,.93-.93,1.75,0,2.68Z"/><path class="cls-14" d="M75.94,176.2c-.93-.93-1.75-.93-2.68,0,.93-.93,.93-1.75,0-2.68,.93,.93,1.75,.93,2.68,0-.93,.93-.93,1.75,0,2.68Z"/><path class="cls-14" d="M65.59,185.49c-.93-.93-1.75-.93-2.68,0,.93-.93,.93-1.75,0-2.68,.93,.93,1.75,.93,2.68,0-.93,.93-.93,1.75,0,2.68Z"/><path class="cls-14" d="M52.76,224.48c.93,.93,1.75,.93,2.68,0-.93,.93-.93,1.75,0,2.68-.93-.93-1.75-.93-2.68,0,.93-.93,.93-1.75,0-2.68Z"/><path class="cls-14" d="M67.55,230.73c.93,.93,1.75,.93,2.68,0-.93,.93-.93,1.75,0,2.68-.93-.93-1.75-.93-2.68,0,.93-.93,.93-1.75,0-2.68Z"/><path class="cls-14" d="M45.2,239.38c.93,.93,1.75,.93,2.68,0-.93,.93-.93,1.75,0,2.68-.93-.93-1.75-.93-2.68,0,.93-.93,.93-1.75,0-2.68Z"/><path class="cls-14" d="M66.28,208.88c.93,.93,1.75,.93,2.68,0-.93,.93-.93,1.75,0,2.68-.93-.93-1.75-.93-2.68,0,.93-.93,.93-1.75,0-2.68Z"/><path class="cls-14" d="M79.23,239.6c.93,.93,1.75,.93,2.68,0-.93,.93-.93,1.75,0,2.68-.93-.93-1.75-.93-2.68,0,.93-.93,.93-1.75,0-2.68Z"/><path class="cls-14" d="M78.18,267.67c.93,.93,1.75,.93,2.68,0-.93,.93-.93,1.75,0,2.68-.93-.93-1.75-.93-2.68,0,.93-.93,.93-1.75,0-2.68Z"/><path class="cls-14" d="M58.89,250.61c.93,.93,1.75,.93,2.68,0-.93,.93-.93,1.75,0,2.68-.93-.93-1.75-.93-2.68,0,.93-.93,.93-1.75,0-2.68Z"/><path class="cls-14" d="M69.08,255.34c.93,.93,1.75,.93,2.68,0-.93,.93-.93,1.75,0,2.68-.93-.93-1.75-.93-2.68,0,.93-.93,.93-1.75,0-2.68Z"/><path class="cls-14" d="M82.77,291.22c.93,.93,1.75,.93,2.68,0-.93,.93-.93,1.75,0,2.68-.93-.93-1.75-.93-2.68,0,.93-.93,.93-1.75,0-2.68Z"/><path class="cls-14" d="M97.07,286.61c.93,.93,1.75,.93,2.68,0-.93,.93-.93,1.75,0,2.68-.93-.93-1.75-.93-2.68,0,.93-.93,.93-1.75,0-2.68Z"/><path class="cls-14" d="M86.39,306.1c.93,.93,1.75,.93,2.68,0-.93,.93-.93,1.75,0,2.68-.93-.93-1.75-.93-2.68,0,.93-.93,.93-1.75,0-2.68Z"/><path class="cls-14" d="M62.91,269.9c.93,.93,1.75,.93,2.68,0-.93,.93-.93,1.75,0,2.68-.93-.93-1.75-.93-2.68,0,.93-.93,.93-1.75,0-2.68Z"/><path class="cls-14" d="M71.73,284.82c.93,.93,1.75,.93,2.68,0-.93,.93-.93,1.75,0,2.68-.93-.93-1.75-.93-2.68,0,.93-.93,.93-1.75,0-2.68Z"/><path class="cls-14" d="M110.88,188.69c-.93-.93-1.75-.93-2.68,0,.93-.93,.93-1.75,0-2.68,.93,.93,1.75,.93,2.68,0-.93,.93-.93,1.75,0,2.68Z"/><path class="cls-14" d="M122.07,179.87c-.93-.93-1.75-.93-2.68,0,.93-.93,.93-1.75,0-2.68,.93,.93,1.75,.93,2.68,0-.93,.93-.93,1.75,0,2.68Z"/><path class="cls-14" d="M91.87,172.56c-.93-.93-1.75-.93-2.68,0,.93-.93,.93-1.75,0-2.68,.93,.93,1.75,.93,2.68,0-.93,.93-.93,1.75,0,2.68Z"/><path class="cls-14" d="M72.92,163.13c-.93-.93-1.75-.93-2.68,0,.93-.93,.93-1.75,0-2.68,.93,.93,1.75,.93,2.68,0-.93,.93-.93,1.75,0,2.68Z"/><path class="cls-14" d="M72.57,146.74c-.93-.93-1.75-.93-2.68,0,.93-.93,.93-1.75,0-2.68,.93,.93,1.75,.93,2.68,0-.93,.93-.93,1.75,0,2.68Z"/><path class="cls-14" d="M238.92,191.36c.8,.81,1.51,.81,2.31,0-.8,.81-.8,1.53,0,2.34-.8-.81-1.51-.81-2.31,0,.8-.81,.8-1.53,0-2.34Z"/><path class="cls-14" d="M237.77,217.09c.8,.81,1.51,.81,2.31,0-.8,.81-.8,1.53,0,2.34-.8-.81-1.51-.81-2.31,0,.8-.81,.8-1.53,0-2.34Z"/><path class="cls-14" d="M238.05,151.84c.93,.94,1.75,.94,2.68,0-.93,.94-.93,1.77,0,2.71-.93-.94-1.75-.94-2.68,0,.93-.94,.93-1.77,0-2.71Z"/><path class="cls-14" d="M258.53,164.59c.93,.94,1.75,.94,2.68,0-.93,.94-.93,1.77,0,2.71-.93-.94-1.75-.94-2.68,0,.93-.94,.93-1.77,0-2.71Z"/><path class="cls-14" d="M244.19,173.32c.93,.94,1.75,.94,2.68,0-.93,.94-.93,1.77,0,2.71-.93-.94-1.75-.94-2.68,0,.93-.94,.93-1.77,0-2.71Z"/><path class="cls-14" d="M255.7,181.2c.93,.94,1.75,.94,2.68,0-.93,.94-.93,1.77,0,2.71-.93-.94-1.75-.94-2.68,0,.93-.94,.93-1.77,0-2.71Z"/><path class="cls-14" d="M254.36,199.55c.93,.94,1.75,.94,2.68,0-.93,.94-.93,1.77,0,2.71-.93-.94-1.75-.94-2.68,0,.93-.94,.93-1.77,0-2.71Z"/><path class="cls-14" d="M253.2,128.78c.8,.81,1.51,.81,2.31,0-.8,.81-.8,1.53,0,2.34-.8-.81-1.51-.81-2.31,0,.8-.81,.8-1.53,0-2.34Z"/><path class="cls-14" d="M252.05,142.34c.8,.81,1.51,.81,2.31,0-.8,.81-.8,1.53,0,2.34-.8-.81-1.51-.81-2.31,0,.8-.81,.8-1.53,0-2.34Z"/><path class="cls-14" d="M253.94,225.82c.93,.93,1.75,.93,2.68,0-.93,.93-.93,1.75,0,2.68-.93-.93-1.75-.93-2.68,0,.93-.93,.93-1.75,0-2.68Z"/><path class="cls-14" d="M270.29,237.68c-.8-.81-1.51-.81-2.31,0,.8-.81,.8-1.53,0-2.34,.8,.81,1.51,.81,2.31,0-.8,.81-.8,1.53,0,2.34Z"/><path class="cls-14" d="M273.95,225.82c-.8-.81-1.51-.81-2.31,0,.8-.81,.8-1.53,0-2.34,.8,.81,1.51,.81,2.31,0-.8,.81-.8,1.53,0,2.34Z"/><path class="cls-14" d="M238.55,271.71c-.93-.94-1.75-.94-2.68,0,.93-.94,.93-1.77,0-2.71,.93,.94,1.75,.94,2.68,0-.93,.94-.93,1.77,0,2.71Z"/><path class="cls-14" d="M226.07,258c-.93-.94-1.75-.94-2.68,0,.93-.94,.93-1.77,0-2.71,.93,.94,1.75,.94,2.68,0-.93,.94-.93,1.77,0,2.71Z"/><path class="cls-14" d="M274.13,260.78c-.93-.94-1.75-.94-2.68,0,.93-.94,.93-1.77,0-2.71,.93,.94,1.75,.94,2.68,0-.93,.94-.93,1.77,0,2.71Z"/><path class="cls-14" d="M262.92,272.76c-.93-.94-1.75-.94-2.68,0,.93-.94,.93-1.77,0-2.71,.93,.94,1.75,.94,2.68,0-.93,.94-.93,1.77,0,2.71Z"/><path class="cls-14" d="M279.14,249.48c-.93-.94-1.75-.94-2.68,0,.93-.94,.93-1.77,0-2.71,.93,.94,1.75,.94,2.68,0-.93,.94-.93,1.77,0,2.71Z"/><path class="cls-14" d="M255.44,259.02c-.93-.94-1.75-.94-2.68,0,.93-.94,.93-1.77,0-2.71,.93,.94,1.75,.94,2.68,0-.93,.94-.93,1.77,0,2.71Z"/><path class="cls-14" d="M243.26,253.31c-.93-.94-1.75-.94-2.68,0,.93-.94,.93-1.77,0-2.71,.93,.94,1.75,.94,2.68,0-.93,.94-.93,1.77,0,2.71Z"/><path class="cls-14" d="M259.57,245.84c-.93-.94-1.75-.94-2.68,0,.93-.94,.93-1.77,0-2.71,.93,.94,1.75,.94,2.68,0-.93,.94-.93,1.77,0,2.71Z"/><path class="cls-14" d="M242.22,234.78c-.93-.94-1.75-.94-2.68,0,.93-.94,.93-1.77,0-2.71,.93,.94,1.75,.94,2.68,0-.93,.94-.93,1.77,0,2.71Z"/><path class="cls-14" d="M247.8,292.56c.93,.93,1.75,.93,2.68,0-.93,.93-.93,1.75,0,2.68-.93-.93-1.75-.93-2.68,0,.93-.93,.93-1.75,0-2.68Z"/><path class="cls-14" d="M238.73,303.17c-.8-.81-1.51-.81-2.31,0,.8-.81,.8-1.53,0-2.34,.8,.81,1.51,.81,2.31,0-.8,.81-.8,1.53,0,2.34Z"/><path class="cls-14" d="M238.73,311.69c-.8-.81-1.51-.81-2.31,0,.8-.81,.8-1.53,0-2.34,.8,.81,1.51,.81,2.31,0-.8,.81-.8,1.53,0,2.34Z"/><path class="cls-14" d="M237.58,102.51c.93,.94,1.75,.94,2.68,0-.93,.94-.93,1.77,0,2.71-.93-.94-1.75-.94-2.68,0,.93-.94,.93-1.77,0-2.71Z"/><path class="cls-14" d="M244.19,85.09c.93,.94,1.75,.94,2.68,0-.93,.94-.93,1.77,0,2.71-.93-.94-1.75-.94-2.68,0,.93-.94,.93-1.77,0-2.71Z"/><path class="cls-14" d="M252.57,68.71c.93,.94,1.75,.94,2.68,0-.93,.94-.93,1.77,0,2.71-.93-.94-1.75-.94-2.68,0,.93-.94,.93-1.77,0-2.71Z"/><path class="cls-14" d="M160.31,30.35c1.32,0,1.9-.58,1.9-1.9,0,1.32,.6,1.91,1.92,1.92-1.32,0-1.9,.58-1.9,1.9,0-1.32-.6-1.91-1.92-1.92Z"/><path class="cls-14" d="M249.14,111.7c.93,.94,1.75,.94,2.68,0-.93,.94-.93,1.77,0,2.71-.93-.94-1.75-.94-2.68,0,.93-.94,.93-1.77,0-2.71Z"/><path class="cls-14" d="M271.43,79.45c.93,.94,1.75,.94,2.68,0-.93,.94-.93,1.77,0,2.71-.93-.94-1.75-.94-2.68,0,.93-.94,.93-1.77,0-2.71Z"/><path class="cls-14" d="M260.24,91.46c.93,.94,1.75,.94,2.68,0-.93,.94-.93,1.77,0,2.71-.93-.94-1.75-.94-2.68,0,.93-.94,.93-1.77,0-2.71Z"/><path class="cls-14" d="M275.39,101.45c.93,.94,1.75,.94,2.68,0-.93,.94-.93,1.77,0,2.71-.93-.94-1.75-.94-2.68,0,.93-.94,.93-1.77,0-2.71Z"/><path class="cls-14" d="M262.43,110.35c.93,.94,1.75,.94,2.68,0-.93,.94-.93,1.77,0,2.71-.93-.94-1.75-.94-2.68,0,.93-.94,.93-1.77,0-2.71Z"/><path class="cls-14" d="M268.59,120.6c.93,.94,1.75,.94,2.68,0-.93,.94-.93,1.77,0,2.71-.93-.94-1.75-.94-2.68,0,.93-.94,.93-1.77,0-2.71Z"/><path class="cls-14" d="M188.94,158.71c-.93-.93-1.75-.93-2.68,0,.93-.93,.93-1.75,0-2.68,.93,.93,1.75,.93,2.68,0-.93,.93-.93,1.75,0,2.68Z"/><path class="cls-14" d="M177.68,144.06c.8,.81,1.51,.81,2.31,0-.8,.81-.8,1.53,0,2.34-.8-.81-1.51-.81-2.31,0,.8-.81,.8-1.53,0-2.34Z"/><path class="cls-14" d="M115.79,94.04c.93,.94,1.75,.94,2.68,0-.93,.94-.93,1.77,0,2.71-.93-.94-1.75-.94-2.68,0,.93-.94,.93-1.77,0-2.71Z"/><path class="cls-14" d="M106.98,103.13c.93,.94,1.75,.94,2.68,0-.93,.94-.93,1.77,0,2.71-.93-.94-1.75-.94-2.68,0,.93-.94,.93-1.77,0-2.71Z"/><path class="cls-14" d="M112.45,137.46c.93,.94,1.75,.94,2.68,0-.93,.94-.93,1.77,0,2.71-.93-.94-1.75-.94-2.68,0,.93-.94,.93-1.77,0-2.71Z"/><path class="cls-14" d="M186.25,119.24c.93,.94,1.75,.94,2.68,0-.93,.94-.93,1.77,0,2.71-.93-.94-1.75-.94-2.68,0,.93-.94,.93-1.77,0-2.71Z"/><path class="cls-14" d="M176.5,129.93c.93,.94,1.75,.94,2.68,0-.93,.94-.93,1.77,0,2.71-.93-.94-1.75-.94-2.68,0,.93-.94,.93-1.77,0-2.71Z"/><path class="cls-14" d="M172.41,109.85c.93,.94,1.75,.94,2.68,0-.93,.94-.93,1.77,0,2.71-.93-.94-1.75-.94-2.68,0,.93-.94,.93-1.77,0-2.71Z"/><path class="cls-14" d="M176.23,187.79c.93,.94,1.75,.94,2.68,0-.93,.94-.93,1.77,0,2.71-.93-.94-1.75-.94-2.68,0,.93-.94,.93-1.77,0-2.71Z"/><path class="cls-14" d="M181.23,172.95c.93,.94,1.75,.94,2.68,0-.93,.94-.93,1.77,0,2.71-.93-.94-1.75-.94-2.68,0,.93-.94,.93-1.77,0-2.71Z"/><path class="cls-14" d="M237.58,127.24c.93,.94,1.75,.94,2.68,0-.93,.94-.93,1.77,0,2.71-.93-.94-1.75-.94-2.68,0,.93-.94,.93-1.77,0-2.71Z"/><path class="cls-14" d="M268.96,134.79c.93,.94,1.75,.94,2.68,0-.93,.94-.93,1.77,0,2.71-.93-.94-1.75-.94-2.68,0,.93-.94,.93-1.77,0-2.71Z"/><path class="cls-14" d="M52.33,79.16c-.93-.93-1.75-.93-2.68,0,.93-.93,.93-1.75,0-2.68,.93,.93,1.75,.93,2.68,0-.93,.93-.93,1.75,0,2.68Z"/><path class="cls-14" d="M91.87,80.5c-.93-.93-1.75-.93-2.68,0,.93-.93,.93-1.75,0-2.68,.93,.93,1.75,.93,2.68,0-.93,.93-.93,1.75,0,2.68Z"/><path class="cls-14" d="M70.42,84.23c-.93-.93-1.75-.93-2.68,0,.93-.93,.93-1.75,0-2.68,.93,.93,1.75,.93,2.68,0-.93,.93-.93,1.75,0,2.68Z"/><path class="cls-14" d="M64.63,67.97c-.93-.93-1.75-.93-2.68,0,.93-.93,.93-1.75,0-2.68,.93,.93,1.75,.93,2.68,0-.93,.93-.93,1.75,0,2.68Z"/><path class="cls-14" d="M79.6,95.19c-.8-.8-1.51-.8-2.31,0,.8-.8,.8-1.51,0-2.31,.8,.8,1.51,.8,2.31,0-.8,.8-.8,1.51,0,2.31Z"/><path class="cls-14" d="M67.62,128.58c-.93-.93-1.75-.93-2.68,0,.93-.93,.93-1.75,0-2.68,.93,.93,1.75,.93,2.68,0-.93,.93-.93,1.75,0,2.68Z"/><path class="cls-14" d="M90.53,147.46c-.93-.93-1.75-.93-2.68,0,.93-.93,.93-1.75,0-2.68,.93,.93,1.75,.93,2.68,0-.93,.93-.93,1.75,0,2.68Z"/><path class="cls-14" d="M58.62,140.15c-.93-.93-1.75-.93-2.68,0,.93-.93,.93-1.75,0-2.68,.93,.93,1.75,.93,2.68,0-.93,.93-.93,1.75,0,2.68Z"/><path class="cls-14" d="M52.83,123.9c-.93-.93-1.75-.93-2.68,0,.93-.93,.93-1.75,0-2.68,.93,.93,1.75,.93,2.68,0-.93,.93-.93,1.75,0,2.68Z"/><path class="cls-14" d="M77.1,113.89c-.93-.93-1.75-.93-2.68,0,.93-.93,.93-1.75,0-2.68,.93,.93,1.75,.93,2.68,0-.93,.93-.93,1.75,0,2.68Z"/><path class="cls-14" d="M63.29,106.56c-.93-.93-1.75-.93-2.68,0,.93-.93,.93-1.75,0-2.68,.93,.93,1.75,.93,2.68,0-.93,.93-.93,1.75,0,2.68Z"/><path class="cls-14" d="M48.9,98.09c-.93-.93-1.75-.93-2.68,0,.93-.93,.93-1.75,0-2.68,.93,.93,1.75,.93,2.68,0-.93,.93-.93,1.75,0,2.68Z"/><path class="cls-14" d="M217.02,292.64c-.93-.93-1.75-.93-2.68,0,.93-.93,.93-1.75,0-2.68,.93,.93,1.75,.93,2.68,0-.93,.93-.93,1.75,0,2.68Z"/><path class="cls-14" d="M153.96,291.3c-.93-.93-1.75-.93-2.68,0,.93-.93,.93-1.75,0-2.68,.93,.93,1.75,.93,2.68,0-.93,.93-.93,1.75,0,2.68Z"/><path class="cls-14" d="M214.82,311.87c-.93-.93-1.75-.93-2.68,0,.93-.93,.93-1.75,0-2.68,.93,.93,1.75,.93,2.68,0-.93,.93-.93,1.75,0,2.68Z"/><path class="cls-14" d="M198.17,297.22c-.93-.93-1.75-.93-2.68,0,.93-.93,.93-1.75,0-2.68,.93,.93,1.75,.93,2.68,0-.93,.93-.93,1.75,0,2.68Z"/><path class="cls-14" d="M204.76,271.13c-.93-.93-1.75-.93-2.68,0,.93-.93,.93-1.75,0-2.68,.93,.93,1.75,.93,2.68,0-.93,.93-.93,1.75,0,2.68Z"/><path class="cls-14" d="M180.17,287.85c-.93-.93-1.75-.93-2.68,0,.93-.93,.93-1.75,0-2.68,.93,.93,1.75,.93,2.68,0-.93,.93-.93,1.75,0,2.68Z"/><path class="cls-14" d="M218.36,277.85c-.93-.93-1.75-.93-2.68,0,.93-.93,.93-1.75,0-2.68,.93,.93,1.75,.93,2.68,0-.93,.93-.93,1.75,0,2.68Z"/><path class="cls-14" d="M248.22,286.61c-.93-.93-1.75-.93-2.68,0,.93-.93,.93-1.75,0-2.68,.93,.93,1.75,.93,2.68,0-.93,.93-.93,1.75,0,2.68Z"/><path class="cls-14" d="M177.2,275.55c-.93-.93-1.75-.93-2.68,0,.93-.93,.93-1.75,0-2.68,.93,.93,1.75,.93,2.68,0-.93,.93-.93,1.75,0,2.68Z"/><path class="cls-14" d="M123.47,300.66c.8,.8,1.51,.8,2.31,0-.8,.8-.8,1.51,0,2.31-.8-.8-1.51-.8-2.31,0,.8-.8,.8-1.51,0-2.31Z"/><path class="cls-14" d="M109.3,310.8c.8,.8,1.51,.8,2.31,0-.8,.8-.8,1.51,0,2.31-.8-.8-1.51-.8-2.31,0,.8-.8,.8-1.51,0-2.31Z"/><path class="cls-14" d="M98.49,267.38c.93,.93,1.75,.93,2.68,0-.93,.93-.93,1.75,0,2.68-.93-.93-1.75-.93-2.68,0,.93-.93,.93-1.75,0-2.68Z"/><path class="cls-14" d="M140.92,269.79c.93,.93,1.75,.93,2.68,0-.93,.93-.93,1.75,0,2.68-.93-.93-1.75-.93-2.68,0,.93-.93,.93-1.75,0-2.68Z"/><path class="cls-14" d="M108.56,294.53c.93,.93,1.75,.93,2.68,0-.93,.93-.93,1.75,0,2.68-.93-.93-1.75-.93-2.68,0,.93-.93,.93-1.75,0-2.68Z"/><path class="cls-14" d="M174.89,299.31c.93,.93,1.75,.93,2.68,0-.93,.93-.93,1.75,0,2.68-.93-.93-1.75-.93-2.68,0,.93-.93,.93-1.75,0-2.68Z"/><path class="cls-14" d="M126.04,286.51c.93,.93,1.75,.93,2.68,0-.93,.93-.93,1.75,0,2.68-.93-.93-1.75-.93-2.68,0,.93-.93,.93-1.75,0-2.68Z"/><path class="cls-14" d="M155.82,273.83c.93,.93,1.75,.93,2.68,0-.93,.93-.93,1.75,0,2.68-.93-.93-1.75-.93-2.68,0,.93-.93,.93-1.75,0-2.68Z"/><path class="cls-14" d="M144.26,299.31c.93,.93,1.75,.93,2.68,0-.93,.93-.93,1.75,0,2.68-.93-.93-1.75-.93-2.68,0,.93-.93,.93-1.75,0-2.68Z"/><path class="cls-14" d="M153.79,309.46c.93,.93,1.75,.93,2.68,0-.93,.93-.93,1.75,0,2.68-.93-.93-1.75-.93-2.68,0,.93-.93,.93-1.75,0-2.68Z"/><path class="cls-14" d="M181.94,311.77c.93,.93,1.75,.93,2.68,0-.93,.93-.93,1.75,0,2.68-.93-.93-1.75-.93-2.68,0,.93-.93,.93-1.75,0-2.68Z"/><path class="cls-14" d="M133.49,311.77c.93,.93,1.75,.93,2.68,0-.93,.93-.93,1.75,0,2.68-.93-.93-1.75-.93-2.68,0,.93-.93,.93-1.75,0-2.68Z"/><line class="cls-15" x1="113.85" y1="274.84" x2="113.73" y2="274.84"/></g><g id="arrow_left"><path class="cls-6" d="M32.98,251.95c.15-.54,.3-1.06,.43-1.6,7.19-26.49,11.07-54.8,11.07-84.21s-3.88-57.72-11.07-84.21c-.14-.54-.29-1.06-.43-1.6"/><g><polygon class="cls-10" points="32.19 255.07 31.84 240.94 39.96 243.26 32.19 255.07"/><line class="cls-7" x1="32.51" y1="253.58" x2="36" y2="242.49"/><line class="cls-7" x1="31.78" y1="251.9" x2="34.93" y2="241.43"/><line class="cls-7" x1="31.98" y1="246.64" x2="33.55" y2="241.43"/><line class="cls-7" x1="37.18" y1="247.63" x2="38.75" y2="242.43"/><line class="cls-7" x1="34.53" y1="251.9" x2="37.39" y2="242.38"/></g><g><polygon class="cls-9" points="32.19 77.05 31.84 91.18 39.96 88.86 32.19 77.05"/><line class="cls-7" x1="32.51" y1="78.55" x2="36" y2="89.63"/><line class="cls-7" x1="31.78" y1="80.22" x2="34.93" y2="90.69"/><line class="cls-7" x1="31.98" y1="85.49" x2="33.55" y2="90.69"/><line class="cls-7" x1="37.18" y1="84.49" x2="38.75" y2="89.7"/><line class="cls-7" x1="34.53" y1="80.22" x2="37.39" y2="89.75"/></g></g><g id="arrow_left-2"><path class="cls-6" d="M288.75,80.18c-.15,.54-.3,1.06-.43,1.6-7.19,26.49-11.07,54.8-11.07,84.21s3.88,57.72,11.07,84.21c.14,.54,.29,1.06,.43,1.6"/><g><polygon class="cls-10" points="289.53 77.05 289.89 91.18 281.77 88.86 289.53 77.05"/><line class="cls-7" x1="289.21" y1="78.55" x2="285.73" y2="89.63"/><line class="cls-7" x1="289.94" y1="80.22" x2="286.79" y2="90.69"/><line class="cls-7" x1="289.74" y1="85.49" x2="288.18" y2="90.69"/><line class="cls-7" x1="284.54" y1="84.49" x2="282.97" y2="89.7"/><line class="cls-7" x1="287.2" y1="80.22" x2="284.33" y2="89.75"/></g><g><polygon class="cls-10" points="289.53 255.07 289.89 240.94 281.77 243.26 289.53 255.07"/><line class="cls-7" x1="289.21" y1="253.58" x2="285.73" y2="242.49"/><line class="cls-7" x1="289.94" y1="251.9" x2="286.79" y2="241.43"/><line class="cls-7" x1="289.74" y1="246.64" x2="288.18" y2="241.43"/><line class="cls-7" x1="284.54" y1="247.63" x2="282.97" y2="242.43"/><line class="cls-7" x1="287.2" y1="251.9" x2="284.33" y2="242.38"/></g></g><g id="moon"><path class="cls-11" d="M56.16,166.21c0,15-5.53,28.05-13.68,34.77-8.14-6.73-13.67-19.78-13.67-34.77s5.53-28.03,13.67-34.76c8.16,6.73,13.68,19.78,13.68,34.76Z"/><line class="cls-2" x1="46.55" y1="196.82" x2="38.41" y2="196.82"/><polyline class="cls-2" points="49.96 191.75 49.6 191.75 49.55 191.75 42.49 191.75 35 191.75"/><polyline class="cls-2" points="52.38 186.68 49.6 186.68 49.55 186.68 42.49 186.68 32.59 186.68"/><circle class="cls-12" cx="42.48" cy="189.22" r="2.54"/><polyline class="cls-2" points="54.1 181.61 49.6 181.61 49.55 181.61 42.49 181.61 30.87 181.61"/><circle class="cls-12" cx="42.48" cy="184.15" r="2.54"/><polyline class="cls-2" points="54.2 151.19 49.6 151.19 49.55 151.19 42.49 151.19 30.77 151.19"/><circle class="cls-12" cx="42.48" cy="148.65" r="2.54"/><polyline class="cls-2" points="52.53 146.12 49.6 146.12 49.55 146.12 42.49 146.12 32.44 146.12"/><polyline class="cls-2" points="50.17 141.05 49.6 141.05 49.55 141.05 42.49 141.05 34.8 141.05"/><circle class="cls-12" cx="42.48" cy="143.58" r="2.54"/><line class="cls-2" x1="46.84" y1="135.97" x2="38.11" y2="135.97"/><path class="cls-14" d="M48.89,169.81c-1.12,1.58-2.97,2.61-5.05,2.61-3.42,0-6.2-2.78-6.2-6.2s2.78-6.2,6.2-6.2c2.08,0,3.93,1.03,5.05,2.6-.73-.53-1.64-.84-2.61-.84-2.45,0-4.45,1.99-4.45,4.45s1.99,4.44,4.45,4.44c.98,0,1.88-.31,2.61-.85Z"/></g><circle cx="28.81" cy="35.04" r="4.07"/><circle cx="292.94" cy="34.99" r="4.07"/><circle cx="28.81" cy="297.73" r="4.07"/><circle cx="292.94" cy="297.67" r="4.07"/><g id="sun"><path class="cls-11" d="M292.82,166.13c0,15-5.53,28.05-13.68,34.77-8.14-6.73-13.67-19.78-13.67-34.77s5.53-28.03,13.67-34.76c8.16,6.73,13.68,19.78,13.68,34.76Z"/><line class="cls-2" x1="283.21" y1="196.75" x2="275.06" y2="196.75"/><polyline class="cls-2" points="286.62 191.68 286.25 191.68 286.2 191.68 279.15 191.68 271.66 191.68"/><polyline class="cls-2" points="289.04 186.6 286.25 186.6 286.2 186.6 279.15 186.6 269.25 186.6"/><circle class="cls-12" cx="279.14" cy="189.14" r="2.54"/><polyline class="cls-2" points="290.76 181.53 286.25 181.53 286.2 181.53 279.15 181.53 267.53 181.53"/><circle class="cls-12" cx="279.14" cy="184.07" r="2.54"/><polyline class="cls-2" points="290.86 151.11 286.25 151.11 286.2 151.11 279.15 151.11 267.43 151.11"/><circle class="cls-12" cx="279.14" cy="148.57" r="2.54"/><polyline class="cls-2" points="289.19 146.04 286.25 146.04 286.2 146.04 279.15 146.04 269.09 146.04"/><polyline class="cls-2" points="286.82 140.97 286.25 140.97 286.2 140.97 279.15 140.97 271.46 140.97"/><circle class="cls-12" cx="279.14" cy="143.51" r="2.54"/><line class="cls-2" x1="283.5" y1="135.9" x2="274.77" y2="135.9"/><circle class="cls-14" cx="279.93" cy="166.14" r="3.57"/><path class="cls-14" d="M275.03,166.14c-.37,.25-.79,.39-1.25,.39s-.88-.14-1.25-.39c.37-.25,.79-.39,1.25-.39s.88,.14,1.25,.39Z"/><path class="cls-14" d="M287.32,166.15c-.37,.25-.79,.39-1.25,.39s-.88-.14-1.25-.39c.37-.25,.79-.39,1.25-.39s.88,.14,1.25,.39Z"/><path class="cls-14" d="M279.93,161.24c-.25-.37-.39-.79-.39-1.25s.14-.88,.39-1.25c.25,.37,.39,.79,.39,1.25s-.14,.88-.39,1.25Z"/><path class="cls-14" d="M279.92,173.54c-.25-.37-.39-.79-.39-1.25s.14-.88,.39-1.25c.25,.37,.39,.79,.39,1.25s-.14,.88-.39,1.25Z"/><path class="cls-14" d="M276.47,162.67c-.44-.08-.84-.29-1.16-.61s-.52-.72-.61-1.16c.44,.08,.84,.29,1.16,.61s.52,.72,.61,1.16Z"/><path class="cls-14" d="M285.15,171.38c-.44-.08-.84-.29-1.16-.61s-.52-.72-.61-1.16c.44,.08,.84,.29,1.16,.61s.52,.72,.61,1.16Z"/><path class="cls-14" d="M283.39,162.68c.08-.44,.29-.84,.61-1.16s.72-.52,1.16-.61c-.08,.44-.29,.84-.61,1.16s-.72,.52-1.16,.61Z"/><path class="cls-14" d="M274.69,171.37c.08-.44,.29-.84,.61-1.16s.72-.52,1.16-.61c-.08,.44-.29,.84-.61,1.16s-.72,.52-1.16,.61Z"/></g><text class="cls-16" transform="translate(85.43 61.89) rotate(-36.29)"><tspan x="0" y="0">D</tspan></text><text class="cls-16" transform="translate(98.31 53) rotate(-28.68)"><tspan x="0" y="0">A</tspan></text><text class="cls-16" transform="translate(113.33 45.42) rotate(-21.07)"><tspan x="0" y="0">R</tspan></text><text class="cls-16" transform="translate(127.99 40.37) rotate(-15.36)"><tspan x="0" y="0">I</tspan></text><text class="cls-16" transform="translate(138.98 37.66) rotate(-7.48)"><tspan x="0" y="0">O</tspan></text><text class="cls-16" transform="translate(159.12 35.8) rotate(.22)"><tspan x="0" y="0"> </tspan></text><text class="cls-16" transform="translate(171.53 36.22) rotate(6.59)"><tspan x="0" y="0">L</tspan></text><text class="cls-16" transform="translate(185.35 38.12) rotate(14.54)"><tspan x="0" y="0">O</tspan></text><text class="cls-16" transform="translate(204.67 43.89) rotate(22.85)"><tspan x="0" y="0">P</tspan></text><text class="cls-16" transform="translate(218.58 50.27) rotate(29.99)"><tspan x="0" y="0">E</tspan></text><text class="cls-16" transform="translate(231.54 58.31) rotate(37.06)"><tspan x="0" y="0">S</tspan></text><circle class="cls-14" cx="28.81" cy="35.04" r="4.07"/><circle class="cls-14" cx="292.94" cy="34.99" r="4.07"/><circle class="cls-14" cx="28.81" cy="297.73" r="4.07"/><circle class="cls-14" cx="292.94" cy="297.67" r="4.07"/></g></g></svg>